<svg xmlns="http://www.w3.org/2000/svg" width="86.515" height="66.096" viewBox="0 0 86.515 66.096"><defs><style>.a{fill:#131313;}</style></defs><g transform="translate(0 -35.048)"><g transform="translate(0 35.048)"><g transform="translate(0 0)"><path class="a" d="M37.92,35.049h-.007a3.051,3.051,0,0,0-2.169.9,3.083,3.083,0,0,0-.911,2.2V84.567a3.106,3.106,0,0,0,3.1,3.1c7.206.017,19.279,1.519,27.608,10.235V49.315a2.967,2.967,0,0,0-.426-1.568C58.279,36.739,45.143,35.066,37.92,35.049Z" transform="translate(-24.686 -35.049)"/><path class="a" d="M187.458,84.566V38.144a3.083,3.083,0,0,0-.911-2.2,3.052,3.052,0,0,0-2.169-.9h-.008c-7.222.017-20.358,1.69-27.194,12.7a2.966,2.966,0,0,0-.425,1.568V97.9c8.329-8.716,20.4-10.218,27.608-10.235A3.106,3.106,0,0,0,187.458,84.566Z" transform="translate(-111.09 -35.048)"/><path class="a" d="M204.949,71.8H202.7v38.812a7.92,7.92,0,0,1-7.894,7.9c-6.112.015-16.191,1.21-23.328,7.965,12.344-3.022,25.358-1.058,32.774.632a3.1,3.1,0,0,0,3.788-3.016V74.9A3.1,3.1,0,0,0,204.949,71.8Z" transform="translate(-121.53 -61.095)"/><path class="a" d="M5.34,110.613V71.8H3.1A3.1,3.1,0,0,0,0,74.9v49.2a3.1,3.1,0,0,0,3.788,3.016c7.416-1.69,20.43-3.655,32.774-.632-7.137-6.755-17.216-7.95-23.328-7.965A7.92,7.92,0,0,1,5.34,110.613Z" transform="translate(0 -61.095)"/></g></g></g></svg>