<svg height="481pt" viewBox="-33 0 481 481.01401" width="481pt" xmlns="http://www.w3.org/2000/svg" xmlns:xlink="http://www.w3.org/1999/xlink"><linearGradient id="a"><stop offset="0" stop-color="#006df0"/><stop offset="1" stop-color="#00e7f0"/></linearGradient><linearGradient id="b" gradientUnits="userSpaceOnUse" x1="209.736638" x2="201.648638" xlink:href="#a" y1="491.686013" y2="-7.113987"/><linearGradient id="c" gradientUnits="userSpaceOnUse" x1="211.168638" x2="203.072638" xlink:href="#a" y1="491.662013" y2="-7.137987"/><path d="m208.007812 425.015625c-22.089843 0-40-17.910156-40-40 0-22.09375 17.910157-40 40-40 22.09375 0 40 17.90625 40 40-.027343 22.078125-17.917968 39.972656-40 40zm0-64c-13.253906 0-24 10.742187-24 24 0 13.253906 10.746094 24 24 24 13.253907 0 24-10.746094 24-24 0-13.257813-10.746093-24-24-24zm0 0" fill="url(#b)"/><path d="m414.410156 292.15625c-1.523437-1.992188-3.894531-3.15625-6.402344-3.140625h-60.375c-16.566406-20.3125-41.414062-32.070313-67.625-32h-24v-30.480469c24.851563-16.21875 39.882813-43.847656 40-73.519531v-12.800781c9.601563-3.367188 16.019532-12.4375 16-22.609375v-36.96875l8-2.542969v88.703125l-22.855468 38.097656c-1.484375 2.46875-1.523438 5.550781-.105469 8.058594s4.078125 4.058594 6.960937 4.0625h48c2.882813-.003906 5.542969-1.554687 6.960938-4.0625 1.421875-2.507813 1.378906-5.589844-.105469-8.058594l-22.855469-38.097656v-93.78125l26.402344-8.378906c3.285156-1.066407 5.511719-4.125 5.523438-7.582031.011718-3.457032-2.199219-6.527344-5.476563-7.617188l-151.640625-49.046875c-1.597656-.519531-3.316406-.519531-4.910156 0l-152.34375 49.007813c-3.285156 1.078124-5.503906 4.144531-5.503906 7.597656 0 3.457031 2.21875 6.523437 5.503906 7.601562l50.398438 15.921875v37.054688c-.035157 10.199219 6.414062 19.292969 16.046874 22.640625v12.800781c.113282 29.675781 15.144532 57.308594 40 73.527344v30.472656h-24c-23.347656-.058594-45.75 9.226563-62.214843 25.78125-1.921875 1.921875-3.609375 4.097656-5.34375 6.21875h-60.441407c-2.492187-.003906-4.84375 1.160156-6.359374 3.140625-1.511719 1.980469-2.015626 4.554688-1.359376 6.960938l48 176c.949219 3.480468 4.109376 5.898437 7.71875 5.898437h304c3.609376 0 6.773438-2.417969 7.722657-5.898437l48-176c.664062-2.398438.175781-4.972657-1.320313-6.960938zm-76.53125-91.140625h-19.742187l9.871093-16.457031zm-57.871094 72c16.457032-.050781 32.425782 5.601563 45.183594 16h-94.398437l20-16zm-72 13.757813-32-25.597657v-26.289062c20.550782 8.167969 43.449219 8.167969 64 0v26.289062zm.335938-270.398438 125.433594 40.566406-125.433594 39.800782-126-39.800782zm-82.878906 108.800781c-3.265625-1.097656-5.460938-4.160156-5.457032-7.601562v-32l85.9375 27.144531c1.5625.496094 3.238282.496094 4.800782 0l85.261718-27.007812v31.863281c.003907 3.457031-2.210937 6.527343-5.496093 7.609375l-9.117188 3.039062c-47.644531 15.832032-99.132812 15.832032-146.777343 0zm10.542968 27.839844v-7.753906c23.335938 7.136719 47.597657 10.785156 72 10.832031 24.402344-.046875 48.664063-3.695312 72-10.832031v7.753906c-.058593 25.707031-13.765624 49.445313-36 62.351563-22.339843 12.617187-49.65625 12.617187-72 0-22.230468-12.90625-35.9375-36.648438-36-62.351563zm0 120h29.191407l20 16h-94.398438c12.777344-10.382813 28.746094-16.035156 45.207031-16zm217.890626 192h-291.777344l-43.640625-160h379.054687zm0 0" fill="url(#c)"/></svg>