<?xml version="1.0" encoding="iso-8859-1"?>
<!-- Generator: Adobe Illustrator 19.0.0, SVG Export Plug-In . SVG Version: 6.00 Build 0)  -->
<svg version="1.1" id="Capa_1" xmlns="https://www.w3.org/2000/svg" xmlns:xlink="https://www.w3.org/1999/xlink" x="0px" y="0px"
	 viewBox="0 0 480.295 480.295" style="enable-background:new 0 0 480.295 480.295;" xml:space="preserve">
<g>
	
		<linearGradient id="SVGID_1_" gradientUnits="userSpaceOnUse" x1="-26.7277" y1="559.913" x2="-26.7277" y2="618.625" gradientTransform="matrix(8 0 0 -8 453.9687 4941)">
		<stop  offset="0" style="stop-color:#006DF0"/>
		<stop  offset="1" style="stop-color:#00E7F0"/>
	</linearGradient>
	<path style="fill:url(#SVGID_1_);" d="M445.803,81.88l-46.8-78c-1.446-2.407-4.048-3.879-6.856-3.88h-0.048
		c-0.088,0-0.168,0-0.256,0s-0.168,0-0.256,0H88.707c-0.088,0-0.168,0-0.256,0s-0.168,0-0.256,0h-0.048
		c-2.808,0.001-5.41,1.473-6.856,3.88l-46.8,78c-1.498,2.492-1.526,5.601-0.072,8.12l112.448,194.8
		c-41.692,51.517-33.728,127.078,17.789,168.771s127.078,33.728,168.771-17.789c35.627-44.022,35.627-106.959,0-150.981L445.875,90
		C447.329,87.481,447.301,84.372,445.803,81.88L445.803,81.88z M248.147,240.464c-5.327-0.364-10.673-0.364-16,0L148.795,96h182.704
		L248.147,240.464z M377.747,16l-36.984,64h-201.2l-37.016-64H377.747z M88.091,23.696l126.864,218.992
		c-3.016,0.64-5.976,1.432-8.912,2.304c-0.8,0.248-1.656,0.536-2.488,0.8c-2.4,0.8-4.704,1.6-7.016,2.488
		c-0.912,0.352-1.824,0.712-2.728,1.088c-2.667,1.115-5.28,2.32-7.84,3.616c-0.352,0.176-0.72,0.328-1.072,0.512
		c-2.904,1.512-5.728,3.2-8.504,4.912c-0.728,0.456-1.432,0.944-2.152,1.416c-2.107,1.387-4.165,2.84-6.176,4.36
		c-0.752,0.56-1.496,1.12-2.232,1.696c-2.488,1.976-4.936,4-7.28,6.2l-0.264,0.232l-0.088,0.08L50.635,86.08L88.091,23.696z
		 M240.147,464c-57.438-0.044-103.965-46.641-103.921-104.079c0.019-25.471,9.385-50.049,26.321-69.073
		c2.133-2.4,4.373-4.688,6.72-6.864c2.571-2.387,5.262-4.641,8.064-6.752c12.339-9.416,26.639-15.935,41.84-19.072
		c3.104-0.64,6.243-1.136,9.416-1.488h0.048c7.686-0.891,15.45-0.891,23.136,0c25.462,2.839,48.969,15.015,65.976,34.176
		c38.192,42.901,34.374,108.639-8.527,146.831C290.196,454.615,265.618,463.981,240.147,464L240.147,464z M322.091,272.392
		l-0.048-0.048l-0.536-0.464c-2.256-2.088-4.608-4.064-7-5.96c-0.8-0.616-1.6-1.2-2.344-1.792c-1.973-1.477-3.984-2.893-6.032-4.248
		c-0.76-0.504-1.504-1.016-2.272-1.504c-2.752-1.728-5.552-3.36-8.432-4.864c-0.408-0.208-0.8-0.384-1.248-0.592
		c-2.504-1.272-5.048-2.4-7.64-3.528c-0.936-0.392-1.888-0.8-2.848-1.136c-2.248-0.88-4.536-1.688-6.84-2.4
		c-0.872-0.288-1.736-0.592-2.624-0.848c-2.928-0.872-5.888-1.656-8.888-2.296L352.283,92l0.048-0.08l39.904-68.224l37.424,62.4
		L322.091,272.392z"/>
	
		<linearGradient id="SVGID_2_" gradientUnits="userSpaceOnUse" x1="-26.7427" y1="559.913" x2="-26.7427" y2="618.625" gradientTransform="matrix(8 0 0 -8 453.9687 4941)">
		<stop  offset="0" style="stop-color:#006DF0"/>
		<stop  offset="1" style="stop-color:#00E7F0"/>
	</linearGradient>
	<path style="fill:url(#SVGID_2_);" d="M248.827,280.496c-5.846-0.693-11.754-0.693-17.6,0
		c-43.884,4.86-75.518,44.375-70.658,88.258s44.375,75.518,88.258,70.658s75.518-44.375,70.658-88.258
		C315.367,313.97,286.012,284.614,248.827,280.496z M240.147,424c-35.346-0.156-63.873-28.936-63.717-64.282
		c0.143-32.368,24.431-59.534,56.581-63.286c2.368-0.287,4.751-0.431,7.136-0.432c2.299,0.001,4.596,0.132,6.88,0.392
		c35.13,3.905,60.443,35.548,56.538,70.678C299.971,399.409,272.685,423.903,240.147,424z"/>
	
		<linearGradient id="SVGID_3_" gradientUnits="userSpaceOnUse" x1="-26.7277" y1="559.913" x2="-26.7277" y2="618.625" gradientTransform="matrix(8 0 0 -8 453.9687 4941)">
		<stop  offset="0" style="stop-color:#006DF0"/>
		<stop  offset="1" style="stop-color:#00E7F0"/>
	</linearGradient>
	<path style="fill:url(#SVGID_3_);" d="M256.147,384h-8v-56c-0.001-4.418-3.583-7.999-8.002-7.998c-2.121,0-4.155,0.843-5.654,2.342
		l-16,16c-3.07,3.178-2.982,8.242,0.196,11.312c3.1,2.994,8.015,2.994,11.116,0l2.344-2.344V384h-8c-4.418,0-8,3.582-8,8
		s3.582,8,8,8h32c4.418,0,8-3.582,8-8S260.566,384,256.147,384z"/>
</g>
<g>
</g>
<g>
</g>
<g>
</g>
<g>
</g>
<g>
</g>
<g>
</g>
<g>
</g>
<g>
</g>
<g>
</g>
<g>
</g>
<g>
</g>
<g>
</g>
<g>
</g>
<g>
</g>
<g>
</g>
</svg>
