<?xml version="1.0"?>
<svg xmlns="https://www.w3.org/2000/svg" xmlns:xlink="https://www.w3.org/1999/xlink" viewBox="0 0 64 64" width="512" height="512"><linearGradient id="a" gradientUnits="userSpaceOnUse" x1="32" x2="32" y1="62" y2="1.745"><stop offset="0" stop-color="#006df0"/><stop offset="1" stop-color="#00e7f0"/></linearGradient><linearGradient id="b" x1="39" x2="39" xlink:href="#a" y1="62" y2="1.745"/><linearGradient id="c" x1="21.415" x2="21.415" xlink:href="#a" y1="62" y2="1.745"/><linearGradient id="d" x1="41" x2="41" xlink:href="#a" y1="62" y2="1.745"/><path d="m55 2h-46a1 1 0 0 0 -1 1v58a1 1 0 0 0 1 1h46a1 1 0 0 0 1-1v-58a1 1 0 0 0 -1-1zm-1 58h-44v-56h44z" fill="url(#a)"/><path d="m31 16h16a1 1 0 0 0 0-2h-16a1 1 0 0 0 0 2z" fill="url(#b)"/><path d="m19.293 17.707a1 1 0 0 0 1.414 0l5.657-5.657a1 1 0 0 0 -1.414-1.414l-4.95 4.95-2.121-2.121a1 1 0 0 0 -1.414 1.414z" fill="url(#c)"/><path d="m31 25h16a1 1 0 0 0 0-2h-16a1 1 0 0 0 0 2z" fill="url(#b)"/><path d="m19.293 27.707a1 1 0 0 0 1.414 0l5.657-5.657a1 1 0 0 0 -1.414-1.414l-4.95 4.95-2.121-2.121a1 1 0 0 0 -1.414 1.414z" fill="url(#c)"/><path d="m31 35h16a1 1 0 0 0 0-2h-16a1 1 0 0 0 0 2z" fill="url(#b)"/><path d="m19.293 37.707a1 1 0 0 0 1.414 0l5.657-5.657a1 1 0 1 0 -1.414-1.414l-4.95 4.95-2.121-2.121a1 1 0 1 0 -1.414 1.414z" fill="url(#c)"/><path d="m47 53h-12a1 1 0 0 0 0 2h12a1 1 0 0 0 0-2z" fill="url(#d)"/></svg>
