<svg xmlns="https://www.w3.org/2000/svg" width="20.667" height="20.667" viewBox="0 0 20.667 20.667">
  <g id="xml" transform="translate(0 0)">
    <path id="Path_380" data-name="Path 380" d="M23.283,3H16V5.372h2.409V6.986H16V8.564h2.385v1.59H16v1.59h2.385v1.59H16v1.59h2.385v1.59H16V18.9h7.283a.681.681,0,0,0,.666-.692V3.692A.681.681,0,0,0,23.283,3Zm-.924,13.513H19.179v-1.59h3.179Zm0-3.179H19.179v-1.59h3.179Zm0-3.179H19.179V8.564h3.179Zm0-3.179H19.179V5.385h3.179Z" transform="translate(-3.282 -0.615)" fill="#0c8cee"/>
    <path id="Path_381" data-name="Path 381" d="M0,2.3V18.371l11.923,2.3V0ZM7.542,14.371,6.155,11.749a2.326,2.326,0,0,1-.163-.539H5.97a4.081,4.081,0,0,1-.186.562l-1.392,2.6H2.231L4.8,10.346,2.45,6.32H4.656L5.807,8.734a4.217,4.217,0,0,1,.242.679h.022q.068-.236.253-.7L7.6,6.319H9.624L7.21,10.311l2.482,4.059Z" fill="#0c8cee"/>
  </g>
</svg>
