<?xml version="1.0" encoding="iso-8859-1"?>
<!-- Generator: Adobe Illustrator 19.0.0, SVG Export Plug-In . SVG Version: 6.00 Build 0)  -->
<svg version="1.1" id="Capa_1" xmlns="http://www.w3.org/2000/svg" xmlns:xlink="http://www.w3.org/1999/xlink" x="0px" y="0px"
	 viewBox="0 0 511.943 511.943" style="enable-background:new 0 0 511.943 511.943;" xml:space="preserve">
<g>
	<g transform="translate(1 1)">
		<path style="fill:#E3E7F2;" d="M477.939,393.25l-26.004,15.023h-0.269l-165.187,94.99l-1.482,0.876
			c-0.308-0.027-0.606-0.119-0.876-0.269L34.52,359.768c-1.507-0.964-2.46-2.593-2.56-4.379v-24.32
			c-0.094-0.69,0.257-1.365,0.876-1.684v-0.067l165.726-95.596V31.279c-0.262-3.286,0.947-6.518,3.301-8.825l2.021-1.213
			l23.983-13.811l1.751-1.078l0.202-0.135h0.067c3.268-1.021,6.824-0.474,9.634,1.482l223.461,129.011
			c8.781,5.746,14.308,15.324,14.888,25.802v202.779L477.939,393.25z"/>
		<path style="fill:#A4C2F7;" d="M286.68,478.067v24.32c0.005,0.304-0.064,0.605-0.202,0.876l-1.482,0.876
			c-0.308-0.027-0.606-0.119-0.876-0.269L34.52,359.768c-1.507-0.964-2.46-2.593-2.56-4.379v-24.32
			c-0.094-0.69,0.257-1.365,0.876-1.684c0.559-0.226,1.195-0.15,1.684,0.202l103.276,59.621c0.911,3.532,3.094,6.603,6.131,8.623
			l35.166,20.278c2.829,1.617,5.255,0.876,6.198-1.482l98.829,57.061c0.806,0.483,1.46,1.184,1.886,2.021
			C286.415,476.43,286.646,477.239,286.68,478.067z"/>
		<path style="fill:#7FACFA;" d="M477.939,393.25l-26.004,15.023h-0.269l-165.187,94.99c0.138-0.271,0.207-0.572,0.202-0.876v-24.32
			c-0.034-0.828-0.265-1.637-0.674-2.358l165.928-95.394V177.536c-0.605-10.47-6.158-20.026-14.956-25.735L213.518,22.724
			c-2.824-1.921-6.363-2.465-9.634-1.482l23.983-13.811l1.751-1.078l0.202-0.135h0.067c3.268-1.021,6.824-0.474,9.634,1.482
			l223.461,129.011c8.781,5.746,14.308,15.324,14.888,25.802v202.779L477.939,393.25z"/>
		
			<linearGradient id="SVGID_1_" gradientUnits="userSpaceOnUse" x1="-49.7649" y1="651.5815" x2="-48.904" y2="650.5246" gradientTransform="matrix(252.8876 0 0 -356.7697 12801.2939 232473.2031)">
			<stop  offset="0" style="stop-color:#D4E1F4"/>
			<stop  offset="0.1717" style="stop-color:#D4E1F4"/>
			<stop  offset="0.2" style="stop-color:#D4E1F4"/>
			<stop  offset="0.2001" style="stop-color:#DAE4F4"/>
			<stop  offset="0.2007" style="stop-color:#EBEBF4"/>
			<stop  offset="0.2014" style="stop-color:#F6F1F4"/>
			<stop  offset="0.2023" style="stop-color:#FDF4F4"/>
			<stop  offset="0.205" style="stop-color:#FFF5F4"/>
			<stop  offset="0.2522" style="stop-color:#FFF5F4"/>
			<stop  offset="0.26" style="stop-color:#FFF5F4"/>
			<stop  offset="0.26" style="stop-color:#D4E1F4"/>
			<stop  offset="0.3974" style="stop-color:#D4E1F4"/>
			<stop  offset="0.42" style="stop-color:#D4E1F4"/>
			<stop  offset="0.4201" style="stop-color:#DAE4F4"/>
			<stop  offset="0.4207" style="stop-color:#EBEBF4"/>
			<stop  offset="0.4214" style="stop-color:#F6F1F4"/>
			<stop  offset="0.4223" style="stop-color:#FDF4F4"/>
			<stop  offset="0.425" style="stop-color:#FFF5F4"/>
			<stop  offset="0.4894" style="stop-color:#FFF5F4"/>
			<stop  offset="0.5" style="stop-color:#FFF5F4"/>
			<stop  offset="0.5" style="stop-color:#F9F2F4"/>
			<stop  offset="0.5001" style="stop-color:#E8EBF4"/>
			<stop  offset="0.5003" style="stop-color:#DDE5F4"/>
			<stop  offset="0.5005" style="stop-color:#D6E2F4"/>
			<stop  offset="0.501" style="stop-color:#D4E1F4"/>
			<stop  offset="0.7062" style="stop-color:#D4E1F4"/>
			<stop  offset="0.74" style="stop-color:#D4E1F4"/>
			<stop  offset="0.741" style="stop-color:#FFF5F4"/>
			<stop  offset="0.8346" style="stop-color:#FFF5F4"/>
			<stop  offset="0.85" style="stop-color:#FFF5F4"/>
			<stop  offset="0.851" style="stop-color:#D4E1F4"/>
		</linearGradient>
		<polygon style="fill:url(#SVGID_1_);" points="451.674,375.593 198.787,229.585 198.787,18.823 451.674,164.831 		"/>
		<path style="fill:#E3E7F2;" d="M451.934,380.315l-165.928,95.394c-0.426-0.837-1.08-1.538-1.886-2.021l-98.83-57.061
			c-0.943,2.358-3.368,3.099-6.198,1.482l-35.166-20.278c-3.037-2.02-5.22-5.091-6.131-8.623L34.52,329.587
			c-0.489-0.352-1.125-0.428-1.684-0.202v-0.067l165.726-95.596v0.269L451.934,380.315z"/>
		<g>
			<polygon style="fill:#A4C2F7;" points="135.258,305.536 334.062,420.932 402.145,380.079 203.341,264.684 			"/>
			<polygon style="fill:#A4C2F7;" points="142.622,364.464 227.014,413.447 255.915,396.106 171.523,347.116 			"/>
		</g>
		<path style="fill:#FFFFFF;" d="M52.206,368.863v-24.32c-0.094-0.69,0.257-1.365,0.876-1.684v-0.067l165.726-95.596V44.753
			c-0.004-0.951,0.07-1.901,0.222-2.84V32.3l4.651,2.685l0.449-0.269l23.983-13.811l1.751-1.078l0.202-0.135h0.067
			c3.268-1.021,6.824-0.474,9.634,1.482l209.662,121.044c-1.845-2.165-4.021-4.024-6.448-5.507L239.522,7.701
			c-2.81-1.956-6.366-2.503-9.634-1.482h-0.067l-0.202,0.135l-1.751,1.078l-23.983,13.811l-0.449,0.269l-4.651-2.685v9.614
			c-0.152,0.939-0.226,1.889-0.222,2.84v202.442L32.835,329.317v0.067c-0.619,0.32-0.97,0.994-0.876,1.684v24.32
			c0.1,1.786,1.053,3.415,2.56,4.379l17.884,10.325C52.278,369.694,52.212,369.28,52.206,368.863z"/>
	</g>
	<g>
		<polygon style="fill:#FFFFFF;" points="206.281,32.259 206.281,119.838 206.281,235.011 192.807,235.011 192.807,119.838 
			192.807,32.259 		"/>
		<g>
			<path style="fill:#428DFF;" d="M199.545,65.943c3.716-0.011,6.726-3.021,6.737-6.737V32.258h-13.474v26.947
				C192.819,62.922,195.829,65.932,199.545,65.943z"/>
			<path style="fill:#428DFF;" d="M192.808,235.013h13.474V113.101c0-3.721-3.016-6.737-6.737-6.737
				c-3.721,0-6.737,3.016-6.737,6.737V235.013z"/>
			<path style="fill:#428DFF;" d="M206.281,86.153c-0.026-1.783-0.724-3.491-1.954-4.783l-1.01-0.809
				c-0.376-0.256-0.784-0.461-1.214-0.609c-0.382-0.194-0.791-0.329-1.214-0.401c-0.445-0.076-0.894-0.121-1.345-0.135
				c-1.784,0.025-3.492,0.723-4.783,1.954c-1.634,1.575-2.352,3.875-1.902,6.099c0.45,2.224,2.004,4.065,4.122,4.881
				c0.811,0.346,1.681,0.529,2.563,0.539c1.792,0.017,3.516-0.687,4.783-1.954C205.595,89.669,206.299,87.945,206.281,86.153
				L206.281,86.153z"/>
			<path style="fill:#428DFF;" d="M240.509,119.558c-3.058,0.004-5.736-2.053-6.52-5.009s0.52-6.07,3.178-7.583l19.053-10.852
				c2.092-1.192,4.661-1.177,6.739,0.039c2.078,1.216,3.349,3.448,3.336,5.855s-1.311,4.625-3.403,5.816l-19.053,10.852
				C242.824,119.255,241.677,119.559,240.509,119.558z"/>
			<path style="fill:#428DFF;" d="M240.509,146.874c-3.058,0.004-5.735-2.052-6.519-5.007c-0.785-2.955,0.52-6.069,3.177-7.582
				l9.526-5.428c2.092-1.207,4.669-1.201,6.756,0.014c2.087,1.215,3.363,3.455,3.346,5.869c-0.018,2.415-1.326,4.635-3.43,5.82
				l-9.526,5.428C242.825,146.569,241.677,146.875,240.509,146.874z"/>
			<path style="fill:#428DFF;" d="M269.088,130.594c-3.058,0.004-5.736-2.053-6.52-5.009s0.52-6.07,3.178-7.583l14.289-8.138
				c2.092-1.192,4.661-1.177,6.739,0.039c2.078,1.216,3.349,3.448,3.336,5.855c-0.014,2.407-1.311,4.625-3.403,5.816l-14.289,8.138
				C271.403,130.291,270.255,130.595,269.088,130.594z"/>
			<path style="fill:#428DFF;" d="M240.509,174.186c-3.058,0.004-5.736-2.053-6.52-5.009c-0.785-2.956,0.52-6.07,3.178-7.583
				l42.868-24.418c2.092-1.192,4.661-1.177,6.739,0.039c2.078,1.216,3.349,3.448,3.336,5.855c-0.014,2.407-1.311,4.625-3.403,5.816
				l-42.868,24.418C242.824,173.883,241.677,174.187,240.509,174.186z"/>
			<path style="fill:#428DFF;" d="M302.424,138.916c-3.058,0.004-5.735-2.052-6.519-5.007c-0.785-2.955,0.52-6.069,3.177-7.582
				l4.763-2.714c2.091-1.2,4.664-1.191,6.747,0.024c2.083,1.215,3.357,3.451,3.341,5.862c-0.016,2.411-1.319,4.63-3.417,5.818
				l-4.763,2.714C304.739,138.612,303.591,138.917,302.424,138.916z"/>
			<path style="fill:#428DFF;" d="M286.266,511.943c-1.59-0.013-3.149-0.444-4.52-1.25L32.16,366.594
				c-3.576-2.179-5.801-6.024-5.908-10.211v-24.336c-0.124-3.062,1.463-5.939,4.118-7.468s5.94-1.458,8.527,0.185l103.243,59.612
				c1.552,0.896,2.684,2.373,3.145,4.105c0.473,1.798,1.542,3.382,3.033,4.493l33.671,19.441c2.169-1.775,5.21-2.024,7.638-0.625
				l98.855,57.072c3.576,2.179,5.801,6.024,5.908,10.211v24.336c0.081,3.046-1.488,5.899-4.105,7.461
				C289.064,511.578,287.677,511.948,286.266,511.943z M39.726,355.403l241.191,139.25v-14.599l-93.836-54.171
				c-0.211,0.086-0.428,0.171-0.645,0.25c-3.26,1.06-6.821,0.619-9.724-1.204l-35.132-20.283c-3.753-2.318-6.673-5.766-8.342-9.849
				l-93.513-53.994V355.403z"/>
			<path style="fill:#428DFF;" d="M452.917,388.035c-1.182,0-2.344-0.311-3.368-0.901L196.174,240.847
				c-2.086-1.203-3.372-3.427-3.372-5.835c-0.001-2.408,1.284-4.633,3.369-5.837c2.086-1.204,4.655-1.203,6.74,0.002L446.18,369.627
				V178.541c-0.589-8.07-4.856-15.421-11.572-19.934L211.121,29.581c-2.151-1.243-3.533-1.257-3.868-1.059
				c-0.316,0.181-0.974,1.339-0.974,3.737c0,3.721-3.016,6.737-6.737,6.737s-6.737-3.016-6.737-6.737
				c-0.418-6.154,2.533-12.051,7.711-15.405c5.545-2.816,12.18-2.412,17.342,1.056l223.487,129.03
				c10.858,6.95,17.68,18.726,18.309,31.602v202.757c0.001,1.787-0.709,3.501-1.972,4.765
				C456.418,387.326,454.704,388.036,452.917,388.035z"/>
			<path style="fill:#428DFF;" d="M478.956,401.022c-3.716,0.001-6.731-3.007-6.737-6.723l-0.053-27.987v-202.79
				c-0.596-8.073-4.858-15.428-11.566-19.961l-223.461-129c-1.065-0.804-2.386-1.192-3.717-1.092
				c-0.138,0.059-0.283,0.112-0.428,0.158c-1.295,1.188-3.016,1.802-4.771,1.701c-1.755-0.101-3.394-0.908-4.545-2.237
				c-2.455-2.841-2.183-7.124,0.612-9.631c1.173-1.072,2.539-1.91,4.026-2.47c0.125-0.049,0.257-0.095,0.388-0.138
				c5.101-1.635,10.668-0.889,15.158,2.033l223.493,129.02c10.911,6.904,17.742,18.719,18.283,31.618l0.053,230.75
				c0.007,3.721-3.003,6.743-6.723,6.75L478.956,401.022z"/>
			<path style="fill:#428DFF;" d="M202.818,30.183c-3.056,0.003-5.732-2.051-6.517-5.004s0.515-6.066,3.169-7.581l27.908-16.148
				c2.124-1.279,4.778-1.29,6.912-0.03s3.406,3.59,3.312,6.067c-0.094,2.477-1.539,4.703-3.764,5.798l-1.526,0.918l-26.158,15.092
				C205.138,29.877,203.988,30.183,202.818,30.183z"/>
			<path style="fill:#428DFF;" d="M452.93,416.035c-3.051,0.004-5.724-2.043-6.515-4.99c-0.791-2.947,0.497-6.058,3.14-7.582
				l26.033-15.013c2.085-1.205,4.654-1.206,6.74-0.002c2.086,1.204,3.37,3.429,3.369,5.837c-0.001,2.408-1.286,4.633-3.372,5.835
				l-26.033,15.013C455.27,415.724,454.11,416.035,452.93,416.035z"/>
			<path style="fill:#428DFF;" d="M33.818,337.094c-2.939,0.016-5.555-1.861-6.48-4.651c-1.087-3.258,0.479-6.81,3.618-8.204
				l165.217-95.382c3.223-1.858,7.341-0.753,9.201,2.469c1.86,3.222,0.757,7.341-2.464,9.202L37.213,336.186
				c-0.415,0.238-0.854,0.432-1.309,0.579C35.23,336.983,34.526,337.094,33.818,337.094z"/>
			<path style="fill:#428DFF;" d="M286.976,483.462c-3.053,0.003-5.727-2.048-6.515-4.997c-0.788-2.95,0.506-6.061,3.154-7.581
				l165.947-95.401c3.227-1.853,7.344-0.74,9.197,2.487c1.853,3.227,0.74,7.344-2.487,9.197l-165.947,95.401
				C289.306,483.154,288.152,483.462,286.976,483.462z"/>
			<path style="fill:#428DFF;" d="M285.983,511.883c-3.044,0.005-5.713-2.032-6.512-4.969c-0.799-2.937,0.471-6.045,3.098-7.583
				l1.493-0.875l165.25-94.993c3.227-1.853,7.344-0.74,9.197,2.487c1.853,3.227,0.74,7.344-2.487,9.197l-166.638,95.816
				C288.352,511.566,287.178,511.884,285.983,511.883z"/>
			<path style="fill:#428DFF;" d="M335.062,428.673c-1.188,0.001-2.354-0.313-3.382-0.908L132.878,312.364
				c-2.062-1.197-3.338-3.394-3.355-5.778c-0.018-2.384,1.226-4.6,3.27-5.827l68.086-40.855c2.102-1.268,4.729-1.287,6.849-0.049
				l198.803,115.398c2.062,1.197,3.338,3.394,3.355,5.778c0.018,2.384-1.226,4.6-3.27,5.827l-68.086,40.855
				C337.481,428.34,336.283,428.672,335.062,428.673z M149.516,306.436l185.487,107.678l54.888-32.934L204.404,273.502
				L149.516,306.436z"/>
			<path style="fill:#428DFF;" d="M228.016,421.186c-1.188,0.001-2.354-0.313-3.382-0.908l-84.394-48.987
				c-2.062-1.197-3.338-3.394-3.355-5.778s1.226-4.6,3.27-5.827l28.901-17.342c2.104-1.26,4.726-1.28,6.849-0.053l84.395,48.987
				c2.062,1.197,3.338,3.394,3.355,5.778s-1.226,4.6-3.27,5.827l-28.901,17.342C230.435,420.853,229.237,421.185,228.016,421.186z
				 M156.878,365.364l71.079,41.263l15.704-9.421l-71.079-41.263L156.878,365.364z"/>
		</g>
	</g>
</g>
<g>
</g>
<g>
</g>
<g>
</g>
<g>
</g>
<g>
</g>
<g>
</g>
<g>
</g>
<g>
</g>
<g>
</g>
<g>
</g>
<g>
</g>
<g>
</g>
<g>
</g>
<g>
</g>
<g>
</g>
</svg>
