<svg viewBox="0 -97 512 512" xmlns="https://www.w3.org/2000/svg"><path d="m212.015625 37.671875v91.746094h-44.609375v-91.746094zm0 0" fill="#afb4c8"/><path d="m212.015625 83.546875v45.871094h-44.609375v-45.871094zm0 0" fill="#9196aa"/><path d="m467.449219 0-269.898438 20.796875v125.5l269.898438 20.796875h44.550781v-167.09375zm0 0" fill="#dce1eb"/><path d="m197.550781 83.546875v62.75l269.898438 20.796875h44.550781v-83.546875zm0 0" fill="#cdd2e1"/><path d="m287.523438 153.230469v-139.367188l103.691406-7.988281v155.34375zm0 0" fill="#19cffc"/><path d="m287.523438 153.230469v-69.683594h103.691406v77.671875zm0 0" fill="#4ab8f7"/><path d="m467.445312 0h44.554688v167.09375h-44.554688zm0 0" fill="#afb4c8"/><path d="m467.445312 83.546875h44.554688v83.546875h-44.554688zm0 0" fill="#9196aa"/><path d="m268.15625 270.683594h-65.734375c13.105469 0 23.730469-10.625 23.730469-23.730469s-10.625-23.726563-23.730469-23.726563h-35.015625v-139.640624h-7.894531c-19.347657 0-35.03125 15.683593-35.03125 35.03125v104.605468h-35.015625c-13.105469 0-23.730469 10.625-23.730469 23.730469 0 13.109375 10.625 23.730469 23.730469 23.730469h-65.734375c-13.105469 0-23.730469 10.625-23.730469 23.730468 0 13.105469 10.625 23.730469 23.730469 23.730469h244.425781c13.105469 0 23.730469-10.625 23.730469-23.730469 0-13.105468-10.625-23.730468-23.730469-23.730468zm0 0" fill="#19cffc"/><path d="m268.15625 270.683594h-65.734375c13.105469 0 23.730469-10.625 23.730469-23.730469s-10.625-23.726563-23.730469-23.726563h-35.015625v-139.640624h-7.894531c-4.8125 0-9.394531.96875-13.570313 2.726562v231.835938h122.214844c13.105469 0 23.730469-10.625 23.730469-23.730469 0-13.109375-10.625-23.734375-23.730469-23.734375zm0 0" fill="#4ab8f7"/></svg>