<?xml version="1.0" encoding="iso-8859-1"?>
<!-- Generator: Adobe Illustrator 19.0.0, SVG Export Plug-In . SVG Version: 6.00 Build 0)  -->
<svg version="1.1" id="Capa_1" xmlns="https://www.w3.org/2000/svg" xmlns:xlink="https://www.w3.org/1999/xlink" x="0px" y="0px"
	 viewBox="0 0 512 512" style="enable-background:new 0 0 512 512;" xml:space="preserve">
<g>
	<g transform="translate(0 1)">
		<path style="fill:#D4E1F4;" d="M503.467,353.133V370.2c-0.028,9.414-7.653,17.039-17.067,17.067H25.6
			c-9.414-0.028-17.039-7.653-17.067-17.067v-17.067H503.467z"/>
		<g>
			<path style="fill:#A4C2F7;" d="M503.467,63v290.133H8.533V63c0.028-9.414,7.652-17.039,17.067-17.067h460.8
				C495.814,45.961,503.439,53.586,503.467,63z"/>
			<path style="fill:#A4C2F7;" d="M477.867,63l0.004,290.133H8.529L8.533,63c-0.21-9.169,7.017-16.79,16.184-17.067h436.966
				C470.85,46.21,478.077,53.831,477.867,63z"/>
			<path style="fill:#A4C2F7;" d="M25.6,45.933h221.867V216.6H8.533V63C8.533,53.574,16.174,45.933,25.6,45.933z"/>
		</g>
		<g>
			<rect x="247.467" y="80.067" style="fill:#D4E1F4;" width="256" height="34.133"/>
			<rect x="247.467" y="148.333" style="fill:#D4E1F4;" width="256" height="34.133"/>
			<rect x="8.533" y="216.6" style="fill:#D4E1F4;" width="494.933" height="34.133"/>
			<polyline style="fill:#D4E1F4;" points="318.464,319 503.467,319 503.467,284.867 8.533,284.867 8.533,319 193.536,319 			"/>
		</g>
		<g>
			<path style="fill:#F5F5F5;" d="M477.871,353.133l-0.004,17.067c0.21,9.169-7.017,16.79-16.184,17.067H24.717
				C15.55,386.99,8.323,379.369,8.533,370.2l-0.004-17.067H477.871z"/>
			<rect x="247.467" y="80.067" style="fill:#F5F5F5;" width="230.4" height="34.133"/>
			<rect x="247.467" y="148.333" style="fill:#F5F5F5;" width="230.4" height="34.133"/>
			<rect x="8.533" y="216.6" style="fill:#F5F5F5;" width="469.333" height="34.133"/>
			<polyline style="fill:#F5F5F5;" points="302.43,319 477.867,319 477.867,284.867 8.533,284.867 8.533,319 183.97,319 			"/>
		</g>
		<g>
			<polygon style="fill:#ECF0F1;" points="25.6,54.467 29.559,62.479 38.4,63.768 32,70.006 33.51,78.812 25.6,74.657 17.69,78.812 
				19.2,70.006 12.8,63.768 21.641,62.479 			"/>
			<polygon style="fill:#ECF0F1;" points="59.733,54.467 63.693,62.479 72.533,63.768 66.133,70.006 67.644,78.812 59.733,74.657 
				51.823,78.812 53.333,70.006 46.933,63.768 55.774,62.479 			"/>
			<polygon style="fill:#ECF0F1;" points="93.867,54.467 97.826,62.479 106.667,63.768 100.267,70.006 101.777,78.812 
				93.867,74.657 85.956,78.812 87.467,70.006 81.067,63.768 89.907,62.479 			"/>
			<polygon style="fill:#ECF0F1;" points="128,54.467 131.959,62.479 140.8,63.768 134.4,70.006 135.91,78.812 128,74.657 
				120.09,78.812 121.6,70.006 115.2,63.768 124.041,62.479 			"/>
			<polygon style="fill:#ECF0F1;" points="162.133,54.467 166.093,62.479 174.933,63.768 168.533,70.006 170.044,78.812 
				162.133,74.657 154.223,78.812 155.733,70.006 149.333,63.768 158.174,62.479 			"/>
			<polygon style="fill:#ECF0F1;" points="196.267,54.467 200.226,62.479 209.067,63.768 202.667,70.006 204.177,78.812 
				196.267,74.657 188.356,78.812 189.867,70.006 183.467,63.768 192.307,62.479 			"/>
			<polygon style="fill:#ECF0F1;" points="230.4,54.467 234.359,62.479 243.2,63.768 236.8,70.006 238.31,78.812 230.4,74.657 
				222.49,78.812 224,70.006 217.6,63.768 226.441,62.479 			"/>
			<polygon style="fill:#ECF0F1;" points="44.8,86.782 48.759,94.795 57.6,96.084 51.2,102.322 52.71,111.128 44.8,106.964 
				36.89,111.128 38.4,102.322 32,96.084 40.841,94.795 			"/>
			<polygon style="fill:#ECF0F1;" points="78.933,86.782 82.893,94.795 91.733,96.084 85.333,102.322 86.844,111.128 
				78.933,106.964 71.023,111.128 72.533,102.322 66.133,96.084 74.974,94.795 			"/>
			<polygon style="fill:#ECF0F1;" points="113.067,86.782 117.026,94.795 125.867,96.084 119.467,102.322 120.977,111.128 
				113.067,106.964 105.156,111.128 106.667,102.322 100.267,96.084 109.107,94.795 			"/>
			<polygon style="fill:#ECF0F1;" points="147.2,86.782 151.159,94.795 160,96.084 153.6,102.322 155.11,111.128 147.2,106.964 
				139.29,111.128 140.8,102.322 134.4,96.084 143.241,94.795 			"/>
			<polygon style="fill:#ECF0F1;" points="181.333,86.782 185.293,94.795 194.133,96.084 187.733,102.322 189.244,111.128 
				181.333,106.964 173.423,111.128 174.933,102.322 168.533,96.084 177.374,94.795 			"/>
			<polygon style="fill:#ECF0F1;" points="215.467,86.782 219.426,94.795 228.267,96.084 221.867,102.322 223.377,111.128 
				215.467,106.964 207.556,111.128 209.067,102.322 202.667,96.084 211.507,94.795 			"/>
			<polygon style="fill:#ECF0F1;" points="25.6,119.09 29.559,127.111 38.4,128.391 32,134.629 33.51,143.444 25.6,139.279 
				17.69,143.444 19.2,134.629 12.8,128.391 21.641,127.111 			"/>
			<polygon style="fill:#ECF0F1;" points="59.733,119.09 63.693,127.111 72.533,128.391 66.133,134.629 67.644,143.444 
				59.733,139.279 51.823,143.444 53.333,134.629 46.933,128.391 55.774,127.111 			"/>
			<polygon style="fill:#ECF0F1;" points="93.867,119.09 97.826,127.111 106.667,128.391 100.267,134.629 101.777,143.444 
				93.867,139.279 85.956,143.444 87.467,134.629 81.067,128.391 89.907,127.111 			"/>
			<polygon style="fill:#ECF0F1;" points="128,119.09 131.959,127.111 140.8,128.391 134.4,134.629 135.91,143.444 128,139.279 
				120.09,143.444 121.6,134.629 115.2,128.391 124.041,127.111 			"/>
			<polygon style="fill:#ECF0F1;" points="162.133,119.09 166.093,127.111 174.933,128.391 168.533,134.629 170.044,143.444 
				162.133,139.279 154.223,143.444 155.733,134.629 149.333,128.391 158.174,127.111 			"/>
			<polygon style="fill:#ECF0F1;" points="196.267,119.09 200.226,127.111 209.067,128.391 202.667,134.629 204.177,143.444 
				196.267,139.279 188.356,143.444 189.867,134.629 183.467,128.391 192.307,127.111 			"/>
			<polygon style="fill:#ECF0F1;" points="230.4,119.09 234.359,127.111 243.2,128.391 236.8,134.629 238.31,143.444 230.4,139.279 
				222.49,143.444 224,134.629 217.6,128.391 226.441,127.111 			"/>
			<polygon style="fill:#ECF0F1;" points="25.6,183.721 29.559,191.734 38.4,193.022 32,199.26 33.51,208.067 25.6,203.911 
				17.69,208.067 19.2,199.26 12.8,193.022 21.641,191.734 			"/>
			<polygon style="fill:#ECF0F1;" points="59.733,183.721 63.693,191.734 72.533,193.022 66.133,199.26 67.644,208.067 
				59.733,203.911 51.823,208.067 53.333,199.26 46.933,193.022 55.774,191.734 			"/>
			<polygon style="fill:#ECF0F1;" points="93.867,183.721 97.826,191.734 106.667,193.022 100.267,199.26 101.777,208.067 
				93.867,203.911 85.956,208.067 87.467,199.26 81.067,193.022 89.907,191.734 			"/>
			<polygon style="fill:#ECF0F1;" points="128,183.721 131.959,191.734 140.8,193.022 134.4,199.26 135.91,208.067 128,203.911 
				120.09,208.067 121.6,199.26 115.2,193.022 124.041,191.734 			"/>
			<polygon style="fill:#ECF0F1;" points="162.133,183.721 166.093,191.734 174.933,193.022 168.533,199.26 170.044,208.067 
				162.133,203.911 154.223,208.067 155.733,199.26 149.333,193.022 158.174,191.734 			"/>
			<polygon style="fill:#ECF0F1;" points="196.267,183.721 200.226,191.734 209.067,193.022 202.667,199.26 204.177,208.067 
				196.267,203.911 188.356,208.067 189.867,199.26 183.467,193.022 192.307,191.734 			"/>
			<polygon style="fill:#ECF0F1;" points="230.4,183.721 234.359,191.734 243.2,193.022 236.8,199.26 238.31,208.067 230.4,203.911 
				222.49,208.067 224,199.26 217.6,193.022 226.441,191.734 			"/>
			<polygon style="fill:#ECF0F1;" points="44.8,151.405 48.759,159.418 57.6,160.707 51.2,166.945 52.71,175.751 44.8,171.595 
				36.89,175.751 38.4,166.945 32,160.707 40.841,159.418 			"/>
			<polygon style="fill:#ECF0F1;" points="78.933,151.405 82.893,159.418 91.733,160.707 85.333,166.945 86.844,175.751 
				78.933,171.595 71.023,175.751 72.533,166.945 66.133,160.707 74.974,159.418 			"/>
			<polygon style="fill:#ECF0F1;" points="113.067,151.405 117.026,159.418 125.867,160.707 119.467,166.945 120.977,175.751 
				113.067,171.595 105.156,175.751 106.667,166.945 100.267,160.707 109.107,159.418 			"/>
			<polygon style="fill:#ECF0F1;" points="147.2,151.405 151.159,159.418 160,160.707 153.6,166.945 155.11,175.751 147.2,171.595 
				139.29,175.751 140.8,166.945 134.4,160.707 143.241,159.418 			"/>
			<polygon style="fill:#ECF0F1;" points="181.333,151.405 185.293,159.418 194.133,160.707 187.733,166.945 189.244,175.751 
				181.333,171.595 173.423,175.751 174.933,166.945 168.533,160.707 177.374,159.418 			"/>
			<polygon style="fill:#ECF0F1;" points="215.467,151.405 219.426,159.418 228.267,160.707 221.867,166.945 223.377,175.751 
				215.467,171.595 207.556,175.751 209.067,166.945 202.667,160.707 211.507,159.418 			"/>
		</g>
		<path style="fill:#FFFFFF;" d="M51.2,387.267H17.067C7.653,387.239,0.028,379.614,0,370.2V63
			c0.028-9.414,7.652-17.039,17.067-17.067H51.2C41.786,45.961,34.161,53.586,34.133,63v307.2
			C34.161,379.614,41.786,387.239,51.2,387.267z"/>
	</g>
	<g>
		
			<linearGradient id="SVGID_1_" gradientUnits="userSpaceOnUse" x1="-48.6074" y1="652.1051" x2="-48.0337" y2="651.085" gradientTransform="matrix(273.0667 0 0 -153.6 13450.7344 100473.2734)">
			<stop  offset="0" style="stop-color:#D3DFF2"/>
			<stop  offset="0.1717" style="stop-color:#D3DFF2"/>
			<stop  offset="0.2" style="stop-color:#D3DFF2"/>
			<stop  offset="0.2002" style="stop-color:#DAE2F2"/>
			<stop  offset="0.2007" style="stop-color:#EBEAF2"/>
			<stop  offset="0.2014" style="stop-color:#F6EFF2"/>
			<stop  offset="0.2023" style="stop-color:#FDF2F2"/>
			<stop  offset="0.205" style="stop-color:#FFF3F2"/>
			<stop  offset="0.2522" style="stop-color:#FFF3F2"/>
			<stop  offset="0.26" style="stop-color:#FFF3F2"/>
			<stop  offset="0.26" style="stop-color:#D3DFF2"/>
			<stop  offset="0.3974" style="stop-color:#D3DFF2"/>
			<stop  offset="0.42" style="stop-color:#D3DFF2"/>
			<stop  offset="0.4202" style="stop-color:#DAE2F2"/>
			<stop  offset="0.4207" style="stop-color:#EBEAF2"/>
			<stop  offset="0.4214" style="stop-color:#F6EFF2"/>
			<stop  offset="0.4223" style="stop-color:#FDF2F2"/>
			<stop  offset="0.425" style="stop-color:#FFF3F2"/>
			<stop  offset="0.4894" style="stop-color:#FFF3F2"/>
			<stop  offset="0.5" style="stop-color:#FFF3F2"/>
			<stop  offset="0.5" style="stop-color:#F8F0F2"/>
			<stop  offset="0.5001" style="stop-color:#E7E8F2"/>
			<stop  offset="0.5003" style="stop-color:#DCE3F2"/>
			<stop  offset="0.5005" style="stop-color:#D5E0F2"/>
			<stop  offset="0.501" style="stop-color:#D3DFF2"/>
			<stop  offset="0.7062" style="stop-color:#D3DFF2"/>
			<stop  offset="0.74" style="stop-color:#D3DFF2"/>
			<stop  offset="0.741" style="stop-color:#FFF3F2"/>
			<stop  offset="0.8346" style="stop-color:#FFF3F2"/>
			<stop  offset="0.85" style="stop-color:#FFF3F2"/>
			<stop  offset="0.851" style="stop-color:#D3DFF2"/>
		</linearGradient>
		<ellipse style="fill:url(#SVGID_1_);" cx="256" cy="388.267" rx="136.533" ry="76.8"/>
		<g>
			<path style="fill:#428DFF;" d="M486.4,38.4H25.6C11.468,38.415,0.015,49.868,0,64v307.2c0.015,14.132,11.468,25.585,25.6,25.6
				h86.043c7.065,43.697,67.921,76.8,144.357,76.8s137.292-33.103,144.357-76.8H486.4c14.132-0.015,25.585-11.468,25.6-25.6V64
				C511.985,49.868,500.532,38.415,486.4,38.4z M494.933,345.6H382.095c-6.467-6.604-13.763-12.34-21.706-17.067h134.544V345.6z
				 M129.905,345.6H17.067v-17.067h134.544C143.668,333.26,136.372,338.996,129.905,345.6z M494.933,174.933H256v-17.067h238.933
				V174.933z M256,140.8v-17.067h238.933V140.8H256z M494.933,106.667H256V89.6h238.933V106.667z M256,192h238.933v17.067H256V192z
				 M494.933,226.133V243.2H17.067v-17.067H494.933z M494.933,277.333H17.067v-17.067h477.867V277.333z M192.112,311.467H17.067
				V294.4h477.867v17.067H319.888C278.056,300.089,233.944,300.089,192.112,311.467z M494.933,64v8.533H256V55.467h230.4
				C491.111,55.471,494.929,59.289,494.933,64z M25.6,55.467h213.333v153.6H17.067V64C17.071,59.289,20.889,55.471,25.6,55.467z
				 M17.067,371.2v-8.533h100.265c-2.791,5.35-4.712,11.112-5.689,17.067H25.6C20.889,379.729,17.071,375.911,17.067,371.2z
				 M256,456.533c-69.383,0-128-31.262-128-68.267S186.617,320,256,320s128,31.262,128,68.267S325.383,456.533,256,456.533z
				 M486.4,379.733h-86.043c-0.978-5.955-2.898-11.716-5.689-17.067h100.265v8.533C494.929,375.911,491.111,379.729,486.4,379.733z"
				/>
			<path style="fill:#428DFF;" d="M247.467,345.6c-2.263-0.001-4.434,0.898-6.035,2.499c-1.6,1.6-2.499,3.771-2.499,6.035v51.2
				c-0.005,4.711-3.822,8.529-8.533,8.533h-8.533c-4.711-0.005-8.529-3.822-8.533-8.533v-51.2c0-4.713-3.821-8.533-8.533-8.533
				c-4.713,0-8.533,3.821-8.533,8.533v51.2c0.015,14.132,11.468,25.585,25.6,25.6h8.533c14.132-0.015,25.585-11.468,25.6-25.6v-51.2
				c0.001-2.263-0.898-4.434-2.499-6.035S249.73,345.599,247.467,345.6z"/>
			<path style="fill:#428DFF;" d="M290.133,379.733c-3.453,0-6.567-2.081-7.886-5.273c-1.319-3.192-0.584-6.864,1.861-9.302
				c3.373-3.217,8.677-3.217,12.05,0c2.149,2.175,5.298,3.035,8.254,2.252c2.956-0.783,5.267-3.088,6.058-6.042
				c0.791-2.954-0.06-6.105-2.229-8.26c-10.129-9.674-26.073-9.68-36.208-0.012c-7.321,7.322-9.511,18.332-5.549,27.898
				c3.962,9.566,13.295,15.804,23.649,15.806c3.453,0,6.567,2.081,7.886,5.273c1.319,3.192,0.584,6.864-1.861,9.302
				c-3.373,3.217-8.677,3.217-12.05,0c-2.149-2.175-5.298-3.035-8.254-2.252s-5.267,3.088-6.058,6.042s0.06,6.105,2.229,8.26
				c8.19,8.195,20.864,9.867,30.899,4.077c10.035-5.791,14.93-17.6,11.933-28.792S301.719,379.735,290.133,379.733z"/>
		</g>
	</g>
</g>
<g>
</g>
<g>
</g>
<g>
</g>
<g>
</g>
<g>
</g>
<g>
</g>
<g>
</g>
<g>
</g>
<g>
</g>
<g>
</g>
<g>
</g>
<g>
</g>
<g>
</g>
<g>
</g>
<g>
</g>
</svg>
