<?xml version="1.0" encoding="iso-8859-1"?>
<!-- Generator: Adobe Illustrator 19.0.0, SVG Export Plug-In . SVG Version: 6.00 Build 0)  -->
<svg version="1.1" id="Capa_1" xmlns="http://www.w3.org/2000/svg" xmlns:xlink="http://www.w3.org/1999/xlink" x="0px" y="0px"
	 viewBox="0 0 511.984 511.984" style="enable-background:new 0 0 511.984 511.984;" xml:space="preserve">
<polygon style="fill:#FFD2A6;" points="491.985,331.99 20,331.99 4,347.989 507.984,347.989 "/>
<g style="opacity:0.2;">
	<polygon points="491.985,331.99 20,331.99 4,347.989 507.984,347.989 	"/>
</g>
<g style="opacity:0.2;">
	<polygon points="20,331.99 4,347.989 20,347.989 35.999,331.99 	"/>
</g>
<g style="opacity:0.2;">
	<polygon points="491.977,331.99 507.977,347.989 491.977,347.989 475.978,331.99 	"/>
</g>
<rect x="4.002" y="347.992" style="fill:#FFD2A6;" width="503.98" height="15.999"/>
<rect x="20.002" y="60.002" style="fill:#48CFAD;" width="471.99" height="271.99"/>
<g>
	<polygon style="fill:#E6E9ED;" points="412.066,396.058 396.066,403.98 372.067,379.98 379.184,370.246 	"/>
	<polygon style="fill:#E6E9ED;" points="412.387,396.058 428.386,403.98 452.385,379.98 445.267,370.246 	"/>
</g>
<path style="fill:#656D78;" d="M443.667,260.226c0,0,32.397-4.555,24.241,47.756l-16-23.999c0,0-18.96,8-39.764,8
	c-20.719,0-40.233-8-40.233-8l-15.921,23.921l-0.078,0.078c-8.242-87.997,96.074-70.474,96.074-70.474
	C436.464,243.828,443.667,260.226,443.667,260.226z"/>
<g style="opacity:0.2;">
	<path d="M443.667,260.226c0,0,19.858-3.852,17.351,37.421l6.891,10.335C476.064,255.672,443.667,260.226,443.667,260.226z"/>
</g>
<g style="opacity:0.2;">
	<path style="fill:#FFFFFF;" d="M435.69,236.141c-28.991-0.781-85.95,5.938-79.778,71.841l0.078-0.078l7.554-11.343
		C364.606,246.39,407.449,236.891,435.69,236.141z"/>
</g>
<path style="fill:#EAC6BB;" d="M468.142,316.06c0,37.999-34.632,73.045-55.998,73.045c-21.273,0-55.999-35.046-55.999-73.045v-8.078
	l-0.155-0.078l15.921-23.921c0,0,19.515,8,40.233,8c20.804,0,39.764-8,39.764-8l16,23.999h0.234V316.06z"/>
<g style="opacity:0.2;">
	<path d="M467.908,307.982l-16-23.999c0,0-5.242,2.188-13.155,4.266l13.155,19.733h0.234v8.078c0,33.538-26.96,64.732-47.982,71.607
		c2.789,0.914,5.484,1.438,7.984,1.438c21.366,0,55.998-35.046,55.998-73.045v-8.078H467.908z"/>
</g>
<g style="opacity:0.3;">
	<path style="fill:#FFFFFF;" d="M372.145,316.06v-8.078l-0.156-0.078l13.116-19.702c-7.929-2.062-13.194-4.219-13.194-4.219
		l-15.921,23.921l0.155,0.078v8.078c0,37.999,34.726,73.045,55.999,73.045c2.508,0,5.211-0.523,8.015-1.438
		C399.183,380.793,372.145,349.598,372.145,316.06z"/>
</g>
<path style="fill:#5D9CEC;" d="M507.907,451.978H315.913v-8c0,0,0-5.359,0-18.64c0-13.359,6.718-18.391,19.999-23.358
	c6.555-2.477,18.32-6.875,27.999-11.516l9.359-9.281l22.796,22.797l16-7.922l15.999,7.922l22.718-22.719l9.125,9.125
	c9.758,4.719,21.438,9.117,27.999,11.594c13.359,4.968,20,9.999,20,23.358c0,13.28,0,18.64,0,18.64L507.907,451.978L507.907,451.978
	z"/>
<g style="opacity:0.3;">
	<path style="fill:#FFFFFF;" d="M331.912,425.339c0-13.359,6.719-18.391,20-23.358c6.554-2.477,18.319-6.875,27.999-11.516
		l1.327-1.312l-7.968-7.969l-9.359,9.281c-9.679,4.641-21.444,9.039-27.999,11.516c-13.281,4.968-19.999,9.999-19.999,23.358
		c0,13.28,0,18.64,0,18.64v8h15.999v-8C331.912,443.978,331.912,438.619,331.912,425.339z"/>
</g>
<g style="opacity:0.2;">
	<path d="M492.071,425.339c0-13.359-6.719-18.391-19.999-23.358c-6.555-2.477-18.32-6.875-28-11.516l-1.327-1.312l7.968-7.969
		l9.359,9.281c9.68,4.641,21.445,9.039,27.999,11.516c13.281,4.968,19.999,9.999,19.999,23.358c0,13.28,0,18.64,0,18.64v8h-15.999
		v-8C492.071,443.978,492.071,438.619,492.071,425.339z"/>
</g>
<g>
	<polygon style="fill:#ED5564;" points="420.386,451.978 404.387,451.978 408.387,407.979 416.387,407.979 	"/>
	<rect x="404.992" y="397.102" style="fill:#ED5564;" width="14.25" height="10.874"/>
</g>
<path style="fill:#E6E9ED;" d="M235.954,191.982c0,41.96-34.015,75.979-75.975,75.979c-41.967,0-75.981-34.019-75.981-75.979
	c0-41.964,34.015-75.982,75.981-75.982C201.939,116,235.954,150.018,235.954,191.982z"/>
<g style="opacity:0.4;">
	<rect x="20.002" y="60.002" style="fill:#FFFFFF;" width="15.999" height="271.99"/>
</g>
<g style="opacity:0.2;">
	<rect x="475.982" y="60.002" width="15.999" height="271.99"/>
</g>
<g style="opacity:0.5;">
	<rect x="4.002" y="347.992" style="fill:#FFFFFF;" width="16" height="15.999"/>
</g>
<g style="opacity:0.2;">
	<rect x="491.982" y="347.992" width="15.999" height="15.999"/>
</g>
<g>
	<path style="fill:#3A3847;" d="M491.985,335.99c-2.211,0-4-1.789-4-4V63.998H24V331.99c0,2.211-1.789,4-4,4s-4-1.789-4-4V59.998
		c0-2.211,1.789-4,4-4h471.985c2.211,0,4,1.789,4,4V331.99C495.985,334.201,494.196,335.99,491.985,335.99z"/>
	<path style="fill:#3A3847;" d="M365.934,367.988H4c-2.211,0-4-1.789-4-4v-15.999c0-2.211,1.789-4,4-4h351.99
		c2.21,0,3.999,1.789,3.999,4s-1.789,4-3.999,4H8v8h357.935c2.211,0,4,1.789,4,3.999
		C369.934,366.199,368.145,367.988,365.934,367.988z"/>
	<path style="fill:#3A3847;" d="M4,351.989c-1.023,0-2.047-0.391-2.828-1.172c-1.562-1.562-1.562-4.094,0-5.656l16-15.999
		c1.562-1.562,4.094-1.562,5.656,0s1.562,4.094,0,5.656l-16,15.999C6.047,351.598,5.023,351.989,4,351.989z"/>
	<path style="fill:#3A3847;" d="M507.984,351.989c-1.022,0-2.046-0.391-2.827-1.172l-16-15.999c-1.562-1.562-1.562-4.094,0-5.656
		s4.094-1.562,5.656,0l15.999,15.999c1.562,1.562,1.562,4.094,0,5.656C510.031,351.598,509.008,351.989,507.984,351.989z"/>
	<path style="fill:#3A3847;" d="M350.185,335.99H20c-2.211,0-4-1.789-4-4s1.789-4,4-4h330.186c2.211,0,4,1.789,4,4
		S352.396,335.99,350.185,335.99z"/>
	<path style="fill:#3A3847;" d="M507.984,367.988c-2.21,0-3.999-1.789-3.999-4v-15.999c0-2.211,1.789-4,3.999-4c2.211,0,4,1.789,4,4
		v15.999C511.984,366.199,510.195,367.988,507.984,367.988z"/>
	<path style="fill:#3A3847;" d="M507.984,367.988h-49.467c-2.211,0-4-1.789-4-4c0-2.21,1.789-3.999,4-3.999h49.467
		c2.211,0,4,1.789,4,3.999C511.984,366.199,510.195,367.988,507.984,367.988z"/>
	<path style="fill:#3A3847;" d="M507.984,351.989h-39.521c-2.211,0-4-1.789-4-4s1.789-4,4-4h39.521c2.211,0,4,1.789,4,4
		S510.195,351.989,507.984,351.989z"/>
	<path style="fill:#3A3847;" d="M315.99,455.986c-2.21,0-3.999-1.789-3.999-4v-26.655c0-15.594,8.288-21.741,22.601-27.093
		c4.273-1.586,17.266-6.414,27.671-11.383c2.008-0.961,4.383-0.109,5.336,1.883c0.953,2,0.109,4.383-1.883,5.336
		c-10.733,5.125-23.983,10.046-28.335,11.663c-13.648,5.102-17.391,9.312-17.391,19.594v26.655
		C319.99,454.197,318.201,455.986,315.99,455.986z"/>
	<path style="fill:#3A3847;" d="M507.984,455.986c-2.21,0-3.999-1.789-3.999-4v-26.655c0-10.281-3.742-14.492-17.398-19.594
		c-11.796-4.382-21.069-8.21-28.343-11.694c-1.992-0.953-2.836-3.344-1.883-5.336c0.953-2,3.359-2.828,5.336-1.883
		c7.055,3.383,16.109,7.117,27.679,11.414c14.32,5.352,22.608,11.499,22.608,27.093v26.655
		C511.984,454.197,510.195,455.986,507.984,455.986z"/>
	<path style="fill:#3A3847;" d="M412.23,393.09c-22.602,0-59.998-35.976-59.998-76.975c0-2.211,1.789-4,3.999-4c2.211,0,4,1.789,4,4
		c0,35.569,32.437,68.975,51.999,68.975c19.562,0,51.998-33.405,51.998-68.975c0-2.211,1.789-4,4-4s4,1.789,4,4
		C472.228,357.114,434.831,393.09,412.23,393.09z"/>
	<path style="fill:#3A3847;" d="M355.99,311.998c-0.328,0-0.656-0.039-0.977-0.125c-1.648-0.414-2.852-1.812-3.008-3.5
		c-2.117-22.601,2.781-40.615,14.562-53.545c17.116-18.8,44.874-22.745,65.139-22.745c12.094,0,20.647,1.414,21.007,1.473
		c1.758,0.297,3.109,1.723,3.312,3.5c0.195,1.773-0.805,3.465-2.453,4.145c-3.414,1.402-5.602,3.398-6.695,6.097
		c-1.258,3.117-0.812,6.598-0.258,8.867c4.086,0.164,12.305,1.477,18.562,8.781c7.609,8.898,9.883,23.585,6.758,43.67
		c-0.258,1.625-1.484,2.938-3.094,3.289c-1.633,0.367-3.273-0.32-4.188-1.688l-14.227-21.335
		c-6.367,2.305-21.624,7.117-38.201,7.117c-16.633,0-32.234-4.844-38.679-7.141l-14.234,21.358
		C358.567,311.349,357.302,311.998,355.99,311.998z M451.986,279.999c1.305,0,2.57,0.641,3.328,1.781l9.867,14.805
		c0.617-11.984-1.445-21.015-6.078-26.437c-4.477-5.219-10.344-6-13.445-6c-0.781,0-1.281,0.055-1.383,0.062
		c-1.741,0.242-3.483-0.734-4.202-2.352c-0.164-0.375-3.969-9.23-0.609-17.555c0.562-1.402,1.289-2.699,2.164-3.886
		c-2.859-0.191-6.219-0.336-9.922-0.336c-18.655,0-44.077,3.492-59.225,20.128c-8.055,8.844-12.367,20.64-12.898,35.187
		l9.078-13.617c1.047-1.578,3.086-2.211,4.844-1.484c0.188,0.078,19.03,7.703,38.726,7.703c19.679,0,38.021-7.609,38.201-7.688
		C450.939,280.1,451.463,279.999,451.986,279.999z"/>
	<path style="fill:#3A3847;" d="M468.228,320.115c-2.211,0-4-1.789-4-4v-8.117c0-2.211,1.789-4,4-4s4,1.789,4,4v8.117
		C472.228,318.326,470.439,320.115,468.228,320.115z"/>
	<path style="fill:#3A3847;" d="M356.231,320.115c-2.21,0-3.999-1.789-3.999-4v-8.117c0-2.211,1.789-4,3.999-4c2.211,0,4,1.789,4,4
		v8.117C360.231,318.326,358.442,320.115,356.231,320.115z"/>
	<path style="fill:#3A3847;" d="M396.113,407.987c-1.039,0-2.062-0.406-2.828-1.172l-23.999-23.991
		c-1.562-1.562-1.562-4.094,0-5.656s4.094-1.562,5.656,0l21.968,21.961l13.547-6.719c1.961-0.961,4.367-0.18,5.359,1.812
		c0.977,1.977,0.172,4.375-1.812,5.359l-16.117,7.991C397.324,407.854,396.715,407.987,396.113,407.987z"/>
	<path style="fill:#3A3847;" d="M428.104,407.987c-0.602,0-1.211-0.133-1.773-0.414l-16.116-7.991
		c-1.984-0.984-2.789-3.383-1.812-5.359c0.992-1.992,3.391-2.773,5.359-1.812l13.546,6.719l21.968-21.961
		c1.562-1.562,4.094-1.562,5.656,0s1.562,4.094,0,5.656l-23.999,23.991C430.167,407.581,429.143,407.987,428.104,407.987z"/>
	<path style="fill:#3A3847;" d="M412.418,415.987c-1.023,0-2.047-0.391-2.828-1.172l-8-8c-1.562-1.562-1.562-4.093,0-5.655
		s4.094-1.562,5.656,0l8,7.999c1.562,1.562,1.562,4.094,0,5.656C414.465,415.596,413.441,415.987,412.418,415.987z"/>
	<path style="fill:#3A3847;" d="M412.418,415.987c-1.023,0-2.047-0.391-2.828-1.172c-1.562-1.562-1.562-4.094,0-5.656l8-7.999
		c1.562-1.562,4.093-1.562,5.655,0s1.562,4.093,0,5.655l-7.999,8C414.465,415.596,413.441,415.987,412.418,415.987z"/>
	<path style="fill:#3A3847;" d="M404.426,447.986c-0.148,0-0.297-0.008-0.453-0.023c-2.195-0.242-3.773-2.219-3.531-4.422l4-35.999
		c0.242-2.188,2.102-3.757,4.422-3.531c2.195,0.242,3.773,2.219,3.531,4.422l-4,35.999
		C408.168,446.471,406.433,447.986,404.426,447.986z"/>
	<path style="fill:#3A3847;" d="M420.409,447.986c-2.007,0-3.741-1.516-3.968-3.555l-4-35.999c-0.242-2.203,1.336-4.18,3.531-4.422
		c2.273-0.218,4.179,1.344,4.421,3.531l4,35.999c0.242,2.203-1.336,4.18-3.531,4.422
		C420.706,447.978,420.557,447.986,420.409,447.986z"/>
	<path style="fill:#3A3847;" d="M507.984,455.986H315.99c-2.21,0-3.999-1.789-3.999-4s1.789-4,3.999-4h191.994c2.211,0,4,1.789,4,4
		S510.195,455.986,507.984,455.986z"/>
	<path style="fill:#3A3847;" d="M93.989,233.688c-1.383,0-2.733-0.723-3.468-2.016c-17.859-31.214-12.547-70.795,12.905-96.247
		c25.476-25.472,65.068-30.761,96.271-12.895c1.922,1.098,2.586,3.543,1.484,5.461c-1.094,1.918-3.555,2.566-5.453,1.484
		c-28.085-16.089-63.717-11.312-86.646,11.605c-22.905,22.91-27.687,58.53-11.625,86.623c1.102,1.918,0.438,4.359-1.484,5.457
		C95.348,233.52,94.669,233.688,93.989,233.688z"/>
	<path style="fill:#3A3847;" d="M159.893,271.976c-13.577,0-27.241-3.438-39.592-10.516c-1.922-1.094-2.586-3.539-1.484-5.453
		c1.094-1.934,3.555-2.582,5.452-1.488c28.102,16.082,63.718,11.301,86.639-11.613c22.913-22.917,27.694-58.542,11.624-86.626
		c-1.102-1.918-0.438-4.363,1.484-5.461c1.891-1.098,4.352-0.438,5.453,1.484c17.867,31.214,12.555,70.795-12.905,96.259
		C201.174,263.953,180.628,271.976,159.893,271.976z"/>
	<path style="fill:#3A3847;" d="M88.92,267.07c-1.023,0-2.047-0.391-2.828-1.172c-1.562-1.562-1.562-4.094,0-5.656l11.319-11.309
		c1.562-1.562,4.094-1.562,5.656,0s1.562,4.098,0,5.656l-11.319,11.309C90.967,266.68,89.943,267.07,88.92,267.07z M111.552,244.445
		c-1.023,0-2.047-0.391-2.828-1.171c-1.562-1.562-1.562-4.094,0-5.656l11.312-11.312c1.562-1.562,4.093-1.562,5.655,0
		s1.562,4.094,0,5.656l-11.312,11.312C113.598,244.054,112.575,244.445,111.552,244.445z M134.176,221.817
		c-1.023,0-2.047-0.391-2.828-1.172c-1.562-1.562-1.562-4.094,0-5.656l11.312-11.312c1.562-1.562,4.094-1.562,5.656,0
		c1.562,1.562,1.562,4.093,0,5.656l-11.312,11.312C136.222,221.427,135.199,221.817,134.176,221.817z M156.8,199.193
		c-1.022,0-2.046-0.391-2.827-1.172c-1.562-1.562-1.562-4.094,0-5.656l11.312-11.316c1.562-1.562,4.094-1.562,5.656,0
		c1.562,1.562,1.562,4.094,0,5.656l-11.312,11.316C158.846,198.803,157.823,199.193,156.8,199.193z M179.425,176.565
		c-1.023,0-2.047-0.391-2.828-1.172c-1.562-1.562-1.562-4.097,0-5.656l11.32-11.312c1.562-1.562,4.093-1.562,5.655,0
		s1.562,4.098,0,5.656l-11.319,11.312C181.471,176.174,180.448,176.565,179.425,176.565z M202.056,153.936
		c-1.023,0-2.047-0.391-2.828-1.172c-1.562-1.562-1.562-4.094,0-5.656l11.312-11.312c1.562-1.562,4.094-1.562,5.656,0
		s1.562,4.094,0,5.656l-11.312,11.312C204.103,153.546,203.08,153.936,202.056,153.936z M224.68,131.308
		c-1.023,0-2.047-0.391-2.828-1.172c-1.562-1.562-1.562-4.094,0-5.656l11.312-11.312c1.562-1.562,4.094-1.562,5.656,0
		s1.562,4.093,0,5.656l-11.312,11.312C226.727,130.918,225.704,131.308,224.68,131.308z"/>
	<path style="fill:#3A3847;" d="M427.987,143.995H283.992c-2.211,0-4-1.789-4-4c0-2.21,1.789-4,4-4h143.995c2.211,0,4,1.789,4,4
		S430.198,143.995,427.987,143.995z"/>
	<path style="fill:#3A3847;" d="M427.987,175.994H283.992c-2.211,0-4-1.789-4-4c0-2.21,1.789-4,4-4h143.995c2.211,0,4,1.789,4,4
		S430.198,175.994,427.987,175.994z"/>
	<path style="fill:#3A3847;" d="M427.987,207.993H283.992c-2.211,0-4-1.789-4-4c0-2.21,1.789-4,4-4h143.995c2.211,0,4,1.789,4,4
		S430.198,207.993,427.987,207.993z"/>
	<path style="fill:#3A3847;" d="M355.529,239.992h-71.537c-2.211,0-4-1.789-4-4c0-2.21,1.789-4,4-4h71.537
		c2.21,0,3.999,1.789,3.999,4C359.528,238.203,357.739,239.992,355.529,239.992z"/>
	<path style="fill:#3A3847;" d="M491.985,335.99h-17.71c-2.211,0-4-1.789-4-4s1.789-4,4-4h17.71c2.211,0,4,1.789,4,4
		S494.196,335.99,491.985,335.99z"/>
</g>
<g>
</g>
<g>
</g>
<g>
</g>
<g>
</g>
<g>
</g>
<g>
</g>
<g>
</g>
<g>
</g>
<g>
</g>
<g>
</g>
<g>
</g>
<g>
</g>
<g>
</g>
<g>
</g>
<g>
</g>
</svg>
