<?xml version="1.0" encoding="iso-8859-1"?>
<!-- Generator: Adobe Illustrator 19.0.0, SVG Export Plug-In . SVG Version: 6.00 Build 0)  -->
<svg version="1.1" id="Capa_1" xmlns="http://www.w3.org/2000/svg" xmlns:xlink="http://www.w3.org/1999/xlink" x="0px" y="0px"
	 viewBox="0 0 480 480" style="enable-background:new 0 0 480 480;" xml:space="preserve">
<linearGradient id="SVGID_1_" gradientUnits="userSpaceOnUse" x1="-26.875" y1="563.235" x2="-26.875" y2="618.392" gradientTransform="matrix(8 0 0 -8 455 4941)">
	<stop  offset="0" style="stop-color:#006DF0"/>
	<stop  offset="1" style="stop-color:#00E7F0"/>
</linearGradient>
<path style="fill:url(#SVGID_1_);" d="M416,0H64c-4.418,0-8,3.582-8,8v464c0,4.418,3.582,8,8,8h352c4.418,0,8-3.582,8-8V8
	C424,3.582,420.418,0,416,0z M72,128h160v160H72V128z M248,128h160v160H248V128z M72,16h336v96H72V16z M72,304h160v160H72V304z
	 M408,464H248V304h160V464z"/>
<linearGradient id="SVGID_2_" gradientUnits="userSpaceOnUse" x1="-37.875" y1="563.235" x2="-37.875" y2="618.392" gradientTransform="matrix(8 0 0 -8 455 4941)">
	<stop  offset="0" style="stop-color:#006DF0"/>
	<stop  offset="1" style="stop-color:#00E7F0"/>
</linearGradient>
<path style="fill:url(#SVGID_2_);" d="M160,144h-16v56H88v16h56v56h16v-56h56v-16h-56V144z"/>
<linearGradient id="SVGID_3_" gradientUnits="userSpaceOnUse" x1="-50.0303" y1="572.3026" x2="-11.0283" y2="611.3126" gradientTransform="matrix(5.657 -5.6566 -5.6566 -5.657 3848.3474 3389.6851)">
	<stop  offset="0" style="stop-color:#006DF0"/>
	<stop  offset="1" style="stop-color:#00E7F0"/>
</linearGradient>
<path style="fill:url(#SVGID_3_);" d="M277.086,247.59l90.513-90.506l11.313,11.314l-90.513,90.506L277.086,247.59z"/>
<g>
	
		<linearGradient id="SVGID_4_" gradientUnits="userSpaceOnUse" x1="-15.875" y1="563.235" x2="-15.875" y2="618.392" gradientTransform="matrix(8 0 0 -8 455 4941)">
		<stop  offset="0" style="stop-color:#006DF0"/>
		<stop  offset="1" style="stop-color:#00E7F0"/>
	</linearGradient>
	<path style="fill:url(#SVGID_4_);" d="M264,360h128v16H264V360z"/>
	
		<linearGradient id="SVGID_5_" gradientUnits="userSpaceOnUse" x1="-15.875" y1="563.235" x2="-15.875" y2="618.392" gradientTransform="matrix(8 0 0 -8 455 4941)">
		<stop  offset="0" style="stop-color:#006DF0"/>
		<stop  offset="1" style="stop-color:#00E7F0"/>
	</linearGradient>
	<path style="fill:url(#SVGID_5_);" d="M264,392h128v16H264V392z"/>
	
		<linearGradient id="SVGID_6_" gradientUnits="userSpaceOnUse" x1="-37.875" y1="563.235" x2="-37.875" y2="618.392" gradientTransform="matrix(8 0 0 -8 455 4941)">
		<stop  offset="0" style="stop-color:#006DF0"/>
		<stop  offset="1" style="stop-color:#00E7F0"/>
	</linearGradient>
	<path style="fill:url(#SVGID_6_);" d="M191.6,333.088l-39.6,39.6l-39.6-39.6L101.088,344.4l39.6,39.6l-39.6,39.6l11.312,11.312
		l39.6-39.6l39.6,39.6l11.312-11.312l-39.6-39.6l39.6-39.6L191.6,333.088z"/>
	
		<linearGradient id="SVGID_7_" gradientUnits="userSpaceOnUse" x1="-19.4124" y1="563.235" x2="-19.4124" y2="618.392" gradientTransform="matrix(8 0 0 -8 455 4941)">
		<stop  offset="0" style="stop-color:#006DF0"/>
		<stop  offset="1" style="stop-color:#00E7F0"/>
	</linearGradient>
	<path style="fill:url(#SVGID_7_);" d="M299.712,203.704c13.255-0.006,23.995-10.756,23.989-24.011
		c-0.006-13.255-10.756-23.995-24.011-23.989c-13.255,0.006-23.995,10.756-23.989,24.011c0.003,6.368,2.536,12.474,7.043,16.973
		C287.246,201.183,293.35,203.707,299.712,203.704z M294.056,174.056c3.126-3.122,8.191-3.12,11.314,0.006
		c3.122,3.126,3.12,8.191-0.006,11.314c-3.123,3.12-8.184,3.12-11.307,0c-3.126-3.122-3.129-8.188-0.006-11.314
		C294.052,174.06,294.054,174.058,294.056,174.056z"/>
	
		<linearGradient id="SVGID_8_" gradientUnits="userSpaceOnUse" x1="-12.3407" y1="563.235" x2="-12.3407" y2="618.392" gradientTransform="matrix(8 0 0 -8 455 4941)">
		<stop  offset="0" style="stop-color:#006DF0"/>
		<stop  offset="1" style="stop-color:#00E7F0"/>
	</linearGradient>
	<path style="fill:url(#SVGID_8_);" d="M373.256,219.312c-9.371-9.374-24.567-9.376-33.941-0.005
		c-9.374,9.371-9.376,24.567-0.005,33.941s24.567,9.376,33.941,0.005c0.002-0.002,0.003-0.003,0.005-0.005
		C382.603,243.867,382.603,228.693,373.256,219.312L373.256,219.312z M361.944,241.944c-3.124,3.125-8.189,3.125-11.314,0.002
		s-3.125-8.189-0.002-11.314s8.189-3.125,11.314-0.002c0.001,0.001,0.001,0.001,0.002,0.002
		C365.067,233.756,365.067,238.82,361.944,241.944z"/>
</g>
<g>
</g>
<g>
</g>
<g>
</g>
<g>
</g>
<g>
</g>
<g>
</g>
<g>
</g>
<g>
</g>
<g>
</g>
<g>
</g>
<g>
</g>
<g>
</g>
<g>
</g>
<g>
</g>
<g>
</g>
</svg>
