<?xml version="1.0" encoding="iso-8859-1"?>
<!-- Generator: Adobe Illustrator 19.0.0, SVG Export Plug-In . SVG Version: 6.00 Build 0)  -->
<svg version="1.1" id="Capa_1" xmlns="https://www.w3.org/2000/svg" xmlns:xlink="https://www.w3.org/1999/xlink" x="0px" y="0px"
	 viewBox="0 0 512 512" style="enable-background:new 0 0 512 512;" xml:space="preserve">
<path style="fill:#EA976E;" d="M226.368,224.953c-13.805,0-25.938-3.79-35.86-10.131v33.961l35.706,44.074l35.706-44.074v-34.907
	C251.805,220.854,239.558,224.953,226.368,224.953z"/>
<path style="fill:#DD855F;" d="M210.795,223.239c-7.488-1.695-14.293-4.586-20.287-8.417v33.962l20.287,25.042V223.239z"/>
<path style="fill:#FF5050;" d="M171.801,504.968v-1.223h161.294v-69.161c0-6.429,5.213-11.642,11.642-11.642h46.58
	c0-32.486,0-66.842,0-85.862c0-39.827-34.937-54.19-34.937-54.19l-94.46-36.582l-35.706,44.074l-35.706-44.074l-94.361,36.582
	c0,0-34.937,14.363-34.937,54.19c0,19.02,0,53.375,0,85.862h46.582c6.429,0,11.642,5.212,11.642,11.642v70.384
	C134.607,504.968,152.549,504.968,171.801,504.968z"/>
<path style="fill:#F24646;" d="M81.211,328.08c0-27.929,17.169-43.323,27.435-50.036l-12.499,4.845c0,0-34.937,14.363-34.937,54.19
	c0,19.02,0,53.375,0,85.862h20.001C81.211,380.32,81.211,338.056,81.211,328.08z"/>
<path style="fill:#5B5D6E;" d="M225.458,7.968c-47.195,0-85.451,38.257-85.451,85.452v36.505c5.711-5.294,13.836-8.171,21.767-7.111
	v-4.258c0-3.385,2.89-6.058,6.241-5.805c33.038,2.373,66.661-8.125,92.084-24.732c2.373-1.551,5.516-1.165,7.444,0.908
	c21.734,23.362,21.603,22.458,21.603,25.509v8.362c8.694-1.303,16.405,1.383,21.763,6.364v-35.74
	C310.909,46.226,272.652,7.968,225.458,7.968z"/>
<path style="fill:#4D4F5B;" d="M161.773,93.421c0-43.505,32.517-79.389,74.569-84.738c-3.566-0.454-7.193-0.714-10.884-0.714
	c-47.195,0-85.451,38.257-85.451,85.452v36.505c5.711-5.294,13.835-8.171,21.766-7.111V93.421z"/>
<path style="fill:#EA976E;" d="M109.03,421.704H61.21c0,23.005,0,59.103,0,71.622c0,6.429,5.212,11.642,11.642,11.642h47.82v-71.622
	C120.671,426.916,115.459,421.704,109.03,421.704z"/>
<path style="fill:#DD855F;" d="M81.211,493.326c0-12.52,0-48.617,0-71.622H61.21c0,23.005,0,59.103,0,71.622
	c0,6.429,5.212,11.642,11.642,11.642h20.001C86.424,504.968,81.211,499.755,81.211,493.326z"/>
<g>
	<path style="fill:#EA976E;" d="M286.669,117.842v46.81c0,0.507-0.027,1.009-0.039,1.514c16.565,2.508,32.016-9.461,32.016-24.16
		C318.646,127.278,303.184,115.367,286.669,117.842z"/>
	<path style="fill:#EA976E;" d="M164.25,164.653v-46.792c-14.422-1.926-31.978,9.143-31.978,24.145
		c0,14.68,15.422,26.671,32.015,24.159C164.275,165.661,164.25,165.158,164.25,164.653z"/>
</g>
<g>
	<path style="fill:#DD855F;" d="M310.948,125.238c-6.058-5.637-15.002-8.786-24.278-7.395v46.81c0,0.507-0.027,1.009-0.039,1.514
		c9.305,1.409,18.256-1.75,24.317-7.394V125.238z"/>
	<path style="fill:#DD855F;" d="M164.25,160.853c-6.175-4.52-10.227-11.328-10.227-18.846c0-7.356,4.224-13.761,10.227-18.157
		v-5.988c-14.421-1.926-31.978,9.143-31.978,24.145c0,14.68,15.422,26.671,32.015,24.159c-0.012-0.505-0.037-1.008-0.037-1.513
		V160.853z"/>
</g>
<g>
	<path style="fill:#F98282;" d="M269.327,313.029l26.701-53.512l-34.107-13.209l-35.706,44.074l34.812,24.723
		C263.845,317.107,267.783,316.121,269.327,313.029z"/>
	<path style="fill:#F98282;" d="M183.151,313.029l-26.701-53.512l34.107-13.209l35.706,44.074l-34.812,24.723
		C188.633,317.107,184.694,316.121,183.151,313.029z"/>
</g>
<path style="fill:#F0A479;" d="M267.543,83.973c-1.929-2.073-5.071-2.458-7.444-0.908c-25.423,16.607-59.045,27.106-92.084,24.733
	c-3.351-0.254-6.241,2.42-6.241,5.804v51.05c0,32.81,25.709,62.777,64.595,62.777c34.616,0,62.778-28.162,62.778-62.777v-55.171
	C289.145,106.431,289.276,107.335,267.543,83.973z"/>
<path style="fill:#EA976E;" d="M181.774,164.652v-56.6c-4.582,0.148-9.177,0.075-13.76-0.254c-3.351-0.254-6.241,2.42-6.241,5.805
	v51.05c0,32.81,25.709,62.777,64.595,62.777c3.277,0,6.496-0.255,9.64-0.741C202.982,221.9,181.774,194.451,181.774,164.652z"/>
<path style="fill:#E4EAF8;" d="M410.404,273.393H197.349c-8.173,0-14.861,6.76-14.861,15.024V451.9
	c0,8.262,6.687,15.024,14.861,15.024h213.055c8.174,0,14.861-6.76,14.861-15.024V288.415
	C425.265,280.153,418.577,273.393,410.404,273.393z"/>
<g>
	<path style="fill:#D8DCE5;" d="M204.24,451.899V288.415c0-8.262,6.687-15.024,14.86-15.024h-21.751
		c-8.173,0-14.86,6.76-14.86,15.024v163.484c0,8.263,6.687,15.024,14.86,15.024H219.1
		C210.927,466.923,204.24,460.163,204.24,451.899z"/>
	<path style="fill:#D8DCE5;" d="M435.959,464.821H171.793c-8.173,0-14.861,6.687-14.861,14.861v10.426
		c0,8.174,6.687,14.861,14.861,14.861h264.166c8.173,0,14.861-6.687,14.861-14.861v-10.426
		C450.82,471.509,444.133,464.821,435.959,464.821z"/>
</g>
<path style="fill:#C3C8D1;" d="M435.959,484.894H171.793c-6.484,0-12.02-4.215-14.036-10.037c-0.525,1.516-0.824,3.135-0.824,4.824
	v10.426c0,8.174,6.687,14.861,14.861,14.861H435.96c8.173,0,14.861-6.687,14.861-14.861v-10.426c0-1.689-0.299-3.308-0.824-4.824
	C447.979,480.679,442.444,484.894,435.959,484.894z"/>
<path d="M276.732,339.761c-3.014-2.841-7.761-2.701-10.603,0.315l-27.047,28.702c-2.723,2.889-2.723,7.398,0,10.288l27.047,28.702
	c2.842,3.016,7.589,3.154,10.603,0.315c3.015-2.841,3.155-7.587,0.314-10.603l-22.198-23.557l22.198-23.557
	C279.887,347.349,279.746,342.602,276.732,339.761z"/>
<path d="M330.992,408.082c3.009,2.836,7.756,2.704,10.603-0.315l27.047-28.702c2.723-2.889,2.723-7.398,0-10.288l-27.047-28.702
	c-2.842-3.015-7.588-3.154-10.603-0.315c-3.015,2.841-3.155,7.587-0.314,10.603l22.198,23.557l-22.198,23.557
	C327.836,400.493,327.977,405.241,330.992,408.082z"/>
<path d="M306.168,342.878l-18.863,57.402c-1.293,3.935,0.849,8.173,4.783,9.467c3.927,1.293,8.173-0.843,9.468-4.784l18.863-57.402
	c1.293-3.935-0.849-8.174-4.783-9.467C311.697,336.799,307.46,338.944,306.168,342.878z"/>
<path d="M435.944,456.853h-4.445c0.807-2.306,1.25-4.782,1.25-7.36v-56.821c0-4.142-3.357-7.5-7.5-7.5s-7.5,3.358-7.5,7.5v56.821
	c0,4.058-3.302,7.36-7.359,7.36H197.334c-4.058,0-7.359-3.302-7.359-7.36c0-8.336,0-154.751,0-161.708
	c0-0.254,0.013-0.504,0.038-0.751c0.378-3.706,3.517-6.608,7.321-6.608c10.233,0,200.681,0,213.055,0
	c4.058,0,7.359,3.302,7.359,7.36v69.883c0,4.142,3.357,7.5,7.5,7.5s7.5-3.358,7.5-7.5v-69.883c0-12.33-10.031-22.361-22.36-22.361
	h-77.147l-63.837-24.723v-21.03c14.242-11.076,24.117-27.495,26.596-46.226c7.101-0.5,13.69-3.152,19.071-7.779
	c7.027-6.043,11.059-14.838,11.059-24.126c0-7.707-2.781-15.068-7.736-20.802V92.953C318.394,41.699,276.697,0,225.443,0
	s-92.952,41.699-92.952,92.953v28.511c-5.009,5.678-7.733,12.665-7.733,20.075c0,16.594,12.746,30.68,30.119,31.906
	c2.5,19.089,12.667,36.118,28.117,47.339v19.92l-89.571,34.725c-0.047,0.018-0.094,0.037-0.141,0.056
	c-1.616,0.664-39.585,16.783-39.585,61.128c0,9.814,0,152.069,0,156.245c0,10.556,8.588,19.142,19.142,19.142
	c6.669,0,210.511,0,213.525,0c4.143,0,7.5-3.358,7.5-7.5s-3.357-7.5-7.5-7.5H171.779c-0.507,0-1.003-0.052-1.481-0.15
	c-3.35-0.688-5.878-3.659-5.878-7.21v-10.426c0-4.058,3.302-7.359,7.359-7.359c10.748,0,249.295,0,264.165,0
	c4.058,0,7.359,3.301,7.359,7.359v10.426c0,4.058-3.302,7.36-7.359,7.36H321.363c-4.143,0-7.5,3.358-7.5,7.5s3.357,7.5,7.5,7.5
	h114.581c12.33,0,22.36-10.032,22.36-22.361v-10.426C458.305,466.883,448.274,456.853,435.944,456.853z M285.623,263.068
	l-1.175,2.355h-28.757l8.601-10.617L285.623,263.068z M188.116,254.821l8.597,10.611c-9.676,0.265-17.983,6.74-20.785,15.882
	l-9.105-18.246L188.116,254.821z M305.291,154.291c-2.454,2.11-5.416,3.459-8.661,3.987v-33.477
	c8.619,1.403,14.499,8.55,14.499,16.737C311.13,146.452,309.002,151.1,305.291,154.291z M147.491,92.953
	c0-42.983,34.969-77.952,77.951-77.952s77.951,34.969,77.951,77.952v18.044c-2.18-0.663-4.442-1.101-6.762-1.307
	c0-3.244,0.02-4.814-2.244-7.922c-2.51-3.446-7.442-8.401-21.368-23.37c-0.001-0.001-0.001-0.001-0.002-0.002
	c-4.35-4.675-11.522-5.681-17.036-2.076c-26.13,17.069-57.997,25.647-87.415,23.532c-6.505-0.493-12.338,3.829-13.906,10.046
	c-2.44,0.281-5.174,0.938-7.168,1.615V92.953H147.491z M139.757,141.538c0-8.015,6.645-14.543,14.5-16.359v33.1
	C145.539,156.864,139.757,149.654,139.757,141.538z M169.292,165.574c0-0.017,0.002-0.033,0.001-0.05l-0.015-0.499
	c-0.005-0.28-0.021-0.561-0.021-0.841v-46.792v-2.465c31.687,1.856,65.672-7.308,93.738-25.283
	c10.66,11.448,16.745,17.781,18.634,20.099c0,5.884,0,47.705,0,54.44c0,0.258-0.016,0.511-0.019,0.768l-0.018,0.558
	c-0.001,0.025,0.002,0.049,0.002,0.074c-0.746,29.778-25.153,53.876-55.242,53.876C191.605,219.46,170.015,192.691,169.292,165.574z
	 M226.353,234.461c9.958,0,19.709-2.193,28.053-5.847v14.568l-18.018,22.241h-20.375l-18.018-22.241v-14.098
	C206.549,232.528,216.303,234.461,226.353,234.461z M72.836,496.999c-2.283,0-4.141-1.858-4.141-4.141v-64.122h40.318
	c2.283,0,4.142,1.858,4.142,4.141c0,7.719,0,56.763,0,64.122H72.836z M171.779,456.853c-12.33,0-22.36,10.031-22.36,22.36v10.426
	l0,0c0,0,0,0,0,0.001c0,2.538,0.444,5.069,1.244,7.359h-22.505c0-12.906,0-102.938,0-115.517c0-4.142-3.357-7.5-7.5-7.5
	s-7.5,3.358-7.5,7.5v32.717c-1.335-0.296-2.718-0.464-4.142-0.464H68.695v-77.123c0-33.771,28.496-46.487,30.243-47.234
	l53.834-20.87l22.2,44.494v136.491c0,2.362,0.392,4.92,1.244,7.36h-4.437V456.853z"/>
<g>
</g>
<g>
</g>
<g>
</g>
<g>
</g>
<g>
</g>
<g>
</g>
<g>
</g>
<g>
</g>
<g>
</g>
<g>
</g>
<g>
</g>
<g>
</g>
<g>
</g>
<g>
</g>
<g>
</g>
</svg>
