<?xml version="1.0" encoding="iso-8859-1"?>
<!-- Generator: Adobe Illustrator 19.0.0, SVG Export Plug-In . SVG Version: 6.00 Build 0)  -->
<svg version="1.1" id="Capa_1" xmlns="http://www.w3.org/2000/svg" xmlns:xlink="http://www.w3.org/1999/xlink" x="0px" y="0px"
	 viewBox="0 0 483.038 483.038" style="enable-background:new 0 0 483.038 483.038;" xml:space="preserve">
<linearGradient id="SVGID_1_" gradientUnits="userSpaceOnUse" x1="-26.6851" y1="558.4633" x2="-26.6851" y2="626.1243" gradientTransform="matrix(8 0 0 -8 454.9999 4968.3447)">
	<stop  offset="0" style="stop-color:#006DF0"/>
	<stop  offset="1" style="stop-color:#00E7F0"/>
</linearGradient>
<path style="fill:url(#SVGID_1_);" d="M480.696,36.262l-33.92-33.92c-3.124-3.123-8.188-3.123-11.312,0l-33.92,33.92L384,53.806
	V11.038c0-4.418-3.582-8-8-8H8c-4.418,0-8,3.582-8,8v464c0,4.418,3.582,8,8,8h368c4.418,0,8-3.582,8-8V144.27l62.776-62.776
	l33.92-33.92C483.819,44.45,483.819,39.386,480.696,36.262L480.696,36.262z M368,467.038H16v-448h352v50.768L209.224,228.582
	c-0.622,0.616-1.136,1.333-1.52,2.12l-32.96,66.88c-1.514,3.073-0.903,6.77,1.52,9.192c0.698,0.672,1.511,1.214,2.4,1.6
	c0.274,0.107,0.555,0.198,0.84,0.272c0.619,0.205,1.261,0.331,1.912,0.376c0.176,0,0.344,0.104,0.52,0.104s0.256-0.088,0.392-0.096
	c1.084-0.024,2.152-0.272,3.136-0.728l66.88-32.96c0.787-0.384,1.504-0.898,2.12-1.52L368,160.27V467.038z M244.08,261.566
	l-44.576,21.968l21.968-44.576L407.2,53.23l22.608,22.608L244.08,261.566z M441.12,64.526l-22.608-22.608L441.12,19.31
	l22.608,22.608L441.12,64.526z"/>
<g>
</g>
<g>
</g>
<g>
</g>
<g>
</g>
<g>
</g>
<g>
</g>
<g>
</g>
<g>
</g>
<g>
</g>
<g>
</g>
<g>
</g>
<g>
</g>
<g>
</g>
<g>
</g>
<g>
</g>
</svg>
