<?xml version="1.0" encoding="iso-8859-1"?>
<!-- Generator: Adobe Illustrator 19.0.0, SVG Export Plug-In . SVG Version: 6.00 Build 0)  -->
<svg version="1.1" id="Capa_1" xmlns="https://www.w3.org/2000/svg" xmlns:xlink="https://www.w3.org/1999/xlink" x="0px" y="0px"
	 viewBox="0 0 488 488" style="enable-background:new 0 0 488 488;" xml:space="preserve">
<path style="fill:#F9F6ED;" d="M100,360h352c13.255,0,24,10.745,24,24v104l0,0H100l0,0V360L100,360z"/>
<g>
	<circle style="fill:#1895AA;" cx="188" cy="448" r="16"/>
	<circle style="fill:#1895AA;" cx="332" cy="448" r="16"/>
</g>
<g>
	<circle style="fill:#91E8E8;" cx="92" cy="80" r="80"/>
	<circle style="fill:#91E8E8;" cx="244" cy="80" r="80"/>
	<circle style="fill:#91E8E8;" cx="396" cy="80" r="80"/>
</g>
<path style="fill:#EF9F35;" d="M428,360h24c13.255,0,24,10.745,24,24v96l0,0h-24c-13.255,0-24-10.745-24-24l0,0V360L428,360z"/>
<g>
	<path style="fill:#3C3C48;" d="M188,424c-20.96,0-40.48,12.72-54.8,35.76l13.6,8.48c4.475-7.515,10.308-14.134,17.2-19.52
		c0,13.255,10.745,24,24,24s24-10.745,24-24c6.921,5.378,12.781,11.998,17.28,19.52l13.6-8.48C228.48,436.72,208.96,424,188,424z
		 M196,448c0,4.418-3.582,8-8,8s-8-3.582-8-8s3.582-8,8-8S196,443.582,196,448z"/>
	<path style="fill:#3C3C48;" d="M332,424c-20.96,0-40.48,12.72-54.8,35.76l13.6,8.48c4.475-7.515,10.308-14.134,17.2-19.52
		c0,13.255,10.745,24,24,24s24-10.745,24-24c6.921,5.378,12.781,11.998,17.28,19.52l13.6-8.48C372.48,436.72,352.96,424,332,424
		L332,424z M340,448c0,4.418-3.582,8-8,8s-8-3.582-8-8s3.582-8,8-8S340,443.582,340,448z"/>
</g>
<path style="fill:#EF9F35;" d="M12,264h344c53.019,0,96,42.981,96,96l0,0H108C54.981,360,12,317.019,12,264L12,264z"/>
<g>
	<path style="fill:#3C3C48;" d="M460,353.04c-3.669-54.703-49.174-97.163-104-97.04H12c-4.418,0-8,3.582-8,8
		c0.06,51.214,37.396,94.761,88,102.64V488h16V368h312v88c0,17.673,14.327,32,32,32h24c4.418,0,8-3.582,8-8v-96
		C483.989,369.417,474.12,356.686,460,353.04z M428,352H108c-45.641,0.189-83.851-34.548-88-80h336
		c45.641-0.189,83.851,34.548,88,80H428z M468,472h-16c-8.837,0-16-7.163-16-16v-88h16c8.837,0,16,7.163,16,16V472z"/>
	<path style="fill:#3C3C48;" d="M60,37.44l32-12.8l32,12.8v22L87.92,81.12C85.49,82.561,84,85.175,84,88v32h16V92.56l36.08-21.68
		c2.43-1.441,3.92-4.055,3.92-6.88V32c0.003-3.278-1.994-6.227-5.04-7.44l-40-16c-1.901-0.757-4.019-0.757-5.92,0l-40,16
		C45.994,25.773,43.997,28.722,44,32v32h16L60,37.44z"/>
	<path style="fill:#3C3C48;" d="M84,136h16v16H84V136z"/>
	<path style="fill:#3C3C48;" d="M212,37.44l32-12.8l32,12.8v22l-36.08,21.68C237.49,82.561,236,85.175,236,88v32h16V92.56
		l36.08-21.68c2.43-1.441,3.92-4.055,3.92-6.88V32c0.003-3.278-1.994-6.227-5.04-7.44l-40-16c-1.901-0.757-4.019-0.757-5.92,0
		l-40,16c-3.046,1.213-5.043,4.162-5.04,7.44v32h16L212,37.44z"/>
	<path style="fill:#3C3C48;" d="M236,136h16v16h-16V136z"/>
	<path style="fill:#3C3C48;" d="M364,37.44l32-12.8l32,12.8v22l-36.08,21.68C389.49,82.561,388,85.175,388,88v32h16V92.56
		l36.08-21.68c2.43-1.441,3.92-4.055,3.92-6.88V32c0.003-3.278-1.994-6.227-5.04-7.44l-40-16c-1.901-0.757-4.019-0.757-5.92,0
		l-40,16c-3.046,1.213-5.043,4.162-5.04,7.44v32h16L364,37.44z"/>
	<path style="fill:#3C3C48;" d="M388,136h16v16h-16V136z"/>
</g>
<g>
</g>
<g>
</g>
<g>
</g>
<g>
</g>
<g>
</g>
<g>
</g>
<g>
</g>
<g>
</g>
<g>
</g>
<g>
</g>
<g>
</g>
<g>
</g>
<g>
</g>
<g>
</g>
<g>
</g>
</svg>
