<?xml version="1.0" encoding="iso-8859-1"?>
<!-- Generator: Adobe Illustrator 19.0.0, SVG Export Plug-In . SVG Version: 6.00 Build 0)  -->
<svg version="1.1" id="Capa_1" xmlns="https://www.w3.org/2000/svg" xmlns:xlink="https://www.w3.org/1999/xlink" x="0px" y="0px"
	 viewBox="0 0 512 512" style="enable-background:new 0 0 512 512;" xml:space="preserve">
<circle style="fill:#6C9BAA;" cx="412.092" cy="62.978" r="62.978"/>
<path style="fill:#46738C;" d="M412.094,70.655h-25.566c-4.24,0-7.676-3.437-7.676-7.676s3.436-7.676,7.676-7.676h17.89V27.519
	c0-4.24,3.436-7.676,7.676-7.676c4.24,0,7.676,3.437,7.676,7.676v35.459C419.77,67.218,416.334,70.655,412.094,70.655z"/>
<g>
	<path style="fill:#A03C19;" d="M70.013,512c-1.38,0-2.783-0.249-4.148-0.776c-5.943-2.292-8.903-8.968-6.61-14.911l43.422-113.382
		c2.292-5.943,8.969-8.901,14.911-6.61c5.943,2.293,8.903,8.968,6.61,14.911L80.777,504.614C79.011,509.192,74.643,512,70.013,512z"
		/>
	<path style="fill:#A03C19;" d="M237.255,512c-4.63,0-8.998-2.808-10.764-7.387L182.51,391.233
		c-2.292-5.943,0.668-12.619,6.611-14.911c5.942-2.292,12.619,0.667,14.911,6.611l43.982,113.381
		c2.292,5.943-0.668,12.619-6.611,14.911C240.039,511.751,238.635,512,237.255,512z"/>
</g>
<path style="fill:#CD5014;" d="M222.855,392.375H85.979c-7.45,0-13.859-5.271-15.296-12.581L37.225,209.578
	c-1.66-8.448,3.842-16.642,12.289-18.302c8.447-1.656,16.641,3.842,18.302,12.289l30.986,157.634h124.054
	c8.609,0,15.588,6.979,15.588,15.588C238.444,385.396,231.465,392.375,222.855,392.375z"/>
<path style="fill:#6C9BAA;" d="M280.227,321.03c-4.796-7.057-12.774-11.28-21.307-11.28h-59.275l1.654-105.033
	c0.151-9.587-3.534-18.838-10.237-25.696s-15.866-10.753-25.455-10.822l-15.366-0.11c-14.276-0.102-28,5.508-38.118,15.58
	c-10.118,10.073-15.787,23.773-15.748,38.049L96.66,325.95c0.026,9.564,3.863,18.724,10.659,25.453
	c6.797,6.728,15.996,9.983,25.559,9.912h65.953l0.001-0.038h22.185L175.016,476.75c-5.235,13.23,1.246,28.2,14.477,33.435
	c13.232,5.236,28.202-1.25,33.435-14.477l59.947-150.717C286.015,337.059,285.023,328.087,280.227,321.03z"/>
<circle style="fill:#FFB69E;" cx="177.608" cy="116.046" r="47.391"/>
<path style="fill:#414B82;" d="M284.682,335.785c0.054-5.185-1.457-10.345-4.455-14.755c-4.796-7.057-12.774-11.28-21.307-11.28
	h-59.275L96.793,328.81c0.703,8.514,4.411,16.537,10.527,22.592c6.323,6.259,14.726,9.508,23.567,9.875h67.947l0,0h22.185l0,0l0,0
	l-46.001,115.474c-5.235,13.23,1.246,28.2,14.477,33.435c0.827,0.327,1.661,0.608,2.499,0.846
	c12.566,3.553,26.03-2.922,30.936-15.322l59.947-150.717C284.054,342.018,284.649,338.896,284.682,335.785z"/>
<path style="fill:#692823;" d="M342.829,300.598H222.467c-6.37,0-11.534-5.163-11.534-11.534c0-6.37,5.164-11.534,11.534-11.534
	h120.362c6.37,0,11.534,5.163,11.534,11.534C354.363,295.434,349.199,300.598,342.829,300.598z"/>
<path style="fill:#55879B;" d="M257.34,269.302c-2.929,0-5.785-1.487-7.41-4.177l-34.865-57.675
	c-2.472-4.089-1.161-9.406,2.928-11.878c4.089-2.472,9.406-1.161,11.878,2.928l34.864,57.675c2.473,4.089,1.161,9.406-2.928,11.878
	C260.408,268.9,258.864,269.302,257.34,269.302z"/>
<path style="fill:#FFB69E;" d="M158.481,289.243l-34.306-77.839c-4.655-10.562,0.134-22.899,10.696-27.554
	c10.561-4.655,22.899,0.133,27.554,10.696l26.711,60.606l67.475-21.702c10.99-3.534,22.762,2.509,26.296,13.497
	c3.534,10.988-2.509,22.761-13.497,26.295l-85.405,27.469C173.881,303.968,162.825,299.102,158.481,289.243z"/>
<path style="fill:#A5C8CD;" d="M142.558,253.117l39.044-15.058l-19.177-43.512c-4.655-10.563-16.993-15.351-27.554-10.696
	c-10.563,4.655-15.351,16.992-10.696,27.554L142.558,253.117z"/>
<g>
</g>
<g>
</g>
<g>
</g>
<g>
</g>
<g>
</g>
<g>
</g>
<g>
</g>
<g>
</g>
<g>
</g>
<g>
</g>
<g>
</g>
<g>
</g>
<g>
</g>
<g>
</g>
<g>
</g>
</svg>
