<?xml version="1.0" encoding="iso-8859-1"?>
<!-- Generator: Adobe Illustrator 19.0.0, SVG Export Plug-In . SVG Version: 6.00 Build 0)  -->
<svg version="1.1" id="Capa_1" xmlns="https://www.w3.org/2000/svg" xmlns:xlink="https://www.w3.org/1999/xlink" x="0px" y="0px"
	 viewBox="0 0 483.439 483.439" style="enable-background:new 0 0 483.439 483.439;" xml:space="preserve">
<linearGradient id="SVGID_1_" gradientUnits="userSpaceOnUse" x1="-31.6954" y1="561.9435" x2="-31.6954" y2="622.3276" gradientTransform="matrix(8 0 0 -8 436.9994 4971.9473)">
	<stop  offset="0" style="stop-color:#006DF0"/>
	<stop  offset="1" style="stop-color:#00E7F0"/>
</linearGradient>
<path style="fill:url(#SVGID_1_);" d="M91.076,330.639l0.144-0.056c0.826-0.378,1.583-0.892,2.24-1.52
	c0.08-0.08,0.184-0.104,0.264-0.176l237.6-237.6l22.608-22.648c15.817-15.423,16.136-40.747,0.713-56.564
	s-40.747-16.136-56.564-0.713c-0.242,0.236-0.481,0.475-0.717,0.717L274.74,34.703l-22.616,22.616L37.148,272.287
	c-0.072,0.08-0.096,0.184-0.168,0.264c-0.635,0.656-1.152,1.416-1.528,2.248v0.08L1.516,353.991
	c-1.74,4.061,0.142,8.764,4.203,10.504c2.012,0.862,4.289,0.862,6.301,0l79.048-33.856H91.076z M303.02,96.959l-33.936-33.968
	l11.312-11.32l33.944,33.944L303.02,96.959z M308.676,23.415c9.499-9.065,24.445-9.065,33.944,0c9.369,9.372,9.369,24.564,0,33.936
	l-16.968,16.976l-33.944-33.968L308.676,23.415z M257.772,74.303l33.936,33.936L88.068,311.895l-33.952-33.952L257.772,74.303z
	 M24.092,341.919l21.416-49.96l28.544,28.552L24.092,341.919z"/>
<g>
	
		<linearGradient id="SVGID_2_" gradientUnits="userSpaceOnUse" x1="-23.3034" y1="561.9435" x2="-23.3034" y2="622.3276" gradientTransform="matrix(8 0 0 -8 436.9994 4971.9473)">
		<stop  offset="0" style="stop-color:#006DF0"/>
		<stop  offset="1" style="stop-color:#00E7F0"/>
	</linearGradient>
	<path style="fill:url(#SVGID_2_);" d="M477.635,20.047c-2.99-1.239-6.432-0.553-8.72,1.736l-448,448
		c-3.124,3.125-3.123,8.19,0.002,11.314c1.5,1.499,3.534,2.342,5.654,2.342h448c4.418,0,8-3.582,8-8v-448
		C482.572,24.203,480.624,21.286,477.635,20.047z M45.883,467.439L466.571,46.751v84.688h-40c-4.418,0-8,3.582-8,8s3.582,8,8,8h40
		v32h-24c-4.418,0-8,3.582-8,8s3.582,8,8,8h24v32h-40c-4.418,0.006-7.995,3.593-7.989,8.011c0.006,4.41,3.579,7.983,7.989,7.989h40
		v32h-24c-4.418,0-8,3.582-8,8s3.582,8,8,8h24v32h-40c-4.418,0-8,3.582-8,8s3.582,8,8,8h40v32h-24c-4.418,0-8,3.582-8,8s3.582,8,8,8
		h24v32h-40c-4.418,0-8,3.582-8,8s3.582,8,8,8h40v32H45.883z"/>
	
		<linearGradient id="SVGID_3_" gradientUnits="userSpaceOnUse" x1="-16.2324" y1="561.9435" x2="-16.2324" y2="622.3276" gradientTransform="matrix(8 0 0 -8 436.9994 4971.9473)">
		<stop  offset="0" style="stop-color:#006DF0"/>
		<stop  offset="1" style="stop-color:#00E7F0"/>
	</linearGradient>
	<path style="fill:url(#SVGID_3_);" d="M397.635,213.191c-2.989-1.252-6.439-0.565-8.72,1.736L214.052,389.783
		c-3.124,3.125-3.123,8.19,0.002,11.314c1.5,1.499,3.534,2.342,5.654,2.342h174.864c4.418,0,8-3.582,8-8V220.583
		C402.572,217.347,400.624,214.43,397.635,213.191z M386.572,387.439H239.02l147.552-147.544V387.439z"/>
</g>
<g>
</g>
<g>
</g>
<g>
</g>
<g>
</g>
<g>
</g>
<g>
</g>
<g>
</g>
<g>
</g>
<g>
</g>
<g>
</g>
<g>
</g>
<g>
</g>
<g>
</g>
<g>
</g>
<g>
</g>
</svg>
