<?xml version="1.0"?>
<svg xmlns="https://www.w3.org/2000/svg" xmlns:xlink="https://www.w3.org/1999/xlink" version="1.1" id="Capa_1" x="0px" y="0px" viewBox="0 0 512 512" style="enable-background:new 0 0 512 512;" xml:space="preserve" width="512px" height="512px" class=""><g><g>
	<g>
		<path d="M164.001,344.004c-2.211,0-4,1.789-4,4c0,1.117-1.437,7.445-29.819,21.921c-1.961,1-2.75,3.406-1.742,5.375    c0.703,1.391,2.109,2.188,3.562,2.188c0.618,0,1.235-0.14,1.82-0.438c30.296-15.452,34.179-23.64,34.179-29.046    C168.001,345.793,166.212,344.004,164.001,344.004z" data-original="#000000" class="active-path" data-old_color="#69CBEF" fill="#68CBEF"/>
	</g>
</g><g>
	<g>
		<path d="M453.402,400.254c-4.477-1.672-9.93-3.734-15.969-6.086c-2.047-0.813-4.375,0.21-5.18,2.273s0.218,4.375,2.273,5.18    c6.086,2.367,11.57,4.444,16.07,6.124c30.755,11.492,45.396,22.241,45.396,52.257V504H16.007v-43.998    c0-30.016,14.639-40.765,45.396-52.257c4.493-1.672,9.969-3.749,16.055-6.116c2.054-0.805,3.078-3.118,2.273-5.18    s-3.125-3.085-5.18-2.273c-6.039,2.351-11.485,4.414-15.945,6.078c-32.819,12.257-50.6,25.413-50.6,59.748V508    c0,2.211,1.789,4,4,4h487.985c2.211,0,4-1.789,4.003-4v-47.998C503.994,425.667,486.213,412.511,453.402,400.254z" data-original="#000000" class="active-path" data-old_color="#69CBEF" fill="#68CBEF"/>
	</g>
</g><g>
	<g>
		<path d="M381.815,369.925c-28.382-14.476-29.82-20.804-29.82-21.921c0-2.211-1.789-4-4-4s-4,1.789-4,4    c0,5.406,3.883,13.594,34.18,29.046c0.586,0.297,1.203,0.438,1.82,0.438c1.453,0,2.859-0.797,3.562-2.188    C384.565,373.331,383.776,370.925,381.815,369.925z" data-original="#000000" class="active-path" data-old_color="#69CBEF" fill="#68CBEF"/>
	</g>
</g><g>
	<g>
		<path d="M395.996,192.01c-2.211,0-4,1.789-4,4c0,88.684-84.841,171.994-136.004,171.994c-51.155,0-135.988-83.309-135.988-171.994    c0-2.211-1.79-4-4-4c-2.211,0-4,1.789-4,4c0,95.864,89.739,179.994,143.987,179.994s144.004-84.13,144.005-179.994    C399.996,193.799,398.207,192.01,395.996,192.01z" data-original="#000000" class="active-path" data-old_color="#69CBEF" fill="#68CBEF"/>
	</g>
</g><g>
	<g>
		<path d="M164.001,312.006c-2.211,0-4,1.789-4,4v31.999c0,2.211,1.789,4,4,4s4-1.789,4-4v-31.999    C168.001,313.795,166.212,312.006,164.001,312.006z" data-original="#000000" class="active-path" data-old_color="#69CBEF" fill="#68CBEF"/>
	</g>
</g><g>
	<g>
		<path d="M347.995,312.006c-2.211,0-4,1.789-4,4v31.999c0,2.211,1.789,4,4,4s4-1.789,4-4v-31.999    C351.995,313.795,350.206,312.006,347.995,312.006z" data-original="#000000" class="active-path" data-old_color="#69CBEF" fill="#68CBEF"/>
	</g>
</g><g>
	<g>
		<path d="M364.354,37.569C341.213,12.64,307.387,0,263.811,0c-57.85,0-117.598,23.101-119.277,26.015    c-1.086,1.899-0.461,4.313,1.414,5.43l16.28,9.742c-19.202,11.483-74.24,53.177-74.224,153.776c0,1.445,0.781,2.773,2.039,3.484    c0.609,0.344,1.289,0.516,1.96,0.516c0.719,0,1.438-0.195,2.078-0.587c1.336-0.812,140.121-84.161,259.609-78.24l38.242,61.975    c0.907,1.469,2.672,2.187,4.352,1.781c1.688-0.406,2.914-1.859,3.047-3.586C404.133,115.777,392.37,67.756,364.354,37.569z     M392.082,167.119l-32.68-52.959c-0.688-1.11-1.867-1.821-3.172-1.891c-107.91-6.398-231.414,59.421-260.132,75.693    c1.508-56.443,21.203-91.879,37.835-111.879c18.75-22.562,37.773-30.968,37.968-31.046c1.375-0.594,2.304-1.914,2.406-3.414    c0.093-1.492-0.649-2.922-1.938-3.695L157.08,28.78C174.244,22.46,218.492,8,263.811,8c41.256,0,73.116,11.781,94.677,35.014    C383.113,69.544,394.394,111.253,392.082,167.119z" data-original="#000000" class="active-path" data-old_color="#69CBEF" fill="#68CBEF"/>
	</g>
</g><g>
	<g>
		<path d="M368.221,362.567c-2.055-0.797-4.367,0.25-5.172,2.288c-0.226,0.593-25.607,59.147-107.059,59.147    c-82.77,0-106.801-58.499-107.012-59.069c-0.718-2.085-2.999-3.187-5.093-2.46c-2.086,0.735-3.187,3.007-2.453,5.093    c0.219,0.649,26.437,64.436,114.559,64.436c86.598,0,114.309-63.686,114.55-64.327    C371.307,365.621,370.268,363.356,368.221,362.567z" data-original="#000000" class="active-path" data-old_color="#69CBEF" fill="#68CBEF"/>
	</g>
</g><g>
	<g>
		<path d="M124.002,360.005c-2.211,0-4,1.789-4,3.999V500.75c0,2.211,1.79,4,4,4c2.211,0,4-1.789,4-4V364.004    C128.002,361.794,126.213,360.005,124.002,360.005z" data-original="#000000" class="active-path" data-old_color="#69CBEF" fill="#68CBEF"/>
	</g>
</g><g>
	<g>
		<path d="M127.714,362.52c-0.82-2.054-3.156-3.07-5.195-2.234L82.52,376.285c-2.055,0.82-3.047,3.148-2.227,5.203    c0.625,1.563,2.125,2.516,3.711,2.516c0.492,0,1-0.094,1.484-0.29l39.999-16C127.542,366.894,128.534,364.566,127.714,362.52z" data-original="#000000" class="active-path" data-old_color="#69CBEF" fill="#68CBEF"/>
	</g>
</g><g>
	<g>
		<path d="M84.004,376.004c-2.211,0-4,1.789-4,4V500c0,2.211,1.789,4,4,4s4-1.789,4-4V380.004    C88.004,377.793,86.214,376.004,84.004,376.004z" data-original="#000000" class="active-path" data-old_color="#69CBEF" fill="#68CBEF"/>
	</g>
</g><g>
	<g>
		<path d="M387.995,360.005c-2.211,0-4,1.789-4,3.999V500.75c0,2.211,1.789,4,4,4s4-1.789,4-4V364.004    C391.995,361.794,390.206,360.005,387.995,360.005z" data-original="#000000" class="active-path" data-old_color="#69CBEF" fill="#68CBEF"/>
	</g>
</g><g>
	<g>
		<path d="M429.477,376.286l-39.998-15.999c-2.047-0.828-4.375,0.179-5.195,2.234c-0.82,2.046,0.172,4.374,2.227,5.194l39.998,16    c0.484,0.195,0.992,0.289,1.484,0.289c1.586,0,3.086-0.953,3.711-2.515C432.524,379.434,431.532,377.106,429.477,376.286z" data-original="#000000" class="active-path" data-old_color="#69CBEF" fill="#68CBEF"/>
	</g>
</g><g>
	<g>
		<path d="M427.993,376.004c-2.211,0-4,1.789-4,4V500c0,2.211,1.789,4,4,4s4-1.789,4-4V380.004    C431.993,377.793,430.204,376.004,427.993,376.004z" data-original="#000000" class="active-path" data-old_color="#69CBEF" fill="#68CBEF"/>
	</g>
</g><g>
	<g>
		<path d="M148.002,336.006h-47.999c-2.211,0-4,1.789-4,3.999c0,2.211,1.789,4,4,4h47.999c2.211,0,4-1.789,4-4    C152.002,337.795,150.212,336.006,148.002,336.006z" data-original="#000000" class="active-path" data-old_color="#69CBEF" fill="#68CBEF"/>
	</g>
</g><g>
	<g>
		<path d="M68.004,368.004c-2.211,0-4,1.789-4,4v15c0,2.211,1.789,4,4,4s4-1.789,4-4v-15    C72.004,369.793,70.215,368.004,68.004,368.004z" data-original="#000000" class="active-path" data-old_color="#69CBEF" fill="#68CBEF"/>
	</g>
</g><g>
	<g>
		<path d="M100.003,336.006c-19.851,0-35.999,16.147-35.999,35.998c0,2.211,1.789,4,4,4s4-1.789,4-4    c0-15.437,12.562-27.999,27.999-27.999c2.211,0,4-1.789,4-4C104.003,337.795,102.214,336.006,100.003,336.006z" data-original="#000000" class="active-path" data-old_color="#69CBEF" fill="#68CBEF"/>
	</g>
</g><g>
	<g>
		<path d="M411.993,336.006h-47.998c-2.211,0-4,1.789-4,3.999c0,2.211,1.789,4,4,4h47.998c2.211,0,4-1.789,4-4    C415.993,337.795,414.204,336.006,411.993,336.006z" data-original="#000000" class="active-path" data-old_color="#69CBEF" fill="#68CBEF"/>
	</g>
</g><g>
	<g>
		<path d="M443.993,368.004c-2.211,0-4,1.789-4,4v15c0,2.211,1.789,4,4,4s4-1.789,4-4v-15    C447.993,369.793,446.204,368.004,443.993,368.004z" data-original="#000000" class="active-path" data-old_color="#69CBEF" fill="#68CBEF"/>
	</g>
</g><g>
	<g>
		<path d="M411.993,336.006c-2.211,0-4,1.789-4,3.999c0,2.211,1.789,4,4,4c15.438,0,28,12.562,28,27.999c0,2.211,1.789,4,4,4    s4-1.789,4-4C447.993,352.153,431.845,336.006,411.993,336.006z" data-original="#000000" class="active-path" data-old_color="#69CBEF" fill="#68CBEF"/>
	</g>
</g></g> </svg>
