<?xml version="1.0" encoding="iso-8859-1"?>
<!-- Generator: Adobe Illustrator 19.0.0, SVG Export Plug-In . SVG Version: 6.00 Build 0)  -->
<svg version="1.1" id="Capa_1" xmlns="https://www.w3.org/2000/svg" xmlns:xlink="https://www.w3.org/1999/xlink" x="0px" y="0px"
	 viewBox="0 0 512.001 512.001" style="enable-background:new 0 0 512.001 512.001;" xml:space="preserve">
<g>
	<path style="fill:#A03C19;" d="M212.905,428.006c-5.676-2.189-8.503-8.565-6.314-14.241l39.655-102.824
		c2.188-5.676,8.563-8.505,14.241-6.314c5.676,2.189,8.503,8.565,6.314,14.24l-39.655,102.824
		C224.95,427.385,218.565,430.19,212.905,428.006z"/>
	<path style="fill:#A03C19;" d="M366.315,421.692l-39.656-102.824c-2.189-5.676,0.637-12.052,6.314-14.24
		c5.677-2.188,12.052,0.637,14.242,6.314l39.655,102.824c2.189,5.676-0.637,12.052-6.314,14.241
		C374.892,430.19,368.509,427.382,366.315,421.692z"/>
</g>
<path style="fill:#414B82;" d="M419.471,243.427c-0.023,0-0.047,0-0.071,0h-62.835l28.307-98.801
	c4.528-15.801-4.613-32.282-20.414-36.809c-42.891-12.288-87.239,14.595-96.136,58.362l-12.631,62.13
	c-3.146,15.479,0.826,31.553,10.82,43.785c11.417,13.971,26.22,19.341,44.049,19.341c0.023,0,73.63,0,73.63,0l-41.366,104.538
	c-4.867,12.301,1.158,26.219,13.459,31.086c12.303,4.868,26.22-1.161,31.086-13.46l54.374-137.407
	C447.957,260.492,436.367,243.427,419.471,243.427z"/>
<path style="fill:#55C7A6;" d="M260.253,262.454c-5.259-10.45-6.937-22.467-4.564-34.145l12.631-62.13
	c8.889-43.723,53.202-70.663,96.137-58.362c15.801,4.527,24.942,21.006,20.414,36.809l-28.307,98.801L260.253,262.454z"/>
<circle style="fill:#B05F3F;" cx="390.889" cy="55.398" r="44.058"/>
<path style="fill:#CD5014;" d="M354.48,324.46H238.818c-7.897,0-14.69-5.588-16.213-13.336l-30.292-154.107
	c-1.76-8.954,4.072-17.639,13.026-19.4c8.951-1.761,17.639,4.072,19.4,13.026l27.672,140.771h102.07
	c9.125,0,16.523,7.397,16.523,16.523C371.003,317.063,363.605,324.46,354.48,324.46z"/>
<path style="fill:#692823;" d="M500.984,234.969H386.03c-6.083,0-11.016-4.933-11.016-11.016c0-6.083,4.933-11.016,11.016-11.016
	h114.955c6.083,0,11.016,4.933,11.016,11.016C512,230.036,507.069,234.969,500.984,234.969z"/>
<path style="fill:#BA6746;" d="M400.179,207.813l-63.711-57.342c-8.194-7.374-8.858-19.996-1.484-28.19
	c7.374-8.194,19.996-8.858,28.19-1.483l35.954,32.359l8.866-61.242c1.58-10.911,11.708-18.473,22.615-16.895
	c10.911,1.58,18.474,11.705,16.895,22.615l-14.216,98.201C431.006,211.595,412.022,218.473,400.179,207.813z"/>
<path style="fill:#39AE96;" d="M391.306,146.118l-28.132-25.32c-8.194-7.374-20.815-6.711-28.19,1.483
	c-7.375,8.194-6.711,20.815,1.484,28.19l28.547,25.693L391.306,146.118z"/>
<g>
	<path style="fill:#A03C19;" d="M27.684,499.92c-5.685-2.193-8.518-8.58-6.325-14.266l41.543-108.475
		c2.193-5.686,8.581-8.516,14.266-6.325c5.685,2.193,8.518,8.58,6.325,14.266L41.95,493.595
		C39.751,499.298,33.355,502.106,27.684,499.92z"/>
	<path style="fill:#A03C19;" d="M181.359,493.595l-42.078-108.474c-2.193-5.686,0.64-12.073,6.325-14.266
		c5.684-2.193,12.073,0.639,14.266,6.325l42.079,108.474c2.193,5.686-0.639,12.073-6.325,14.266
		C189.975,502.099,183.566,499.317,181.359,493.595z"/>
</g>
<path style="fill:#CD5014;" d="M192.795,371.299c0,8.236-6.677,14.913-14.913,14.913H46.928c-7.128,0-13.259-5.044-14.633-12.037
	L0.283,211.327c-1.589-8.082,3.676-15.921,11.757-17.51c8.081-1.585,15.921,3.675,17.51,11.757l29.645,150.813H177.88
	C186.118,356.386,192.795,363.063,192.795,371.299z"/>
<path style="fill:#6C9BAA;" d="M235.304,340.882c3.003-7.59,2.054-16.175-2.535-22.926c-4.589-6.751-12.222-10.792-20.385-10.792
	h-56.71l1.583-100.487c0.301-19.071-15.007-34.801-34.146-34.937L95.25,171.7c-21.159-0.029-38.334,17.148-38.298,38.31
	l0.193,112.652c0.025,9.151,3.695,17.914,10.198,24.351c6.503,6.437,15.303,9.551,24.454,9.483h63.099l0.001-0.036h21.225
	l-44.01,110.477c-5.009,12.658,1.192,26.979,13.85,31.988c12.66,5.01,26.98-1.196,31.988-13.85L235.304,340.882z"/>
<circle style="fill:#FFB69E;" cx="134.587" cy="110.226" r="45.337"/>
<path style="fill:#414B82;" d="M237.032,332.072c0.052-4.962-1.394-9.897-4.262-14.116c-4.589-6.751-12.222-10.792-20.385-10.792
	h-56.71l-98.4,18.236c0.673,8.145,4.221,15.822,10.072,21.614c6.05,5.988,14.088,9.097,22.546,9.447h65.006l0,0h21.225l0,0l0,0
	l-44.01,110.477c-5.381,13.597,2.186,28.828,16.24,32.797c12.022,3.4,24.904-2.796,29.598-14.658l57.353-144.195
	C236.43,338.035,237.001,335.049,237.032,332.072z"/>
<path style="fill:#692823;" d="M292.663,298.408H177.51c-6.094,0-11.035-4.941-11.035-11.034c0-6.093,4.941-11.034,11.035-11.034
	h115.154c6.094,0,11.035,4.941,11.035,11.034C303.698,293.467,298.757,298.408,292.663,298.408z"/>
<path style="fill:#FFB69E;" d="M94.338,210.645c-5.097-10.546-0.681-23.228,9.865-28.326l72.274-34.933l26.461-97.537
	c3.066-11.304,14.713-17.982,26.022-14.916C240.265,38,246.943,49.65,243.877,60.955l-28.994,106.87
	c-1.609,5.929-5.708,10.869-11.239,13.542l-80.98,39.142C112.05,225.64,99.405,221.124,94.338,210.645z"/>
<path style="fill:#A5C8CD;" d="M137.041,166.448l-32.838,15.872c-10.546,5.098-14.962,17.78-9.865,28.326
	c5.066,10.479,17.712,14.995,28.326,9.865l32.632-15.773L137.041,166.448z"/>
<g>
</g>
<g>
</g>
<g>
</g>
<g>
</g>
<g>
</g>
<g>
</g>
<g>
</g>
<g>
</g>
<g>
</g>
<g>
</g>
<g>
</g>
<g>
</g>
<g>
</g>
<g>
</g>
<g>
</g>
</svg>
