<?xml version="1.0" encoding="iso-8859-1"?>
<!-- Generator: Adobe Illustrator 19.0.0, SVG Export Plug-In . SVG Version: 6.00 Build 0)  -->
<svg version="1.1" id="Capa_1" xmlns="https://www.w3.org/2000/svg" xmlns:xlink="https://www.w3.org/1999/xlink" x="0px" y="0px"
	 viewBox="0 0 512 512" style="enable-background:new 0 0 512 512;" xml:space="preserve">
<g transform="matrix(1.25 0 0 -1.25 0 45)">
	<path style="fill:#D99E82;" d="M341.313-259.778c0-25.129-20.375-45.504-45.504-45.504H45.535
		c-25.129,0-45.504,20.375-45.504,45.504V-9.504C0.031,15.625,20.406,36,45.535,36h250.274c25.129,0,45.504-20.375,45.504-45.504
		V-259.778z"/>
	<g>
		<g>
			<g>
				<path style="fill:#5C913B;" d="M318.561-259.778c0-12.559-10.182-22.752-22.752-22.752H45.535
					c-12.559,0-22.752,10.193-22.752,22.752V-9.504c0,12.571,10.193,22.752,22.752,22.752h250.274
					c12.571,0,22.752-10.182,22.752-22.752V-259.778z"/>
			</g>
		</g>
	</g>
	<g>
		<path style="fill:#FFFFFF;" d="M120.356-63.864c4.004,0,7.098-1.82,7.098-6.007c0-4.175-3.094-6.007-6.553-6.007H90.517
			c-3.993,0-7.087,1.832-7.087,6.007c0,1.911,1.183,3.549,2.093,4.642c7.553,8.999,15.733,17.19,22.65,27.201
			c1.638,2.366,3.174,5.176,3.174,8.453c0,3.732-2.821,7.008-6.541,7.008c-10.466,0-5.461-14.732-14.186-14.732
			c-4.368,0-6.643,3.083-6.643,6.632c0,11.467,10.182,20.648,21.375,20.648c11.183,0,20.193-7.372,20.193-18.919
			c0-12.639-14.106-25.198-21.83-34.925L120.356-63.864L120.356-63.864z"/>
		<path style="fill:#FFFFFF;" d="M46.557-113.845c0,3.276,2.093,5.461,5.449,5.461c3.368,0,5.461-2.184,5.461-5.461v-13.196h13.196
			c3.368,0,5.461-2.173,5.461-5.449c0-3.276-2.093-5.461-5.461-5.461H57.467v-13.185c0-3.276-2.093-5.461-5.461-5.461
			c-3.356,0-5.449,2.184-5.449,5.461v13.185H33.372c-3.368,0-5.461,2.184-5.461,5.461s2.093,5.449,5.461,5.449h13.185V-113.845z"/>
		<path style="fill:#FFFFFF;" d="M120.352-143.495c4.004,0,7.087-1.82,7.087-6.007c0-4.175-3.083-6.007-6.541-6.007H90.513
			c-3.993,0-7.087,1.832-7.087,6.007c0,1.911,1.183,3.549,2.093,4.642c7.553,8.999,15.733,17.19,22.65,27.201
			c1.638,2.366,3.174,5.176,3.174,8.453c0,3.732-2.821,7.008-6.541,7.008c-10.466,0-5.461-14.732-14.198-14.732
			c-4.368,0-6.632,3.083-6.632,6.632c0,11.467,10.182,20.648,21.375,20.648c11.183,0,20.181-7.372,20.181-18.919
			c0-12.639-14.095-25.198-21.819-34.925L120.352-143.495L120.352-143.495z"/>
		<path style="fill:#FFFFFF;" d="M129.906-179.801H35.109c-3.151,0-5.688,2.548-5.688,5.688c0,3.14,2.537,5.688,5.688,5.688h94.797
			c3.14,0,5.688-2.548,5.688-5.688C135.594-177.253,133.045-179.801,129.906-179.801"/>
	</g>
	<g>
		<path style="fill:#E1E8ED;" d="M409.569-373.538v22.752c0,37.7-30.556,68.256-68.256,68.256H159.296
			c-37.689,0-68.256-30.556-68.256-68.256v-22.752H409.569z"/>
		<path style="fill:#D5AB88;" d="M200.701-283.675c19.84-14.425,32.399-17.633,49.6-17.633s29.76,3.22,49.6,17.633v43.355h-99.199
			V-283.675z"/>
		<path style="fill:#CC9B7A;" d="M200.611-259.465c13.834-15.63,30.988-19.863,49.645-19.863c18.645,0,35.8,4.243,49.645,19.863
			v39.714h-99.29V-259.465z"/>
		<g>
			<path style="fill:#D5AB88;" d="M175.726-145.287c0-16.473-8.35-29.828-18.645-29.828c-10.295,0-18.645,13.355-18.645,29.828
				s8.35,29.84,18.645,29.84S175.726-128.814,175.726-145.287"/>
			<path style="fill:#D5AB88;" d="M362.165-145.287c0-16.473-8.339-29.828-18.645-29.828c-10.295,0-18.634,13.355-18.634,29.828
				s8.339,29.84,18.634,29.84C353.827-115.448,362.165-128.814,362.165-145.287"/>
			<path style="fill:#D5AB88;" d="M153.351-156.933c0,63.581,43.411,115.138,96.958,115.138s96.947-51.556,96.947-115.138
				s-43.4-115.138-96.947-115.138S153.351-220.514,153.351-156.933"/>
		</g>
		<g>
			<path style="fill:#963B22;" d="M301.785-206.831l-14.425,3.117c-4.607,1.069-13.344,0.819-17.474,0.819h-19.579h-22.377
				c-4.13,0-12.867,0.25-17.474-0.819l-14.402-3.117c-3.97-1.149-6.257-4.471-5.131-8.418c0.933-3.276,3.936-5.017,7.179-5.017
				c0.671,0,1.353,0.307,2.036,0.478l14.413,4.221c-1.627-2.173-2.059-5.074-0.751-7.679s3.936-4.107,6.667-4.107
				c1.126,0,2.275,0.284,3.333,0.819l11.774,5.881c0.25-2.446,1.57-4.709,3.925-5.881c1.069-0.524,2.23-0.796,3.333-0.796
				c2.753,0,5.381,1.524,6.678,4.141l0.796,1.558l-0.603-1.558c1.297-2.616,2.537-4.141,5.29-4.141c1.103,0,2.253,0.273,3.322,0.796
				c2.355,1.172,3.675,3.435,3.936,5.881l11.763-5.881c1.069-0.535,2.218-0.819,3.333-0.819c2.742,0,5.358,1.501,6.667,4.107
				c1.308,2.606,0.876,5.506-0.739,7.679l14.402-4.221c0.671-0.171,1.377-0.478,2.048-0.478c3.242,0,6.223,1.741,7.167,5.017
				C308.03-211.302,305.744-207.979,301.785-206.831"/>
			<path style="fill:#963B22;" d="M250.304-3.584c64.252,0,104.41-47.416,104.41-86.925s-8.032-55.322-16.063-39.509
				c-8.032,15.801-16.063,31.603-16.063,31.603s-48.189,0-64.252,15.813c0,0,24.095-47.416-24.095,0c0,0,8.032-31.614-40.158,7.895
				c0,0-24.095-15.801-32.126-55.31c-2.23-10.966-16.063,0-16.063,39.509C145.895-50.999,178.02-3.584,250.304-3.584"/>
		</g>
		<g>
			<path style="fill:#662113;" d="M204.8-157.393L204.8-157.393c-6.257,0-11.376,5.119-11.376,11.376v11.376
				c0,6.257,5.119,11.376,11.376,11.376c6.257,0,11.376-5.119,11.376-11.376v-11.376C216.176-152.274,211.057-157.393,204.8-157.393
				"/>
			<path style="fill:#662113;" d="M295.809-157.393L295.809-157.393c-6.257,0-11.376,5.119-11.376,11.376v11.376
				c0,6.257,5.119,11.376,11.376,11.376c6.257,0,11.376-5.119,11.376-11.376v-11.376
				C307.185-152.274,302.066-157.393,295.809-157.393"/>
		</g>
		<path style="fill:#C1694F;" d="M258.837-188.677h-17.064c-4.698,0-8.532,3.834-8.532,8.532c0,4.698,3.834,8.532,8.532,8.532
			h17.064c4.698,0,8.532-3.834,8.532-8.532C267.369-184.844,263.535-188.677,258.837-188.677"/>
		<path style="fill:#99AAB5;" d="M249.615-315.325c0,0,38.463-28.372,46.573-31.591c1.775-0.717-4.175,41.591-4.175,41.591h-84.797
			c0,0-5.961-43.013-2.673-41.238C211.847-342.673,249.615-315.325,249.615-315.325"/>
		<path style="fill:#BE1931;" d="M264.545-344.432c0,0,4.266,7.11,6.041,10.307c2.07,3.732,5.154,17.872,5.154,17.872
			l-24.879,10.933c0,0.079-1.82-0.069-1.82-0.069l-2.093-0.467l-1.957-0.717c-2.48-0.796,1.069-0.091,1.069-0.171l-22.468-9.511
			c0,0,3.265-14.141,5.358-17.872c1.775-3.197,5.995-10.307,5.995-10.307s-8.555-6.393-11.774-29.168h26.449h0.216h26.438
			C273.078-355.455,264.545-344.432,264.545-344.432"/>
		<g>
			<path style="fill:#F5F8FA;" d="M196.035-266.932c6.427-6.439,53.581-38.485,53.581-38.485s-24.174-14.129-46.483-40.214
				c-2.218-2.616-17.553,52.614-18.019,64.946C184.977-277.239,192.952-263.85,196.035-266.932"/>
			<path style="fill:#F5F8FA;" d="M303.429-266.932c-6.439-6.439-53.57-38.485-53.57-38.485s24.174-14.129,46.46-40.214
				c2.218-2.616,17.531,52.614,17.997,64.946C314.453-277.239,306.501-263.85,303.429-266.932"/>
		</g>
		<g>
			<path style="fill:#DD2E44;" d="M249.793-313.147c4.425,0.239,17.553-8.771,16.177-14.22c-5.245-20.796-9.67-15.824-15.824-15.824
				c-6.951,0-10.978-5.369-15.813,14.937C233.264-323.852,243.4-313.5,249.793-313.147"/>
			<path style="fill:#DD2E44;" d="M272.9-373.583h-45.766c0,0,6.155,24.641,22.945,24.641
				C266.883-348.943,272.9-373.583,272.9-373.583"/>
		</g>
	</g>
</g>
<g>
</g>
<g>
</g>
<g>
</g>
<g>
</g>
<g>
</g>
<g>
</g>
<g>
</g>
<g>
</g>
<g>
</g>
<g>
</g>
<g>
</g>
<g>
</g>
<g>
</g>
<g>
</g>
<g>
</g>
</svg>
