<?xml version="1.0" encoding="iso-8859-1"?>
<!-- Generator: Adobe Illustrator 19.0.0, SVG Export Plug-In . SVG Version: 6.00 Build 0)  -->
<svg version="1.1" id="Capa_1" xmlns="http://www.w3.org/2000/svg" xmlns:xlink="http://www.w3.org/1999/xlink" x="0px" y="0px"
	 viewBox="0 0 480.032 480.032" style="enable-background:new 0 0 480.032 480.032;" xml:space="preserve">
<linearGradient id="SVGID_1_" gradientUnits="userSpaceOnUse" x1="6.6411" y1="555.255" x2="6.6411" y2="618.182" gradientTransform="matrix(8 0 0 -8 370.8872 4941)">
	<stop  offset="0" style="stop-color:#006DF0"/>
	<stop  offset="1" style="stop-color:#00E7F0"/>
</linearGradient>
<path style="fill:url(#SVGID_1_);" d="M460.016,72h-16V8c0-4.418-3.582-8-8-8h-48c-4.418,0-8,3.582-8,8v392
	c0.065,0.853,0.204,1.699,0.416,2.528l24,72c1.38,4.197,5.901,6.482,10.098,5.102c2.415-0.794,4.308-2.687,5.102-5.102l24-72
	c0.201-0.83,0.329-1.676,0.384-2.528V88h8v120c0,4.418,3.582,8,8,8s8-3.582,8-8V80C468.016,75.582,464.434,72,460.016,72z
	 M428.016,392h-32V88h32V392z M396.016,16h32v56h-32V16z M412.016,446.704L399.12,408h25.792L412.016,446.704z"/>
<g>
	
		<linearGradient id="SVGID_2_" gradientUnits="userSpaceOnUse" x1="-23.8589" y1="555.255" x2="-23.8589" y2="618.182" gradientTransform="matrix(8 0 0 -8 370.8872 4941)">
		<stop  offset="0" style="stop-color:#006DF0"/>
		<stop  offset="1" style="stop-color:#00E7F0"/>
	</linearGradient>
	<path style="fill:url(#SVGID_2_);" d="M347.504,101.432c-0.088-0.256-0.152-0.496-0.264-0.744c-0.389-0.87-0.931-1.664-1.6-2.344
		l-96-96c-0.674-0.672-1.466-1.214-2.336-1.6c-0.256-0.12-0.512-0.184-0.8-0.28c-0.652-0.221-1.329-0.355-2.016-0.4
		C244.36,0.096,244.2,0,244.016,0h-224c-4.418,0-8,3.582-8,8v464c0,4.418,3.582,8,8,8h320c4.418,0,8-3.582,8-8V104
		c0-0.168-0.088-0.32-0.096-0.488C347.874,102.803,347.734,102.104,347.504,101.432z M320.704,96h-68.688V27.312L320.704,96z
		 M28.016,464V16h208v88c0,4.418,3.582,8,8,8h88v352H28.016z"/>
	
		<linearGradient id="SVGID_3_" gradientUnits="userSpaceOnUse" x1="-23.8724" y1="555.255" x2="-23.8724" y2="618.182" gradientTransform="matrix(8 0 0 -8 370.8872 4941)">
		<stop  offset="0" style="stop-color:#006DF0"/>
		<stop  offset="1" style="stop-color:#00E7F0"/>
	</linearGradient>
	<path style="fill:url(#SVGID_3_);" d="M292.016,160H67.8c-4.418,0-8,3.582-8,8s3.582,8,8,8h224.216c4.418,0,8-3.582,8-8
		S296.434,160,292.016,160z"/>
	
		<linearGradient id="SVGID_4_" gradientUnits="userSpaceOnUse" x1="-23.8724" y1="555.255" x2="-23.8724" y2="618.182" gradientTransform="matrix(8 0 0 -8 370.8872 4941)">
		<stop  offset="0" style="stop-color:#006DF0"/>
		<stop  offset="1" style="stop-color:#00E7F0"/>
	</linearGradient>
	<path style="fill:url(#SVGID_4_);" d="M292.016,208H67.8c-4.418,0-8,3.582-8,8s3.582,8,8,8h224.216c4.418,0,8-3.582,8-8
		S296.434,208,292.016,208z"/>
	
		<linearGradient id="SVGID_5_" gradientUnits="userSpaceOnUse" x1="-23.8724" y1="555.255" x2="-23.8724" y2="618.182" gradientTransform="matrix(8 0 0 -8 370.8872 4941)">
		<stop  offset="0" style="stop-color:#006DF0"/>
		<stop  offset="1" style="stop-color:#00E7F0"/>
	</linearGradient>
	<path style="fill:url(#SVGID_5_);" d="M292.016,256H67.8c-4.418,0-8,3.582-8,8s3.582,8,8,8h224.216c4.418,0,8-3.582,8-8
		S296.434,256,292.016,256z"/>
	
		<linearGradient id="SVGID_6_" gradientUnits="userSpaceOnUse" x1="-23.8724" y1="555.255" x2="-23.8724" y2="618.182" gradientTransform="matrix(8 0 0 -8 370.8872 4941)">
		<stop  offset="0" style="stop-color:#006DF0"/>
		<stop  offset="1" style="stop-color:#00E7F0"/>
	</linearGradient>
	<path style="fill:url(#SVGID_6_);" d="M292.016,304H67.8c-4.418,0-8,3.582-8,8s3.582,8,8,8h224.216c4.418,0,8-3.582,8-8
		S296.434,304,292.016,304z"/>
</g>
<g>
</g>
<g>
</g>
<g>
</g>
<g>
</g>
<g>
</g>
<g>
</g>
<g>
</g>
<g>
</g>
<g>
</g>
<g>
</g>
<g>
</g>
<g>
</g>
<g>
</g>
<g>
</g>
<g>
</g>
</svg>
