<svg xmlns="http://www.w3.org/2000/svg" width="82" height="68.366" viewBox="0 0 82 68.366">
  <g id="cheque_clearance" transform="translate(-138 -533.5)">
    <g id="list" transform="translate(142.389 537.889)">
      <path id="Path_509" data-name="Path 509" d="M50.183,69.439l-2.106-9.145,4.565-19.82a1.316,1.316,0,0,0-1.282-1.611H5.949a1.316,1.316,0,0,0-1.282,1.02L.034,60a1.316,1.316,0,0,0,0,.59L4.6,80.409.034,100.228a1.316,1.316,0,0,0,1.282,1.611H46.727a1.316,1.316,0,0,0,1.282-1.02l1.758-7.631C49.93,92.48,50.346,70.147,50.183,69.439Z" transform="translate(0.999 -37.863)" fill="#cce5ec"/>
      <path id="Path_519" data-name="Path 519" d="M259.413,143.133l-6.708-7.151a1.316,1.316,0,0,0-1.86-.059L225.708,159.5a1.314,1.314,0,0,0-.35.551l-3.17,9.7a1.316,1.316,0,0,0,1.579,1.683l9.878-2.545a1.315,1.315,0,0,0,.572-.315l25.138-23.582A1.315,1.315,0,0,0,259.413,143.133Z" transform="translate(-182.159 -117.604)" fill="#cce5ec"/>
    </g>
    <g id="list-2" data-name="list" transform="translate(138 533.5)">
      <path id="Path_509-2" data-name="Path 509" d="M51,94.015a1.376,1.376,0,0,0-1.649,1.032l-1.592,6.912H3.1l4.21-18.281H41.337a1.376,1.376,0,1,0,0-2.751H7.315L3.1,62.646H47.762l2.028,8.8a1.376,1.376,0,1,0,2.681-.618l-2.2-9.562,4.773-20.723a1.376,1.376,0,0,0-1.34-1.684H6.22A1.376,1.376,0,0,0,4.88,39.93L.036,60.962a1.376,1.376,0,0,0,0,.617L4.809,82.3.036,103.026a1.376,1.376,0,0,0,1.34,1.684H48.857a1.376,1.376,0,0,0,1.341-1.067l1.838-7.979A1.376,1.376,0,0,0,51,94.015ZM7.315,41.615H51.973L47.762,59.9H3.1Z" transform="translate(-0.001 -38.863)" fill="#004261"/>
      <path id="Path_510" data-name="Path 510" d="M56.873,80.952H80.532a1.376,1.376,0,0,0,0-2.751H56.873a1.376,1.376,0,1,0,0,2.751Z" transform="translate(-45.318 -70.986)" fill="#004261"/>
      <path id="Path_511" data-name="Path 511" d="M43.374,116.95H67.033a1.376,1.376,0,0,0,0-2.751H43.374a1.376,1.376,0,0,0,0,2.751Z" transform="translate(-34.295 -100.381)" fill="#004261"/>
      <path id="Path_512" data-name="Path 512" d="M81.907,308.917a1.376,1.376,0,0,0-1.376-1.376H56.873a1.376,1.376,0,0,0,0,2.751H80.532A1.376,1.376,0,0,0,81.907,308.917Z" transform="translate(-45.318 -258.262)" fill="#004261"/>
      <path id="Path_513" data-name="Path 513" d="M43.374,343.539a1.376,1.376,0,0,0,0,2.751H67.033a1.376,1.376,0,0,0,0-2.751Z" transform="translate(-34.295 -287.658)" fill="#004261"/>
      <path id="Path_514" data-name="Path 514" d="M68.408,194.247a1.376,1.376,0,0,0-1.376-1.376H43.374a1.376,1.376,0,0,0,0,2.751H67.033A1.376,1.376,0,0,0,68.408,194.247Z" transform="translate(-34.295 -164.624)" fill="#004261"/>
      <path id="Path_515" data-name="Path 515" d="M56.873,231.62H80.532a1.376,1.376,0,0,0,0-2.751H56.873a1.376,1.376,0,0,0,0,2.751Z" transform="translate(-45.318 -194.02)" fill="#004261"/>
      <path id="Path_516" data-name="Path 516" d="M213.565,74.635a1.376,1.376,0,0,0,2.259.762l4.677-4.127a1.376,1.376,0,1,0-1.82-2.063l-2.886,2.546-.082-.409a1.376,1.376,0,1,0-2.7.54Z" transform="translate(-173.924 -63.361)" fill="#004261"/>
      <path id="Path_517" data-name="Path 517" d="M209.97,184.647a1.376,1.376,0,0,0,1.281-.874l2.276-5.807a1.376,1.376,0,0,0-2.561-1l-1.4,3.584-.26-.327a1.376,1.376,0,1,0-2.154,1.712l1.746,2.2A1.376,1.376,0,0,0,209.97,184.647Z" transform="translate(-168.91 -150.92)" fill="#004261"/>
      <path id="Path_518" data-name="Path 518" d="M215.583,222.809a1.375,1.375,0,0,0,2.357-.354l2.276-5.807a1.376,1.376,0,0,0-2.561-1l-1.4,3.583-.26-.327a1.376,1.376,0,0,0-2.154,1.712Z" transform="translate(-174.373 -182.506)" fill="#004261"/>
      <path id="Path_519-2" data-name="Path 519" d="M261.113,143.478,254.1,136a1.376,1.376,0,0,0-1.944-.062L225.871,160.6a1.374,1.374,0,0,0-.366.576l-3.315,10.138a1.376,1.376,0,0,0,1.651,1.76l10.328-2.661a1.375,1.375,0,0,0,.6-.329l26.284-24.657A1.375,1.375,0,0,0,261.113,143.478Zm-35.528,26.3,1.813-5.544,3.836,4.089Zm8.3-2.647-5.132-5.47,24.277-22.774,5.132,5.47Z" transform="translate(-181.382 -117.83)" fill="#004261"/>
    </g>
  </g>
</svg>
