<svg xmlns="http://www.w3.org/2000/svg" width="73.45" height="65.913" viewBox="0 0 73.45 65.913">
  <g id="fee_projection" transform="translate(-565.75 -357.687)">
    <g id="analytics_1_" data-name="analytics (1)" transform="translate(570.959 360.938)">
      <path id="Path_508" data-name="Path 508" d="M65.6,7.813a1.642,1.642,0,0,0,1.64-1.64V2.14A1.642,1.642,0,0,0,65.6.5H55.4a.984.984,0,1,0,0,1.968c5.667,0,6.108-.441,6.108-.984A.984.984,0,0,0,60.52.5H1.641A1.642,1.642,0,0,0,0,2.14V6.174a1.642,1.642,0,0,0,1.64,1.64h.573V44.789H1.641A1.642,1.642,0,0,0,0,46.429v4.034a1.641,1.641,0,0,0,1.64,1.64H28.779v7.592H23.627a.984.984,0,1,0,0,1.968H43.614a.984.984,0,1,0,0-1.968H38.462V52.1H65.6a1.641,1.641,0,0,0,1.64-1.64V46.429a1.642,1.642,0,0,0-1.64-1.64h-.573V7.813Z" transform="translate(1 1)" fill="#cce5ec"/>
    </g>
    <g id="analytics_1_2" data-name="analytics (1)" transform="translate(566 357.437)">
      <path id="Path_493" data-name="Path 493" d="M206.489,101.988h-4.774a1.69,1.69,0,0,0-1.688,1.688V128.53a1.69,1.69,0,0,0,1.688,1.689h4.774a1.69,1.69,0,0,0,1.689-1.689V103.676a1.69,1.69,0,0,0-1.689-1.688Zm-.337,26.2h-4.1V104.014h4.1Zm0,0" transform="translate(-172.98 -87.765)" fill="#004261" stroke="#004261" stroke-width="0.5"/>
      <path id="Path_494" data-name="Path 494" d="M135.252,143.375h-4.774a1.69,1.69,0,0,0-1.689,1.689v19.257a1.69,1.69,0,0,0,1.689,1.689h4.774a1.69,1.69,0,0,0,1.688-1.689V145.064a1.69,1.69,0,0,0-1.688-1.689Zm-.338,20.608h-4.1V145.4h4.1Zm0,0" transform="translate(-111.375 -123.556)" fill="#004261" stroke="#004261" stroke-width="0.5"/>
      <path id="Path_495" data-name="Path 495" d="M64.017,182.5H59.244a1.69,1.69,0,0,0-1.689,1.689v13.967a1.69,1.69,0,0,0,1.689,1.689h4.774a1.69,1.69,0,0,0,1.689-1.689v-5.721a1.013,1.013,0,0,0-2.026,0v5.383h-4.1v-13.29h4.1v3.18a1.013,1.013,0,0,0,2.026,0v-3.518A1.691,1.691,0,0,0,64.017,182.5Zm0,0" transform="translate(-49.772 -157.395)" fill="#004261" stroke="#004261" stroke-width="0.5"/>
      <g id="Group_826" data-name="Group 826">
        <path id="Path_498" data-name="Path 498" d="M403.2,144.984h-5.828a1.013,1.013,0,0,0,0,2.027H403.2a1.013,1.013,0,0,0,0-2.027Zm0,0" transform="translate(-342.762 -124.948)" fill="#004261"/>
        <path id="Path_546" data-name="Path 546" d="M283.845,147.011h11.669a1.013,1.013,0,0,0,0-2.027H283.845a1.013,1.013,0,0,0,0,2.027Zm0,0" transform="translate(-244.589 -124.948)" fill="#004261"/>
      </g>
      <path id="Path_499" data-name="Path 499" d="M285.845,184.64h17.436a1.013,1.013,0,1,0,0-2.026H285.845a1.013,1.013,0,1,0,0,2.026Zm0,0" transform="translate(-246.589 -155.489)" fill="#004261"/>
      <g id="Group_825" data-name="Group 825" transform="translate(0 -2)">
        <path id="Path_505" data-name="Path 505" d="M287.013,257.871h-3.168a1.013,1.013,0,1,0,0,2.026h3.168a1.013,1.013,0,1,0,0-2.026Zm0,0" transform="translate(-244.589 -222.571)" fill="#004261"/>
        <path id="Path_506" data-name="Path 506" d="M347.082,257.871H332.247a1.013,1.013,0,1,0,0,2.026h14.834a1.013,1.013,0,1,0,0-2.026Zm0,0" transform="translate(-286.447 -222.571)" fill="#004261"/>
      </g>
      <path id="Path_508-2" data-name="Path 508" d="M67.541,8.03A1.69,1.69,0,0,0,69.23,6.342V2.189A1.69,1.69,0,0,0,67.541.5H57.035a1.013,1.013,0,0,0,0,2.026H67.2V6H2.027V2.526H58.31A1.013,1.013,0,1,0,58.31.5H1.689A1.69,1.69,0,0,0,0,2.189V6.342A1.69,1.69,0,0,0,1.689,8.03h.59V46.1h-.59A1.69,1.69,0,0,0,0,47.788v4.153a1.69,1.69,0,0,0,1.689,1.688H29.63v7.817h-5.3a1.013,1.013,0,1,0,0,2.026H44.9a1.013,1.013,0,1,0,0-2.026H39.6V53.629H67.541a1.69,1.69,0,0,0,1.689-1.688V47.788A1.69,1.69,0,0,0,67.541,46.1h-.59V8.03Zm-63.236.1h60.62V46.1H4.305ZM37.574,61.446H31.656V53.629h5.918ZM67.2,48.126V51.6H2.027V48.126h.835a1,1,0,0,0,.43.1H65.938a1,1,0,0,0,.43-.1Zm0,0" transform="translate(0)" fill="#004261" stroke="#004261" stroke-width="0.5"/>
    </g>
  </g>
</svg>
