<svg xmlns="https://www.w3.org/2000/svg" width="66.95" height="66.955" viewBox="0 0 66.95 66.955">
  <g id="fee_reconciliation" transform="translate(-780.85 -357.819)">
    <path id="Path_585" data-name="Path 585" d="M65.375,24.657a4.931,4.931,0,0,0-6.965,0L51.8,31.27V15.148a4.893,4.893,0,0,0-1.442-3.482L45.137,6.442A4.893,4.893,0,0,0,41.654,5H9.943A4.93,4.93,0,0,0,5.018,9.925V61.88A4.93,4.93,0,0,0,9.943,66.8H46.878A4.93,4.93,0,0,0,51.8,61.88V45.205L65.374,31.622a4.922,4.922,0,0,0,0-6.965Z" transform="translate(780.982 357.969)" fill="#cce5ec"/>
    <g id="Group_836" data-name="Group 836" transform="translate(775.982 352.969)">
      <path id="Path_585-2" data-name="Path 585" d="M66.389,24.988a5.014,5.014,0,0,0-7.082,0l-6.718,6.724V15.319a4.975,4.975,0,0,0-1.467-3.541L45.811,6.467A4.975,4.975,0,0,0,42.27,5H10.025a5.013,5.013,0,0,0-5.007,5.007V62.836a5.013,5.013,0,0,0,5.007,5.007H47.582a5.013,5.013,0,0,0,5.007-5.007V45.881l13.8-13.812a5,5,0,0,0,0-7.082ZM41.322,7.5h.707a2.588,2.588,0,0,1,2.011.734l5.311,5.311a2.593,2.593,0,0,1,.734,2.017v.7H41.322Zm8.763,55.333a2.507,2.507,0,0,1-2.5,2.5H10.025a2.507,2.507,0,0,1-2.5-2.5V10.007a2.507,2.507,0,0,1,2.5-2.5H38.818V17.519a1.253,1.253,0,0,0,1.252,1.252H50.085V34.218l-2.953,2.956c-1.933,1.934-2.551,2.553-2.778,2.766l.007.007L41.707,42.6a1.258,1.258,0,0,0-.3.489l-2.656,7.967a1.252,1.252,0,0,0,1.583,1.584L48.3,49.985a1.258,1.258,0,0,0,.489-.3l1.3-1.3Zm-1.3-16.695L47.227,47.7l-5.311,1.77,1.77-5.311L45.248,42.6Zm1.77-1.771L47.018,40.83l9.911-9.92,3.541,3.541ZM64.618,30.3,62.24,32.68,58.7,29.139l2.379-2.381A2.5,2.5,0,1,1,64.618,30.3Z" transform="translate(0)" fill="#004261" stroke="#004261" stroke-width="0.3"/>
      <path id="Path_586" data-name="Path 586" d="M66.27,157.5H92.559a1.252,1.252,0,1,0,0-2.5H66.27a1.252,1.252,0,0,0,0,2.5Z" transform="translate(-52.489 -131.222)" fill="#004261" stroke="#004261" stroke-width="0.3"/>
      <path id="Path_587" data-name="Path 587" d="M66.27,217.5H85.048a1.252,1.252,0,1,0,0-2.5H66.27a1.252,1.252,0,0,0,0,2.5Z" transform="translate(-52.489 -183.711)" fill="#004261" stroke="#004261" stroke-width="0.3"/>
      <path id="Path_588" data-name="Path 588" d="M66.27,277.5H85.048a1.252,1.252,0,1,0,0-2.5H66.27a1.252,1.252,0,0,0,0,2.5Z" transform="translate(-52.489 -236.2)" fill="#004261" stroke="#004261" stroke-width="0.3"/>
      <path id="Path_589" data-name="Path 589" d="M86.3,336.252A1.253,1.253,0,0,0,85.048,335H66.27a1.252,1.252,0,0,0,0,2.5H85.048A1.253,1.253,0,0,0,86.3,336.252Z" transform="translate(-52.489 -288.688)" fill="#004261" stroke="#004261" stroke-width="0.3"/>
      <path id="Path_590" data-name="Path 590" d="M197.537,427H186.27a1.252,1.252,0,1,0,0,2.5h11.267a1.252,1.252,0,0,0,0-2.5Z" transform="translate(-157.466 -369.171)" fill="#004261" stroke="#004261" stroke-width="0.3"/>
    </g>
  </g>
</svg>
