<svg xmlns="http://www.w3.org/2000/svg" width="51.35" height="66.964" viewBox="0 0 51.35 66.964">
  <g id="fee_concession" transform="translate(-992.715 -357.703)">
    <path id="Path_565" data-name="Path 565" d="M.941,61.713H45.168a.906.906,0,0,0,.936-.944V11.815a.967.967,0,0,0-.249-.687L35.422.281A.939.939,0,0,0,34.72,0H.941A.906.906,0,0,0,0,.945V60.769a.906.906,0,0,0,.936.944Z" transform="translate(997.961 362.953)" fill="#cce5ec"/>
    <g id="analytics_2_" data-name="analytics (2)" transform="translate(992.961 357.953)">
      <path id="Path_557" data-name="Path 557" d="M.96,62.983H46.1a.925.925,0,0,0,.955-.963V12.059a.987.987,0,0,0-.254-.7L36.151.287A.958.958,0,0,0,35.435,0H.96A.924.924,0,0,0,0,.964V62.02a.924.924,0,0,0,.955.963ZM36.429,3.477,43.722,11H36.429ZM2.029,2.024H34.405V12.059a.991.991,0,0,0,1.03.968h9.594V60.96h-43Zm0,0" transform="translate(0 0)" fill="#004261" stroke="#004261" stroke-width="0.5"/>
    </g>
    <path id="Path_558" data-name="Path 558" d="M88.876,434H59.458a1.012,1.012,0,1,0,0,2.024H88.876a1.012,1.012,0,0,0,0-2.024Zm0,0" transform="translate(941.91 -21.161)" fill="#004261"/>
    <path id="Path_559" data-name="Path 559" d="M58.445,398.016a1.012,1.012,0,0,0,1.012,1.012H76.5a1.012,1.012,0,0,0,0-2.024H59.457a1.012,1.012,0,0,0-1.012,1.012Zm0,0" transform="translate(941.911 11.159)" fill="#004261"/>
    <path id="Path_560" data-name="Path 560" d="M235.271,148.286a1.012,1.012,0,0,0-1.5-.072l-5.839,5.859a1.011,1.011,0,0,0-.136,1.258,6.794,6.794,0,0,1,.937,2.3,1,1,0,0,0,.991.8h8.254a1,1,0,0,0,1.008-.92,1.17,1.17,0,0,0-.007-.263A16.622,16.622,0,0,0,235.271,148.286ZM230.51,156.4a8.782,8.782,0,0,0-.6-1.459l4.474-4.5a14.569,14.569,0,0,1,2.444,5.955Zm0,0" transform="translate(794.116 228.744)" fill="#004261"/>
    <path id="Path_561" data-name="Path 561" d="M189.981,113.356a6.582,6.582,0,0,1,2.217.916,1.013,1.013,0,0,0,1.267-.135l5.82-5.84a1.012,1.012,0,0,0-.074-1.5,16.608,16.608,0,0,0-8.968-3.711,1.724,1.724,0,0,0-.242-.008,1.027,1.027,0,0,0-.989,1.011v8.254a1.028,1.028,0,0,0,.34.741,1.056,1.056,0,0,0,.628.267Zm1.055-8.116a14.649,14.649,0,0,1,5.982,2.447l-4.463,4.47a9.2,9.2,0,0,0-1.519-.61Zm0,0" transform="translate(827.857 267.909)" fill="#004261"/>
    <path id="Path_562" data-name="Path 562" d="M55.9,119.491h8.257a1,1,0,0,0,.991-.794,6.582,6.582,0,0,1,4.879-5.1,1.023,1.023,0,0,0,.816-.983v-8.252a1.043,1.043,0,0,0-1.141-1.007,16.685,16.685,0,0,0-14.8,15.056.983.983,0,0,0,.256.765,1,1,0,0,0,.746.319Zm12.919-13.971v6.32a8.689,8.689,0,0,0-5.445,5.627H57.058a14.716,14.716,0,0,1,11.763-11.947Zm0,0" transform="translate(945.013 267.677)" fill="#004261"/>
    <path id="Path_563" data-name="Path 563" d="M69.523,254.136a.986.986,0,0,0,.1,0,1.012,1.012,0,0,0,1.012-1s.017-2.067.032-4.134c.008-1.034.015-2.068.02-2.844,0-.389,0-.713,0-.94v-.269a1.02,1.02,0,0,0-.768-1.072l-.035-.008a6.529,6.529,0,0,1-5-5.036A1.037,1.037,0,0,0,63.9,238h0l-8.274.042a1.034,1.034,0,0,0-1.005,1.13,16.684,16.684,0,0,0,14.9,14.96Zm-6.4-14.052a8.523,8.523,0,0,0,5.543,5.553c-.007,1.294-.027,4.02-.045,6.332A14.659,14.659,0,0,1,56.785,240.1Zm0,0" transform="translate(945.255 150.05)" fill="#004261"/>
    <path id="Path_564" data-name="Path 564" d="M205.023,240H196.76a1,1,0,0,0-.989.782,6.53,6.53,0,0,1-5.012,4.919,1.008,1.008,0,0,0-.807.983l-.035,8.259a1.007,1.007,0,0,0,1.119,1.009l.033,0a16.666,16.666,0,0,0,14.959-14.865.979.979,0,0,0-.257-.765,1,1,0,0,0-.75-.318Zm-13.076,13.805.027-6.315a8.642,8.642,0,0,0,5.561-5.466h6.327A14.714,14.714,0,0,1,191.947,253.808Zm0,0" transform="translate(827.066 148.304)" fill="#004261"/>
  </g>
</svg>
