<svg xmlns="https://www.w3.org/2000/svg" width="49.5" height="63.15" viewBox="0 0 49.5 63.15">
  <g id="transport_report" transform="translate(15)">
    <g id="Group_842" data-name="Group 842" transform="translate(48)">
      <g id="Group_841" data-name="Group 841" transform="translate(0)">
        <path id="Path_592" data-name="Path 592" d="M87.813,0H53.688A5.7,5.7,0,0,0,48,5.688v40.95A5.366,5.366,0,0,0,50.332,50.9a2.463,2.463,0,0,0-.057.284v3.981a3.957,3.957,0,0,0,3.981,3.981h1.137a3.957,3.957,0,0,0,3.981-3.981V52.325h22.75v2.844a3.957,3.957,0,0,0,3.981,3.981h1.138a3.957,3.957,0,0,0,3.981-3.981V51.188a5.681,5.681,0,0,0,2.275-4.55V5.688A5.7,5.7,0,0,0,87.813,0Z" transform="translate(-107 4)" fill="#cce5ec"/>
        <g id="bus" transform="translate(-111)">
          <g id="Group_842-2" data-name="Group 842" transform="translate(48)">
            <g id="Group_841-2" data-name="Group 841" transform="translate(0)">
              <path id="Path_592-2" data-name="Path 592" d="M88.889,0H53.841A5.859,5.859,0,0,0,48,5.841V47.9a5.511,5.511,0,0,0,2.395,4.381,2.53,2.53,0,0,0-.058.292v4.089a4.064,4.064,0,0,0,4.089,4.089h1.168a4.064,4.064,0,0,0,4.089-4.089V53.74H83.048v2.921a4.064,4.064,0,0,0,4.089,4.089h1.168a4.064,4.064,0,0,0,4.089-4.089V52.572A5.835,5.835,0,0,0,94.731,47.9V5.841A5.859,5.859,0,0,0,88.889,0ZM57.346,56.661a1.721,1.721,0,0,1-1.752,1.752H54.425a1.721,1.721,0,0,1-1.752-1.752V53.448a6.118,6.118,0,0,0,1.752.292h2.921Zm32.712,0a1.721,1.721,0,0,1-1.752,1.752H87.137a1.721,1.721,0,0,1-1.752-1.752V53.74h3.5a7.191,7.191,0,0,0,1.168-.117ZM92.394,47.9a3.515,3.515,0,0,1-3.5,3.5H54.425c-1.869,0-4.089-1.577-4.089-3.5V37.385H92.394Zm0-12.851H50.337V11.683H92.394Zm0-25.7H50.337v-3.5a3.515,3.515,0,0,1,3.5-3.5H88.889a3.515,3.515,0,0,1,3.5,3.5Z" transform="translate(-48)" fill="#004261"/>
              <path id="Path_593" data-name="Path 593" d="M140.762,32h-7.594a1.168,1.168,0,1,0,0,2.337h7.594a1.168,1.168,0,1,0,0-2.337Z" transform="translate(-119.733 -27.327)" fill="#004261"/>
              <path id="Path_594" data-name="Path 594" d="M222.921,32h-1.752a1.168,1.168,0,1,0,0,2.337h1.752a1.168,1.168,0,1,0,0-2.337Z" transform="translate(-194.882 -27.327)" fill="#004261"/>
              <path id="Path_595" data-name="Path 595" d="M87.5,283.01a3.5,3.5,0,1,0-3.5-3.5A3.515,3.515,0,0,0,87.5,283.01Zm0-4.673a1.168,1.168,0,1,1-1.168,1.168A1.172,1.172,0,0,1,87.5,278.337Z" transform="translate(-78.743 -235.695)" fill="#004261"/>
              <path id="Path_596" data-name="Path 596" d="M287.5,283.01a3.5,3.5,0,1,0-3.5-3.5A3.515,3.515,0,0,0,287.5,283.01Zm0-4.673a1.168,1.168,0,1,1-1.168,1.168A1.172,1.172,0,0,1,287.5,278.337Z" transform="translate(-249.536 -235.695)" fill="#004261"/>
            </g>
          </g>
        </g>
      </g>
    </g>
  </g>
</svg>
