<?xml version="1.0" encoding="iso-8859-1"?>
<!-- Generator: Adobe Illustrator 19.0.0, SVG Export Plug-In . SVG Version: 6.00 Build 0)  -->
<svg version="1.1" id="Capa_1" xmlns="http://www.w3.org/2000/svg" xmlns:xlink="http://www.w3.org/1999/xlink" x="0px" y="0px"
	 viewBox="0 0 512 512" style="enable-background:new 0 0 512 512;" xml:space="preserve">
<g>
	<g>
		<path style="fill:#A5A5A4;" d="M203.932,390.508h-17.356c-4.793,0-8.678,3.885-8.678,8.678c0,4.793,3.885,8.678,8.678,8.678
			h17.356c4.793,0,8.678-3.885,8.678-8.678C212.61,394.394,208.725,390.508,203.932,390.508z"/>
		<path style="fill:#A5A5A4;" d="M203.932,416.542h-17.356c-4.793,0-8.678,3.885-8.678,8.678s3.885,8.678,8.678,8.678h17.356
			c4.793,0,8.678-3.885,8.678-8.678S208.725,416.542,203.932,416.542z"/>
		<path style="fill:#A5A5A4;" d="M203.932,442.576h-17.356c-4.793,0-8.678,3.885-8.678,8.678s3.885,8.678,8.678,8.678h17.356
			c4.793,0,8.678-3.885,8.678-8.678S208.725,442.576,203.932,442.576z"/>
		<path style="fill:#A5A5A4;" d="M308.068,407.864h17.356c4.793,0,8.678-3.885,8.678-8.678c0-4.793-3.885-8.678-8.678-8.678h-17.356
			c-4.793,0-8.678,3.885-8.678,8.678C299.39,403.979,303.275,407.864,308.068,407.864z"/>
		<path style="fill:#A5A5A4;" d="M325.424,416.542h-17.356c-4.793,0-8.678,3.885-8.678,8.678s3.885,8.678,8.678,8.678h17.356
			c4.793,0,8.678-3.885,8.678-8.678S330.216,416.542,325.424,416.542z"/>
		<path style="fill:#A5A5A4;" d="M325.424,442.576h-17.356c-4.793,0-8.678,3.885-8.678,8.678s3.885,8.678,8.678,8.678h17.356
			c4.793,0,8.678-3.885,8.678-8.678S330.216,442.576,325.424,442.576z"/>
		<path style="fill:#A5A5A4;" d="M221.288,459.568v17.72C221.288,496.459,236.829,512,256,512s34.712-15.541,34.712-34.712v-17.72
			H221.288z"/>
	</g>
	<path style="fill:#5E5F62;" d="M212.61,381.831h86.78c4.793,0,8.678,3.885,8.678,8.678v78.102c0,4.793-3.885,8.678-8.678,8.678
		h-86.78c-4.793,0-8.678-3.885-8.678-8.678v-78.102C203.932,385.716,207.817,381.831,212.61,381.831z"/>
	<path style="fill:#F0C419;" d="M299.025,382.195c-0.026-32.845,11.527-64.647,32.629-89.817c9.12-9.67,17.23-20.245,24.203-31.562
		c24.952-47.467,13.041-105.938-28.49-139.862s-101.204-33.924-142.735,0s-53.442,92.396-28.49,139.862
		c6.973,11.316,15.083,21.892,24.203,31.562c21.102,25.169,32.655,56.972,32.629,89.817H299.025z"/>
	<path style="fill:#F29C1F;" d="M256,66.647c-4.793,0-8.678-3.885-8.678-8.678V8.678C247.322,3.885,251.207,0,256,0
		c4.793,0,8.678,3.885,8.678,8.678v49.291C264.678,62.762,260.793,66.647,256,66.647z"/>
	<path id="SVGCleanerId_0" style="fill:#F29C1F;" d="M186.576,85.244c-3.103,0.003-5.972-1.651-7.524-4.339l-17.356-30.06
		c-2.358-4.147-0.926-9.419,3.205-11.804c4.131-2.385,9.413-0.989,11.825,3.126l17.356,30.06c1.549,2.684,1.55,5.99,0.002,8.674
		C192.537,83.585,189.675,85.24,186.576,85.244z"/>
	<g>
		<path id="SVGCleanerId_1" style="fill:#F29C1F;" d="M135.749,136.071c-1.524,0.003-3.021-0.398-4.339-1.163l-30.06-17.356
			c-2.686-1.55-4.342-4.416-4.343-7.517c-0.001-3.102,1.653-5.968,4.339-7.519c2.686-1.551,5.995-1.552,8.682-0.002l30.06,17.356
			c3.41,1.96,5.076,5.969,4.058,9.769S139.683,136.077,135.749,136.071z"/>
	</g>
	<g>
		<path id="SVGCleanerId_0_1_" style="fill:#F29C1F;" d="M186.576,85.244c-3.103,0.003-5.972-1.651-7.524-4.339l-17.356-30.06
			c-2.358-4.147-0.926-9.419,3.205-11.804c4.131-2.385,9.413-0.989,11.825,3.126l17.356,30.06c1.549,2.684,1.55,5.99,0.002,8.674
			C192.537,83.585,189.675,85.24,186.576,85.244z"/>
	</g>
	<g>
		<path id="SVGCleanerId_1_1_" style="fill:#F29C1F;" d="M135.749,136.071c-1.524,0.003-3.021-0.398-4.339-1.163l-30.06-17.356
			c-2.686-1.55-4.342-4.416-4.343-7.517c-0.001-3.102,1.653-5.968,4.339-7.519c2.686-1.551,5.995-1.552,8.682-0.002l30.06,17.356
			c3.41,1.96,5.076,5.969,4.058,9.769S139.683,136.077,135.749,136.071z"/>
	</g>
	<path style="fill:#F29C1F;" d="M108.475,208.271H56.407c-4.793,0-8.678-3.885-8.678-8.678c0-4.793,3.885-8.678,8.678-8.678h52.068
		c4.793,0,8.678,3.885,8.678,8.678C117.153,204.386,113.267,208.271,108.475,208.271z"/>
	<g>
		<path id="SVGCleanerId_1_2_" style="fill:#F29C1F;" d="M135.749,136.071c-1.524,0.003-3.021-0.398-4.339-1.163l-30.06-17.356
			c-2.686-1.55-4.342-4.416-4.343-7.517c-0.001-3.102,1.653-5.968,4.339-7.519c2.686-1.551,5.995-1.552,8.682-0.002l30.06,17.356
			c3.41,1.96,5.076,5.969,4.058,9.769S139.683,136.077,135.749,136.071z"/>
	</g>
	<path id="SVGCleanerId_2" style="fill:#F29C1F;" d="M108.475,208.271H56.407c-4.793,0-8.678-3.885-8.678-8.678
		c0-4.793,3.885-8.678,8.678-8.678h52.068c4.793,0,8.678,3.885,8.678,8.678C117.153,204.386,113.267,208.271,108.475,208.271z"/>
	<path id="SVGCleanerId_3" style="fill:#F29C1F;" d="M95.779,303.729c-3.928,0-7.365-2.638-8.382-6.432
		c-1.017-3.794,0.642-7.797,4.043-9.761l30.06-17.356c2.686-1.575,6.011-1.59,8.711-0.039c2.7,1.551,4.363,4.43,4.356,7.544
		s-1.682,5.986-4.389,7.525l-30.06,17.356C98.8,303.331,97.302,303.732,95.779,303.729z"/>
	<g>
		<path id="SVGCleanerId_2_1_" style="fill:#F29C1F;" d="M108.475,208.271H56.407c-4.793,0-8.678-3.885-8.678-8.678
			c0-4.793,3.885-8.678,8.678-8.678h52.068c4.793,0,8.678,3.885,8.678,8.678C117.153,204.386,113.267,208.271,108.475,208.271z"/>
	</g>
	<g>
		<path id="SVGCleanerId_3_1_" style="fill:#F29C1F;" d="M95.779,303.729c-3.928,0-7.365-2.638-8.382-6.432
			c-1.017-3.794,0.642-7.797,4.043-9.761l30.06-17.356c2.686-1.575,6.011-1.59,8.711-0.039c2.7,1.551,4.363,4.43,4.356,7.544
			s-1.682,5.986-4.389,7.525l-30.06,17.356C98.8,303.331,97.302,303.732,95.779,303.729z"/>
	</g>
	<path id="SVGCleanerId_4" style="fill:#F29C1F;" d="M325.424,85.244c-3.099-0.003-5.961-1.658-7.509-4.343
		c-1.548-2.684-1.547-5.991,0.002-8.674l17.356-30.06c2.413-4.115,7.694-5.512,11.825-3.126c4.131,2.385,5.563,7.658,3.205,11.804
		l-17.356,30.06C331.396,83.592,328.527,85.247,325.424,85.244z"/>
	<g>
		<path id="SVGCleanerId_5" style="fill:#F29C1F;" d="M376.251,136.071c-3.934,0.007-7.38-2.633-8.397-6.433
			c-1.018-3.8,0.648-7.809,4.058-9.769l30.06-17.356c2.686-1.55,5.996-1.549,8.682,0.002c2.686,1.551,4.34,4.418,4.339,7.519
			c-0.001,3.102-1.656,5.967-4.343,7.517l-30.06,17.356C379.272,135.672,377.774,136.074,376.251,136.071z"/>
	</g>
	<g>
		<path id="SVGCleanerId_4_1_" style="fill:#F29C1F;" d="M325.424,85.244c-3.099-0.003-5.961-1.658-7.509-4.343
			c-1.548-2.684-1.547-5.991,0.002-8.674l17.356-30.06c2.413-4.115,7.694-5.512,11.825-3.126c4.131,2.385,5.563,7.658,3.205,11.804
			l-17.356,30.06C331.396,83.592,328.527,85.247,325.424,85.244z"/>
	</g>
	<g>
		<path id="SVGCleanerId_5_1_" style="fill:#F29C1F;" d="M376.251,136.071c-3.934,0.007-7.38-2.633-8.397-6.433
			c-1.018-3.8,0.648-7.809,4.058-9.769l30.06-17.356c2.686-1.55,5.996-1.549,8.682,0.002c2.686,1.551,4.34,4.418,4.339,7.519
			c-0.001,3.102-1.656,5.967-4.343,7.517l-30.06,17.356C379.272,135.672,377.774,136.074,376.251,136.071z"/>
	</g>
	<path style="fill:#F29C1F;" d="M455.593,208.271h-52.068c-4.793,0-8.678-3.885-8.678-8.678c0-4.793,3.885-8.678,8.678-8.678h52.068
		c4.793,0,8.678,3.885,8.678,8.678C464.271,204.386,460.386,208.271,455.593,208.271z"/>
	<g>
		<path id="SVGCleanerId_5_2_" style="fill:#F29C1F;" d="M376.251,136.071c-3.934,0.007-7.38-2.633-8.397-6.433
			c-1.018-3.8,0.648-7.809,4.058-9.769l30.06-17.356c2.686-1.55,5.996-1.549,8.682,0.002c2.686,1.551,4.34,4.418,4.339,7.519
			c-0.001,3.102-1.656,5.967-4.343,7.517l-30.06,17.356C379.272,135.672,377.774,136.074,376.251,136.071z"/>
	</g>
	<path id="SVGCleanerId_6" style="fill:#F29C1F;" d="M455.593,208.271h-52.068c-4.793,0-8.678-3.885-8.678-8.678
		c0-4.793,3.885-8.678,8.678-8.678h52.068c4.793,0,8.678,3.885,8.678,8.678C464.271,204.386,460.386,208.271,455.593,208.271z"/>
	<path id="SVGCleanerId_7" style="fill:#F29C1F;" d="M416.221,303.729c-1.524,0.003-3.021-0.398-4.339-1.163l-30.06-17.356
		c-2.707-1.539-4.382-4.411-4.389-7.525c-0.007-3.114,1.655-5.993,4.356-7.544s6.025-1.536,8.711,0.039l30.06,17.356
		c3.401,1.964,5.059,5.967,4.043,9.761C423.587,301.091,420.149,303.729,416.221,303.729z"/>
	<g>
		<path id="SVGCleanerId_6_1_" style="fill:#F29C1F;" d="M455.593,208.271h-52.068c-4.793,0-8.678-3.885-8.678-8.678
			c0-4.793,3.885-8.678,8.678-8.678h52.068c4.793,0,8.678,3.885,8.678,8.678C464.271,204.386,460.386,208.271,455.593,208.271z"/>
	</g>
	<g>
		<path id="SVGCleanerId_7_1_" style="fill:#F29C1F;" d="M416.221,303.729c-1.524,0.003-3.021-0.398-4.339-1.163l-30.06-17.356
			c-2.707-1.539-4.382-4.411-4.389-7.525c-0.007-3.114,1.655-5.993,4.356-7.544s6.025-1.536,8.711,0.039l30.06,17.356
			c3.401,1.964,5.059,5.967,4.043,9.761C423.587,301.091,420.149,303.729,416.221,303.729z"/>
	</g>
	<g>
		<path style="fill:#F9EAB0;" d="M238.384,284.273c-0.691-3.071-2.992-5.528-6.011-6.418c-3.02-0.891-6.285-0.076-8.532,2.129
			c-2.247,2.205-3.124,5.454-2.292,8.49l8.678,34.712c0.964,3.865,4.435,6.577,8.418,6.578c0.714-0.002,1.425-0.089,2.117-0.26
			c4.645-1.165,7.468-5.872,6.309-10.518L238.384,284.273z"/>
		<path style="fill:#F9EAB0;" d="M284.143,277.955c-2.234-0.559-4.598-0.207-6.572,0.978c-1.974,1.185-3.397,3.106-3.954,5.34
			l-8.678,34.712c-1.159,4.646,1.664,9.353,6.309,10.518c0.69,0.171,1.398,0.258,2.109,0.26c3.98-0.005,7.446-2.717,8.409-6.578
			l8.678-34.712C291.602,283.83,288.784,279.124,284.143,277.955z"/>
	</g>
</g>
<g>
</g>
<g>
</g>
<g>
</g>
<g>
</g>
<g>
</g>
<g>
</g>
<g>
</g>
<g>
</g>
<g>
</g>
<g>
</g>
<g>
</g>
<g>
</g>
<g>
</g>
<g>
</g>
<g>
</g>
</svg>
