<svg xmlns="http://www.w3.org/2000/svg" width="69" height="62.684" viewBox="0 0 69 62.684">
  <g id="advanced_security" transform="translate(-146 -361)">
    <path id="Path_614" data-name="Path 614" d="M56.906,0H15.77A6.45,6.45,0,0,0,9.3,6.4L9.031,42.625H1A1.044,1.044,0,0,0,0,43.7v4.985a8.735,8.735,0,0,0,8.242,8.692v.06H42.882v-.067c.258.011.413.067.591.067H43.5a8.708,8.708,0,0,0,8.657-8.753V17H62.611a1.055,1.055,0,0,0,1-1.084V6.768A6.757,6.757,0,0,0,56.906,0Z" transform="translate(151.385 366.25)" fill="#cce5ec"/>
    <g id="policy" transform="translate(146.001 361)">
      <path id="Path_609" data-name="Path 609" d="M59.434,0H16.471A6.736,6.736,0,0,0,9.709,6.687L9.432,44.518H1.047A1.091,1.091,0,0,0,0,45.637v5.206a9.123,9.123,0,0,0,8.608,9.078v.063H44.786v-.07c.269.011.432.07.617.07h.026a9.1,9.1,0,0,0,9.041-9.142V17.753H65.392a1.1,1.1,0,0,0,1.048-1.132V7.069A7.057,7.057,0,0,0,59.434,0ZM9.078,57.833H9.071a6.973,6.973,0,0,1-6.919-6.99V46.67H36.313v4.155a9.107,9.107,0,0,0,2.658,6.462,3.863,3.863,0,0,1,.566.546Zm43.24-6.991a6.948,6.948,0,0,1-6.891,6.991h-.022a6.991,6.991,0,0,1-6.94-7.007V45.638a1.115,1.115,0,0,0-1.076-1.12H11.584l.277-37.824a4.583,4.583,0,0,1,4.61-4.542H54.354A7.342,7.342,0,0,0,52.318,7.1ZM64.288,7.088V15.6H54.47V7.1A4.983,4.983,0,0,1,59.4,2.152h.03A4.9,4.9,0,0,1,64.288,7.08Zm0,0" transform="translate(0)" fill="#004261"/>
      <path id="Path_610" data-name="Path 610" d="M166.339,72.853l5.547,3.793a1.059,1.059,0,0,0,1.2,0l5.531-3.792a8.357,8.357,0,0,0,3.34-6.375V58.805a1.052,1.052,0,0,0-.574-.966l-8.446-4.155a1.057,1.057,0,0,0-.94,0l-8.431,4.143a1.05,1.05,0,0,0-.573.966v7.685a8.357,8.357,0,0,0,3.343,6.374Zm-1.191-13.388,7.33-3.617,7.33,3.627v7a6.2,6.2,0,0,1-2.4,4.6l-4.94,3.379-4.921-3.378a6.2,6.2,0,0,1-2.4-4.6Zm0,0" transform="translate(-141.074 -46.369)" fill="#004261"/>
      <path id="Path_611" data-name="Path 611" d="M204.02,122.246a1.075,1.075,0,0,0,.762.323h0a1.077,1.077,0,0,0,.761-.318l4.28-4.282a1.076,1.076,0,1,0-1.521-1.523l-3.516,3.515-1.405-1.419a1.077,1.077,0,1,0-1.529,1.516Zm0,0" transform="translate(-174.435 -100.511)" fill="#004261"/>
      <path id="Path_612" data-name="Path 612" d="M159.9,248H134.076a1.076,1.076,0,1,0,0,2.152H159.9a1.076,1.076,0,1,0,0-2.152Zm0,0" transform="translate(-115.113 -214.645)" fill="#004261"/>
      <path id="Path_613" data-name="Path 613" d="M159.9,285H134.076a1.076,1.076,0,1,0,0,2.152H159.9a1.076,1.076,0,1,0,0-2.152Zm0,0" transform="translate(-115.113 -246.669)" fill="#004261"/>
    </g>
  </g>
</svg>
