<svg xmlns="http://www.w3.org/2000/svg" width="58.667" height="67.725" viewBox="0 0 58.667 67.725">
  <g id="collection_report" transform="translate(-151 -179.857)">
    <path id="fonts-collection" d="M83.855,7.059V25.353a3.274,3.274,0,0,1-3.27,3.27H77.757V60.195a2.533,2.533,0,0,1-2.53,2.53H32.718a2.533,2.533,0,0,1-2.53-2.53V2.53A2.533,2.533,0,0,1,32.718,0H75.227a2.533,2.533,0,0,1,2.53,2.53V3.789h2.828A3.274,3.274,0,0,1,83.855,7.059Z" transform="translate(125.812 184.857)" fill="#cce5ec"/>
    <path id="fonts-collection-2" data-name="fonts-collection" d="M68.317,43.688a1.054,1.054,0,0,1-1.054,1.054H40.854a1.054,1.054,0,0,1,0-2.108H67.262A1.054,1.054,0,0,1,68.317,43.688ZM54.059,53.373h-13.2a1.054,1.054,0,1,0,0,2.108h13.2a1.054,1.054,0,1,0,0-2.108ZM67.263,48H40.854a1.054,1.054,0,1,0,0,2.108H67.262a1.054,1.054,0,0,0,0-2.108ZM84.049,7.085V25.445a3.286,3.286,0,0,1-3.282,3.282H77.929V60.413a2.542,2.542,0,0,1-2.539,2.539H32.727a2.542,2.542,0,0,1-2.539-2.539V2.539A2.542,2.542,0,0,1,32.727,0H75.39a2.542,2.542,0,0,1,2.539,2.539V3.8h2.838A3.286,3.286,0,0,1,84.049,7.085ZM75.821,2.539a.437.437,0,0,0-.431-.431H32.727a.437.437,0,0,0-.431.431V60.413a.437.437,0,0,0,.431.431H75.39a.437.437,0,0,0,.431-.431Zm6.12,4.546a1.175,1.175,0,0,0-1.174-1.174H77.929V26.619h2.838a1.175,1.175,0,0,0,1.174-1.174Z" transform="translate(120.812 179.857)" fill="#004261"/>
    <g id="rupee" transform="translate(112.635 190.559)">
      <g id="Group_846" data-name="Group 846" transform="translate(56.365)">
        <path id="Path_615" data-name="Path 615" d="M72.95,6.736h-3.8a7.493,7.493,0,0,0-3-5.239h6.8a.748.748,0,1,0,0-1.5H57.113a.748.748,0,0,0,0,1.5h4.535a6.048,6.048,0,0,1,5.995,5.239H57.113a.748.748,0,0,0,0,1.5h10.53a6.058,6.058,0,0,1-5.995,5.314H57.121a.76.76,0,0,0-.748.771.773.773,0,0,0,.232.539l11.323,10.71a.746.746,0,0,0,1.055-.03.764.764,0,0,0-.03-1.07l-9.961-9.423h2.649a7.56,7.56,0,0,0,7.507-6.811h3.8a.748.748,0,1,0,0-1.5Z" transform="translate(-57.365)" fill="#004261" stroke="#004261" stroke-width="1"/>
      </g>
    </g>
  </g>
</svg>
