<svg xmlns="https://www.w3.org/2000/svg" width="82.237" height="78" viewBox="0 0 82.237 78">
  <g id="deleted_fee_transaction" transform="translate(-774 -168)">
    <path id="Union_6" data-name="Union 6" d="M2524.519-3481c-.2,0-.322-.025-.631-.036v.036h-38.136v-.027a9.7,9.7,0,0,1-9.264-9.663v-5.5a1.214,1.214,0,0,1,1.267-1.178h8.739l.292-43.33a1.291,1.291,0,0,1,1.235-1.29h30.657a17.72,17.72,0,0,1,16.512-11.6,17.568,17.568,0,0,1,17.536,17.553,17.573,17.573,0,0,1-17.538,17.554c-.319,0-.647-.011-.956-.027v27.8a9.7,9.7,0,0,1-9.686,9.7Z" transform="translate(-1696.489 3727)" fill="#007d9e" opacity="0.2"/>
    <path id="Union_5" data-name="Union 5" d="M2520.554-3479.114c-.2,0-.333-.026-.652-.038v.038h-39.345v-.029a10.01,10.01,0,0,1-9.557-9.97v-5.673a1.253,1.253,0,0,1,1.308-1.214h9.015l.3-44.7a1.333,1.333,0,0,1,1.274-1.333h31.629A18.285,18.285,0,0,1,2531.564-3554a18.127,18.127,0,0,1,18.092,18.109,18.13,18.13,0,0,1-18.1,18.111c-.329,0-.667-.008-.986-.026v28.682a10.011,10.011,0,0,1-9.993,10.011ZM2483.872-3496h28.007a1.173,1.173,0,0,1,.829.343,1.174,1.174,0,0,1,.345.871v5.644a7.518,7.518,0,0,0,7.5,7.479h.024a7.462,7.462,0,0,0,7.447-7.462v-29a17.983,17.983,0,0,1-11.234-7.378h-14.739a1.075,1.075,0,0,1-1.136-1,1.073,1.073,0,0,1,1.136-1h13.322a10.129,10.129,0,0,1-.365-1.151,17.963,17.963,0,0,1-1.538-7.293,19.146,19.146,0,0,1,.349-3.539h-29.656Zm-10.323,6.875a7.5,7.5,0,0,0,7.485,7.462H2513.9c-.14-.16-.306-.264-.44-.4a9.995,9.995,0,0,1-2.95-7.083v-4.308h-36.956Zm42.472-46.748a15.543,15.543,0,0,0,15.543,15.544,15.56,15.56,0,0,0,15.544-15.544,15.543,15.543,0,0,0-15.543-15.543A15.543,15.543,0,0,0,2516.021-3535.872Zm-23.292,33.622a.939.939,0,0,1-.938-.937v-4.428a.935.935,0,0,1-.592-.871v-.048a.939.939,0,0,1,.938-.938h1.276a1.111,1.111,0,0,1,1.1-.982,1.109,1.109,0,0,1,1.1.982h1.277a.939.939,0,0,1,.937.938v.048a.933.933,0,0,1-.592.871v4.428a.938.938,0,0,1-.937.937Zm2.757-3.738v2.5a.223.223,0,0,0,.221.222.223.223,0,0,0,.223-.222v-2.5a.223.223,0,0,0-.223-.223A.223.223,0,0,0,2495.486-3505.988Zm-1.192,0v2.5a.223.223,0,0,0,.223.222.223.223,0,0,0,.222-.222v-2.5a.223.223,0,0,0-.222-.223A.223.223,0,0,0,2494.293-3505.988Zm-1.191,0v2.5a.222.222,0,0,0,.222.222.223.223,0,0,0,.222-.222v-2.5a.223.223,0,0,0-.222-.223A.223.223,0,0,0,2493.1-3505.988Zm-1.459-2.546v.048a.493.493,0,0,0,.493.492h4.759a.493.493,0,0,0,.493-.492v-.048a.494.494,0,0,0-.493-.493h-4.759A.494.494,0,0,0,2491.644-3508.534Zm10.6,4.179c-.733,0-1.325-.447-1.325-1s.592-1,1.325-1h17.67a1.2,1.2,0,0,1,1.325,1c0,.552-.593,1-1.325,1Zm0-10a1.2,1.2,0,0,1-1.325-1c0-.552.592-1,1.325-1h17.67a1.2,1.2,0,0,1,1.325,1,1.2,1.2,0,0,1-1.325,1Zm-9.513-.23a.939.939,0,0,1-.938-.938v-4.427a.934.934,0,0,1-.592-.871v-.049a.937.937,0,0,1,.938-.936h1.276a1.112,1.112,0,0,1,1.1-.984,1.109,1.109,0,0,1,1.1.984h1.277a.937.937,0,0,1,.937.936v.049a.932.932,0,0,1-.592.871v4.427a.938.938,0,0,1-.937.938Zm2.757-3.738v2.5a.223.223,0,0,0,.221.223.224.224,0,0,0,.223-.223v-2.5a.222.222,0,0,0-.223-.222A.222.222,0,0,0,2495.486-3518.322Zm-1.192,0v2.5a.224.224,0,0,0,.223.223.224.224,0,0,0,.222-.223v-2.5a.222.222,0,0,0-.222-.222A.222.222,0,0,0,2494.293-3518.322Zm-1.191,0v2.5a.223.223,0,0,0,.222.223.224.224,0,0,0,.222-.223v-2.5a.222.222,0,0,0-.222-.222A.222.222,0,0,0,2493.1-3518.322Zm-1.459-2.547v.049a.493.493,0,0,0,.493.492h4.759a.493.493,0,0,0,.493-.492v-.049a.494.494,0,0,0-.493-.492h-4.759A.494.494,0,0,0,2491.644-3520.868Zm1.085-4.927a.939.939,0,0,1-.938-.938v-4.426a.935.935,0,0,1-.592-.872v-.049a.937.937,0,0,1,.938-.936h1.276a1.113,1.113,0,0,1,1.1-.984,1.109,1.109,0,0,1,1.1.984h1.277a.937.937,0,0,1,.937.936v.049a.933.933,0,0,1-.592.872v4.426a.938.938,0,0,1-.937.938Zm2.757-3.737v2.5a.223.223,0,0,0,.221.222.223.223,0,0,0,.223-.222v-2.5a.224.224,0,0,0-.223-.224A.224.224,0,0,0,2495.486-3529.533Zm-1.192,0v2.5a.223.223,0,0,0,.223.222.223.223,0,0,0,.222-.222v-2.5a.224.224,0,0,0-.222-.224A.224.224,0,0,0,2494.293-3529.533Zm-1.191,0v2.5a.222.222,0,0,0,.222.222.223.223,0,0,0,.222-.222v-2.5a.224.224,0,0,0-.222-.224A.223.223,0,0,0,2493.1-3529.533Zm-1.459-2.548v.049a.493.493,0,0,0,.493.493h4.759a.493.493,0,0,0,.493-.493v-.049a.494.494,0,0,0-.493-.491h-4.759A.494.494,0,0,0,2491.644-3532.081Zm30.095-2.009,4.514-4.512,1.819,1.82-1.406,1.407h6.641v2.573h-6.641l1.406,1.407-1.819,1.82Zm14.358-2.453,1.406-1.407h-6.77v-2.574h6.77l-1.406-1.406,1.82-1.82,4.513,4.513-4.513,4.513Z" transform="translate(-1697 3722)" fill="#004261"/>
  </g>
</svg>
