<svg xmlns="http://www.w3.org/2000/svg" width="69.258" height="69.433" viewBox="0 0 69.258 69.433">
  <g id="dynamics" transform="translate(-355.742 -532.825)">
    <path id="Path_520" data-name="Path 520" d="M68.383,4.423a.957.957,0,0,0-.651-.337L53.582,2.878,53.325.839A.958.958,0,0,0,52.256.008L39.129,1.658a.953.953,0,0,0-.16-.028L20.927.089a.966.966,0,0,0-1.035.872l-.269,3.149L5.647,5.868a.967.967,0,0,0-.831,1.069L11.95,63.679a2.635,2.635,0,0,0,.083.758.966.966,0,0,0,.882.585H59.891a.957.957,0,0,0,.957-.957V62.817l1.854.158a.967.967,0,0,0,1.035-.872L68.6,5.122A.957.957,0,0,0,68.383,4.423ZM21.718,2.078Z" transform="translate(356.392 537.237)" fill="#cce5ec"/>
    <g id="analysis" transform="translate(356 533.076)">
      <g id="Group_805" data-name="Group 805" transform="translate(0 0)">
        <g id="Group_804" data-name="Group 804" transform="translate(0 0)">
          <path id="Path_520-2" data-name="Path 520" d="M69.011,4.467a.967.967,0,0,0-.657-.34L54.063,2.906,53.8.847a.968.968,0,0,0-1.08-.839L39.468,1.675a.962.962,0,0,0-.161-.029L21.086.09A.976.976,0,0,0,20.04.971l-.272,3.181L5.655,5.926a.977.977,0,0,0-.839,1.08l7.2,57.3a2.661,2.661,0,0,0,.083.765.976.976,0,0,0,.891.59h47.44A.967.967,0,0,0,61.4,64.7V63.437l1.873.16a.976.976,0,0,0,1.046-.881L69.234,5.173A.966.966,0,0,0,69.011,4.467Zm-56.983,44.4L6.856,7.724l5.172-.65ZM21.885,2.1l8.462.723L21.73,3.9Zm30.122-.051L52.5,5.976H20.753Zm10.469,59.54L61.4,61.5V33.241a.967.967,0,0,0-1.934,0V63.729H13.962V7.91H59.468V28.729a.967.967,0,1,0,1.934,0V6.943a.967.967,0,0,0-.967-.967H54.449L54.31,4.868l12.916,1.1Z" transform="translate(-4.809 0)" fill="#004261" stroke="#004261" stroke-width="0.5"/>
        </g>
      </g>
      <g id="Group_807" data-name="Group 807" transform="translate(33.002 11.133)">
        <g id="Group_806" data-name="Group 806">
          <path id="Path_521" data-name="Path 521" d="M279.6,86.806h-5.157a.966.966,0,0,0-.8.431l-2.188,3.283a14.3,14.3,0,0,0-8.351-2.682.967.967,0,0,0-.967.967v13.407a.967.967,0,0,0,.967.967h13.407a.967.967,0,0,0,.967-.967,14.335,14.335,0,0,0-4.522-10.456l2.01-3.015H279.6a.967.967,0,1,0,0-1.934Zm-4.1,14.438H264.071V89.808a12.367,12.367,0,0,1,6.31,2.322l-.863,1.294a.967.967,0,1,0,1.609,1.073l.738-1.108A12.408,12.408,0,0,1,275.507,101.244Z" transform="translate(-262.137 -86.806)" fill="#004261" stroke="#004261" stroke-width="0.5"/>
        </g>
      </g>
      <g id="Group_809" data-name="Group 809" transform="translate(15.469 16.289)">
        <g id="Group_808" data-name="Group 808">
          <path id="Path_522" data-name="Path 522" d="M160.43,153.827h-8.746l-1.541-2.466a14.325,14.325,0,0,0,4.035-9.974.967.967,0,0,0-.967-.967h-12.44V127.98a.967.967,0,0,0-.967-.967,14.374,14.374,0,1,0,8.883,25.667l1.642,2.626a.967.967,0,0,0,.82.454h9.282a.967.967,0,0,0,0-1.934Zm-13.618-7.8a.967.967,0,0,0-1.64,1.025l2.483,3.973a12.438,12.438,0,1,1-8.818-22.045v12.4a.967.967,0,0,0,.967.967h12.4a12.392,12.392,0,0,1-3.124,7.311Z" transform="translate(-125.43 -127.013)" fill="#004261" stroke="#004261" stroke-width="0.5"/>
        </g>
      </g>
      <g id="Group_811" data-name="Group 811" transform="translate(12.375 48.259)">
        <g id="Group_810" data-name="Group 810">
          <path id="Path_523" data-name="Path 523" d="M110.523,376.3h-8.25a.967.967,0,1,0,0,1.934h8.25a.967.967,0,1,0,0-1.934Z" transform="translate(-101.306 -376.3)" fill="#004261" stroke="#004261" stroke-width="0.5"/>
        </g>
      </g>
      <g id="Group_813" data-name="Group 813" transform="translate(24.751 48.259)">
        <g id="Group_812" data-name="Group 812">
          <path id="Path_524" data-name="Path 524" d="M207.022,376.3h-8.25a.967.967,0,1,0,0,1.934h8.25a.967.967,0,1,0,0-1.934Z" transform="translate(-197.805 -376.3)" fill="#004261" stroke="#004261" stroke-width="0.5"/>
        </g>
      </g>
      <g id="Group_815" data-name="Group 815" transform="translate(12.375 53.416)">
        <g id="Group_814" data-name="Group 814">
          <path id="Path_525" data-name="Path 525" d="M115.68,416.508H102.273a.967.967,0,1,0,0,1.934H115.68a.967.967,0,1,0,0-1.934Z" transform="translate(-101.306 -416.508)" fill="#004261" stroke="#004261" stroke-width="0.5"/>
        </g>
      </g>
      <g id="Group_817" data-name="Group 817" transform="translate(29.908 53.416)">
        <g id="Group_816" data-name="Group 816">
          <path id="Path_526" data-name="Path 526" d="M242.073,416.508h-3.094a.967.967,0,1,0,0,1.934h3.094a.967.967,0,1,0,0-1.934Z" transform="translate(-238.012 -416.508)" fill="#004261" stroke="#004261" stroke-width="0.5"/>
        </g>
      </g>
      <g id="Group_819" data-name="Group 819" transform="translate(12.375 58.572)">
        <g id="Group_818" data-name="Group 818">
          <path id="Path_527" data-name="Path 527" d="M106.4,456.715h-4.125a.967.967,0,1,0,0,1.934H106.4a.967.967,0,0,0,0-1.934Z" transform="translate(-101.306 -456.715)" fill="#004261" stroke="#004261" stroke-width="0.5"/>
        </g>
      </g>
      <g id="Group_821" data-name="Group 821" transform="translate(20.626 58.572)">
        <g id="Group_820" data-name="Group 820">
          <path id="Path_528" data-name="Path 528" d="M178.981,456.715H166.606a.967.967,0,0,0,0,1.934h12.376a.967.967,0,0,0,0-1.934Z" transform="translate(-165.639 -456.715)" fill="#004261" stroke="#004261" stroke-width="0.5"/>
        </g>
      </g>
    </g>
  </g>
</svg>
