<svg xmlns="https://www.w3.org/2000/svg" width="68.15" height="69.15" viewBox="0 0 68.15 69.15">
  <g id="family_wise_fee_received" transform="translate(-1204 -179.6)">
    <path id="Path_469" data-name="Path 469" d="M61.671,25.645H53.809c-.679,0-4.309-13.261-4.54-13.491L37.475.36A1.229,1.229,0,0,0,36.607,0H3.686A3.69,3.69,0,0,0,0,3.686V59.214A3.69,3.69,0,0,0,3.686,62.9H61.671A1.229,1.229,0,0,0,62.9,61.671v-34.8A1.229,1.229,0,0,0,61.671,25.645Z" transform="translate(1209.25 185.85)" fill="#cce5ec"/>
    <g id="analytics" transform="translate(1204 179.6)">
      <path id="Union_8" data-name="Union 8" d="M1245.734-3595.867A3.739,3.739,0,0,1,1242-3599.6v-56.265a3.739,3.739,0,0,1,3.734-3.734h33.358a1.245,1.245,0,0,1,.88.365l11.95,11.951a1.245,1.245,0,0,1,.365.88v16.556a1.245,1.245,0,0,1-1.245,1.245,1.245,1.245,0,0,1-1.245-1.245v-15.311h-8.215a3.738,3.738,0,0,1-3.734-3.734v-8.215h-32.112a1.246,1.246,0,0,0-1.245,1.244v56.265a1.246,1.246,0,0,0,1.245,1.245h10.705v-9.912a1.245,1.245,0,0,1,1.245-1.245h7.967a1.245,1.245,0,0,1,1.245,1.245v9.912h2.489v-17.054a1.245,1.245,0,0,1,1.245-1.245h7.967a1.245,1.245,0,0,1,1.245,1.245v17.054h2.49v-25.768a1.245,1.245,0,0,1,1.245-1.244h7.967a1.245,1.245,0,0,1,1.245,1.244v25.768h2.489v-18.393a1.245,1.245,0,0,1,1.245-1.245,1.245,1.245,0,0,1,1.245,1.245v18.393h5.477v-32.77h-5.477v5.042a1.245,1.245,0,0,1-1.245,1.245,1.245,1.245,0,0,1-1.245-1.245v-6.286a1.244,1.244,0,0,1,1.245-1.244h7.967a1.244,1.244,0,0,1,1.245,1.244v35.259a1.245,1.245,0,0,1-1.245,1.245Zm39.087-2.489h5.477v-24.523h-5.477Zm-12.946,0h5.478v-15.809h-5.478Zm-12.945,0h5.477v-8.667h-5.477Zm21.407-50.539a1.246,1.246,0,0,0,1.245,1.246h6.456l-7.7-7.7Zm-17.049,34.054a1.248,1.248,0,0,1-.366-.88,1.248,1.248,0,0,1,.366-.881,1.251,1.251,0,0,1,.88-.365,1.255,1.255,0,0,1,.88.365,1.255,1.255,0,0,1,.365.881,1.255,1.255,0,0,1-.365.88,1.255,1.255,0,0,1-.88.365A1.251,1.251,0,0,1,1263.287-3614.841Zm-13.321.365a1.245,1.245,0,0,1-1.245-1.245,1.245,1.245,0,0,1,1.245-1.245h7.967a1.245,1.245,0,0,1,1.245,1.245,1.245,1.245,0,0,1-1.245,1.245Zm45.675-6.292a1.254,1.254,0,0,1-.365-.88,1.252,1.252,0,0,1,.365-.88,1.254,1.254,0,0,1,.881-.366,1.252,1.252,0,0,1,.88.366,1.252,1.252,0,0,1,.365.88,1.254,1.254,0,0,1-.365.88,1.255,1.255,0,0,1-.88.365A1.257,1.257,0,0,1,1295.641-3620.768Zm-45.675.285a1.244,1.244,0,0,1-1.245-1.245,1.245,1.245,0,0,1,1.245-1.244h23.776a1.244,1.244,0,0,1,1.245,1.244,1.244,1.244,0,0,1-1.245,1.245Zm-1.294-17.439a11.465,11.465,0,0,1,10.2-11.381v-2.239a1.245,1.245,0,0,1,1.245-1.245,14.882,14.882,0,0,1,14.865,14.865,1.244,1.244,0,0,1-1.245,1.245H1271.5a11.464,11.464,0,0,1-11.381,10.2A11.462,11.462,0,0,1,1248.672-3637.922Zm2.49,0a8.969,8.969,0,0,0,8.959,8.959,8.974,8.974,0,0,0,8.873-7.714h-8.873a1.245,1.245,0,0,1-1.245-1.245v-8.873A8.974,8.974,0,0,0,1251.162-3637.922Zm10.2-1.244h11.069a12.4,12.4,0,0,0-11.069-11.069Z" transform="translate(-1242 3659.6)" fill="#004261"/>
    </g>
  </g>
</svg>
