<svg xmlns="https://www.w3.org/2000/svg" width="47.764" height="70.565" viewBox="0 0 47.764 70.565">
  <g id="fee_defaulter_s_list" data-name="fee_defaulter&apos;s_list" transform="translate(-365.75 -352.75)">
    <g id="Group_828" data-name="Group 828" transform="translate(303.156 352.122)">
      <path id="Path_552" data-name="Path 552" d="M105.785,16.555h-8.2V13.484a1.226,1.226,0,0,0-1.224-1.224H94.29V10.688a4.689,4.689,0,0,0-9.377,0v1.571H82.846a1.226,1.226,0,0,0-1.225,1.224v3.071h-8.2a4.578,4.578,0,0,0-4.573,4.573V66.62a4.578,4.578,0,0,0,4.573,4.573h32.368a4.578,4.578,0,0,0,4.573-4.573V21.128A4.578,4.578,0,0,0,105.785,16.555Z" transform="translate(0 0)" fill="#cce5ec"/>
    </g>
    <g id="Group_827" data-name="Group 827" transform="translate(297.156 347)">
      <path id="Path_552-2" data-name="Path 552" d="M107.163,16.948H98.654V13.763a1.272,1.272,0,0,0-1.27-1.27H95.239V10.863a4.863,4.863,0,0,0-9.727,0v1.629H83.368a1.272,1.272,0,0,0-1.271,1.27v3.186h-8.51a4.749,4.749,0,0,0-4.744,4.744V68.881a4.749,4.749,0,0,0,4.744,4.744h33.575a4.749,4.749,0,0,0,4.744-4.744V21.692A4.749,4.749,0,0,0,107.163,16.948ZM90.376,8.54A2.326,2.326,0,0,1,92.7,10.863v1.629H88.053V10.863A2.326,2.326,0,0,1,90.376,8.54Zm-5.738,6.493H96.114V21.4H84.638Zm24.729,53.849a2.206,2.206,0,0,1-2.2,2.2H73.588a2.206,2.206,0,0,1-2.2-2.2V21.692a2.206,2.206,0,0,1,2.2-2.2H82.1v3.185a1.272,1.272,0,0,0,1.271,1.27H97.384a1.272,1.272,0,0,0,1.27-1.27V19.488h8.509a2.206,2.206,0,0,1,2.2,2.2Z" fill="#004261" stroke="#004261" stroke-width="0.5"/>
      <path id="Path_553" data-name="Path 553" d="M263.8,198.143l-3.385,3.385-1.517-1.516a1.27,1.27,0,1,0-1.8,1.8l2.415,2.416a1.27,1.27,0,0,0,1.8,0l4.284-4.284a1.27,1.27,0,0,0-1.8-1.8Z" transform="translate(-162.474 -165.834)" fill="#004261" stroke="#004261" stroke-width="0.5"/>
      <path id="Path_554" data-name="Path 554" d="M141.607,229.441h-9.29a1.27,1.27,0,0,0,0,2.54h9.29a1.27,1.27,0,1,0,0-2.54Z" transform="translate(-53.79 -193.221)" fill="#004261" stroke="#004261" stroke-width="0.5"/>
      <path id="Path_555" data-name="Path 555" d="M141.607,313.18h-9.29a1.27,1.27,0,0,0,0,2.541h9.29a1.27,1.27,0,0,0,0-2.541Z" transform="translate(-53.79 -265.68)" fill="#004261" stroke="#004261" stroke-width="0.5"/>
      <path id="Path_556" data-name="Path 556" d="M141.607,396.922h-9.29a1.27,1.27,0,0,0,0,2.54h9.29a1.27,1.27,0,1,0,0-2.54Z" transform="translate(-53.79 -338.422)" fill="#004261" stroke="#004261" stroke-width="0.5"/>
      <ellipse id="Ellipse_22" data-name="Ellipse 22" cx="2.706" cy="2.706" rx="2.706" ry="2.706" transform="translate(96.175 55.5)" fill="#004261" stroke="#004261" stroke-width="0.5"/>
      <ellipse id="Ellipse_23" data-name="Ellipse 23" cx="2.706" cy="2.706" rx="2.706" ry="2.706" transform="translate(96.175 44.5)" fill="#004261" stroke="#004261" stroke-width="0.5"/>
    </g>
  </g>
</svg>
