<svg xmlns="http://www.w3.org/2000/svg" width="66.667" height="66.667" viewBox="0 0 66.667 66.667">
  <g id="fee_structure" transform="translate(-1205 -357.75)">
    <g id="report_1_" data-name="report (1)" transform="translate(1208.884 361.633)">
      <path id="Path_566" data-name="Path 566" d="M61.737,152.863H59.644V118.332a5.232,5.232,0,0,0-3.925-5.066c.863,2.383-49.52,2.384-48.134,2.026l-.523-2.026a5.232,5.232,0,0,0-3.923,5.066v34.531H1.046A1.046,1.046,0,0,0,0,153.909v4.186a3.139,3.139,0,0,0,3.139,3.139h56.5a3.139,3.139,0,0,0,3.139-3.139v-4.186A1.046,1.046,0,0,0,61.737,152.863Z" transform="translate(0 -98.451)" fill="#cce5ec"/>
      <path id="Path_567" data-name="Path 567" d="M56,50.226v2.093h48.134V50.226h-2.093V3.139A3.139,3.139,0,0,0,98.9,0H61.232a3.139,3.139,0,0,0-3.139,3.139V50.226Z" transform="translate(-48.675)" fill="#cce5ec"/>
    </g>
    <g id="report_1_2" data-name="report (1)" transform="translate(1205 357.75)">
      <path id="Path_566-2" data-name="Path 566" d="M62.294,153.22H60.182V118.378a5.279,5.279,0,0,0-3.96-5.112l-.528,2.044a3.167,3.167,0,0,1,2.377,3.068V153.22H5.279V118.378a3.167,3.167,0,0,1,2.375-3.068l-.528-2.044a5.279,5.279,0,0,0-3.958,5.112V153.22H1.056A1.056,1.056,0,0,0,0,154.276V158.5a3.168,3.168,0,0,0,3.167,3.167H60.182A3.168,3.168,0,0,0,63.35,158.5v-4.223A1.056,1.056,0,0,0,62.294,153.22Zm-26.8,2.112-.353,1.056H28.213l-.353-1.056ZM61.238,158.5a1.056,1.056,0,0,1-1.056,1.056H3.167A1.056,1.056,0,0,1,2.112,158.5v-3.167H25.635l.815,2.445a1.057,1.057,0,0,0,1,.722H35.9a1.057,1.057,0,0,0,1-.722l.815-2.445H61.238Zm0,0" transform="translate(0 -98.317)" fill="#004261"/>
      <path id="Path_567-2" data-name="Path 567" d="M56,50.68v2.112h48.568V50.68h-2.112V3.167A3.168,3.168,0,0,0,99.289,0H61.279a3.168,3.168,0,0,0-3.167,3.167V50.68ZM91.9,2.112H94.01V6.954L93.7,6.644a1.056,1.056,0,0,0-1.493,0l-.309.309ZM60.223,3.167a1.056,1.056,0,0,1,1.056-1.056H89.786V9.5a1.056,1.056,0,0,0,1.8.747l1.365-1.365,1.365,1.365a1.056,1.056,0,0,0,1.8-.747V2.112h3.167a1.056,1.056,0,0,1,1.056,1.056V50.68H60.223Zm0,0" transform="translate(-48.609)" fill="#004261"/>
      <path id="Path_568" data-name="Path 568" d="M184.447,152a8.447,8.447,0,1,0,8.447,8.447A8.446,8.446,0,0,0,184.447,152Zm6.24,7.391H185.5v-5.184A6.344,6.344,0,0,1,190.687,159.391Zm-7.3-5.184v5.807l-4.1,4.1a6.318,6.318,0,0,1,4.1-9.909Zm1.056,12.575a6.293,6.293,0,0,1-3.665-1.177l4.1-4.1h5.807A6.341,6.341,0,0,1,184.447,166.782Zm0,0" transform="translate(-152.772 -131.939)" fill="#004261"/>
      <path id="Path_569" data-name="Path 569" d="M328,144h4.223v2.112H328Zm0,0" transform="translate(-284.711 -124.995)" fill="#004261"/>
      <path id="Path_570" data-name="Path 570" d="M328,176h4.223v2.112H328Zm0,0" transform="translate(-284.711 -152.772)" fill="#004261"/>
      <path id="Path_571" data-name="Path 571" d="M312,256h6.335v2.112H312Zm0,0" transform="translate(-270.823 -222.214)" fill="#004261"/>
      <path id="Path_572" data-name="Path 572" d="M312,288h6.335v2.112H312Zm0,0" transform="translate(-270.823 -249.99)" fill="#004261"/>
      <path id="Path_573" data-name="Path 573" d="M120,152h2.112v2.112H120Zm0,0" transform="translate(-104.163 -131.939)" fill="#004261"/>
      <path id="Path_574" data-name="Path 574" d="M152,152h4.223v2.112H152Zm0,0" transform="translate(-131.939 -131.939)" fill="#004261"/>
      <path id="Path_575" data-name="Path 575" d="M120,48h4.223v2.112H120Zm0,0" transform="translate(-104.163 -41.665)" fill="#004261"/>
      <path id="Path_576" data-name="Path 576" d="M120,80h8.447v2.112H120Zm0,0" transform="translate(-104.163 -69.442)" fill="#004261"/>
      <path id="Path_577" data-name="Path 577" d="M120,304h8.447v2.112H120Zm0,0" transform="translate(-104.163 -263.879)" fill="#004261"/>
      <path id="Path_578" data-name="Path 578" d="M120,336h8.447v2.112H120Zm0,0" transform="translate(-104.163 -291.655)" fill="#004261"/>
    </g>
  </g>
</svg>
