<svg xmlns="http://www.w3.org/2000/svg" width="55.389" height="65.008" viewBox="0 0 55.389 65.008">
  <g id="fee_adjustment" transform="translate(-362 -179.937)">
    <g id="Group_716" data-name="Group 716" transform="translate(225.052 57.667)">
      <g id="report" transform="translate(203.102 262.533)">
        <path id="Path_441" data-name="Path 441" d="M36.432,6.045V0H0V45.5H6.045v6.045h26.48l9.953-9.953V6.045Z" transform="translate(-53.243 -126.8)" fill="#cce5ec"/>
      </g>
      <path id="Union_7" data-name="Union 7" d="M2478.381-3491.063v-7.381H2471V-3554h44.484v7.381h7.382v43.4l-12.153,12.152Zm3.687-3.687h26.037v-11.072h11.072v-37.109h-37.109Zm29.724-2.608,4.777-4.776h-4.777Zm-37.105-4.774h3.694v-44.487H2511.8v-3.694h-37.108Zm14.068-8.3h-2.2a1.029,1.029,0,0,1-1.03-1.031,1.029,1.029,0,0,1,1.03-1.029h2.2a4.115,4.115,0,0,1,3.971-3.088,4.122,4.122,0,0,1,4.118,4.116,4.123,4.123,0,0,1-4.118,4.118A4.114,4.114,0,0,1,2488.756-3510.432Zm1.913-1.031a2.062,2.062,0,0,0,2.058,2.06,2.062,2.062,0,0,0,2.06-2.06,2.061,2.061,0,0,0-2.06-2.057A2.06,2.06,0,0,0,2490.669-3511.463Zm9.264,1.031a1.03,1.03,0,0,1-1.03-1.031,1.03,1.03,0,0,1,1.03-1.029h15.44a1.03,1.03,0,0,1,1.03,1.029,1.03,1.03,0,0,1-1.03,1.031Zm-2.058-10.294a4.12,4.12,0,0,1,4.116-4.116,4.124,4.124,0,0,1,3.988,3.088h9.394a1.029,1.029,0,0,1,1.03,1.03,1.029,1.029,0,0,1-1.03,1.029h-9.394a4.125,4.125,0,0,1-3.988,3.088A4.12,4.12,0,0,1,2497.875-3520.726Zm2.058,0a2.061,2.061,0,0,0,2.058,2.059,2.06,2.06,0,0,0,2.058-2.059,2.061,2.061,0,0,0-2.058-2.058A2.061,2.061,0,0,0,2499.933-3520.726Zm-13.382,1.03a1.029,1.029,0,0,1-1.03-1.029,1.029,1.029,0,0,1,1.03-1.03h8.236a1.029,1.029,0,0,1,1.029,1.03,1.029,1.029,0,0,1-1.029,1.029Zm18.528-11.323a4.122,4.122,0,0,1,4.118-4.118,4.114,4.114,0,0,1,3.972,3.088h2.2a1.029,1.029,0,0,1,1.03,1.03,1.03,1.03,0,0,1-1.03,1.03h-2.2a4.115,4.115,0,0,1-3.972,3.088A4.122,4.122,0,0,1,2505.079-3531.02Zm2.06,0a2.061,2.061,0,0,0,2.057,2.058,2.06,2.06,0,0,0,2.059-2.058,2.061,2.061,0,0,0-2.059-2.059A2.061,2.061,0,0,0,2507.139-3531.02Zm-20.588,1.03a1.029,1.029,0,0,1-1.03-1.03,1.029,1.029,0,0,1,1.03-1.03h15.44a1.029,1.029,0,0,1,1.03,1.03,1.029,1.029,0,0,1-1.03,1.03Z" transform="translate(-2334.051 3676.271)" fill="#004261"/>
    </g>
  </g>
</svg>
