<svg xmlns="http://www.w3.org/2000/svg" width="60.5" height="67.75" viewBox="0 0 60.5 67.75">
  <g id="fee_ledger" transform="translate(-995.75 -179.75)">
    <path id="Union_9" data-name="Union 9" d="M6.208,63.5A5.214,5.214,0,0,1,1,58.291V6.208A5.214,5.214,0,0,1,6.208,1h37.5a5.215,5.215,0,0,1,5.208,5.208V27.387a15.622,15.622,0,0,1,0,26.484v4.421A5.215,5.215,0,0,1,43.708,63.5Z" transform="translate(1000 184)" fill="#007d9e" opacity="0.2"/>
    <g id="document" transform="translate(996 180)">
      <path id="Path_448" data-name="Path 448" d="M207.729,192a15.729,15.729,0,1,0,15.729,15.729A15.729,15.729,0,0,0,207.729,192Zm0,29.361a13.632,13.632,0,1,1,13.632-13.632A13.632,13.632,0,0,1,207.729,221.361Zm0,0" transform="translate(-166.833 -166.833)" fill="#004261" stroke="#004261" stroke-width="0.5"/>
      <path id="Path_449" data-name="Path 449" d="M258.344,270.92l12.584-12.584,1.483,1.483L259.827,272.4Zm0,0" transform="translate(-224.481 -224.474)" fill="#004261" stroke="#004261" stroke-width="0.5"/>
      <path id="Path_450" data-name="Path 450" d="M323.146,320a3.146,3.146,0,1,0,3.146,3.146A3.146,3.146,0,0,0,323.146,320Zm0,4.194a1.049,1.049,0,1,1,1.049-1.049A1.049,1.049,0,0,1,323.146,324.194Zm0,0" transform="translate(-278.055 -278.055)" fill="#004261" stroke="#004261" stroke-width="0.5"/>
      <path id="Path_451" data-name="Path 451" d="M259.146,262.292A3.146,3.146,0,1,0,256,259.146,3.146,3.146,0,0,0,259.146,262.292Zm0-4.194a1.049,1.049,0,1,1-1.049,1.049A1.049,1.049,0,0,1,259.146,258.1Zm0,0" transform="translate(-222.444 -222.444)" fill="#004261" stroke="#004261" stroke-width="0.5"/>
      <path id="Path_452" data-name="Path 452" d="M42.993,60.82H5.243A3.146,3.146,0,0,1,2.1,57.674V5.243A3.146,3.146,0,0,1,5.243,2.1H34.6v9.438a1.048,1.048,0,0,0,1.887.629L38.8,9.088l2.307,3.076a1.048,1.048,0,0,0,.839.419,1.086,1.086,0,0,0,.331-.053,1.049,1.049,0,0,0,.717-1V2.1a3.146,3.146,0,0,1,3.146,3.146V24.118h2.1V5.243A5.249,5.249,0,0,0,42.993,0H5.243A5.249,5.249,0,0,0,0,5.243V57.674a5.249,5.249,0,0,0,5.243,5.243h37.75a5.249,5.249,0,0,0,5.243-5.243h-2.1a3.146,3.146,0,0,1-3.146,3.146Z" fill="#004261" stroke="#004261" stroke-width="0.5"/>
      <path id="Path_455" data-name="Path 455" d="M48,80H64.778v2.1H48Zm0,0" transform="translate(-41.708 -69.514)" fill="#004261" stroke="#004261" stroke-width="0.5"/>
      <path id="Path_456" data-name="Path 456" d="M48,144H75.264v2.1H48Zm0,0" transform="translate(-41.708 -125.5)" fill="#004261" stroke="#004261" stroke-width="0.5"/>
      <path id="Path_457" data-name="Path 457" d="M272,144h6.292v2.1H272Zm0,0" transform="translate(-236.347 -125.125)" fill="#004261" stroke="#004261" stroke-width="0.5"/>
      <path id="Path_459" data-name="Path 459" d="M48,240H64.778v2.1H48Zm0,0" transform="translate(-41.708 -211.5)" fill="#004261" stroke="#004261" stroke-width="0.5"/>
      <path id="Path_460" data-name="Path 460" d="M48,288H62.681v2.1H48Zm0,0" transform="translate(-41.708 -250.5)" fill="#004261" stroke="#004261" stroke-width="0.5"/>
      <path id="Path_461" data-name="Path 461" d="M48,368H58.486v2.1H48Zm0,0" transform="translate(-41.708 -321.764)" fill="#004261" stroke="#004261" stroke-width="0.5"/>
      <path id="Path_462" data-name="Path 462" d="M48,400H58.486v2.1H48Zm0,0" transform="translate(-41.708 -347.569)" fill="#004261" stroke="#004261" stroke-width="0.5"/>
    </g>
  </g>
</svg>
