<svg xmlns="https://www.w3.org/2000/svg" width="82.725" height="79.001" viewBox="0 0 82.725 79.001">
  <g id="missing_fee_invoice" transform="translate(-137 -168)">
    <g id="Group_708" data-name="Group 708" transform="translate(7 54.667)">
      <path id="Union_6" data-name="Union 6" d="M2521.519-3479c-.2,0-.323-.025-.632-.037v.037h-38.136v-.028a9.7,9.7,0,0,1-9.263-9.663v-5.5a1.214,1.214,0,0,1,1.267-1.177h8.738l.293-43.33a1.292,1.292,0,0,1,1.235-1.291h30.657a17.722,17.722,0,0,1,16.512-11.6,17.569,17.569,0,0,1,17.535,17.554,17.573,17.573,0,0,1-17.538,17.553c-.32,0-.646-.009-.955-.026v27.8a9.7,9.7,0,0,1-9.687,9.7Z" transform="translate(-2337 3671.333)" fill="#cce5ec"/>
      <path id="Union_5" data-name="Union 5" d="M2520.554-3479.114c-.2,0-.333-.026-.652-.038v.038h-39.345v-.029a10.01,10.01,0,0,1-9.557-9.97v-5.673a1.253,1.253,0,0,1,1.308-1.214h9.015l.3-44.7a1.333,1.333,0,0,1,1.274-1.333h31.629A18.285,18.285,0,0,1,2531.564-3554a18.127,18.127,0,0,1,18.092,18.109,18.13,18.13,0,0,1-18.1,18.111c-.329,0-.667-.008-.986-.026v28.682a10.011,10.011,0,0,1-9.993,10.011ZM2483.872-3496h28.007a1.173,1.173,0,0,1,.829.343,1.174,1.174,0,0,1,.345.871v5.644a7.518,7.518,0,0,0,7.5,7.479h.024a7.462,7.462,0,0,0,7.447-7.462v-29a17.978,17.978,0,0,1-11.635-7.981h-13.419a1.274,1.274,0,0,1-1.274-1.273,1.274,1.274,0,0,1,1.274-1.274h12.037a17.963,17.963,0,0,1-1.538-7.293,19.146,19.146,0,0,1,.349-3.539h-29.656Zm-10.323,6.875a7.5,7.5,0,0,0,7.485,7.462H2513.9c-.14-.16-.306-.264-.44-.4a9.995,9.995,0,0,1-2.95-7.083v-4.308h-36.956Zm42.472-46.748a15.543,15.543,0,0,0,15.543,15.544,15.56,15.56,0,0,0,15.544-15.544,15.543,15.543,0,0,0-15.543-15.543A15.543,15.543,0,0,0,2516.021-3535.872Zm-25.307,30.725a4.02,4.02,0,0,1,4.079-3.949,4.02,4.02,0,0,1,4.08,3.949,4.02,4.02,0,0,1-4.08,3.949A4.02,4.02,0,0,1,2490.714-3505.147Zm2.549,0a1.471,1.471,0,0,0,1.53,1.4,1.472,1.472,0,0,0,1.531-1.4,1.472,1.472,0,0,0-1.531-1.4A1.471,1.471,0,0,0,2493.263-3505.147Zm9.71,1.343a1.275,1.275,0,0,1-1.274-1.275,1.274,1.274,0,0,1,1.274-1.274h16.989a1.274,1.274,0,0,1,1.274,1.274,1.275,1.275,0,0,1-1.274,1.275Zm-12.259-12.42a4.02,4.02,0,0,1,4.079-3.949,4.02,4.02,0,0,1,4.08,3.949,4.02,4.02,0,0,1-4.08,3.949A4.02,4.02,0,0,1,2490.714-3516.224Zm2.549,0a1.471,1.471,0,0,0,1.53,1.4,1.472,1.472,0,0,0,1.531-1.4,1.472,1.472,0,0,0-1.531-1.4A1.471,1.471,0,0,0,2493.263-3516.224Zm9.71,1.269a1.274,1.274,0,0,1-1.274-1.274,1.275,1.275,0,0,1,1.274-1.274h16.989a1.275,1.275,0,0,1,1.274,1.274,1.274,1.274,0,0,1-1.274,1.274Zm-12.259-12.346a4.02,4.02,0,0,1,4.079-3.95,4.021,4.021,0,0,1,4.08,3.95,4.02,4.02,0,0,1-4.08,3.949A4.02,4.02,0,0,1,2490.714-3527.3Zm2.549,0a1.471,1.471,0,0,0,1.53,1.4v0a1.473,1.473,0,0,0,1.531-1.4,1.472,1.472,0,0,0-1.531-1.4A1.472,1.472,0,0,0,2493.263-3527.3Z" transform="translate(-2341 3667.333)" fill="#004261"/>
      <g id="exclamation-mark" transform="translate(63 59.417)">
        <path id="Path_425" data-name="Path 425" d="M127.233,62.726c-1.248,0-2.192.651-2.192,1.7v9.646c0,1.053.944,1.7,2.192,1.7,1.217,0,2.192-.676,2.192-1.7V64.429C129.424,63.4,128.45,62.726,127.233,62.726Zm0,15.223a2.174,2.174,0,1,0,2.173,2.175A2.177,2.177,0,0,0,127.233,77.949Z" transform="translate(0 0)" fill="#004261"/>
      </g>
    </g>
  </g>
</svg>
