<svg xmlns="http://www.w3.org/2000/svg" width="62.177" height="62.235" viewBox="0 0 62.177 62.235">
  <g id="unconsolidated_transactions" transform="translate(-147.833 -360.85)">
    <g id="transfer" transform="translate(152.429 365.429)">
      <path id="Path_540" data-name="Path 540" d="M58.045,37.94a1.126,1.126,0,0,0-1.017-.642H50.6V6.149a1.126,1.126,0,0,0-1.126-1.126H35.14a1.127,1.127,0,0,0-1.126,1.126V17.363a12.282,12.282,0,0,0-3.739-.886L17.218.416a1.127,1.127,0,0,0-1.748,0L.75,18.522a1.126,1.126,0,0,0,.874,1.836H8.05V51.507a1.127,1.127,0,0,0,1.126,1.126H23.512a1.126,1.126,0,0,0,1.126-1.126V40.293a12.3,12.3,0,0,0,3.738.886L41.434,57.24a1.127,1.127,0,0,0,1.748,0C58.176,38.8,58.231,38.332,58.045,37.94Z" transform="translate(-0.498 0)" fill="#cce5ec"/>
    </g>
    <g id="transfer-2" data-name="transfer" transform="translate(148 361)">
      <path id="Path_540-2" data-name="Path 540" d="M60.369,39.472a1.172,1.172,0,0,0-1.058-.668H52.626V6.4a1.172,1.172,0,0,0-1.172-1.172H36.54A1.172,1.172,0,0,0,35.368,6.4V18.064a12.778,12.778,0,0,0-3.89-.922L17.894.433a1.172,1.172,0,0,0-1.819,0L.761,19.27a1.171,1.171,0,0,0,.909,1.91H8.355V53.588a1.172,1.172,0,0,0,1.172,1.172H24.442a1.172,1.172,0,0,0,1.172-1.172V41.92a12.792,12.792,0,0,0,3.889.922l13.585,16.71a1.172,1.172,0,0,0,1.819,0L60.221,40.715a1.171,1.171,0,0,0,.149-1.243ZM30.491,40.537A10.544,10.544,0,1,1,41.035,29.993,10.556,10.556,0,0,1,30.491,40.537Zm-7.22,11.879H10.7V20.009a1.172,1.172,0,0,0-1.172-1.172H4.133L16.984,3.029,28.547,17.252A12.884,12.884,0,0,0,23.27,40.662ZM44,56.956,32.434,42.734a12.884,12.884,0,0,0,5.277-23.411V7.569H50.283V39.976a1.171,1.171,0,0,0,1.172,1.172h5.394Zm0,0" transform="translate(-0.498 0)" fill="#004261" stroke="#004261" stroke-width="0.3"/>
      <path id="Path_547" data-name="Path 547" d="M108.735,365.953a1.172,1.172,0,0,0-1.172,1.172v4.855a1.172,1.172,0,1,0,2.343,0v-4.855A1.172,1.172,0,0,0,108.735,365.953Zm0,0" transform="translate(-95.02 -323.079)" fill="#004261"/>
      <path id="Path_548" data-name="Path 548" d="M108.735,336.395a1.172,1.172,0,0,0-1.172,1.172v.056a1.172,1.172,0,0,0,2.343,0v-.056A1.172,1.172,0,0,0,108.735,336.395Zm0,0" transform="translate(-95.02 -296.984)" fill="#004261"/>
      <path id="Path_549" data-name="Path 549" d="M386.61,84.605a1.172,1.172,0,0,0-1.172,1.172v4.855a1.172,1.172,0,1,0,2.343,0V85.777A1.172,1.172,0,0,0,386.61,84.605Zm0,0" transform="translate(-340.339 -74.693)" fill="#004261"/>
      <path id="Path_550" data-name="Path 550" d="M386.61,155.129a1.171,1.171,0,0,0-1.172,1.172v.056a1.172,1.172,0,1,0,2.343,0V156.3A1.171,1.171,0,0,0,386.61,155.129Zm0,0" transform="translate(-340.339 -136.954)" fill="#004261"/>
      <path id="Path_551" data-name="Path 551" d="M210.224,221.832l-6.265,6.265-3.284-3.284a1.172,1.172,0,1,0-1.657,1.657l4.112,4.112a1.172,1.172,0,0,0,1.657,0l7.094-7.093a1.172,1.172,0,0,0-1.657-1.657Zm0,0" transform="translate(-175.458 -195.54)" fill="#004261"/>
    </g>
  </g>
</svg>
