<svg xmlns="http://www.w3.org/2000/svg" width="19.375" height="28.009" viewBox="0 0 19.375 28.009">
  <path id="fee_configuration" d="M37.744,3.506V2.465a.413.413,0,0,1,.412-.412h.662A1.774,1.774,0,0,0,40.434.977a1.632,1.632,0,0,1,2.989,0,1.774,1.774,0,0,0,1.615,1.075H45.7a.413.413,0,0,1,.412.412V3.506a.413.413,0,0,1-.412.412H38.156A.413.413,0,0,1,37.744,3.506ZM36.3,22.951h1.931V21.021H36.3Zm0-11.61h1.931V9.411H36.3Zm15.317-5.1v19.09a2.685,2.685,0,0,1-2.682,2.682H34.923a2.685,2.685,0,0,1-2.682-2.682V6.238a2.685,2.685,0,0,1,2.682-2.682h1.485a1.752,1.752,0,0,0,1.749,1.7H45.7a1.752,1.752,0,0,0,1.749-1.7h1.485A2.685,2.685,0,0,1,51.616,6.238ZM40.627,10.364a.67.67,0,0,0,.67.67H47.34a.67.67,0,0,0,0-1.339H41.3A.67.67,0,0,0,40.627,10.364Zm0,5.872a.67.67,0,0,0,.67.67h5.371a.67.67,0,1,0,0-1.339H41.3A.669.669,0,0,0,40.627,16.236Zm-1.059,4.115a.67.67,0,0,0-.67-.67h-3.27a.67.67,0,0,0-.67.67v3.27a.67.67,0,0,0,.67.67H38.9a.67.67,0,0,0,.67-.67Zm0-5.805a.67.67,0,0,0-.67-.67h-3.27a.67.67,0,0,0-.67.67v3.27a.67.67,0,0,0,.67.67H38.9a.67.67,0,0,0,.67-.67Zm0-5.8a.67.67,0,0,0-.67-.67h-3.27a.67.67,0,0,0-.67.67v3.27a.67.67,0,0,0,.67.67H38.9a.67.67,0,0,0,.67-.67Zm8.777,13.367a.67.67,0,0,0-.67-.67H41.3a.67.67,0,0,0,0,1.339h6.379A.669.669,0,0,0,48.345,22.108ZM36.3,17.146h1.931V15.216H36.3Z" transform="translate(-32.241)" fill="#fff"/>
</svg>
