<svg xmlns="http://www.w3.org/2000/svg" width="28.058" height="29.5" viewBox="0 0 28.058 29.5">
  <g id="manage_users" transform="translate(-23.992 -135.999)">
    <g id="Group_79" data-name="Group 79" transform="translate(24.813 135.999)">
      <g id="Group_3" data-name="Group 3" transform="translate(0 0)">
        <g id="management">
          <path id="Subtraction_10" data-name="Subtraction 10" d="M20.021,15.117H2.112A2.114,2.114,0,0,1,0,13.006V5.223A5.037,5.037,0,0,1,3.455.442C3.469.44,5.236.144,6.119,0a7.643,7.643,0,0,0,4.949,1.822A7.642,7.642,0,0,0,16.015,0l2.666.441.01,0A4.988,4.988,0,0,1,22.133,5.2v7.81A2.114,2.114,0,0,1,20.021,15.117Z" transform="translate(5.104 11.504)" fill="#fff"/>
          <path id="Path_217" data-name="Path 217" d="M21.63,139.467l.8-.463a.683.683,0,0,0,.25-.933l-1.519-2.63a.682.682,0,0,0-.933-.25l-.8.463a.682.682,0,0,1-1.025-.592v-.925a.683.683,0,0,0-.683-.683H14.683a.683.683,0,0,0-.683.683v.925a.682.682,0,0,1-1.025.592l-.8-.463a.682.682,0,0,0-.933.25l-1.519,2.63a.683.683,0,0,0,.25.933l.8.463a.683.683,0,0,1,0,1.183l-.8.463a.683.683,0,0,0-.25.933l1.519,2.63a.683.683,0,0,0,.933.25l.8-.463a.682.682,0,0,1,1.025.592v.925a.683.683,0,0,0,.683.683H17.72a.683.683,0,0,0,.683-.683v-.925a.682.682,0,0,1,1.025-.592l.8.463a.683.683,0,0,0,.933-.25l1.519-2.63a.683.683,0,0,0-.25-.933l-.8-.463A.683.683,0,0,1,21.63,139.467ZM16.2,142.085a2.027,2.027,0,1,1,2.027-2.027A2.027,2.027,0,0,1,16.2,142.085Z" transform="translate(-9.63 -117.914)" fill="#fff" stroke="#007d9e" stroke-width="1.5"/>
          <path id="Path_219" data-name="Path 219" d="M183.12,11.361a5.681,5.681,0,1,0-5.68-5.681A5.687,5.687,0,0,0,183.12,11.361Z" transform="translate(-166.948)" fill="#fff"/>
        </g>
      </g>
    </g>
  </g>
</svg>
