<svg xmlns="https://www.w3.org/2000/svg" width="22" height="19.039" viewBox="0 0 22 19.039">
  <g id="menu" transform="translate(0 -6)">
    <path id="Path_1" data-name="Path 1" d="M19.871,6H2.129C.958,6,0,6.675,0,7.5S.958,9,2.129,9H19.871C21.042,9,22,8.325,22,7.5S21.042,6,19.871,6Z" fill="#fff"/>
    <path id="Path_2" data-name="Path 2" d="M14.452,50H1.548a1.5,1.5,0,1,0,0,3h12.9a1.5,1.5,0,1,0,0-3Z" transform="translate(0 -35.981)" fill="#fff"/>
    <path id="Path_3" data-name="Path 3" d="M19.871,94H2.129C.958,94,0,94.675,0,95.5S.958,97,2.129,97H19.871C21.042,97,22,96.325,22,95.5S21.042,94,19.871,94Z" transform="translate(0 -71.961)" fill="#fff"/>
  </g>
</svg>
