<svg xmlns="https://www.w3.org/2000/svg" xmlns:xlink="https://www.w3.org/1999/xlink" width="12.015" height="13.959" viewBox="0 0 12.015 13.959">
  <defs>
    <clipPath id="clip-path">
      <rect id="Rectangle_501" data-name="Rectangle 501" width="12.015" height="13.959" fill="#ababab"/>
    </clipPath>
  </defs>
  <g id="active_parent" transform="translate(0 -0.3)">
    <g id="Group_2577" data-name="Group 2577" transform="translate(0 0.3)">
      <g id="Group_2575" data-name="Group 2575" transform="translate(0 0)" clip-path="url(#clip-path)">
        <path id="Path_1996" data-name="Path 1996" d="M58.721,8.067a3.781,3.781,0,0,0,3.226-3.934C61.946,1.96,61.652.2,58.721.2S55.5,1.965,55.5,4.134a3.777,3.777,0,0,0,3.221,3.934ZM55.979,3.48a1.776,1.776,0,0,1,1.77-.922s.628,1.526,3.709.838c.015.244.015.494.015.738a3.5,3.5,0,0,1-1.1,2.662,2.817,2.817,0,0,1-1.655.8,2.817,2.817,0,0,1-1.655-.8,3.506,3.506,0,0,1-1.1-2.662c.01-.219.01-.439.02-.653Zm0,0" transform="translate(-52.733 -0.205)" fill="#ababab"/>
      </g>
      <g id="Group_2576" data-name="Group 2576" transform="translate(0 0)" clip-path="url(#clip-path)">
        <path id="Path_1997" data-name="Path 1997" d="M12.013,155.034c-.165-1.022-.5-2.343-1.182-2.812-.464-.319-2.084-1.187-2.777-1.555l-.01,0a.228.228,0,0,0-.244.02,2.886,2.886,0,0,1-1.182.568.232.232,0,0,0-.165.14l-.429,1.127L5.6,151.389a.223.223,0,0,0-.165-.14,2.982,2.982,0,0,1-1.182-.568.219.219,0,0,0-.244-.02c-.683.364-2.323,1.246-2.787,1.56C.442,152.75.1,154.66.043,155.034a.2.2,0,0,0,.01.11c.03.08.748,1.934,5.978,1.934s5.948-1.86,5.978-1.934a.268.268,0,0,0,0-.11Zm-2.408-.623-1.022.319-1.022-.319v-.548H9.61v.548Zm0,0" transform="translate(-0.038 -143.138)" fill="#ababab"/>
      </g>
    </g>
  </g>
</svg>
