<svg xmlns="https://www.w3.org/2000/svg" width="20" height="20" viewBox="0 0 20 20">
  <g id="add_account" transform="translate(-529.81 -243.935)">
    <path id="add_account-2" data-name="add_account" d="M-6120.69-449.064a9.51,9.51,0,0,1,9.5-9.5,9.511,9.511,0,0,1,9.5,9.5,9.511,9.511,0,0,1-9.5,9.5A9.51,9.51,0,0,1-6120.69-449.064Zm.75,0a8.759,8.759,0,0,0,8.751,8.75,8.76,8.76,0,0,0,8.75-8.75,8.759,8.759,0,0,0-8.75-8.75A8.758,8.758,0,0,0-6119.94-449.064Zm8.25,5v-4.5h-4.5a.5.5,0,0,1-.5-.5.5.5,0,0,1,.5-.5h4.5v-4.5a.5.5,0,0,1,.5-.5.5.5,0,0,1,.5.5v4.5h4.5a.5.5,0,0,1,.5.5.5.5,0,0,1-.5.5h-4.5v4.5a.5.5,0,0,1-.5.5A.5.5,0,0,1-6111.69-444.065Z" transform="translate(6651 703)" fill="#131313" stroke="rgba(0,0,0,0)" stroke-width="1"/>
  </g>
</svg>
