<svg xmlns="http://www.w3.org/2000/svg" xmlns:xlink="http://www.w3.org/1999/xlink" width="113.45" height="79.902" viewBox="0 0 113.45 79.902">
  <defs>
    <filter id="Path_1470" x="39.987" y="19.977" width="8.754" height="6.95" filterUnits="userSpaceOnUse">
      <feOffset dy="1" input="SourceAlpha"/>
      <feGaussianBlur result="blur"/>
      <feFlood flood-color="#f3f4f6"/>
      <feComposite operator="in" in2="blur"/>
      <feComposite in="SourceGraphic"/>
    </filter>
    <filter id="Path_1480" x="39.987" y="45.472" width="8.754" height="6.95" filterUnits="userSpaceOnUse">
      <feOffset dy="1" input="SourceAlpha"/>
      <feGaussianBlur result="blur-2"/>
      <feFlood flood-color="#f3f4f6"/>
      <feComposite operator="in" in2="blur-2"/>
      <feComposite in="SourceGraphic"/>
    </filter>
    <filter id="Path_1485" x="39.987" y="58.219" width="8.754" height="6.95" filterUnits="userSpaceOnUse">
      <feOffset dy="1" input="SourceAlpha"/>
      <feGaussianBlur result="blur-3"/>
      <feFlood flood-color="#f3f4f6"/>
      <feComposite operator="in" in2="blur-3"/>
      <feComposite in="SourceGraphic"/>
    </filter>
  </defs>
  <g id="Assignments" transform="translate(0.175)">
    <g id="Group_1916" data-name="Group 1916" transform="translate(86.417 53.697)">
      <g id="Group_1914" data-name="Group 1914" transform="translate(0 0)">
        <path id="Path_1448" data-name="Path 1448" d="M314.568,318.879c-.147,2.906-3.309,7.987-6.215,7.841s-4.456-5.465-4.31-8.372,3.242-17.45,6.148-17.3S314.714,315.973,314.568,318.879Z" transform="translate(-304.034 -301.044)" fill="#6aa5fe"/>
        <line id="Line_78" data-name="Line 78" x1="1.465" y2="23.553" transform="translate(4.552 1.891)" fill="none" stroke="#1a55b5" stroke-linecap="round" stroke-linejoin="round" stroke-width="0.867"/>
        <path id="Path_1449" data-name="Path 1449" d="M314.1,338.819a20.2,20.2,0,0,0-1.471,4.569,3.828,3.828,0,0,0,.113,2.414,2.888,2.888,0,0,0,2.167,1.416,6.02,6.02,0,0,0,5.587-2.754,17.144,17.144,0,0,0,2.318-6.1,24.271,24.271,0,0,1,1.532-4.943c.32-.67,2.2-3.257,1.308-3.928-1.213-.953-4.725.084-6.975,2.54A26.227,26.227,0,0,0,314.1,338.819Z" transform="translate(-310.218 -321.589)" fill="#ffc957"/>
        <path id="Path_1450" data-name="Path 1450" d="M321.486,352.924s2.608-10.154,8.9-15.978" transform="translate(-316.794 -327.295)" fill="none" stroke="rgba(68,68,114,0.2)" stroke-linecap="round" stroke-linejoin="round" stroke-width="0.867"/>
      </g>
      <g id="Group_1915" data-name="Group 1915" transform="translate(3.934 13.461)">
        <path id="Path_1451" data-name="Path 1451" d="M360.465,352.491a2.553,2.553,0,0,1-1.022.887c-.468.264-.967.5-1.449.72a16.692,16.692,0,0,0-1.85.957,6.243,6.243,0,0,0-1.135.9,14.358,14.358,0,0,1,1.8-3.059,3.77,3.77,0,0,1,2.807-1.783h.066a1.059,1.059,0,0,1,.675.215A.961.961,0,0,1,360.465,352.491Z" transform="translate(-351.961 -351.116)" fill="#1a55b5"/>
        <path id="Path_1452" data-name="Path 1452" d="M361.775,375.669a2.557,2.557,0,0,1-1.3.364c-.536.038-1.086.034-1.618.031a16.6,16.6,0,0,0-2.082.073,6.225,6.225,0,0,0-1.412.331,14.376,14.376,0,0,1,2.935-1.995,3.77,3.77,0,0,1,3.3-.411l.059.029a1.06,1.06,0,0,1,.518.483A.962.962,0,0,1,361.775,375.669Z" transform="translate(-352.217 -367.729)" fill="#1a55b5"/>
        <path id="Path_1453" data-name="Path 1453" d="M360.277,385.574a1.749,1.749,0,0,1-.819-.43c-.284-.232-.556-.492-.819-.743a11.378,11.378,0,0,0-1.069-.939,4.272,4.272,0,0,0-.858-.5,9.805,9.805,0,0,1,2.394.383,2.576,2.576,0,0,1,1.834,1.342c.005.014.011.028.016.042a.724.724,0,0,1,.031.483A.657.657,0,0,1,360.277,385.574Z" transform="translate(-353.206 -374.403)" fill="#1a55b5"/>
        <path id="Path_1454" data-name="Path 1454" d="M343.67,365.349s.03-6.213,7.617-11.488" transform="translate(-343.67 -353.123)" fill="none" stroke="#2a294f" stroke-linecap="round" stroke-linejoin="round" stroke-width="0.78"/>
        <path id="Path_1455" data-name="Path 1455" d="M343.67,383.019a9.558,9.558,0,0,1,8.645-4.991" transform="translate(-343.67 -370.793)" fill="none" stroke="#2a294f" stroke-linecap="round" stroke-linejoin="round" stroke-width="0.78"/>
        <path id="Path_1456" data-name="Path 1456" d="M356.455,383.192s1.223-.09,3.777,1.837" transform="translate(-353.018 -374.569)" fill="none" stroke="#2a294f" stroke-linecap="round" stroke-linejoin="round" stroke-width="0.78"/>
      </g>
    </g>
    <g id="Group_1918" data-name="Group 1918" transform="translate(5.121 51.353)">
      <path id="Path_1458" data-name="Path 1458" d="M61.1,311.261c-1.1-1.264-2.483-2.354-2.92-3.949a9.821,9.821,0,0,1,.057-3.6,4.586,4.586,0,0,0-.7-3.456,4.574,4.574,0,0,0-2.626-1.3,9.706,9.706,0,0,1-2.853-.837c-1.4-.8-1.123-2.172-1.876-3.372-.845-1.346-2.811-3.064-4.5-2.169-1.784.947-1.5,3.822-.315,5.091.787.842,1.8,1.65,1.911,2.8.174,1.727-1.8,3.282-1.26,4.93.4,1.217,1.936,1.636,2.694,2.67a3.93,3.93,0,0,1,.157,3.646,27.783,27.783,0,0,0-1.411,3.526c-.562,2.534,1.426,4.284,3.691,4.849a31.57,31.57,0,0,0,6.571.274,8.587,8.587,0,0,0,4.259-3.505,4.458,4.458,0,0,0,.242-3.87A6.455,6.455,0,0,0,61.1,311.261Z" transform="translate(-39.634 -292.328)" fill="#ffc957"/>
      <path id="Path_1459" data-name="Path 1459" d="M56.568,303.413s7.665,11.839,8.5,24.985" transform="translate(-48.519 -300.433)" fill="none" stroke="rgba(68,68,114,0.2)" stroke-linecap="round" stroke-linejoin="round" stroke-width="1"/>
      <g id="Group_1917" data-name="Group 1917" transform="translate(0 18.785)">
        <path id="Path_1460" data-name="Path 1460" d="M30.658,362.37a.8.8,0,0,1,.51-.162h.049a2.85,2.85,0,0,1,2.122,1.348,10.858,10.858,0,0,1,1.36,2.313,4.724,4.724,0,0,0-.858-.684,12.616,12.616,0,0,0-1.4-.723c-.365-.17-.742-.345-1.1-.544a1.931,1.931,0,0,1-.773-.671A.727.727,0,0,1,30.658,362.37Z" transform="translate(-29.435 -362.207)" fill="#6aa5fe"/>
        <path id="Path_1461" data-name="Path 1461" d="M26.669,379.944a.8.8,0,0,1,.392-.365l.044-.022a2.85,2.85,0,0,1,2.495.311,10.878,10.878,0,0,1,2.219,1.509,4.722,4.722,0,0,0-1.068-.251,12.565,12.565,0,0,0-1.574-.055c-.4,0-.818.006-1.223-.023a1.933,1.933,0,0,1-.985-.276A.728.728,0,0,1,26.669,379.944Z" transform="translate(-26.625 -374.768)" fill="#6aa5fe"/>
        <path id="Path_1462" data-name="Path 1462" d="M32.839,387.99a.548.548,0,0,1,.024-.365c0-.011.008-.021.012-.032a1.946,1.946,0,0,1,1.386-1.015,7.415,7.415,0,0,1,1.811-.29,3.21,3.21,0,0,0-.649.376,8.651,8.651,0,0,0-.809.71c-.2.19-.4.386-.619.562a1.32,1.32,0,0,1-.619.325A.5.5,0,0,1,32.839,387.99Z" transform="translate(-31.153 -379.815)" fill="#6aa5fe"/>
        <path id="Path_1463" data-name="Path 1463" d="M39.119,372.969s-.023-4.7-5.759-8.686" transform="translate(-31.55 -363.725)" fill="none" stroke="#2a294f" stroke-linecap="round" stroke-linejoin="round" stroke-width="0.78"/>
        <path id="Path_1464" data-name="Path 1464" d="M37,386.33a7.228,7.228,0,0,0-6.537-3.774" transform="translate(-29.435 -377.086)" fill="none" stroke="#2a294f" stroke-linecap="round" stroke-linejoin="round" stroke-width="0.78"/>
        <path id="Path_1465" data-name="Path 1465" d="M37.35,386.461s-.925-.068-2.856,1.389" transform="translate(-32.379 -379.94)" fill="none" stroke="#2a294f" stroke-linecap="round" stroke-linejoin="round" stroke-width="0.78"/>
      </g>
    </g>
    <g id="Group_1920" data-name="Group 1920" transform="translate(29.816)">
      <rect id="Rectangle_1554" data-name="Rectangle 1554" width="55.58" height="73.562" rx="9.449" transform="translate(0 5.821)" fill="#6aa5fe"/>
      <path id="Path_1466" data-name="Path 1466" d="M86.131,189.31v53.1a2.536,2.536,0,0,0,2.536,2.536h50.507a2.536,2.536,0,0,0,2.536-2.536V231.934Z" transform="translate(-86.131 -165.568)" fill="#3a82e5"/>
      <rect id="Rectangle_1555" data-name="Rectangle 1555" width="49.122" height="66.774" rx="3.862" transform="translate(3.229 9.215)" fill="#f3f4f6"/>
      <g id="Group_1919" data-name="Group 1919" transform="translate(17.367)">
        <path id="Path_1467" data-name="Path 1467" d="M165.466,105.293c0-.069.01-.138.01-.208a4.224,4.224,0,1,0-8.448,0c0,.07.007.139.01.208h-6.21v6.439h20.846v-6.439Z" transform="translate(-150.83 -100.861)" fill="#0050be"/>
        <path id="Path_1468" data-name="Path 1468" d="M150.83,117.372v6.439h20.846Z" transform="translate(-150.83 -112.94)" fill="#0268f5"/>
        <circle id="Ellipse_340" data-name="Ellipse 340" cx="2.372" cy="2.372" r="2.372" transform="translate(7.321 2.947) rotate(-22.628)" fill="#527ee9"/>
        <path id="Path_1469" data-name="Path 1469" d="M181.519,110.349a2.372,2.372,0,1,0,3.354,3.354Z" transform="translate(-172.773 -107.802)" fill="#6aa5fe"/>
        <rect id="Rectangle_1556" data-name="Rectangle 1556" width="20.846" height="0.444" transform="translate(0 10.871)" fill="#cde1f9"/>
      </g>
    </g>
    <g id="Group_1929" data-name="Group 1929" transform="translate(38.735 19.7)">
      <g id="Group_1922" data-name="Group 1922" transform="translate(0)">
        <rect id="Rectangle_1557" data-name="Rectangle 1557" width="7.918" height="7.918" rx="1" fill="none" stroke="#1a55b5" stroke-miterlimit="10" stroke-width="1"/>
        <g transform="matrix(1, 0, 0, 1, -38.91, -19.7)" filter="url(#Path_1470)">
          <path id="Path_1470-2" data-name="Path 1470" d="M125.926,181.085l2.421,1.9,4.923-4.743" transform="translate(-85.24 -157.56)" fill="none" stroke="#f63a3a" stroke-linecap="round" stroke-linejoin="round" stroke-miterlimit="10" stroke-width="1"/>
        </g>
        <g id="Group_1921" data-name="Group 1921" transform="translate(11.414 1.638)">
          <path id="Path_1471" data-name="Path 1471" d="M187.873,181.284h-25.8a.3.3,0,0,1-.3-.3h0a.3.3,0,0,1,.3-.3h25.8a.3.3,0,0,1,.3.3h0A.3.3,0,0,1,187.873,181.284Z" transform="translate(-161.767 -180.675)" fill="#6aa5fe"/>
          <path id="Path_1472" data-name="Path 1472" d="M187.873,186.284h-25.8a.3.3,0,0,1-.3-.3h0a.3.3,0,0,1,.3-.3h25.8a.3.3,0,0,1,.3.3h0A.3.3,0,0,1,187.873,186.284Z" transform="translate(-161.767 -184.331)" fill="#6aa5fe"/>
          <path id="Path_1473" data-name="Path 1473" d="M187.873,191.284h-25.8a.3.3,0,0,1-.3-.3h0a.3.3,0,0,1,.3-.3h25.8a.3.3,0,0,1,.3.3h0A.3.3,0,0,1,187.873,191.284Z" transform="translate(-161.767 -187.987)" fill="#6aa5fe"/>
          <path id="Path_1474" data-name="Path 1474" d="M187.873,196.285h-25.8a.3.3,0,0,1-.3-.3h0a.3.3,0,0,1,.3-.3h25.8a.3.3,0,0,1,.3.3h0A.3.3,0,0,1,187.873,196.285Z" transform="translate(-161.767 -191.643)" fill="#6aa5fe"/>
        </g>
      </g>
      <g id="Group_1924" data-name="Group 1924" transform="translate(0 12.747)">
        <rect id="Rectangle_1558" data-name="Rectangle 1558" width="7.918" height="7.918" rx="1" fill="none" stroke="#1a55b5" stroke-miterlimit="10" stroke-width="1"/>
        <g id="Group_1923" data-name="Group 1923" transform="translate(11.414 1.638)">
          <path id="Path_1476" data-name="Path 1476" d="M187.873,228.7h-25.8a.3.3,0,0,1-.3-.3h0a.3.3,0,0,1,.3-.3h25.8a.3.3,0,0,1,.3.3h0A.3.3,0,0,1,187.873,228.7Z" transform="translate(-161.767 -228.093)" fill="#6aa5fe"/>
          <path id="Path_1477" data-name="Path 1477" d="M187.873,233.7h-25.8a.3.3,0,0,1-.3-.3h0a.3.3,0,0,1,.3-.3h25.8a.3.3,0,0,1,.3.3h0A.3.3,0,0,1,187.873,233.7Z" transform="translate(-161.767 -231.749)" fill="#6aa5fe"/>
          <path id="Path_1478" data-name="Path 1478" d="M187.873,238.7h-25.8a.3.3,0,0,1-.3-.3h0a.3.3,0,0,1,.3-.3h25.8a.3.3,0,0,1,.3.3h0A.3.3,0,0,1,187.873,238.7Z" transform="translate(-161.767 -235.405)" fill="#6aa5fe"/>
          <path id="Path_1479" data-name="Path 1479" d="M187.873,243.7h-25.8a.3.3,0,0,1-.3-.3h0a.3.3,0,0,1,.3-.3h25.8a.3.3,0,0,1,.3.3h0A.3.3,0,0,1,187.873,243.7Z" transform="translate(-161.767 -239.061)" fill="#6aa5fe"/>
        </g>
      </g>
      <g id="Group_1926" data-name="Group 1926" transform="translate(0 25.495)">
        <rect id="Rectangle_1559" data-name="Rectangle 1559" width="7.918" height="7.918" rx="1" fill="none" stroke="#1a55b5" stroke-miterlimit="10" stroke-width="1"/>
        <g transform="matrix(1, 0, 0, 1, -38.91, -45.19)" filter="url(#Path_1480)">
          <path id="Path_1480-2" data-name="Path 1480" d="M125.926,275.922l2.421,1.9,4.923-4.743" transform="translate(-85.24 -226.9)" fill="none" stroke="#f63a3a" stroke-linecap="round" stroke-linejoin="round" stroke-miterlimit="10" stroke-width="1"/>
        </g>
        <g id="Group_1925" data-name="Group 1925" transform="translate(11.414 1.638)">
          <path id="Path_1481" data-name="Path 1481" d="M187.873,276.121h-25.8a.3.3,0,0,1-.3-.3h0a.3.3,0,0,1,.3-.3h25.8a.3.3,0,0,1,.3.3h0A.3.3,0,0,1,187.873,276.121Z" transform="translate(-161.767 -275.511)" fill="#6aa5fe"/>
          <path id="Path_1482" data-name="Path 1482" d="M187.873,281.121h-25.8a.3.3,0,0,1-.3-.3h0a.3.3,0,0,1,.3-.3h25.8a.3.3,0,0,1,.3.3h0A.3.3,0,0,1,187.873,281.121Z" transform="translate(-161.767 -279.168)" fill="#6aa5fe"/>
          <path id="Path_1483" data-name="Path 1483" d="M187.873,286.121h-25.8a.3.3,0,0,1-.3-.3h0a.3.3,0,0,1,.3-.3h25.8a.3.3,0,0,1,.3.3h0A.3.3,0,0,1,187.873,286.121Z" transform="translate(-161.767 -282.823)" fill="#6aa5fe"/>
          <path id="Path_1484" data-name="Path 1484" d="M187.873,291.121h-25.8a.3.3,0,0,1-.3-.3h0a.3.3,0,0,1,.3-.3h25.8a.3.3,0,0,1,.3.3h0A.3.3,0,0,1,187.873,291.121Z" transform="translate(-161.767 -286.479)" fill="#6aa5fe"/>
        </g>
      </g>
      <g id="Group_1928" data-name="Group 1928" transform="translate(0 38.242)">
        <rect id="Rectangle_1560" data-name="Rectangle 1560" width="7.918" height="7.918" rx="1" fill="none" stroke="#1a55b5" stroke-miterlimit="10" stroke-width="1"/>
        <g transform="matrix(1, 0, 0, 1, -38.91, -57.94)" filter="url(#Path_1485)">
          <path id="Path_1485-2" data-name="Path 1485" d="M125.926,323.34l2.421,1.9,4.923-4.743" transform="translate(-85.24 -261.57)" fill="none" stroke="#f63a3a" stroke-linecap="round" stroke-linejoin="round" stroke-miterlimit="10" stroke-width="1"/>
        </g>
        <g id="Group_1927" data-name="Group 1927" transform="translate(11.414 1.638)">
          <path id="Path_1486" data-name="Path 1486" d="M187.873,323.539h-25.8a.3.3,0,0,1-.3-.3h0a.3.3,0,0,1,.3-.3h25.8a.3.3,0,0,1,.3.3h0A.3.3,0,0,1,187.873,323.539Z" transform="translate(-161.767 -322.93)" fill="#6aa5fe"/>
          <path id="Path_1487" data-name="Path 1487" d="M187.873,328.54h-25.8a.3.3,0,0,1-.3-.3h0a.3.3,0,0,1,.3-.3h25.8a.3.3,0,0,1,.3.3h0A.3.3,0,0,1,187.873,328.54Z" transform="translate(-161.767 -326.586)" fill="#6aa5fe"/>
          <path id="Path_1488" data-name="Path 1488" d="M187.873,333.54h-25.8a.3.3,0,0,1-.3-.3h0a.3.3,0,0,1,.3-.3h25.8a.3.3,0,0,1,.3.3h0A.3.3,0,0,1,187.873,333.54Z" transform="translate(-161.767 -330.242)" fill="#6aa5fe"/>
          <path id="Path_1489" data-name="Path 1489" d="M187.873,338.54h-25.8a.3.3,0,0,1-.3-.3h0a.3.3,0,0,1,.3-.3h25.8a.3.3,0,0,1,.3.3h0A.3.3,0,0,1,187.873,338.54Z" transform="translate(-161.767 -333.898)" fill="#6aa5fe"/>
        </g>
      </g>
    </g>
    <line id="Line_79" data-name="Line 79" x2="112.67" transform="translate(0.215 79.383)" fill="none" stroke="#0050be" stroke-linecap="round" stroke-linejoin="round" stroke-width="0.78"/>
    <g id="Group_1930" data-name="Group 1930" transform="translate(68.013 42.807)">
      <path id="Path_1490" data-name="Path 1490" d="M339.307,253.875,337,256.251l-4.319-4.192,2.306-2.376a3.01,3.01,0,0,1,4.256-.063h0A3.01,3.01,0,0,1,339.307,253.875Z" transform="translate(-305.39 -248.77)" fill="#f52424"/>
      <path id="Path_1491" data-name="Path 1491" d="M347.395,254.088l-2.306,2.376.984.955,2.306-2.376a3.008,3.008,0,0,0-.611-4.676A3.01,3.01,0,0,1,347.395,254.088Z" transform="translate(-314.461 -249.938)" fill="#777470" opacity="0.2"/>
      <path id="Path_1492" data-name="Path 1492" d="M269.187,266.274l-24.549,25.14-4.319-4.192,24.549-25.14Z" transform="translate(-237.856 -258.503)" fill="#ffc957"/>
      <path id="Path_1493" data-name="Path 1493" d="M231.159,362.457l6.782-2.666-4.319-4.192Z" transform="translate(-231.159 -326.88)" fill="#fff4dd"/>
      <path id="Path_1494" data-name="Path 1494" d="M231.159,371.069l6.782-2.666-1.056-1.025Z" transform="translate(-231.159 -335.493)" fill="#777470" opacity="0.2"/>
      <path id="Path_1495" data-name="Path 1495" d="M231.892,373.512l-.733,2.043,2.02-.794Z" transform="translate(-231.159 -339.978)" fill="#2a294f"/>
      <rect id="Rectangle_1561" data-name="Rectangle 1561" width="2.907" height="6.019" transform="translate(27.011 3.579) rotate(-45.856)" fill="#d3eaf5"/>
      <rect id="Rectangle_1562" data-name="Rectangle 1562" width="0.994" height="6.534" transform="matrix(0.696, -0.718, 0.718, 0.696, 28.159, 2.026)" fill="#d3eaf5"/>
      <path id="Path_1496" data-name="Path 1496" d="M279.393,269.779l-25.881,26.513-1.056-1.025,25.882-26.513Z" transform="translate(-246.73 -263.382)" fill="#777470" opacity="0.2"/>
      <path id="Path_1497" data-name="Path 1497" d="M267.257,258l-25.881,26.513-1.056-1.025L266.2,256.974Z" transform="translate(-237.856 -254.769)" fill="#777470" opacity="0.05"/>
      <rect id="Rectangle_1563" data-name="Rectangle 1563" width="0.994" height="1.997" transform="matrix(0.696, -0.718, 0.718, 0.696, 31.415, 5.186)" fill="#777470" opacity="0.15"/>
    </g>
  </g>
</svg>
