<svg xmlns="https://www.w3.org/2000/svg" width="43.063" height="67.625" viewBox="0 0 43.063 67.625">
  <g id="best_five_subjects" transform="translate(-366 -353)">
    <g id="Group_827" data-name="Group 827" transform="translate(297.156 347)">
      <path id="Path_552" data-name="Path 552" d="M107.163,16.948H98.654V13.763a1.272,1.272,0,0,0-1.27-1.27H95.239V10.863a4.863,4.863,0,0,0-9.727,0v1.629H83.368a1.272,1.272,0,0,0-1.271,1.27v3.186h-8.51a4.749,4.749,0,0,0-4.744,4.744V68.881a4.749,4.749,0,0,0,4.744,4.744h33.575a4.749,4.749,0,0,0,4.744-4.744V21.692A4.749,4.749,0,0,0,107.163,16.948ZM90.376,8.54A2.326,2.326,0,0,1,92.7,10.863v1.629H88.053V10.863A2.326,2.326,0,0,1,90.376,8.54Zm-5.738,6.493H96.114V21.4H84.638Zm24.729,53.849a2.206,2.206,0,0,1-2.2,2.2H73.588a2.206,2.206,0,0,1-2.2-2.2V21.692a2.206,2.206,0,0,1,2.2-2.2H82.1v3.185a1.272,1.272,0,0,0,1.271,1.27H97.384a1.272,1.272,0,0,0,1.27-1.27V19.488h8.509a2.206,2.206,0,0,1,2.2,2.2Z" fill="#004261"/>
      <ellipse id="Ellipse_22" data-name="Ellipse 22" cx="2.706" cy="2.706" rx="2.706" ry="2.706" transform="translate(77.175 56)" fill="#fb9117"/>
      <ellipse id="Ellipse_23" data-name="Ellipse 23" cx="2.706" cy="2.706" rx="2.706" ry="2.706" transform="translate(77.175 45)" fill="#fb9117"/>
      <ellipse id="Ellipse_461" data-name="Ellipse 461" cx="2.706" cy="2.706" rx="2.706" ry="2.706" transform="translate(77.175 34)" fill="#fb9117"/>
      <rect id="Rectangle_2033" data-name="Rectangle 2033" width="18" height="2.5" rx="1.25" transform="translate(85.469 35)" fill="#00baf2"/>
      <rect id="Rectangle_2034" data-name="Rectangle 2034" width="18" height="2.5" rx="1.25" transform="translate(85.469 46)" fill="#00baf2"/>
      <rect id="Rectangle_2035" data-name="Rectangle 2035" width="18" height="2.5" rx="1.25" transform="translate(85.469 57)" fill="#00baf2"/>
    </g>
  </g>
</svg>
