<svg id="birthday" xmlns="https://www.w3.org/2000/svg" width="13.1" height="13.1" viewBox="0 0 13.1 13.1">
  <path id="Path_1995" data-name="Path 1995" d="M5.937,4.171H2.557A2.6,2.6,0,0,0,.642,5.1,2.721,2.721,0,0,0,0,6.708v.342A2.391,2.391,0,0,0,.388,8.234a2.624,2.624,0,0,0,.543.633.922.922,0,0,0,.245.163V13.1H11.921V9.031a1.956,1.956,0,0,0,.444-.35,3.006,3.006,0,0,0,.6-.989,2.66,2.66,0,0,0,.137-.7V6.684a2.671,2.671,0,0,0-.487-1.389,2.465,2.465,0,0,0-.639-.639,2.416,2.416,0,0,0-.4-.239,2.55,2.55,0,0,0-1.03-.248H7.163v-.9H5.934v.9ZM5.654,1.74a.89.89,0,0,0,1.506.689.064.064,0,0,1,.015-.012A.064.064,0,0,0,7.186,2.4l.161-.222c.28-.479-.093-1-.289-1.334C6.994.733,6.6.111,6.573,0L6.3.414A3.947,3.947,0,0,0,5.654,1.74ZM11.2,5.368a.71.71,0,0,1,.709.709h0c0,.126.181,2.21-1.6,2.233-1.728.02-1.985-2.627-1.985-1.173A1.769,1.769,0,0,1,6.553,8.905H6.547A1.767,1.767,0,0,1,4.781,7.137c0-1.457-.26,1.194-1.985,1.173-1.783-.02-1.6-2.1-1.6-2.233h0A.71.71,0,0,1,1.9,5.368Z" fill="#ababab" fill-rule="evenodd"/>
</svg>
