<svg xmlns="http://www.w3.org/2000/svg" xmlns:xlink="http://www.w3.org/1999/xlink" width="112.945" height="77.694" viewBox="0 0 112.945 77.694">
  <defs>
    <linearGradient id="linear-gradient" x1="-0.677" y1="0.419" x2="-0.636" y2="2.345" gradientUnits="objectBoundingBox">
      <stop offset="0" stop-color="#6f87fc"/>
      <stop offset="1" stop-color="#824ad3"/>
    </linearGradient>
    <linearGradient id="linear-gradient-2" x1="-4.153" y1="0.424" x2="-0.534" y2="0.424" gradientUnits="objectBoundingBox">
      <stop offset="0" stop-color="#2b6565"/>
      <stop offset="1" stop-color="#2bba90"/>
    </linearGradient>
    <linearGradient id="linear-gradient-3" x1="0.5" y1="0.714" x2="0.5" y2="0.111" gradientUnits="objectBoundingBox">
      <stop offset="0" stop-color="#ffb14c"/>
      <stop offset="1" stop-color="#ffd64c"/>
    </linearGradient>
    <clipPath id="clip-path">
      <path id="Rectangle_1567" data-name="Rectangle 1567" d="M2.918,0h0A2.917,2.917,0,0,1,5.835,2.917v31.2a2.918,2.918,0,0,1-2.918,2.918h0A2.918,2.918,0,0,1,0,34.119V2.918A2.918,2.918,0,0,1,2.918,0Z" transform="translate(5.835 37.036) rotate(180)" fill="none"/>
    </clipPath>
    <linearGradient id="linear-gradient-4" x1="11.538" y1="0.002" x2="12.46" y2="0.698" gradientUnits="objectBoundingBox">
      <stop offset="0.001" stop-color="#b2db90"/>
      <stop offset="1" stop-color="#2bba90"/>
    </linearGradient>
    <linearGradient id="linear-gradient-5" x1="22.585" y1="0.5" x2="25.975" y2="0.5" gradientUnits="objectBoundingBox">
      <stop offset="0.001" stop-color="#c4eda9"/>
      <stop offset="1" stop-color="#3dcca9"/>
    </linearGradient>
  </defs>
  <g id="Classwork" transform="translate(-6.676 -10.905)">
    <g id="Group_1974" data-name="Group 1974" transform="translate(6.676 10.905)">
      <g id="Group_1956" data-name="Group 1956">
        <g id="Group_1941" data-name="Group 1941" transform="translate(68.303 29.042)">
          <path id="Path_1503" data-name="Path 1503" d="M291.706,277.145c-.012-1.57,1.03-2.943,1.46-4.462,3.74-13.207,9.762-4.582,8.911-12.166-.7-6.2,8.18-9.276,8.933-6.581.6,2.14,3.427,3.286,4.774,1.46,1.7-2.3.992-5.556,2.5-7.966a5.708,5.708,0,0,1,4.227-2.548c1.564-.153,3.186.313,4.694-.108,2.685-.751,4.034-4.025,6.806-4.407a1.391,1.391,0,0,1,.706.048,1.509,1.509,0,0,1,.733,1.119c.313,1.165.6,2.488-.1,3.5-.628.909-1.895,1.3-2.5,2.222a3.5,3.5,0,0,0-.012,3.144,8.444,8.444,0,0,1,.878,3.123,4.413,4.413,0,0,1-2.807,3.574,12.323,12.323,0,0,1-4.868.821,4.087,4.087,0,0,0-1.292.154,2.127,2.127,0,0,0-.756,3.287,8.753,8.753,0,0,1,1.024,1.178c.638,1.176-.482,2.635-1.831,3.035a10.623,10.623,0,0,1-4.2-.063,5.222,5.222,0,0,0-4.019.781c-1.318,1.15-1.157,3.123-1.9,4.655a6.611,6.611,0,0,1-4.517,3.132,32.638,32.638,0,0,1-5.773.531,26.5,26.5,0,0,0-11.627,3.128" transform="translate(-291.142 -240.345)" fill="#ffc957"/>
          <g id="Group_1940" data-name="Group 1940" transform="translate(1.842 4.504)">
            <path id="Path_1504" data-name="Path 1504" d="M336.347,256.089c-1.038,3.675-4.342,6.825-7.32,9.277a75.589,75.589,0,0,1-10.207,6.806c-7.433,4.314-15.223,8.324-20.948,14.662a.186.186,0,0,1-.278-.246c5.045-6.026,12.228-9.873,19.124-13.768a100.4,100.4,0,0,0,10.209-6.357c3.616-2.66,7.959-6.151,9.28-10.406.026-.083.164-.052.14.032Z" transform="translate(-297.549 -256.008)" fill="#444472" opacity="0.2"/>
          </g>
        </g>
        <g id="Group_1943" data-name="Group 1943" transform="translate(0 22.556)">
          <path id="Path_1505" data-name="Path 1505" d="M84.769,249.72a12.557,12.557,0,0,1-5.241.98A37.2,37.2,0,0,1,68,249.624a8.165,8.165,0,0,1-2.7-1.224,3.594,3.594,0,0,1-1.493-2.484c-.11-1.37.782-2.586,1.36-3.833a1.874,1.874,0,0,0,.227-1.215c-.241-.958-1.544-1.062-2.526-.958l-2.439.259c-1.01.107-2.227.127-2.811-.705a1.857,1.857,0,0,1,.4-2.329,3.688,3.688,0,0,1,2.391-.815c.86-.031,1.721.085,2.579.034a1.025,1.025,0,0,0,.582-.165c.388-.3.207-.932-.08-1.333a4.123,4.123,0,0,0-2.739-1.66,13.669,13.669,0,0,0-3.2.225,3.75,3.75,0,0,1-3.022-.762,3.8,3.8,0,0,1-.9-2.882c.059-1.493,2.136-3.353,4.07-2.164,1.069.657,2.118,1.346,3.177,2.019.685.435,1.691.831,2.207.2.417-.507.12-1.273-.255-1.812-1.476-2.118-3.949-3.264-5.915-4.937-3.035-2.582,1.647-7.107,5.511-4.533a7.835,7.835,0,0,1,2.458,2.676c.694,1.232,1.069,2.662,2.006,3.721a2.217,2.217,0,0,0,1.276.793,1.127,1.127,0,0,0,1.241-.671c.16-.5-.143-1.011-.328-1.5a4.608,4.608,0,0,1,.888-4.305A2.74,2.74,0,0,1,72.175,218a2.486,2.486,0,0,1,1.976,2.222,18.175,18.175,0,0,1-.079,3.2,3.347,3.347,0,0,0,1.125,2.866.647.647,0,0,0,.879,0,6.461,6.461,0,0,0,1.588-2.608c.461-.921,1.416-1.824,2.4-1.507a1.962,1.962,0,0,1,1.1,2.069,22.452,22.452,0,0,1-.574,2.458,5.286,5.286,0,0,0,3.745,5.874,16.945,16.945,0,0,1,2.1.476,4.222,4.222,0,0,1,2.29,2.652,10.868,10.868,0,0,1,.4,3.577c-.034,3.1-.537,6.594-3.023,8.454" transform="translate(-53.613 -217.788)" fill="#ffc957"/>
          <g id="Group_1942" data-name="Group 1942" transform="translate(4.994 1.669)" opacity="0.41">
            <path id="Path_1506" data-name="Path 1506" d="M70.993,234.666c.127.047.252.091.377.135-.121-.054-.243-.108-.358-.173C70.988,234.614,70.968,234.657,70.993,234.666Z" transform="translate(-70.981 -231.453)" fill="#444472"/>
            <path id="Path_1507" data-name="Path 1507" d="M73.526,235.6c-.4-.1-.79-.219-1.192-.361A5.231,5.231,0,0,0,73.526,235.6Z" transform="translate(-71.945 -231.888)" fill="#444472"/>
            <path id="Path_1508" data-name="Path 1508" d="M91.567,231.091c1.285,4.77,2.493,9.712,1.245,14.6-1.733-2.353-3.544-4.649-5.449-6.86-.284-4.212-1.581-8.234-2.866-12.232a.033.033,0,0,0-.064.02,70.844,70.844,0,0,1,2.5,11.716A82.917,82.917,0,0,0,77.428,229a.074.074,0,0,0,.021-.09,17.348,17.348,0,0,0-3.612-5.316c-.015-.015-.037.009-.022.025a17.129,17.129,0,0,1,3.369,5.18q-.861-.707-1.745-1.387c.012-.051-.012-.11-.076-.1l-.046.006c-.99-.762-2-1.5-3.037-2.208-.016-.011-.034.016-.019.027q1.507,1.058,2.938,2.195a7.535,7.535,0,0,1-2.314-.034,6.964,6.964,0,0,0,2.486.18s.006,0,.01-.005a76.52,76.52,0,0,1,8.611,8.076c-4.153,1.576-8.35-.1-12.537-.616-.021,0-.028.029-.007.032,4.187.611,8.475,2.462,12.657.862a.144.144,0,0,0,.078-.069q1.452,1.586,2.83,3.241a.175.175,0,0,0,.13.153q1.178,1.412,2.311,2.864a28.949,28.949,0,0,1-13.231,1.036.017.017,0,0,0-.007.033,24.662,24.662,0,0,0,13.393-.868c1.551,1.993,3.044,4.036,4.493,6.11-4.246,1.762-8.828,3.065-13.283,1.217-.02-.008-.035.021-.015.03,4.467,1.954,9.138.713,13.471-1q.672.966,1.334,1.94c.18.266.6,0,.422-.268q-1.466-2.163-3.012-4.277c1.433-5.049.072-10.01-1.388-14.9A.033.033,0,0,0,91.567,231.091Z" transform="translate(-71.304 -223.591)" fill="#444472" opacity="0.47"/>
          </g>
        </g>
        <g id="Group_1945" data-name="Group 1945" transform="translate(44.89 40.095)">
          <path id="Path_1509" data-name="Path 1509" d="M219.612,311.067a9.8,9.8,0,0,1-3.4-2.4,29.03,29.03,0,0,1-5.676-7.035,6.377,6.377,0,0,1-.788-2.179,2.8,2.8,0,0,1,.576-2.187c.707-.807,1.872-.971,2.884-1.327a1.464,1.464,0,0,0,.8-.535c.4-.656-.247-1.441-.84-1.934L211.7,292.25c-.61-.507-1.284-1.177-1.136-1.956a1.45,1.45,0,0,1,1.521-1.043,2.879,2.879,0,0,1,1.758.894c.485.464.889,1.008,1.385,1.461a.8.8,0,0,0,.409.236c.381.051.634-.391.7-.77a3.216,3.216,0,0,0-.562-2.436,10.662,10.662,0,0,0-1.869-1.669,2.928,2.928,0,0,1-1.219-2.105,2.967,2.967,0,0,1,1.12-2.074,2.173,2.173,0,0,1,3.426,1.1c.214.956.4,1.917.6,2.876.129.621.456,1.4,1.087,1.345.511-.043.778-.626.874-1.129.38-1.979-.325-3.985-.46-6-.208-3.1,4.871-2.948,5.536.614a6.11,6.11,0,0,1-.158,2.832,15.72,15.72,0,0,0-.988,3.148,1.73,1.73,0,0,0,.251,1.145.88.88,0,0,0,1.05.329c.366-.182.488-.63.661-1a3.6,3.6,0,0,1,2.891-1.847,2.139,2.139,0,0,1,1.918.552,1.941,1.941,0,0,1-.167,2.315,14.19,14.19,0,0,1-1.833,1.7,2.614,2.614,0,0,0-.99,2.19.506.506,0,0,0,.476.494,5.041,5.041,0,0,0,2.323-.532c.766-.244,1.791-.2,2.148.519a1.531,1.531,0,0,1-.558,1.742,17.566,17.566,0,0,1-1.687,1.017,4.126,4.126,0,0,0-1.246,5.292,13.232,13.232,0,0,1,.877,1.434,3.294,3.294,0,0,1-.236,2.724,8.472,8.472,0,0,1-1.783,2.171c-1.755,1.671-3.98,3.29-6.374,2.913" transform="translate(-209.72 -278.78)" fill="url(#linear-gradient)"/>
          <g id="Group_1944" data-name="Group 1944" transform="translate(3.212 2.543)" opacity="0.41">
            <path id="Path_1510" data-name="Path 1510" d="M247.213,288.934c.043.1.086.191.13.284-.036-.1-.071-.195-.1-.295C247.239,288.9,247.2,288.915,247.213,288.934Z" transform="translate(-239.643 -288.542)" fill="#444472"/>
            <path id="Path_1511" data-name="Path 1511" d="M248.115,290.839c-.161-.274-.307-.561-.447-.863A4.076,4.076,0,0,0,248.115,290.839Z" transform="translate(-239.968 -289.3)" fill="#444472"/>
            <path id="Path_1512" data-name="Path 1512" d="M237.09,301.675c-1.968,3.316-4.074,6.682-7.489,8.647.373-2.25.671-4.513.87-6.782a40.305,40.305,0,0,0,5.281-8.262.026.026,0,0,0-.046-.025,55.285,55.285,0,0,1-5.189,7.779,64.717,64.717,0,0,0,.043-10.4.058.058,0,0,0,.062-.037,13.54,13.54,0,0,0,1.007-4.914c0-.017-.025-.016-.026,0a13.365,13.365,0,0,1-1.063,4.7c-.049-.577-.109-1.155-.175-1.731.035-.021.055-.066.015-.1l-.029-.023c-.113-.968-.248-1.936-.419-2.9,0-.014-.028-.01-.025,0,.153.946.274,1.892.372,2.838a5.89,5.89,0,0,1-1.241-1.312,5.434,5.434,0,0,0,1.253,1.488s.006,0,.008,0a59.7,59.7,0,0,1,.172,9.212c-3.142-1.464-4.489-4.725-6.481-7.346-.01-.013-.032,0-.022.014,1.938,2.674,3.238,6.08,6.409,7.548a.113.113,0,0,0,.081.006c-.064,1.117-.158,2.233-.271,3.348a.136.136,0,0,0-.015.156q-.148,1.428-.344,2.852a22.594,22.594,0,0,1-7.783-6.836.013.013,0,0,0-.022.014,19.251,19.251,0,0,0,7.778,7.017c-.27,1.952-.6,3.9-.971,5.839-3.3-1.416-6.52-3.269-7.912-6.766-.006-.015-.031-.008-.025.008,1.34,3.562,4.577,5.5,7.892,6.991q-.174.9-.359,1.8c-.051.246.329.336.38.09q.411-2,.752-4.013c3.6-1.948,5.637-5.41,7.579-8.89C237.152,301.67,237.107,301.646,237.09,301.675Z" transform="translate(-220.891 -287.624)" fill="#444472" opacity="0.47"/>
          </g>
        </g>
        <g id="Group_1949" data-name="Group 1949" transform="translate(54.549 7.364)">
          <path id="Path_1515" data-name="Path 1515" d="M253.845,223.906a72.142,72.142,0,0,0,13.244-4.5,36.309,36.309,0,0,0,15.879-15.362c.383-.717.666-1.767-.018-2.207a1.576,1.576,0,0,0-1.044-.133,11.336,11.336,0,0,0-2.627.636c-.584.218-1.293.468-1.778.078a1.394,1.394,0,0,1-.4-1.161c.074-2.042,1.787-3.675,3.628-4.562s3.895-1.265,5.73-2.162,3.531-2.558,3.567-4.6a1.219,1.219,0,0,0-1.193-1.5c-2.491-.236-4.6,1.641-6.7,3.007a1.058,1.058,0,0,1-.767.243c-.381-.084-.549-.537-.569-.927-.109-2.117,2.015-3.557,3.784-4.727,2.41-1.6,4.735-3.678,5.474-6.472a2.646,2.646,0,0,0-.052-1.863c-.671-1.316-2.765-1.031-3.774.046s-1.378,2.6-2.155,3.852a1.353,1.353,0,0,1-.789.693c-.583.122-1.095-.525-1.074-1.121a3,3,0,0,1,.746-1.594c2.813-3.794,5.743-8.1,5.211-12.8a2.351,2.351,0,0,0-.482-1.341,2.152,2.152,0,0,0-2.576-.094c-2.125,1.164-3.069,3.719-3.416,6.117s-.281,4.895-1.152,7.156a4.288,4.288,0,0,1-1.457,2.062,2.119,2.119,0,0,1-2.4.08c-.9-.672-.874-2-.765-3.114q.131-1.335.262-2.671c.052-.525.055-1.159-.385-1.451-.572-.379-1.312.177-1.675.76a7.827,7.827,0,0,0-.666,5.786,58.708,58.708,0,0,0,1.89,5.662,3.834,3.834,0,0,1,.263,1.547,2.955,2.955,0,0,1-.975,1.777,5.094,5.094,0,0,1-3.654,1.4,20.711,20.711,0,0,0-2.977-.255A3.5,3.5,0,0,0,265,193.624a5.412,5.412,0,0,0,2.128,3.736,35.043,35.043,0,0,1,3.376,2.857,2.944,2.944,0,0,1,.852,1.747,2.807,2.807,0,0,1-1.4,2.277,5.679,5.679,0,0,1-4,.919,35,35,0,0,1-3.673-1.131,3.785,3.785,0,0,0-3.625.6c-1.329,1.318-.693,3.59.3,5.178s2.312,3.217,2.1,5.078a6.151,6.151,0,0,1-1.863,3.3,33.51,33.51,0,0,1-6.3,5.343" transform="translate(-250.145 -164.957)" fill="#6aa5fe"/>
          <g id="Group_1948" data-name="Group 1948" transform="translate(0 3.845)">
            <path id="Path_1516" data-name="Path 1516" d="M278.115,178.406c-4.792,10.156-6.031,21.573-10.523,31.89-2.23,5.121-4.825,10.281-8.543,14.5-4.173,4.735-9.612,6.9-15.473,8.82-.433.142-.3.846.143.7,5.049-1.645,10.076-3.417,14.034-7.1,3.889-3.62,6.526-8.337,8.781-13.089a97.764,97.764,0,0,0,6.314-17.711c1.557-6.075,2.875-12.2,5.5-17.931.068-.148-.17-.225-.238-.081Z" transform="translate(-243.312 -178.33)" fill="#1a55b5"/>
          </g>
        </g>
        <g id="Group_1951" data-name="Group 1951" transform="translate(40.801)">
          <path id="Path_1517" data-name="Path 1517" d="M209.7,206.92a72.153,72.153,0,0,1-8.826-10.852,36.312,36.312,0,0,1-5.284-21.452c.057-.811.376-1.851,1.188-1.86a1.577,1.577,0,0,1,.955.442,11.334,11.334,0,0,1,1.888,1.935c.378.495.846,1.083,1.465,1.011a1.4,1.4,0,0,0,.953-.773c1.023-1.769.44-4.063-.648-5.792s-2.626-3.142-3.7-4.878-1.632-4.043-.576-5.793a1.219,1.219,0,0,1,1.808-.637c2.235,1.125,3.025,3.836,4.075,6.108a1.058,1.058,0,0,0,.521.613c.368.131.75-.163.975-.483,1.218-1.735.183-4.084-.692-6.015-1.194-2.633-2.056-5.632-1.2-8.392a2.644,2.644,0,0,1,1.035-1.55c1.267-.758,2.891.6,3.172,2.046s-.213,2.931-.223,4.408a1.354,1.354,0,0,0,.3,1.007,1.034,1.034,0,0,0,1.505-.378,3,3,0,0,0,.215-1.747c-.365-4.709-.556-9.917,2.388-13.61a2.353,2.353,0,0,1,1.121-.88,2.153,2.153,0,0,1,2.232,1.29c1.181,2.116.623,4.782-.359,7s-2.364,4.295-2.828,6.673a4.289,4.289,0,0,0,.139,2.521,2.119,2.119,0,0,0,1.99,1.343c1.116-.093,1.8-1.228,2.3-2.231l1.2-2.4c.235-.472.57-1.011,1.1-1.025.686-.018,1.017.848,1.015,1.534a7.827,7.827,0,0,1-2.511,5.255,58.736,58.736,0,0,1-4.61,3.791,3.829,3.829,0,0,0-1.045,1.17,2.954,2.954,0,0,0-.118,2.023,5.092,5.092,0,0,0,2.352,3.125,20.766,20.766,0,0,1,2.657,1.367,3.5,3.5,0,0,1,.722,4.509,5.412,5.412,0,0,1-3.788,2.034,34.928,34.928,0,0,0-4.378.625,2.945,2.945,0,0,0-1.65,1.026,2.806,2.806,0,0,0-.025,2.672,5.682,5.682,0,0,0,2.9,2.9,35.048,35.048,0,0,0,3.712.994,3.784,3.784,0,0,1,2.751,2.435c.425,1.823-1.321,3.41-3.005,4.228s-3.668,1.5-4.482,3.182a6.154,6.154,0,0,0-.176,3.784A33.526,33.526,0,0,0,210.7,207.1" transform="translate(-195.501 -139.348)" fill="#ffc957"/>
          <g id="Group_1950" data-name="Group 1950" transform="translate(7.826 4.403)">
            <path id="Path_1518" data-name="Path 1518" d="M232.4,154.814c-1.34,11.15-6.359,21.479-8.038,32.6-.833,5.523-1.378,11.274-.471,16.824,1.017,6.229,4.474,10.954,8.417,15.7.291.35-.2.874-.495.519-3.4-4.077-6.718-8.251-8.113-13.474-1.37-5.133-1.1-10.53-.48-15.754a97.773,97.773,0,0,1,4.066-18.358c1.911-5.973,4.051-11.865,4.869-18.114.021-.161.263-.1.244.058Z" transform="translate(-222.717 -154.661)" opacity="0.3" fill="url(#linear-gradient-2)"/>
          </g>
        </g>
        <g id="Group_1952" data-name="Group 1952" transform="translate(9.411 42.158)">
          <path id="Path_1519" data-name="Path 1519" d="M101.116,286.549a10.689,10.689,0,0,0-5.015-.482,15.061,15.061,0,0,0-4.822,1.859q-2.539,1.38-4.94,3.014a39.776,39.776,0,0,0,6.97,6.07,17.615,17.615,0,0,0,8.563,3.152,16.272,16.272,0,0,0,9.614-3.053A15.8,15.8,0,0,0,101.116,286.549Z" transform="translate(-86.339 -285.956)" fill="#1a55b5"/>
          <path id="Path_1520" data-name="Path 1520" d="M110.21,306.4a54.614,54.614,0,0,0-5.623-2,30.663,30.663,0,0,0-11.258-1.25.072.072,0,0,0,.011.143A32.388,32.388,0,0,1,105,304.9c1.763.552,3.488,1.212,5.184,1.933,1.783.758,3.5,1.694,5.3,2.4.2.079.319-.22.142-.324A43.779,43.779,0,0,0,110.21,306.4Z" transform="translate(-91.275 -298.134)" fill="#2a294f"/>
        </g>
        <g id="Group_1953" data-name="Group 1953" transform="translate(18.475 34.031)">
          <path id="Path_1521" data-name="Path 1521" d="M134.969,262.929a12.9,12.9,0,0,0-4.614-3.674,17.591,17.591,0,0,0-5.84-1.3,66.407,66.407,0,0,0-6.654-.261A47.426,47.426,0,0,0,121.01,268a21.326,21.326,0,0,0,6.471,8.516,19.039,19.039,0,0,0,11.25,3.216A18.59,18.59,0,0,0,134.969,262.929Z" transform="translate(-117.861 -257.692)" fill="#6aa5fe"/>
          <path id="Path_1522" data-name="Path 1522" d="M139.039,276.294a66.263,66.263,0,0,0-4.288-5.528,37.038,37.038,0,0,0-10.257-8.409c-.093-.05-.166.093-.076.145a39.154,39.154,0,0,1,10.434,9.007c1.391,1.66,2.679,3.4,3.9,5.179,1.286,1.871,2.4,3.869,3.738,5.7a.2.2,0,0,0,.334-.221A52.973,52.973,0,0,0,139.039,276.294Z" transform="translate(-122.503 -261.008)" fill="#1a55b5"/>
        </g>
        <g id="Group_1954" data-name="Group 1954" transform="translate(56.309 53.309)">
          <path id="Path_1523" data-name="Path 1523" d="M261.784,338.372a9.753,9.753,0,0,0,2.581-3.689,14.651,14.651,0,0,0,.788-4.653q.122-2.641,0-5.3a32.378,32.378,0,0,0-7.527,2.556,15.271,15.271,0,0,0-6.106,5.191,15.777,15.777,0,0,0-2.047,8.966A12.785,12.785,0,0,0,261.784,338.372Z" transform="translate(-249.431 -324.734)" fill="#6aa5fe"/>
          <path id="Path_1524" data-name="Path 1524" d="M255.435,341.677a47.446,47.446,0,0,0,3.961-3.44,27.9,27.9,0,0,0,5.916-8.2c.034-.074-.074-.131-.109-.06a29.314,29.314,0,0,1-6.353,8.346c-1.187,1.115-2.435,2.148-3.715,3.13-1.345,1.032-2.79,1.926-4.1,3a.16.16,0,0,0,.173.265A37.321,37.321,0,0,0,255.435,341.677Z" transform="translate(-250.53 -328.444)" fill="#1a55b5"/>
        </g>
      </g>
      <g id="Group_1959" data-name="Group 1959" transform="translate(20.924 1.684)">
        <g id="Group_1957" data-name="Group 1957" transform="translate(21.78 8.88)">
          <rect id="Rectangle_1564" data-name="Rectangle 1564" width="53.182" height="1.005" transform="translate(0 48.38) rotate(-65.466)" fill="#5c71e8"/>
        </g>
        <g id="Group_1958" data-name="Group 1958" transform="translate(20.75 7.601)">
          <path id="Path_1527" data-name="Path 1527" d="M199.405,222.858a1.488,1.488,0,0,1,1.235-2.707,25.1,25.1,0,0,0,20.847-45.674,1.488,1.488,0,1,1,1.235-2.706,28.079,28.079,0,0,1-23.318,51.087Z" transform="translate(-198.535 -171.637)" fill="#0050be"/>
        </g>
        <circle id="Ellipse_341" data-name="Ellipse 341" cx="23.532" cy="23.532" r="23.532" transform="translate(0 33.279) rotate(-45)" fill="#8fbeff"/>
        <path id="Path_1528" data-name="Path 1528" d="M205.2,212.39a23.57,23.57,0,0,1-3,4.9,16.064,16.064,0,0,1-8.893,1.036,2.108,2.108,0,0,1-1.065-.413c-.868-.773-.124-2.173-.131-3.335a5.042,5.042,0,0,0-1.153-2.671c-1.247-1.832-2.459-4.074-1.711-6.161.754-2.105,3.265-3.238,3.889-5.385.6-2.055-.762-4.164-.8-6.3a6.3,6.3,0,0,1,1.931-4.424,10.921,10.921,0,0,1,4.232-2.5,7.538,7.538,0,0,1,2.587-.476A23.538,23.538,0,0,1,205.2,212.39Zm-28.564,12.188a4.338,4.338,0,0,0,2.442-3,5.234,5.234,0,0,0-1.38-3.951,31.409,31.409,0,0,1-2.722-3.336,3.39,3.39,0,0,1-.551-1.734c.021-1.674,1.842-2.848,2.059-4.508A3.654,3.654,0,0,0,174.2,204.6a25.057,25.057,0,0,0-4.247-1.209,5.046,5.046,0,0,1-3.446-2.531c-.723-1.707.179-3.776-.771-5.4a5.328,5.328,0,0,0-3.642-1.938,23.531,23.531,0,0,0,11.929,30.506q1,.456,2.018.811C176.243,224.759,176.442,224.675,176.637,224.578Zm-6.515-41.116a4.687,4.687,0,0,0,.284.757c1.129,2.4,3.569,4.216,3.925,6.848a3.964,3.964,0,0,0,.51,2.07,2.344,2.344,0,0,0,.928.615,7.75,7.75,0,0,0,8.718-2.117c1.994-2.392,2.33-5.757,3.906-8.444a4.845,4.845,0,0,0,.994-2.425,2.417,2.417,0,0,0-.315-1.084A23.563,23.563,0,0,0,170.122,183.462Z" transform="translate(-150.515 -169.34)" fill="#4087e9"/>
        <rect id="Rectangle_1565" data-name="Rectangle 1565" width="4.615" height="10.997" transform="translate(30.971 60.786)" fill="#0050be"/>
        <path id="Path_1529" data-name="Path 1529" d="M209.843,397.742H173.407a2.157,2.157,0,0,1-2.157-2.157h0a2.157,2.157,0,0,1,2.157-2.157h36.436A2.157,2.157,0,0,1,212,395.585h0A2.157,2.157,0,0,1,209.843,397.742Z" transform="translate(-158.347 -322.05)" fill="#0050be"/>
      </g>
      <g id="Group_1966" data-name="Group 1966" transform="translate(10.634 51.773)">
        <g id="Group_1961" data-name="Group 1961">
          <g id="Group_1960" data-name="Group 1960" transform="translate(1.005 1.005)">
            <path id="Path_1530" data-name="Path 1530" d="M97.352,329.411a3.262,3.262,0,1,1,0-6.524h38.254a6.053,6.053,0,0,0,0,6.524Z" transform="translate(-94.09 -322.887)" fill="#fdfdfd"/>
          </g>
          <path id="Path_1531" data-name="Path 1531" d="M94.861,326.921a3.266,3.266,0,0,1-3.258-3.427,3.324,3.324,0,0,1,3.352-3.1h38.662a.5.5,0,0,0,.5-.5h0a.5.5,0,0,0-.5-.5H94.861a4.267,4.267,0,0,0-4.267,4.267h0a4.267,4.267,0,0,0,4.267,4.267h38.756a.5.5,0,0,0,.5-.5h0a.5.5,0,0,0-.5-.5Z" transform="translate(-90.594 -319.391)" fill="#f52424"/>
          <path id="Path_1532" data-name="Path 1532" d="M95.594,324.559l3-.033,5.812-.037,11.624-.03,11.624.03,5.812.037,1.912.021-.041.087-1.871.021-5.812.037-11.624.03-11.624-.03-5.812-.037-3.081-.034C95.538,324.6,95.565,324.578,95.594,324.559Zm3,.86,5.812.037,11.624.031,11.624-.03,5.812-.037,1.56-.017c.01-.031.02-.062.031-.094l-1.591-.018-5.812-.037-11.624-.03-11.624.031-5.812.036-3.8.042-.033.044Zm0,.766,5.812.036,11.624.031,11.624-.03,5.812-.037,1.355-.015c.007-.033.011-.066.018-.1l-1.373-.015-5.812-.037-11.624-.03-11.624.031-5.812.036-4.227.047-.013.034Zm36.742,3.719-1.87-.021-5.812-.037-11.624-.03-11.624.031-5.812.037-3.081.034c.028.02.055.042.083.061l3,.033,5.812.037,11.624.03,11.624-.03,5.812-.037,1.912-.021Zm-36.742-.658,5.812.037,11.624.031,11.624-.03,5.812-.037,1.591-.018c-.011-.031-.02-.063-.031-.094l-1.56-.017-5.812-.037-11.624-.03-11.624.03-5.812.037-3.837.042.033.044Zm0-.765,5.812.036,11.624.031,11.624-.03,5.812-.037,1.373-.015c-.007-.033-.011-.065-.018-.1l-1.355-.015-5.812-.037-11.624-.03-11.624.031-5.812.037-4.24.047.013.035Zm0-.766,5.812.037,11.624.031,11.624-.03,5.812-.037,1.261-.014c0-.034,0-.067-.005-.1l-1.256-.014-5.812-.037-11.624-.03-11.624.031-5.812.037-4.424.048c0,.01,0,.02,0,.031Zm0-.765,5.812.037,11.624.03,11.624-.03,5.812-.037,1.256-.014c0-.033,0-.067.005-.1l-1.261-.014-5.812-.036-11.624-.03-11.624.03-5.812.037-4.419.049c0,.01,0,.02,0,.03Z" transform="translate(-93.14 -323.002)" fill="#e1e3ef"/>
          <path id="Path_1533" data-name="Path 1533" d="M215.795,334.152l-1.667-.952-1.667.952v-4.216h3.334Z" transform="translate(-177.417 -326.903)" fill="#f52424"/>
        </g>
        <g id="Group_1963" data-name="Group 1963" transform="translate(0 8.535)">
          <g id="Group_1962" data-name="Group 1962" transform="translate(1.005 1.005)">
            <path id="Path_1534" data-name="Path 1534" d="M132.343,359.091a3.262,3.262,0,1,0,0-6.524H94.089a6.052,6.052,0,0,1,0,6.524Z" transform="translate(-94.089 -352.567)" fill="#fdfdfd"/>
          </g>
          <path id="Path_1535" data-name="Path 1535" d="M129.853,356.6a3.266,3.266,0,0,0,3.258-3.427,3.325,3.325,0,0,0-3.352-3.1H91.1a.5.5,0,0,1-.5-.5h0a.5.5,0,0,1,.5-.5h38.756a4.267,4.267,0,0,1,4.267,4.267h0a4.267,4.267,0,0,1-4.267,4.267H91.1a.5.5,0,0,1-.5-.5h0a.5.5,0,0,1,.5-.5Z" transform="translate(-90.594 -349.071)" fill="#3a82e5"/>
          <path id="Path_1536" data-name="Path 1536" d="M134.95,354.3l-3.081.034-5.812.036-11.624.031-11.624-.03L97,354.334l-1.871-.021-.041-.087L97,354.205l5.812-.037,11.624-.03,11.624.031,5.812.037,3,.033C134.9,354.258,134.922,354.279,134.95,354.3Zm.756.757-.033-.044-3.8-.042-5.812-.037-11.624-.031-11.624.03L97,354.971l-1.591.018c.011.031.02.062.031.094L97,355.1l5.812.037,11.624.03,11.624-.031,5.812-.036Zm.4.761-.013-.035-4.227-.047-5.812-.037-11.624-.031-11.624.03L97,355.736l-1.373.015c.007.033.012.066.018.1l1.356.015,5.812.036,11.624.03,11.624-.03,5.812-.037ZM95.086,359.67l1.912.021,5.812.037,11.624.03,11.624-.031,5.812-.036,3-.033c.029-.019.055-.041.083-.061l-3.081-.034-5.812-.037-11.624-.031-11.624.03L97,359.563l-1.871.021Zm40.587-.787.033-.044-3.837-.042-5.812-.037-11.624-.03-11.624.03L97,358.8l-1.56.017c-.01.031-.02.063-.031.094l1.591.018,5.812.037,11.624.03,11.624-.031,5.812-.037Zm.424-.77.013-.035-4.24-.047L126.057,358l-11.624-.031L102.81,358,97,358.032l-1.356.015c-.006.033-.011.066-.018.1l1.373.015,5.812.037,11.624.03,11.624-.03,5.812-.037Zm.192-.768c0-.01,0-.02,0-.031l-4.424-.049-5.812-.037-11.624-.031-11.624.03L97,357.267l-1.256.014c0,.034,0,.067-.006.1L97,357.4l5.812.037,11.624.03,11.624-.031,5.812-.036Zm0-.766c0-.01,0-.02,0-.031l-4.419-.048-5.812-.037-11.624-.031-11.624.03L97,356.5l-1.262.014c0,.034,0,.067.006.1L97,356.63l5.812.037,11.624.03,11.624-.031,5.812-.037Z" transform="translate(-93.794 -352.681)" fill="#e1e3ef"/>
          <path id="Path_1537" data-name="Path 1537" d="M104.816,358.6l1.667-.952,1.667.952v-4.216h-3.334Z" transform="translate(-100.726 -352.854)" fill="#3a82e5"/>
        </g>
        <g id="Group_1965" data-name="Group 1965" transform="translate(0 17.069)">
          <g id="Group_1964" data-name="Group 1964" transform="translate(1.005 1.006)">
            <path id="Path_1538" data-name="Path 1538" d="M97.352,388.771a3.262,3.262,0,1,1,0-6.524h38.254a6.053,6.053,0,0,0,0,6.524Z" transform="translate(-94.09 -382.247)" fill="#fdfdfd"/>
          </g>
          <path id="Path_1539" data-name="Path 1539" d="M94.861,386.28a3.265,3.265,0,0,1-3.258-3.426,3.324,3.324,0,0,1,3.352-3.1h38.662a.5.5,0,0,0,.5-.5h0a.5.5,0,0,0-.5-.5H94.861a4.267,4.267,0,0,0-4.267,4.267h0a4.267,4.267,0,0,0,4.267,4.267h38.756a.5.5,0,0,0,.5-.5h0a.5.5,0,0,0-.5-.5Z" transform="translate(-90.594 -378.75)" fill="#ffc957"/>
          <path id="Path_1540" data-name="Path 1540" d="M95.594,383.918l3-.033,5.812-.036,11.624-.031,11.624.03,5.812.037,1.912.021-.041.087-1.871.021-5.812.037-11.624.03-11.624-.03-5.812-.037-3.081-.034C95.538,383.959,95.565,383.937,95.594,383.918Zm3,.86,5.812.037,11.624.031,11.624-.03,5.812-.037,1.56-.017c.01-.031.02-.063.031-.094l-1.591-.018-5.812-.037-11.624-.03-11.624.03-5.812.037-3.8.042-.033.044Zm0,.765,5.812.036,11.624.031,11.624-.03,5.812-.037,1.355-.015c.007-.033.011-.066.018-.1l-1.373-.015-5.812-.037-11.624-.03-11.624.031-5.812.037-4.227.046-.013.035Zm36.742,3.72-1.87-.021-5.812-.037-11.624-.03-11.624.031-5.812.037-3.081.034c.028.02.055.042.083.061l3,.033,5.812.037,11.624.03,11.624-.03,5.812-.037,1.912-.021Zm-36.742-.658,5.812.036,11.624.031,11.624-.03,5.812-.037,1.591-.018c-.011-.031-.02-.062-.031-.094l-1.56-.017-5.812-.037-11.624-.03-11.624.031-5.812.037-3.837.042.033.044Zm0-.766,5.812.037,11.624.03,11.624-.03,5.812-.037,1.373-.015c-.007-.033-.011-.066-.018-.1l-1.355-.015-5.812-.037-11.624-.03-11.624.03-5.812.037-4.24.047.013.035Zm0-.765,5.812.037,11.624.03,11.624-.03,5.812-.036,1.261-.014c0-.034,0-.067-.005-.1l-1.256-.014-5.812-.037-11.624-.03-11.624.03-5.812.037L94.167,387c0,.01,0,.02,0,.03Zm0-.765,5.812.037,11.624.031,11.624-.03,5.812-.037,1.256-.014c0-.034,0-.067.005-.1l-1.261-.014-5.812-.037-11.624-.03-11.624.031-5.812.037-4.419.049c0,.01,0,.02,0,.031Z" transform="translate(-93.14 -382.361)" fill="#e1e3ef"/>
          <path id="Path_1541" data-name="Path 1541" d="M183.884,393.511l-1.667-.952-1.667.952v-4.216h3.334Z" transform="translate(-154.682 -386.262)" fill="#ffc957"/>
        </g>
      </g>
      <g id="Group_1973" data-name="Group 1973" transform="translate(63.818 38.938)">
        <g id="Group_1969" data-name="Group 1969" transform="translate(11.087 0)">
          <path id="Rectangle_1566" data-name="Rectangle 1566" d="M2.918,0h0A2.917,2.917,0,0,1,5.835,2.917v31.2a2.918,2.918,0,0,1-2.918,2.918h0A2.918,2.918,0,0,1,0,34.119V2.918A2.918,2.918,0,0,1,2.918,0Z" transform="translate(5.835 37.036) rotate(180)" fill="url(#linear-gradient-3)"/>
          <g id="Group_1968" data-name="Group 1968" transform="translate(0)">
            <g id="Group_1967" data-name="Group 1967" clip-path="url(#clip-path)">
              <path id="Path_1542" data-name="Path 1542" d="M327.85,286.186a.188.188,0,0,1,.188-.187h1.694a.187.187,0,1,1,0,.375h-1.694A.187.187,0,0,1,327.85,286.186Zm.188,2.927h1.694a.188.188,0,0,0,0-.375h-1.694a.188.188,0,0,0,0,.375Zm0,2.739h1.694a.187.187,0,1,0,0-.375h-1.694a.187.187,0,1,0,0,.375Zm0,2.739h1.694a.187.187,0,1,0,0-.375h-1.694a.187.187,0,1,0,0,.375Zm0,2.739h1.694a.187.187,0,1,0,0-.375h-1.694a.187.187,0,1,0,0,.375Zm0,2.739h1.694a.188.188,0,1,0,0-.375h-1.694a.188.188,0,0,0,0,.375Zm0,2.74h1.694a.187.187,0,1,0,0-.375h-1.694a.187.187,0,1,0,0,.375Zm0,2.739h1.694a.188.188,0,0,0,0-.375h-1.694a.188.188,0,0,0,0,.375Zm0,2.74h1.694a.188.188,0,0,0,0-.375h-1.694a.188.188,0,0,0,0,.375Zm0,2.739h1.694a.188.188,0,0,0,0-.375h-1.694a.188.188,0,0,0,0,.375Zm0,2.739h1.694a.187.187,0,1,0,0-.375h-1.694a.187.187,0,1,0,0,.375Zm0,2.74h1.694a.188.188,0,0,0,0-.375h-1.694a.188.188,0,0,0,0,.375Z" transform="translate(-323.896 -282.767)" fill="#fff" opacity="0.51"/>
            </g>
          </g>
        </g>
        <g id="Group_1971" data-name="Group 1971" transform="translate(0 5.12)">
          <g id="Group_1970" data-name="Group 1970" transform="translate(0 0)">
            <rect id="Rectangle_1568" data-name="Rectangle 1568" width="2.563" height="12.392" transform="translate(12.736 24.934) rotate(167.496)" fill="#4087e9"/>
            <circle id="Ellipse_342" data-name="Ellipse 342" cx="5.287" cy="5.287" r="5.287" transform="matrix(0.837, -0.547, 0.547, 0.837, 0, 5.782)" fill="#fff" opacity="0.65"/>
            <path id="Path_1543" data-name="Path 1543" d="M288.138,296.858a6.25,6.25,0,1,0,3.037,8.3A6.25,6.25,0,0,0,288.138,296.858Zm2.164,7.895a5.287,5.287,0,1,1-2.569-7.022A5.288,5.288,0,0,1,290.3,304.753Z" transform="translate(-278.188 -295.208)" fill="#6aa5fe"/>
          </g>
        </g>
        <g id="Group_1972" data-name="Group 1972" transform="translate(11.425 4.57)">
          <rect id="Rectangle_1569" data-name="Rectangle 1569" width="3.656" height="2.52" transform="translate(0.754 28.189) rotate(9.624)" fill="#fff" stroke="#000" stroke-miterlimit="10" stroke-width="1.625"/>
          <path id="Rectangle_1570" data-name="Rectangle 1570" d="M0,0H3.656a0,0,0,0,1,0,0V.616A1.376,1.376,0,0,1,2.28,1.992h-.9A1.376,1.376,0,0,1,0,.616V0A0,0,0,0,1,0,0Z" transform="translate(0.333 30.674) rotate(9.624)" fill="#fff" stroke="#000" stroke-miterlimit="10" stroke-width="1.625"/>
          <path id="Path_1544" data-name="Path 1544" d="M334.9,290.735l-2.132,2.9,3.6.611-1.058-3.437A.246.246,0,0,0,334.9,290.735Z" transform="translate(-327.734 -290.65)" fill="#ffe0b5"/>
          <path id="Path_1545" data-name="Path 1545" d="M338.5,290.806l.419,1.36-1.676-.284.843-1.146A.246.246,0,0,1,338.5,290.806Z" transform="translate(-330.927 -290.65)" fill="#455fe8"/>
          <rect id="Rectangle_1571" data-name="Rectangle 1571" width="3.656" height="25.872" transform="translate(5.029 2.981) rotate(9.623)" fill="url(#linear-gradient-4)"/>
          <rect id="Rectangle_1572" data-name="Rectangle 1572" width="1.798" height="25.872" transform="matrix(0.986, 0.167, -0.167, 0.986, 5.945, 3.136)" fill="url(#linear-gradient-5)"/>
        </g>
        <path id="Path_1546" data-name="Path 1546" d="M308.435,362.393l.773-14.278a1.241,1.241,0,0,0-1.217-1.326h-12a1.239,1.239,0,0,0-1.217,1.324c.2,3.768.773,14.28.773,14.28a2.209,2.209,0,0,0,2.176,2.121h8.535A2.209,2.209,0,0,0,308.435,362.393Z" transform="translate(-289.244 -326.075)" fill="#0268f5"/>
      </g>
    </g>
  </g>
</svg>
