<svg id="email_id" xmlns="http://www.w3.org/2000/svg" width="12" height="9.423" viewBox="0 0 12 9.423">
  <path id="Path_2832" data-name="Path 2832" d="M1.15,2.905c.154.1.606.421,1.376.955s1.345.934,1.755,1.222c.041.031.144.1.287.205s.267.185.359.257.216.133.349.216a2.125,2.125,0,0,0,.38.185,1.079,1.079,0,0,0,.339.062h.01a1.079,1.079,0,0,0,.339-.062,1.835,1.835,0,0,0,.38-.185c.133-.082.257-.154.349-.216s.216-.154.359-.257.236-.175.287-.205c.411-.287,1.458-1.006,3.131-2.176a3.084,3.084,0,0,0,.811-.821,1.78,1.78,0,0,0,.328-1.006,1.024,1.024,0,0,0-.318-.76A1.058,1.058,0,0,0,10.922,0H1.068a.946.946,0,0,0-.79.349A1.346,1.346,0,0,0,0,1.222a1.57,1.57,0,0,0,.37.914,3.245,3.245,0,0,0,.78.77Zm0,0" transform="translate(0 0)" fill="#ababab"/>
  <path id="Path_2833" data-name="Path 2833" d="M11.322,30.1c-1.468.985-2.577,1.755-3.336,2.3-.257.185-.462.339-.616.441a3.314,3.314,0,0,1-.636.318,1.9,1.9,0,0,1-.739.164h-.01a1.9,1.9,0,0,1-.739-.164,3.511,3.511,0,0,1-.626-.318c-.154-.1-.37-.246-.616-.441q-.908-.662-3.326-2.31A3.392,3.392,0,0,1,0,29.5v5.317a1.024,1.024,0,0,0,.318.76,1.047,1.047,0,0,0,.76.318h9.844a1.024,1.024,0,0,0,.76-.318,1.047,1.047,0,0,0,.318-.76V29.51a4.145,4.145,0,0,1-.678.585Zm0,0" transform="translate(0 -26.472)" fill="#ababab"/>
</svg>
