<svg xmlns="https://www.w3.org/2000/svg" width="79.999" height="79.999" viewBox="0 0 79.999 79.999">
  <g id="failed" transform="translate(-344.5 -290.24)">
    <path id="Path_2213" data-name="Path 2213" d="M40.5.5a40,40,0,1,1-40,40A40,40,0,0,1,40.5.5Z" transform="translate(344 289.74)" fill="#ff4545"/>
    <g id="Union_69" data-name="Union 69" transform="translate(10784.172 156.171)" fill="#fff">
      <path d="M -10387.54296875 188.4391784667969 C -10388.1416015625 188.4391784667969 -10388.7041015625 188.2062072753906 -10389.126953125 187.7831878662109 L -10399.236328125 177.6732940673828 L -10409.3447265625 187.7831115722656 C -10409.76953125 188.2064819335938 -10410.3330078125 188.4391784667969 -10410.9306640625 188.4391784667969 C -10411.5283203125 188.4391784667969 -10412.0908203125 188.2062072753906 -10412.513671875 187.7831878662109 C -10412.9375 187.360595703125 -10413.1708984375 186.7976989746094 -10413.1708984375 186.19873046875 C -10413.1708984375 185.5997467041016 -10412.9375 185.036865234375 -10412.5126953125 184.61376953125 L -10402.404296875 174.5043029785156 L -10412.513671875 164.394287109375 C -10412.9375 163.9717407226563 -10413.1708984375 163.4088592529297 -10413.1708984375 162.8098754882813 C -10413.1708984375 162.2109069824219 -10412.9375 161.6480255126953 -10412.5126953125 161.2248992919922 C -10412.0908203125 160.8023986816406 -10411.5283203125 160.5694427490234 -10410.9306640625 160.5694427490234 C -10410.3330078125 160.5694427490234 -10409.7705078125 160.8023986816406 -10409.34765625 161.2254028320313 L -10399.236328125 171.3360748291016 L -10389.126953125 161.2254943847656 C -10388.7041015625 160.802490234375 -10388.1416015625 160.5694427490234 -10387.54296875 160.5694427490234 C -10386.9443359375 160.5694427490234 -10386.3818359375 160.802490234375 -10385.958984375 161.2256469726563 C -10385.5361328125 161.6484680175781 -10385.302734375 162.211181640625 -10385.302734375 162.8098754882813 C -10385.302734375 163.4085845947266 -10385.5361328125 163.9712982177734 -10385.958984375 164.3943481445313 L -10396.068359375 174.5048828125 L -10385.958984375 184.6143341064453 C -10385.5361328125 185.0373229980469 -10385.302734375 185.6000213623047 -10385.302734375 186.19873046875 C -10385.302734375 186.7974395751953 -10385.5361328125 187.3601379394531 -10385.958984375 187.7831878662109 C -10386.380859375 188.2060394287109 -10386.943359375 188.4391784667969 -10387.54296875 188.4391784667969 Z" stroke="none"/>
      <path d="M -10387.54296875 187.9391784667969 C -10387.09765625 187.9391784667969 -10386.6513671875 187.7693176269531 -10386.3125 187.4295806884766 C -10385.6328125 186.7501373291016 -10385.6328125 185.6473236083984 -10386.3125 184.9678802490234 L -10396.775390625 174.5048980712891 L -10386.3125 164.0407409667969 C -10385.6328125 163.3612823486328 -10385.6328125 162.2584838867188 -10386.3125 161.5790252685547 C -10386.6513671875 161.2393035888672 -10387.09765625 161.0694427490234 -10387.54296875 161.0694427490234 C -10387.98828125 161.0694427490234 -10388.43359375 161.2393035888672 -10388.7734375 161.5790252685547 L -10399.236328125 172.0431823730469 L -10409.701171875 161.5790252685547 C -10410.041015625 161.2393035888672 -10410.4853515625 161.0694427490234 -10410.9306640625 161.0694427490234 C -10411.375 161.0694427490234 -10411.8203125 161.2393035888672 -10412.16015625 161.5790252685547 C -10412.841796875 162.2584838867188 -10412.841796875 163.3612823486328 -10412.16015625 164.0407409667969 L -10401.697265625 174.5043029785156 L -10412.16015625 184.9678802490234 C -10412.841796875 185.6473236083984 -10412.841796875 186.7501373291016 -10412.16015625 187.4295806884766 C -10411.8203125 187.7693176269531 -10411.375 187.9391784667969 -10410.9306640625 187.9391784667969 C -10410.4853515625 187.9391784667969 -10410.0390625 187.7693176269531 -10409.6982421875 187.4295806884766 L -10399.236328125 176.9661560058594 L -10388.7734375 187.4295806884766 C -10388.43359375 187.7693176269531 -10387.98828125 187.9391784667969 -10387.54296875 187.9391784667969 M -10387.54296875 188.9391784667969 C -10388.2744140625 188.9391784667969 -10388.962890625 188.6542205810547 -10389.48046875 188.1367950439453 L -10399.236328125 178.3804473876953 L -10408.9912109375 188.1366424560547 C -10409.51171875 188.6547698974609 -10410.19921875 188.9391784667969 -10410.9306640625 188.9391784667969 C -10411.662109375 188.9391784667969 -10412.349609375 188.6542358398438 -10412.8671875 188.1368103027344 C -10413.3857421875 187.6202087402344 -10413.6708984375 186.9315490722656 -10413.6708984375 186.19873046875 C -10413.6708984375 185.4658813476563 -10413.3857421875 184.7772369384766 -10412.8662109375 184.2596282958984 L -10403.111328125 174.5043029785156 L -10412.8671875 164.7478179931641 C -10413.3857421875 164.2313690185547 -10413.6708984375 163.5427093505859 -10413.6708984375 162.8098754882813 C -10413.6708984375 162.0770568847656 -10413.3857421875 161.3883972167969 -10412.8662109375 160.8707885742188 C -10412.349609375 160.3543853759766 -10411.662109375 160.0694427490234 -10410.9306640625 160.0694427490234 C -10410.19921875 160.0694427490234 -10409.51171875 160.3543853759766 -10408.994140625 160.8717956542969 L -10399.236328125 170.6289520263672 L -10389.48046875 160.8719635009766 C -10388.9638671875 160.3545684814453 -10388.275390625 160.0694427490234 -10387.54296875 160.0694427490234 C -10386.810546875 160.0694427490234 -10386.1220703125 160.3545684814453 -10385.60546875 160.8722991943359 C -10385.087890625 161.3892974853516 -10384.802734375 162.0775909423828 -10384.802734375 162.8098754882813 C -10384.802734375 163.5421752929688 -10385.087890625 164.23046875 -10385.60546875 164.7479705810547 L -10395.361328125 174.5048675537109 L -10385.60546875 184.2607879638672 C -10385.087890625 184.7781372070313 -10384.802734375 185.4664306640625 -10384.802734375 186.19873046875 C -10384.802734375 186.9310302734375 -10385.087890625 187.6193084716797 -10385.60546875 188.1368103027344 C -10386.12109375 188.6538696289063 -10386.8095703125 188.9391784667969 -10387.54296875 188.9391784667969 Z" stroke="none" fill="#fff"/>
    </g>
  </g>
</svg>
