<svg xmlns="http://www.w3.org/2000/svg" width="114.304" height="78.407" viewBox="0 0 114.304 78.407">
  <g id="families_fee_details" transform="translate(0 -3.286)">
    <g id="Group_1975" data-name="Group 1975" transform="translate(0 0)">
      <path id="Path_1943" data-name="Path 1943" d="M35.538,169.765c-8.016-.193-16.061-10.6-7.511-17.689,1.484-1.229,5.047-4.61,3.526-5.8-10.627-8.3-6.279-17.985-1.1-19.912,6.948-2.584,11.409-4.2,9.138-9.2C33.836,104.478,51.88,99.411,59.5,103.8c9.783,5.638,12.611-1.021,13.6-4.06C76.492,89.255,93.227,90,99.953,95.6c4.024,3.352,3.987,6.09,4.52,10,.659,4.844,5.66,5.83,10.877,5.494,5.08-.327,8.9,1.579,10.194,5,2.252,5.965-3.632,11.511-.134,15.976,1.134,1.448,3.056,2.108,4.7,3.033a12.982,12.982,0,0,1,6.585,12.869c-.642,4.329-4.185,8.363-3.331,12.66,1.261,6.34-6.179,9.173-11.174,9.122S35.538,169.765,35.538,169.765Zm72.278-61.844a3.189,3.189,0,0,0,1.655.776,5.877,5.877,0,0,0,2.885,0,2.238,2.238,0,0,0,1.411-1.026,2.994,2.994,0,0,0,.234-1.227c.1-2.151-.8-5.175-3.628-4.523C108.262,102.4,106.082,106.133,107.817,107.921Zm-42.3-11.43c2.162-.253,3.33,1.627,3.632,3.5a2.539,2.539,0,0,1-.53,2.129,3.783,3.783,0,0,1-3.12.736,6.125,6.125,0,0,1-2.238-.472,2.21,2.21,0,0,1-1.319-1.739C61.85,99.037,63.908,96.679,65.522,96.49Zm-5.494-2.273c1.157-.122,1.511,1.158.6,1.844a1.2,1.2,0,0,1-.454.208,1.187,1.187,0,0,1-.922-.154C58.2,95.407,59.094,94.315,60.028,94.217ZM33,117.741a4.884,4.884,0,0,0,.1-1.781c.011-.549.141-.883.734-.985.971-.166,1.707.643,2.222,1.336a5.145,5.145,0,0,1,.844,1.5,3.9,3.9,0,0,1,.149,1.3,1.955,1.955,0,0,1-.14.736,2.321,2.321,0,0,1-.689.78,7.724,7.724,0,0,1-2,1.3,3.014,3.014,0,0,1-2.335.045,1.457,1.457,0,0,1-.8-.779,1.69,1.69,0,0,1,.349-1.5C31.907,119.033,32.691,118.516,33,117.741Zm97.273,11.447c-.642-1.056-1.989-1.633-2.5-2.751a3.568,3.568,0,0,1,2.6-4.725c5.334-1.209,7.863,7.2,5,10.593a2.485,2.485,0,0,1-3.366.279C130.978,131.711,130.932,130.279,130.269,129.188Z" transform="translate(-22.514 -88.224)" fill="#e5ecf7"/>
      <g id="Group_2373" data-name="Group 2373" transform="translate(0)">
        <g id="Group_2339" data-name="Group 2339" transform="translate(73.153 16.993)">
          <path id="Path_1959" data-name="Path 1959" d="M579.137,255.9a9.055,9.055,0,0,1,1.816-6.2c1.486-2.159,3.464-3.955,4.853-6.176,3.384-5.413,2.7-12.632-.246-18.3-2.672-5.141-7.2-10.328-5.652-15.911.815-2.944,3.188-5.147,4.884-7.688s2.627-6.2.588-8.478a6.107,6.107,0,0,0-4.935-1.69,10.244,10.244,0,0,0-8.315,5.371c-1.213,2.317-1.49,5.041-2.751,7.332-1.64,2.98-4.7,4.841-7.15,7.2a22.263,22.263,0,0,0-4.993,23.9c.849,2.058.231,3.883-1.168,5.613-.709.878-1.631,1.58-2.249,2.525a7.022,7.022,0,0,0-.985,3.843,13.007,13.007,0,0,0,3.707,8.659Z" transform="translate(-552.835 -191.441)" fill="#ffc957"/>
          <path id="Path_1960" data-name="Path 1960" d="M599.749,201.1a21.357,21.357,0,0,0-3.921,3.8,7.992,7.992,0,0,1-.3-3.549c.057-.405-.563-.58-.621-.171a8.716,8.716,0,0,0,.454,4.33,21.279,21.279,0,0,0-4.178,14.7,45.121,45.121,0,0,0,1.109,5.83,25.906,25.906,0,0,1-5.444-9.267c-.131-.391-.752-.223-.621.171a26.659,26.659,0,0,0,6.352,10.333,30.059,30.059,0,0,1,.875,5.85.26.26,0,0,0,0,.224c0,.209.007.419,0,.629a19.8,19.8,0,0,1-.886,5.239A43.544,43.544,0,0,1,581.2,227.059c-.22-.35-.777-.027-.556.325a44.363,44.363,0,0,0,11.726,12.479,80.5,80.5,0,0,1-3.294,7.872c-1.971,4.408-3.661,9.086-2.893,13.98.064.408.685.234.621-.171-.773-4.923.957-9.34,2.925-13.723a.328.328,0,0,0,.094-.026,26.287,26.287,0,0,0,9-7.472c.252-.328-.307-.649-.556-.325a25.558,25.558,0,0,1-8.11,6.888c1.59-3.5,3.23-7,3.764-10.741a16.914,16.914,0,0,0,.156-2.742,20.139,20.139,0,0,0,5.04-6.717c.173-.373-.381-.7-.556-.325a19.716,19.716,0,0,1-4.518,6.2,34.416,34.416,0,0,0-.811-5.232.291.291,0,0,0-.051-.367l-.039-.041c-.2-.887-.406-1.773-.6-2.662a29.62,29.62,0,0,1-.733-5.418,24.582,24.582,0,0,0,6.293-5.706c.251-.323-.2-.782-.455-.455a24.117,24.117,0,0,1-5.851,5.4,19.631,19.631,0,0,1,.833-5.776,21.034,21.034,0,0,1,3.175-6.329c.2-.005.379-.153.286-.381h0a20.543,20.543,0,0,1,4-3.941C600.4,201.411,600.081,200.852,599.749,201.1Z" transform="translate(-571.577 -197.857)" fill="#e0b35b"/>
        </g>
        <g id="Group_2346" data-name="Group 2346" transform="translate(19.665 8.52)">
          <g id="Group_2340" data-name="Group 2340" transform="translate(5.437 4.966)">
            <path id="Path_1961" data-name="Path 1961" d="M404.928,181.162a58.793,58.793,0,0,1,10.787,29.74.339.339,0,0,0,.677-.046,60.011,60.011,0,0,0-7.051-23.908,59.373,59.373,0,0,0-3.852-6.168c-.253-.355-.815.025-.561.382Z" transform="translate(-404.863 -180.639)" fill="#6aa5fe"/>
          </g>
          <g id="Group_2341" data-name="Group 2341" transform="translate(5.879 9.793)">
            <path id="Path_1962" data-name="Path 1962" d="M410.526,198.13a23.3,23.3,0,0,0-3.8-2.583.339.339,0,0,0-.323.6,22.565,22.565,0,0,1,4.444,3.161C410.724,198.917,410.62,198.525,410.526,198.13Z" transform="translate(-406.226 -195.503)" fill="#6aa5fe"/>
          </g>
          <g id="Group_2342" data-name="Group 2342" transform="translate(11.512 9.553)">
            <path id="Path_1963" data-name="Path 1963" d="M424.706,195.028l-1.127,5.779a.34.34,0,0,0,.665.135q.564-2.89,1.127-5.78a.339.339,0,0,0-.665-.135Z" transform="translate(-423.572 -194.766)" fill="#6aa5fe"/>
          </g>
          <g id="Group_2343" data-name="Group 2343" transform="translate(8.558 17.567)">
            <path id="Path_1964" data-name="Path 1964" d="M414.642,220.1l4.777,2.944c.372.229.671-.381.3-.608l-4.777-2.944c-.372-.229-.671.381-.3.608Z" transform="translate(-414.474 -219.443)" fill="#6aa5fe"/>
          </g>
          <path id="Path_1965" data-name="Path 1965" d="M397.653,167.437c1.458,1.978.615,5.074.615,5.074s-3.206-.112-4.664-2.09-.616-5.074-.616-5.074S396.2,165.459,397.653,167.437Z" transform="translate(-391.245 -165.347)" fill="#6aa5fe"/>
          <path id="Path_1966" data-name="Path 1966" d="M393.2,187.5c2.267.948,3.136,4.036,3.136,4.036s-2.808,1.553-5.075.6-3.136-4.036-3.136-4.036S390.929,186.549,393.2,187.5Z" transform="translate(-388.121 -180.097)" fill="#6aa5fe"/>
          <path id="Path_1967" data-name="Path 1967" d="M405.308,209.9c2.056,1.347,2.345,4.542,2.345,4.542s-3.045,1.013-5.1-.334-2.344-4.542-2.344-4.542S403.253,208.555,405.308,209.9Z" transform="translate(-396.283 -194.961)" fill="#6aa5fe"/>
          <g id="Group_2344" data-name="Group 2344" transform="translate(10.647 25.651)">
            <path id="Path_1968" data-name="Path 1968" d="M421.077,244.995l4.777,2.944c.372.23.671-.38.3-.608l-4.777-2.944c-.372-.23-.671.38-.3.608Z" transform="translate(-420.909 -244.337)" fill="#6aa5fe"/>
          </g>
          <path id="Path_1969" data-name="Path 1969" d="M411.743,234.795c2.056,1.346,2.345,4.542,2.345,4.542s-3.045,1.013-5.1-.334-2.344-4.542-2.344-4.542S409.688,233.448,411.743,234.795Z" transform="translate(-400.628 -211.77)" fill="#6aa5fe"/>
          <path id="Path_1970" data-name="Path 1970" d="M426.7,184.07c-.625,2.377-3.565,3.663-3.565,3.663s-1.925-2.567-1.3-4.943,3.565-3.663,3.565-3.663S427.329,181.694,426.7,184.07Z" transform="translate(-410.805 -174.652)" fill="#6aa5fe"/>
          <g id="Group_2345" data-name="Group 2345" transform="translate(14.183 17.304)">
            <path id="Path_1971" data-name="Path 1971" d="M432.93,218.9l-1.127,5.78a.339.339,0,0,0,.665.135l1.127-5.779a.34.34,0,0,0-.665-.135Z" transform="translate(-431.796 -218.634)" fill="#6aa5fe"/>
          </g>
          <path id="Path_1972" data-name="Path 1972" d="M434.927,207.938c-.625,2.377-3.565,3.663-3.565,3.663s-1.925-2.567-1.3-4.943,3.564-3.663,3.564-3.663S435.553,205.562,434.927,207.938Z" transform="translate(-416.359 -190.769)" fill="#6aa5fe"/>
        </g>
        <g id="Group_2354" data-name="Group 2354" transform="translate(0 37.056)">
          <path id="Path_1973" data-name="Path 1973" d="M340.872,282.17c2.157,3.554.766,8.017-.953,11.909h20.2c.825-4.057,1.3-8.256.39-12.283-.972-4.292-3.787-8.382-7.938-9.843-1.96-.69-4.16-.794-5.9-1.931-3.907-2.554-3.363-8.549-6.1-12.33-2.8-3.864-8.234-4.5-13-4.468,3.173,1.928,3.026,6.483,2.838,10.191s-.689,7.76,1.395,10.833C334.068,277.6,338.771,278.71,340.872,282.17Z" transform="translate(-327.564 -253.222)" fill="#6aa5fe"/>
          <path id="Union_72" data-name="Union 72" d="M19.889,37a12.352,12.352,0,0,0-1.133-9.223,12.447,12.447,0,0,0-6.43-5.593c-2.652-1.078-5.327-2-6.9-4.564q-.091-.148-.175-.3L5.211,17.3.968,15.436c-.556-.245-.075-1.058.477-.815l3.2,1.407c-1.026-2.638-1.03-5.651-1.406-8.506l-3-1.692a.473.473,0,0,1,.477-.815l2.343,1.32A10.352,10.352,0,0,0,.515.813C.1.371.763-.3,1.182.145c2.4,2.535,2.845,6.072,3.162,9.4a32.491,32.491,0,0,0,.623,4.391A19.288,19.288,0,0,0,7.474,6.791c.085-.6.995-.343.91.251a19.886,19.886,0,0,1-3.067,8.124,8.354,8.354,0,0,0,1.937,3.273c1.865,1.88,4.57,2.421,6.912,3.563a32.8,32.8,0,0,0-.678-6.26c-.124-.594.787-.845.911-.251a34.058,34.058,0,0,1,.714,7.023q.275.166.538.351a13.3,13.3,0,0,1,4.59,5.846,23.094,23.094,0,0,0,1.178-7.769.473.473,0,0,1,.944,0,23.87,23.87,0,0,1-1.5,8.841.483.483,0,0,1-.165.225,13.1,13.1,0,0,1,.1,7.241.435.435,0,0,1-.436.334A.461.461,0,0,1,19.889,37Z" transform="translate(4.634 3.244)" fill="#1a55b5" stroke="rgba(0,0,0,0)" stroke-width="1"/>
          <g id="Group_2349" data-name="Group 2349" transform="translate(15.254 27.281)">
            <path id="Path_1976" data-name="Path 1976" d="M374.77,338.112a11.694,11.694,0,0,0,6.894,1.476c.6-.057.606-1,0-.944a10.823,10.823,0,0,1-6.418-1.347.473.473,0,0,0-.477.815Z" transform="translate(-374.539 -337.232)" fill="#9ed8ae"/>
          </g>
        </g>
        <path id="Path_1981" data-name="Path 1981" d="M521.11,239.366h-1.374a9.277,9.277,0,0,0-1.187-2.907l.959-.959a1.67,1.67,0,0,0,0-2.356l-.583-.582a1.67,1.67,0,0,0-2.355,0l-.945.945a9.277,9.277,0,0,0-2.921-1.222v-1.325a1.67,1.67,0,0,0-1.666-1.666h-.824a1.67,1.67,0,0,0-1.666,1.666v1.325a9.276,9.276,0,0,0-2.921,1.222l-.945-.945a1.67,1.67,0,0,0-2.356,0l-.582.582a1.671,1.671,0,0,0,0,2.356l.959.959a9.278,9.278,0,0,0-1.187,2.907h-1.374a1.67,1.67,0,0,0-1.666,1.666v.824a1.67,1.67,0,0,0,1.666,1.666h1.4a9.28,9.28,0,0,0,1.207,2.857l-1.009,1.009a1.67,1.67,0,0,0,0,2.355l.582.583a1.67,1.67,0,0,0,2.356,0l1.023-1.023a9.273,9.273,0,0,0,2.843,1.172v1.453a1.67,1.67,0,0,0,1.666,1.666h.824a1.67,1.67,0,0,0,1.666-1.666v-1.453a9.273,9.273,0,0,0,2.843-1.172l1.023,1.023a1.67,1.67,0,0,0,2.355,0l.583-.583a1.67,1.67,0,0,0,0-2.355l-1.009-1.009a9.278,9.278,0,0,0,1.207-2.857h1.4a1.671,1.671,0,0,0,1.666-1.666v-.824A1.671,1.671,0,0,0,521.11,239.366Zm-10.483,7.156a5.142,5.142,0,1,1,5.142-5.142A5.148,5.148,0,0,1,510.627,246.522Z" transform="translate(-442.976 -200.009)" fill="#0268f5" opacity="0.3"/>
        <path id="Path_1982" data-name="Path 1982" d="M587.488,235.731h-.943a6.359,6.359,0,0,0-.815-2l.659-.659a1.147,1.147,0,0,0,0-1.617l-.4-.4a1.147,1.147,0,0,0-1.617,0l-.649.649a6.374,6.374,0,0,0-2.005-.839v-.91a1.147,1.147,0,0,0-1.144-1.143h-.566a1.147,1.147,0,0,0-1.143,1.143v.91a6.372,6.372,0,0,0-2.006.839l-.649-.649a1.147,1.147,0,0,0-1.617,0l-.4.4a1.147,1.147,0,0,0,0,1.617l.659.659a6.36,6.36,0,0,0-.815,2h-.943a1.147,1.147,0,0,0-1.143,1.143v.566a1.147,1.147,0,0,0,1.143,1.144h.964a6.365,6.365,0,0,0,.829,1.961l-.693.693a1.147,1.147,0,0,0,0,1.617l.4.4a1.147,1.147,0,0,0,1.617,0l.7-.7a6.372,6.372,0,0,0,1.952.8v1a1.147,1.147,0,0,0,1.143,1.143h.566a1.147,1.147,0,0,0,1.144-1.143v-1a6.373,6.373,0,0,0,1.952-.8l.7.7a1.147,1.147,0,0,0,1.617,0l.4-.4a1.147,1.147,0,0,0,0-1.617l-.693-.693a6.364,6.364,0,0,0,.829-1.961h.964a1.147,1.147,0,0,0,1.144-1.144v-.566A1.147,1.147,0,0,0,587.488,235.731Zm-7.2,4.913a3.53,3.53,0,1,1,3.531-3.53A3.534,3.534,0,0,1,580.29,240.643Z" transform="translate(-492.589 -199.686)" fill="#ffe8b8"/>
        <path id="Path_1983" data-name="Path 1983" d="M553.933,196.926h-.84a5.668,5.668,0,0,0-.726-1.778l.587-.587a1.022,1.022,0,0,0,0-1.441l-.356-.356a1.022,1.022,0,0,0-1.441,0l-.578.578a5.669,5.669,0,0,0-1.787-.748v-.81a1.022,1.022,0,0,0-1.019-1.019h-.5a1.022,1.022,0,0,0-1.019,1.019v.81a5.669,5.669,0,0,0-1.787.748l-.578-.578a1.022,1.022,0,0,0-1.441,0l-.356.356a1.021,1.021,0,0,0,0,1.441l.586.587a5.675,5.675,0,0,0-.726,1.778h-.84a1.022,1.022,0,0,0-1.019,1.019v.5a1.022,1.022,0,0,0,1.019,1.019h.858a5.678,5.678,0,0,0,.738,1.747l-.617.617a1.021,1.021,0,0,0,0,1.441l.356.356a1.022,1.022,0,0,0,1.441,0l.626-.626a5.672,5.672,0,0,0,1.739.717v.888a1.022,1.022,0,0,0,1.019,1.019h.5a1.022,1.022,0,0,0,1.019-1.019v-.888a5.672,5.672,0,0,0,1.739-.717l.626.626a1.022,1.022,0,0,0,1.441,0l.356-.356a1.022,1.022,0,0,0,0-1.441l-.617-.617a5.678,5.678,0,0,0,.738-1.747h.858a1.022,1.022,0,0,0,1.019-1.019v-.5A1.022,1.022,0,0,0,553.933,196.926Zm-6.412,4.376a3.145,3.145,0,1,1,3.145-3.145A3.148,3.148,0,0,1,547.521,201.3Z" transform="translate(-471.076 -173.992)" fill="#f52424" opacity="0.2"/>
        <g id="Group_6629" data-name="Group 6629" transform="translate(-396.003 -232.671)">
          <g id="Group_6576" data-name="Group 6576" transform="translate(424.409 235.957)">
            <path id="Path_2977" data-name="Path 2977" d="M1007.949,908.731s4.589,8.545,5.019,8.825,8.234,2.994,8.234,2.994v-1.812s-5.973-3.94-6.028-4.412-4.218-9.7-4.218-9.7Z" transform="translate(-980.493 -863.291)" fill="#f28e66"/>
            <path id="Path_2978" data-name="Path 2978" d="M947.34,740.734a10.446,10.446,0,0,1,4.968,2.776c1.3,1.4,3.127,11.334,3.127,11.334a4.31,4.31,0,0,1-4.121,2.443l-3.139-6.031Z" transform="translate(-923.63 -709.534)" fill="#8ab8ff"/>
            <path id="Path_2979" data-name="Path 2979" d="M956.576,801.186c-.212-2.355-4.064-7.87-4.064-7.87l-.72,2.111.561,5.161,3.139,6.031a4.4,4.4,0,0,0,1.666-.227C957.09,805.858,956.766,803.285,956.576,801.186Z" transform="translate(-927.808 -758.866)" fill="#eda503"/>
            <path id="Path_2980" data-name="Path 2980" d="M940.16,658.543a6.345,6.345,0,0,0-2.791,1.263c-.788.869-4.991,12.785-5.739,14.337s-3.746,4.487-3.746,4.487l-1.282,6.521s6.013-3.565,7.747-4.54,5.215-8.287,6.349-9.714S940.16,658.543,940.16,658.543Z" transform="translate(-904.174 -632.423)" fill="#1a55b5"/>
            <path id="Path_2981" data-name="Path 2981" d="M941.039,819.169l-.794-1.242s-.786-.105-1.989,2.259-2.621,8.878-3.934,9.3c-1.257.4-5.62,1.142-7.152,2.31l-.568,2.89s6.013-3.565,7.747-4.54,5.215-8.287,6.349-9.714A2.627,2.627,0,0,0,941.039,819.169Z" transform="translate(-904.174 -781.956)" fill="#00378e"/>
            <g id="Group_6534" data-name="Group 6534" transform="translate(34.818 0)">
              <g id="Group_6533" data-name="Group 6533" transform="translate(0 2.454)">
                <g id="Group_6524" data-name="Group 6524" transform="translate(0.692)">
                  <g id="Group_6523" data-name="Group 6523">
                    <g id="Group_6522" data-name="Group 6522">
                      <path id="Path_2982" data-name="Path 2982" d="M1538.187,1360.71s-.883.648-.968.572a.993.993,0,0,1,.536-1.253s.073-.5.241-1.276l-.369-1.822.473-.119,1.221,1.644Z" transform="translate(-1512.497 -1289.988)" fill="#ba5d3d"/>
                      <path id="Path_2983" data-name="Path 2983" d="M1536.336,1349.78a2.618,2.618,0,0,1-.6.2c-.1-.018-.485-.526.9-1.49,0,0,.189-1.292.216-1.791,0,0-.438-.931-1.158-2.193-.189-.332.459-.475.459-.475l1.41,2.864-.6,2.6Z" transform="translate(-1511.045 -1278)" fill="#d8744f"/>
                      <path id="Path_2984" data-name="Path 2984" d="M1514.143,1286.746a12.165,12.165,0,0,1-.607,1.994,5.2,5.2,0,0,0-.479,1.558,20.159,20.159,0,0,0-.167,3.095,12.88,12.88,0,0,0,.455,1.314s.723-.251.573-1.363a3.5,3.5,0,0,1,.735-2.4,6.733,6.733,0,0,1,1.205,2.506s-.2,1.2-.333,1.77c0,0-1.53,1.064-.979,1.841,0,0,1.472-.981,2.067-1.308.435-.24.617-3.685.637-4.052s-.5-4.5-.564-4.815Z" transform="translate(-1489.705 -1224.252)" fill="#f28e66"/>
                      <path id="Path_2985" data-name="Path 2985" d="M1444.325,664.156s2.63.968,3.64,2.392c1.13,1.594,1.5,10.746,1.809,12.973s.574,2.674.24,5.078a4.187,4.187,0,0,1,.683,2,20.955,20.955,0,0,0-.013,2.631c.02,1.429.509,9.642.31,11.3-.16,1.319-3.549.32-3.549.32s-.781-6.084-1.259-9.182c-.354-2.289-.888-5.422-1.063-6.607s-1.778-7.775-2.61-7.795Z" transform="translate(-1423.705 -640.144)" fill="#1a55b5"/>
                      <path id="Path_2986" data-name="Path 2986" d="M1450.993,828.883c.005-.05.011-.107.015-.169-.6-.018-1.2-1.122-1.707-1.343-.551-.24-.952.79-1.537.916s.684-1.962.815-2.428-.876-1.31-1.09-1.9a11.171,11.171,0,0,1-.475-2.235c.015-.262,2.335,2.546,2.48,2.08s-2.08-2.69-2.5-3.66-.77-2.3-.367-2.439,3.653,3.933,3.781,3.519-4.063-4.639-4.063-4.639,1.1-1.886,1.285-2.35-1.991-2.107-2.228-2.593.531-3.023.891-4.792-2.943-5.893-2.943-5.893c-.184.042-.164.673-.305.808l-.532,3.854c.832.02,2.436,6.61,2.61,7.795s.71,4.317,1.063,6.607c.478,3.1,1.259,9.182,1.259,9.182S1450.833,830.2,1450.993,828.883Z" transform="translate(-1423.705 -768.489)" fill="#00378e"/>
                      <g id="Group_6521" data-name="Group 6521">
                        <g id="Group_6520" data-name="Group 6520">
                          <path id="Path_2987" data-name="Path 2987" d="M1147.422,1233.733l.3-3.781c.083,0,1.239,0,1.321,0l.3,3.781h9.127c.045-2.661.062-4.71.038-5.792-.1-4.494-.456-11.177-.456-11.177l-9.672.6-9.344-1.036s-.684,7.116-.783,11.609c-.024,1.082-.007,3.131.038,5.792Z" transform="translate(-1138.246 -1158.19)" fill="#412a25"/>
                          <path id="Path_2988" data-name="Path 2988" d="M1147.422,1233.733l.3-3.781c.083,0,1.239,0,1.321,0l.3,3.781h9.164c.023-2.658.026-4.707,0-5.792-.1-4.494-.456-11.177-.456-11.177l-9.672.6-9.344-1.036s-.684,7.116-.783,11.609c-.024,1.082-.007,3.131.038,5.792Z" transform="translate(-1138.246 -1158.19)" fill="#1a55b5"/>
                          <g id="Group_6500" data-name="Group 6500" transform="translate(0 60.958)">
                            <path id="Path_2989" data-name="Path 2989" d="M1139.876,1276.483a22.8,22.8,0,0,1-.616-2.326c-.147-1.339,2.2-4.727,2.512-6.436.218-1.184,9.337,2.582,16.541-2.764-.026-.58-.105-2.378-.129-2.873-3.044.492-13.974,2.032-19.392-.185-.029.344-.059.713-.089,1.1,0,.047-.007.095-.011.141-.006.064-.011.128-.015.193-.007.09-.015.181-.021.273,0,.042-.007.083-.009.125h0c-.171,2.239-.343,4.883-.389,6.965-.024,1.082-.007,3.131.038,5.792Z" transform="translate(-1138.246 -1261.898)" fill="#003995" opacity="0.6"/>
                            <path id="Path_2990" data-name="Path 2990" d="M1316.136,1440.469a31.1,31.1,0,0,0-3.175-3.781l.279,3.781Z" transform="translate(-1302.162 -1425.884)" fill="#00378e"/>
                          </g>
                          <path id="Path_2991" data-name="Path 2991" d="M1165.444,1219.945c-.087-1.861-.157-3.182-.157-3.182l-9.672.6-9.344-1.036s-.149,1.554-.318,3.668A39.5,39.5,0,0,0,1165.444,1219.945Z" transform="translate(-1145.477 -1158.19)" fill="#000b11"/>
                          <path id="Path_2992" data-name="Path 2992" d="M1160,556.374c-.087-.4-.178-.638-.26-.683-.578-.315-7.091-2.206-7.091-2.206-.367-.63-.391-3.887-.391-3.887l-2.772-1.036v-.015l-.02.008-.02-.008v.015l-2.772,1.036s-.024,3.257-.392,3.887c0,0-6.054,1.771-6.632,2.086a1.778,1.778,0,0,0-.347.823l10.084.559Z" transform="translate(-1139.236 -531.68)" fill="#fcbda5"/>
                          <path id="Path_2993" data-name="Path 2993" d="M1261.927,553.012a3.915,3.915,0,0,0,1.615-.8c-.118-1.155-.129-2.617-.129-2.617l-2.772-1.036v-.015l-.02.008-.02-.008v.015l-2.772,1.036s-.005.711-.048,1.532C1258.717,551.791,1260.883,553.214,1261.927,553.012Z" transform="translate(-1250.393 -531.68)" fill="#fc9f7a"/>
                          <g id="Group_6519" data-name="Group 6519" transform="translate(1.912)">
                            <g id="Group_6512" data-name="Group 6512">
                              <g id="Group_6511" data-name="Group 6511">
                                <g id="Group_6505" data-name="Group 6505" transform="translate(14.787 8.442)">
                                  <path id="Path_2994" data-name="Path 2994" d="M1408.682,413.493a2.5,2.5,0,0,1,1.8-1.251c.65-.01.458,2.659-.213,3.349a1.112,1.112,0,0,1-1.861-.151Z" transform="translate(-1408.406 -412.242)" fill="#fcbda5"/>
                                </g>
                                <path id="Path_2998" data-name="Path 2998" d="M1204.839,295.365s3.309-1.59,4.449-3.375c.937-1.253,1.709-7.64,1.816-8.632,0-.033.007-.066.011-.1s0-.049,0-.049h0c.018-.205.028-.412.028-.622a6.925,6.925,0,1,0-13.811.736h0s.794,7.292,1.82,8.664c1.206,2.047,4.449,3.375,4.449,3.375A2.056,2.056,0,0,0,1204.839,295.365Z" transform="translate(-1195.559 -275.664)" fill="#fcbda5"/>
                                <path id="Path_2999" data-name="Path 2999" d="M1228.208,311.161a9.372,9.372,0,0,0-1.586.512c-.138.148,1.25-2.521,3.152-.916Z" transform="translate(-1223.062 -308.104)" fill="#000002"/>
                                <g id="Group_6510" data-name="Group 6510" transform="translate(0 8.733)">
                                  <path id="Path_3000" data-name="Path 3000" d="M1171.375,418.211a2.5,2.5,0,0,0-1.8-1.251c-.65-.01-.458,2.659.212,3.349a1.112,1.112,0,0,0,1.86-.151Z" transform="translate(-1169.178 -416.961)" fill="#fcbda5"/>
                                </g>
                              </g>
                            </g>
                          </g>
                        </g>
                      </g>
                      <path id="Path_3014" data-name="Path 3014" d="M1147.336,1278.414" transform="translate(-1146.774 -1216.435)" fill="#fff"/>
                      <path id="Path_3015" data-name="Path 3015" d="M1154.856,1246.9a10.7,10.7,0,0,0-.158,2.024.987.987,0,0,0,.749.216,10.725,10.725,0,0,0,.256-2s.049-.236-.1-.3C1155.342,1246.736,1154.895,1246.589,1154.856,1246.9Z" transform="translate(-1153.654 -1186.693)" fill="#1d5a7c"/>
                      <path id="Path_3016" data-name="Path 3016" d="M1214.344,1258.789a10.653,10.653,0,0,0-.157,2.024.985.985,0,0,0,.748.217,10.787,10.787,0,0,0,.255-2s.05-.236-.1-.3C1214.831,1258.625,1214.382,1258.478,1214.344,1258.789Z" transform="translate(-1209.466 -1197.847)" fill="#1d5a7c"/>
                      <path id="Path_3017" data-name="Path 3017" d="M1425.347,1250.99a10.7,10.7,0,0,1,.157,2.023.987.987,0,0,1-.749.217,10.779,10.779,0,0,1-.256-2s-.049-.236.1-.3C1424.86,1250.826,1425.309,1250.679,1425.347,1250.99Z" transform="translate(-1406.799 -1190.53)" fill="#1d5a7c"/>
                      <path id="Path_3018" data-name="Path 3018" d="M1365.849,1262.886a10.693,10.693,0,0,1,.158,2.024.986.986,0,0,1-.748.216,10.627,10.627,0,0,1-.258-2s-.049-.236.1-.3C1365.363,1262.721,1365.811,1262.575,1365.849,1262.886Z" transform="translate(-1350.979 -1201.69)" fill="#1d5a7c"/>
                      <path id="Path_3019" data-name="Path 3019" d="M1270.723,1267.058a.158.158,0,0,1-.158.157h-3.723a.158.158,0,0,1-.158-.157v-1.841a.158.158,0,0,1,.158-.158h3.723a.158.158,0,0,1,.158.158Z" transform="translate(-1258.745 -1203.905)" fill="#7ea0a9"/>
                      <path id="Path_3020" data-name="Path 3020" d="M1266.684,1287.5v.612a.158.158,0,0,0,.158.157h3.723a.158.158,0,0,0,.158-.157v-.612Z" transform="translate(-1258.745 -1224.963)" fill="#60848c"/>
                      <path id="Path_3021" data-name="Path 3021" d="M1270.723,1265.3v-.087a.158.158,0,0,0-.158-.158h-3.723a.158.158,0,0,0-.158.158v.087Z" transform="translate(-1258.745 -1203.905)" fill="#ccdfe3"/>
                      <path id="Path_3022" data-name="Path 3022" d="M1519.154,1252.527l-.4-2.6,3.933-.161-.076,2.655Z" transform="translate(-1495.239 -1189.553)" fill="#67caee"/>
                    </g>
                  </g>
                </g>
                <path id="Path_3023" data-name="Path 3023" d="M1177.817,626.539l-5.237-1.746a3.846,3.846,0,0,1-2.987,3.648,4.424,4.424,0,0,1-3.2-3.648l-5.75,1.8v39.951h17.176Z" transform="translate(-1158.565 -603.214)" fill="#8ab8ff"/>
                <path id="Path_3025" data-name="Path 3025" d="M1273.148,684.527s1.2,2.564,1.4,2.4,1.1,0,1.1,0a26.376,26.376,0,0,0,.827-2.523l-1.33-.6Z" transform="translate(-1264.118 -658.582)" fill="#00378e"/>
                <g id="Group_6525" data-name="Group 6525" transform="translate(7.032 21.733)">
                  <path id="Path_3026" data-name="Path 3026" d="M1241.637,627.277a.967.967,0,0,0-.38.152c-.761.628-.341,6.569,0,6.464s3.568-3.122,3.568-3.122A4.45,4.45,0,0,1,1241.637,627.277Z" transform="translate(-1240.829 -627.277)" fill="#c3d8f6"/>
                  <path id="Path_3027" data-name="Path 3027" d="M1308.447,629.148a3.792,3.792,0,0,1-2.967,3.379l3.838,3.123c.132-.918-.485-6.465-.485-6.465Z" transform="translate(-1301.484 -629.032)" fill="#c3d8f6"/>
                </g>
                <path id="Path_3028" data-name="Path 3028" d="M1364.258,628.284l-7.305-2.436v43.046a34.8,34.8,0,0,0,7.246-1.234s0-.988-.487-9.464c-.138-2.4.518-7.867,0-11.665,0,0,.688-6.441.922-9.662A56.184,56.184,0,0,0,1364.258,628.284Z" transform="translate(-1342.743 -604.203)" fill="#1a55b5"/>
                <path id="Path_3029" data-name="Path 3029" d="M1134.8,625.188l-7.249,2.271a66.665,66.665,0,0,0,.668,16.214s-.424,8.536-.477,10.48c-.049,1.807-1.109,13.021-.507,13.552a67.84,67.84,0,0,0,7.565.673Z" transform="translate(-1127.053 -603.584)" fill="#1a55b5"/>
                <path id="Path_3030" data-name="Path 3030" d="M1192.811,611.313a5.547,5.547,0,0,0-2.078,1.6c-.75,1.041-2.092,13.568-2.092,13.568l2.333,1.419-1.063,3.624s2.2,7.88,2.672,7.8Z" transform="translate(-1184.834 -590.567)" fill="#3176e8"/>
                <path id="Path_3031" data-name="Path 3031" d="M1350.992,611.313a5.548,5.548,0,0,1,2.077,1.6c.75,1.041,2.092,13.568,2.092,13.568l-2.332,1.419,1.062,3.624s-2.058,7.958-2.531,7.88Z" transform="translate(-1337.151 -590.567)" fill="#3176e8"/>
                <path id="Path_3032" data-name="Path 3032" d="M1280.094,726.019l-.907,14.738,1.261,2.088,1.1-2.206-.276-14.62Z" transform="translate(-1269.784 -698.183)" fill="#00378e"/>
              </g>
              <path id="Path_3042" data-name="Path 3042" d="M1174.936,247.582l.123.13.426.45a9.215,9.215,0,0,0,.74-4.054s1.536-3.9,2.364-2.64c0,0,.24-.906.612-.591s5.236,4.066,9.03,3.609a15.32,15.32,0,0,1,.426,3.412l.845-.809a9.168,9.168,0,0,0,.86-3.691,9.678,9.678,0,0,0-10.491-7.406,2.768,2.768,0,0,0-1.664.906,3.977,3.977,0,0,0-2.289.34c-.882.552-3.457,6.862-1.437,10.057Z" transform="translate(-1170.84 -235.957)" fill="#190e10"/>
              <path id="Path_3043" data-name="Path 3043" d="M1201.164,268.44a4.581,4.581,0,0,1-3.824.937c-2.1-.419-5.972-2.884-8.875-.995-.14.3-.28.644-.414,1.013.791-.589,2.255-1.4,3.6-.648,1.745.982,9.873,5.808,12.007,3.874A10.776,10.776,0,0,0,1201.164,268.44Z" transform="translate(-1184.281 -265.718)" fill="#2a1b1c"/>
            </g>
            <g id="Group_6575" data-name="Group 6575" transform="translate(0 4.861)">
              <path id="Path_3044" data-name="Path 3044" d="M681.646,553.958s-4.248-.276-5.753-2.463-.183-7.086-.183-7.086l5.831,5.642Z" transform="translate(-668.286 -530.206)" fill="#4e150c"/>
              <path id="Path_3045" data-name="Path 3045" d="M843.6,547.315s-.789,6.544.272,8.051a14.618,14.618,0,0,1-7.279,1.743v-4.372l4.624-6.186Z" transform="translate(-819.725 -532.214)" fill="#4e150c"/>
              <g id="Group_6562" data-name="Group 6562" transform="translate(0 2.982)">
                <g id="Group_6560" data-name="Group 6560">
                  <g id="Group_6559" data-name="Group 6559">
                    <g id="Group_6537" data-name="Group 6537" transform="translate(0 16.955)">
                      <g id="Group_6536" data-name="Group 6536">
                        <path id="Path_3046" data-name="Path 3046" d="M657.068,1312.431a25.118,25.118,0,0,0,.231-3.285c-.006-6.277-1.257-8.932-1.257-8.932l-9.389.191-9.389-.191s-1.252,2.654-1.256,8.932a25.118,25.118,0,0,0,.231,3.285Z" transform="translate(-631.541 -1259.231)" fill="#1a55b5"/>
                        <g id="Group_6535" data-name="Group 6535" transform="translate(4.467 40.984)">
                          <path id="Path_3047" data-name="Path 3047" d="M638.075,1312.431c-.243-5.264-.081-9.822.048-12.2l-.859-.018s-1.252,2.654-1.256,8.932a25.118,25.118,0,0,0,.231,3.285Z" transform="translate(-636.008 -1300.215)" fill="#00101b"/>
                        </g>
                        <path id="Path_3048" data-name="Path 3048" d="M663.56,643.289c-1.91-.575-4.113-1.2-4.113-1.2a6.47,6.47,0,0,1-.885-3.887l-2.279-1.036v-.016l-.021.008-.021-.008v.016l-2.276,1.036s0,2.862-.887,3.887c0,0-6.513,1.89-7.092,2.205-.083.045-.168.288-.246.684l11.083,5.849,6.736-3.951Z" transform="translate(-640.674 -637.148)" fill="#ffc7b1"/>
                        <path id="Path_3049" data-name="Path 3049" d="M565.608,896.383l4.13,2.59c-.806,2.97-1.839,8.753-1.839,8.753-.122,5.6-2.482,16.081-2.482,16.081l-1.35-.067c.494-10.422,1.113-16.069,1.113-16.069C565.395,906.2,565.435,903.009,565.608,896.383Z" transform="translate(-564.046 -880.36)" fill="#ffc7b1"/>
                        <path id="Path_3050" data-name="Path 3050" d="M589.158,962.361c-.136-.169-.232-.269-.232-.269l-3.457-.526c-.045,1.789-.082,3.211-.125,4.336a8.282,8.282,0,0,0,3.08-.008C588.64,964.794,588.9,963.532,589.158,962.361Z" transform="translate(-584.009 -941.514)" fill="#feae8f"/>
                        <path id="Path_3051" data-name="Path 3051" d="M582.136,740.734s-3.655.648-4.994,2.862c-.989,1.635-1.786,12.095-1.786,12.095a4.311,4.311,0,0,0,4.367,1.969l2.448-6.342Z" transform="translate(-574.637 -734.331)" fill="#8ab8ff"/>
                        <path id="Path_3052" data-name="Path 3052" d="M616.141,796.877l2.448-6.342-.025-7.632c-.065-.328-.112-.453-.135-.31-.189,1.158-1.466,1.6-3.248,5.852a14.617,14.617,0,0,0-.684,8.4A4.417,4.417,0,0,0,616.141,796.877Z" transform="translate(-611.056 -773.548)" fill="#5698ff"/>
                        <path id="Path_3053" data-name="Path 3053" d="M776.41,640.005c1.054.712,2.834,1.786,3.75,1.608a3.621,3.621,0,0,0,1.335-.592,7.3,7.3,0,0,1-.341-2.821l-2.279-1.036v-.016l-.021.008-.021-.008v.016l-2.276,1.036A13.43,13.43,0,0,1,776.41,640.005Z" transform="translate(-763.265 -637.148)" fill="#feae8f"/>
                        <path id="Path_3054" data-name="Path 3054" d="M650.124,751.132c-.287,2.832-1.366,7.389-1.858,10.532,0,0,2.864,2.416,9.848,2.416,7.566,0,9.26-2.416,9.26-2.416-.21-1.28-.474-3.022-.714-4.99-.606-4.967-.587-9.7.344-12.965a34.667,34.667,0,0,0,1.395-6.837c.25-3.428-1.738-10-1.738-10L663.5,725.8s-2.94,6.465-5.14,6.5c-1.227.022-4.325-4.412-5.347-6.483l-3.246.983s-3.852,8.528-1.016,16.328C648.749,743.129,650.425,748.173,650.124,751.132Z" transform="translate(-642.517 -720.318)" fill="#8ab8ff"/>
                        <path id="Path_3055" data-name="Path 3055" d="M573.748,1364.137a5.88,5.88,0,0,0,.464,2.293c.435.552.91,1.239.6,1.384s-1.012-.444-1.57-1.378a7.922,7.922,0,0,1-.593-1.365Z" transform="translate(-572.101 -1319.202)" fill="#c35032"/>
                        <path id="Path_3056" data-name="Path 3056" d="M572.97,1367.07a7.977,7.977,0,0,0,.649,2.6c.434.551.909,1.238.6,1.383s-1.012-.444-1.569-1.377a7.925,7.925,0,0,1-.593-1.365Z" transform="translate(-571.545 -1321.954)" fill="#d36444"/>
                        <path id="Path_3057" data-name="Path 3057" d="M565.157,1335.85a15.36,15.36,0,0,1,1.587,2.165,15.509,15.509,0,0,0,1.028,1.322c.217.182-.181.628-1.052-.267s-1.469-1.087-1.629-1.01a7.054,7.054,0,0,0,.453,2.429c.786,1.165,1.368,1.8,1.049,1.913s-1.836-1.371-2.308-2.35a11.7,11.7,0,0,1-.515-4.31Z" transform="translate(-563.74 -1292.562)" fill="#f28e66"/>
                      </g>
                    </g>
                    <g id="Group_6558" data-name="Group 6558" transform="translate(7.248)">
                      <g id="Group_6557" data-name="Group 6557">
                        <g id="Group_6556" data-name="Group 6556">
                          <g id="Group_6549" data-name="Group 6549">
                            <g id="Group_6548" data-name="Group 6548">
                              <g id="Group_6542" data-name="Group 6542" transform="translate(14.752 8.752)">
                                <path id="Path_3058" data-name="Path 3058" d="M919.945,505.688a2.515,2.515,0,0,1,1.808-1.258c.654-.01.46,2.674-.213,3.368a1.119,1.119,0,0,1-1.872-.152Z" transform="translate(-919.668 -504.43)" fill="#ffc7b1"/>
                              </g>
                              <path id="Path_3062" data-name="Path 3062" d="M714.956,386.89s3.143-1.6,4.235-3.394c.9-1.259,1.956-7.684,2.064-8.681l.011-.1c0-.032,0-.049,0-.049h0c.018-.206.03-.415.03-.625a6.965,6.965,0,1,0-13.929,0,6.868,6.868,0,0,0,.039.74h0s1.086,7.334,2.069,8.713c1.156,2.059,4.235,3.394,4.235,3.394A2.071,2.071,0,0,0,714.956,386.89Z" transform="translate(-705.741 -366.816)" fill="#ffc7b1"/>
                              <path id="Path_3063" data-name="Path 3063" d="M769.434,364.662a4.227,4.227,0,0,0-2.258.3c-.88.5,1.09-2.836,1.838-1.983A1.5,1.5,0,0,1,769.434,364.662Z" transform="translate(-761.641 -362.84)" fill="#601f11"/>
                              <g id="Group_6547" data-name="Group 6547" transform="translate(0 9.044)">
                                <path id="Path_3064" data-name="Path 3064" d="M683.211,510.426a2.516,2.516,0,0,0-1.807-1.258c-.654-.01-.461,2.675.213,3.368a1.118,1.118,0,0,0,1.871-.152Z" transform="translate(-681.001 -509.168)" fill="#f28e66"/>
                                <path id="Path_3065" data-name="Path 3065" d="M688.52,521.7a.975.975,0,0,1-1.177-.4,2.677,2.677,0,0,1-.424-2.113s.758.177,1.458,1.592C688.378,520.78,687.864,521.417,688.52,521.7Z" transform="translate(-686.46 -518.569)" fill="#c44a33" opacity="0.4"/>
                                <g id="Group_6544" data-name="Group 6544" transform="translate(0.323 0.554)">
                                  <g id="Group_6543" data-name="Group 6543">
                                    <path id="Path_3066" data-name="Path 3066" d="M686.25,519.064a3.536,3.536,0,0,1-.024-.389,1.4,1.4,0,0,1,.041-.4.311.311,0,0,1,.055-.1c.021-.014.043-.036.072-.035a.132.132,0,0,1,.072.013.942.942,0,0,1,.177.092,1.157,1.157,0,0,1,.166.115c.052.041.107.078.155.123a3.524,3.524,0,0,1,.545.571,3.467,3.467,0,0,1,.219.331,1.508,1.508,0,0,1,.09.178l.084.181.015.032-.025.03a.8.8,0,0,0-.22.521.481.481,0,0,0,.033.137.431.431,0,0,0,.086.117.873.873,0,0,0,.253.165.762.762,0,0,1-.283-.133.5.5,0,0,1-.111-.119.455.455,0,0,1-.055-.158.673.673,0,0,1,.047-.324,1.135,1.135,0,0,1,.157-.285l-.01.063-.084-.17a1.4,1.4,0,0,0-.089-.167,3.253,3.253,0,0,0-.217-.311c-.081-.1-.156-.2-.247-.29a3.307,3.307,0,0,0-.271-.268c-.045-.045-.1-.082-.146-.122s-.1-.079-.149-.113a.8.8,0,0,0-.16-.1c-.026-.015-.018-.006-.035,0a.234.234,0,0,0-.038.065,1.806,1.806,0,0,0-.072.369C686.264,518.805,686.257,518.935,686.25,519.064Z" transform="translate(-686.226 -518.138)" fill="#7e4139"/>
                                  </g>
                                </g>
                                <g id="Group_6546" data-name="Group 6546" transform="translate(0.584 1.276)">
                                  <g id="Group_6545" data-name="Group 6545">
                                    <path id="Path_3067" data-name="Path 3067" d="M690.449,530.134a.331.331,0,0,1,.07-.156.442.442,0,0,1,.143-.111.57.57,0,0,1,.2-.057.74.74,0,0,1,.2.019.472.472,0,0,1,.161.06.955.955,0,0,1,.142.088,1.181,1.181,0,0,1-.164-.008l-.075-.011c-.026-.007-.054,0-.082,0a.616.616,0,0,0-.171,0,.444.444,0,0,0-.163.028.646.646,0,0,0-.137.055,1.05,1.05,0,0,0-.09.065A.326.326,0,0,0,690.449,530.134Z" transform="translate(-690.449 -529.807)" fill="#7e4139"/>
                                  </g>
                                </g>
                              </g>
                            </g>
                          </g>
                        </g>
                      </g>
                    </g>
                  </g>
                </g>
                <g id="Group_6561" data-name="Group 6561" transform="translate(6.665 17.409)" opacity="0.3">
                  <path id="Path_3077" data-name="Path 3077" d="M671.581,644.542c.017.107.028.164.028.164-.012-.07-.021-.14-.031-.21C671.579,644.511,671.579,644.527,671.581,644.542Z" transform="translate(-671.578 -644.496)" fill="#8b301a"/>
                </g>
                <path id="Path_3078" data-name="Path 3078" d="M654.573,977.361c0-1.483,2-4.727,2.629-5.909s-2.629-5.279-2.629-5.279a10.173,10.173,0,0,0,5.229-2.364c1.34-1.182,6.067-1.9,6.067-1.9-1.576-.636-4.255.636-8,1.188a5.773,5.773,0,0,1-5.339-2.049,16.792,16.792,0,0,0,.744,2.791s1.676,5.044,1.375,8c-.287,2.832-1.366,7.389-1.858,10.532,0,0,2.864,2.416,9.848,2.416a23.216,23.216,0,0,0,5.634-.594C657.325,984.232,654.573,979.094,654.573,977.361Z" transform="translate(-647.039 -924.076)" fill="#5698ff"/>
              </g>
              <path id="Path_3090" data-name="Path 3090" d="M806.051,319.406s5.476.5,6.91,7.86c0,0,1.981-2.151,1.981.174,0,0,.618-5.861-1.042-9.4-1.207-2.574-7.2-5.043-8.4-2.1-.268.655.073,2.49,0,3.467Z" transform="translate(-790.454 -314.603)" fill="#601f11"/>
              <path id="Path_3091" data-name="Path 3091" d="M809.714,317.847c2.5,1.3,5.669,4.833,5.282,9.246.1-1.3.347-6.026-1.072-9.053-1.207-2.574-7.2-5.043-8.4-2.1a1.059,1.059,0,0,0-.038.121c-.015.083-.03.168-.044.255-.09.82.145,2.263.082,3.091C805.52,319.406,807.159,316.516,809.714,317.847Z" transform="translate(-790.479 -314.603)" fill="#7a311c"/>
              <path id="Path_3092" data-name="Path 3092" d="M669.561,319.557s.115-1.175-.86-.7c-1.847.906-5.518,14.663-2.663,20.159,0,0-4.159-.873-5.024-3.769s-.854-14.615,1.8-17.4c0,0,3.369-4.123,5.991-2.837,2,.982,2.583,1.235,1.232,4.544Z" transform="translate(-654.52 -314.754)" fill="#7a311c"/>
              <g id="Group_6574" data-name="Group 6574" transform="translate(24.497 12.503)">
                <path id="Path_3093" data-name="Path 3093" d="M960.066,517.122c.006-.056.012-.134.019-.231C960.078,516.975,960.072,517.051,960.066,517.122Z" transform="translate(-960.066 -516.891)" fill="#7a311c"/>
              </g>
            </g>
          </g>
          <g id="Group_6601" data-name="Group 6601" transform="translate(442.234 273.334)">
            <g id="Group_6600" data-name="Group 6600" transform="translate(0 3.228)">
              <g id="Group_6580" data-name="Group 6580" transform="translate(0 17.693)">
                <path id="Path_3096" data-name="Path 3096" d="M1210.183,1288.979a2.6,2.6,0,0,0,.015.432,7.555,7.555,0,0,0,.173.958c.075.315.159.617.243.9s.17.535.243.764.142.427.2.591l.181.517-.848.447-.086-.12c-.057-.078-.138-.192-.238-.34s-.223-.328-.361-.538-.288-.451-.447-.72-.328-.566-.5-.894a8.93,8.93,0,0,1-.476-1.1,4.637,4.637,0,0,1-.184-.692,3.159,3.159,0,0,1-.046-.43,2.137,2.137,0,0,1,.056-.562c.006-.028.015-.057.022-.086s.015-.051.034-.1.033-.083.051-.122l.015-.033.007-.017.007-.017.034-.061.02-.035.039-.07.157-.28c.107-.178.212-.362.319-.537.215-.354.433-.7.651-1.035s.431-.665.641-.981.415-.618.61-.906l.554-.8c.347-.5.639-.9.843-1.192l.326-.45,2.229,1.7-1.235,1.552c-.372.466-.8,1.009-1.263,1.593l-.7.9c-.236.307-.474.618-.7.929-.117.155-.226.309-.338.463l-.157.226-.038.057S1210.193,1288.955,1210.183,1288.979Z" transform="translate(-1208.056 -1275.138)" fill="#ffc7b1"/>
                <g id="Group_6579" data-name="Group 6579" transform="translate(2.315)">
                  <g id="Group_6578" data-name="Group 6578">
                    <g id="Group_6577" data-name="Group 6577">
                      <path id="Path_3097" data-name="Path 3097" d="M1335.114,1241.91v-11.832c-1.234-.4-3.228-.862-3.228-.862a1.838,1.838,0,0,0-1.137,0,1.84,1.84,0,0,0-1.137,0s-1.781.416-3.018.8v11.9Z" transform="translate(-1321.582 -1226.051)" fill="#e47851"/>
                      <path id="Path_3098" data-name="Path 3098" d="M1358.4,1179.168l-.55,4.6a3.38,3.38,0,0,0,4.437-.04l-.824-4.555Z" transform="translate(-1350.905 -1179.168)" fill="#ffc7b1"/>
                      <path id="Path_3099" data-name="Path 3099" d="M1364.463,1182.689a7.656,7.656,0,0,1-3.936.505l.378-3.152,3.193.633Z" transform="translate(-1353.418 -1179.989)" fill="#feae8f"/>
                      <path id="Path_3100" data-name="Path 3100" d="M1284.911,1250.73a117.885,117.885,0,0,0-2.634-15.508l-3-.774s-1.724,2.559-4.334,0a23.01,23.01,0,0,0-2.984.892,126.751,126.751,0,0,0-2.538,15.39Z" transform="translate(-1267.944 -1231.032)" fill="#ffc957"/>
                      <path id="Path_3101" data-name="Path 3101" d="M1274.218,1285.253c-.108-4.792-2.577-14.006-2.578-14.007a121.694,121.694,0,0,0-2.23,14.007Z" transform="translate(-1267.933 -1265.555)" fill="#e9a203"/>
                      <path id="Path_3102" data-name="Path 3102" d="M1249.527,1248.743l-4.015,4.069s.9,2.826,2.6,3.2l1.878-2.338S1251.788,1248.493,1249.527,1248.743Z" transform="translate(-1245.512 -1244.434)" fill="#ffc957"/>
                    </g>
                  </g>
                </g>
              </g>
              <g id="Group_6599" data-name="Group 6599" transform="translate(1.295)">
                <g id="Group_6598" data-name="Group 6598">
                  <g id="Group_6597" data-name="Group 6597">
                    <g id="Group_6585" data-name="Group 6585" transform="translate(16.58 9.004)">
                      <path id="Path_3103" data-name="Path 3103" d="M1497.468,1040.064s.721-1.41,1.94-1.485c.725-.045.646,2.941-.066,3.744a1.243,1.243,0,0,1-2.083-.073Z" transform="translate(-1497.258 -1038.578)" fill="#ffc7b1"/>
                    </g>
                    <path id="Path_3107" data-name="Path 3107" d="M1266.938,913.542s3.809-1.358,5.039-3.409c1.022-1.446,1.327-7.874,1.4-8.984,0-.037.006-.074.007-.111s0-.055,0-.055h0c.01-.23.012-.461,0-.694a7.728,7.728,0,1,0-15.44.7,8.036,8.036,0,0,0,.081.819h0s.953,7.382,2.212,8.858c1.5,2.218,5.327,2.938,5.327,2.938A2.3,2.3,0,0,0,1266.938,913.542Z" transform="translate(-1256.147 -892.912)" fill="#ffc7b1"/>
                    <path id="Path_3108" data-name="Path 3108" d="M1483.359,966.668a14.177,14.177,0,0,0,.859,3.272s.231,2.373.21,2.658.417.052.871-1.048a15.816,15.816,0,0,0,.436-4.882Z" transform="translate(-1467.638 -962.109)" fill="#7f2c18"/>
                    <g id="Group_6590" data-name="Group 6590" transform="translate(0 10.161)">
                      <path id="Path_3110" data-name="Path 3110" d="M1231.474,1058.617a2.793,2.793,0,0,0-2.067-1.3c-.725.022-.375,2.988.406,3.722a1.242,1.242,0,0,0,2.068-.262Z" transform="translate(-1229.01 -1057.312)" fill="#ffc7b1"/>
                    </g>
                  </g>
                </g>
              </g>
              <path id="Path_3128" data-name="Path 3128" d="M1242.773,1463.609a.629.629,0,0,0,.123-.68c-.131-.319-1.257-.8-1.257-.8s.261-.51.069-.681a1.083,1.083,0,0,0-1.023.057,5.348,5.348,0,0,0-1.053.711,1.192,1.192,0,0,0-.158,1.389Z" transform="translate(-1237.395 -1426.218)" fill="#ffc7b1"/>
              <path id="Path_3129" data-name="Path 3129" d="M1479.691,1288.573a2.622,2.622,0,0,1-.014.432,7.6,7.6,0,0,1-.174.957c-.074.315-.158.618-.242.9s-.17.536-.243.764-.143.428-.2.591l-.182.517.848.447.085-.119c.056-.078.138-.193.239-.341s.224-.327.361-.537.287-.452.447-.72.328-.566.5-.893a8.875,8.875,0,0,0,.476-1.1,4.469,4.469,0,0,0,.184-.692,3.067,3.067,0,0,0,.047-.43,2.188,2.188,0,0,0-.055-.561c-.008-.028-.016-.057-.024-.087a.959.959,0,0,0-.034-.1c-.016-.042-.033-.083-.052-.123a.264.264,0,0,1-.014-.033l-.008-.017-.007-.017-.035-.062-.019-.035-.04-.069-.158-.281c-.106-.177-.211-.361-.318-.536-.215-.353-.433-.7-.65-1.036s-.432-.664-.642-.981l-.61-.9c-.2-.286-.383-.555-.554-.8-.346-.5-.639-.905-.843-1.193l-.325-.449-2.229,1.7,1.235,1.552c.371.465.8,1.009,1.262,1.592l.7.9c.236.307.474.618.7.929.117.155.225.309.338.464l.157.226.039.057S1479.682,1288.549,1479.691,1288.573Z" transform="translate(-1458.691 -1257.064)" fill="#ffc7b1"/>
              <path id="Path_3130" data-name="Path 3130" d="M1460.815,1246.835l4.164,4.163s-.9,2.826-2.6,3.2l-1.878-2.338S1458.552,1246.586,1460.815,1246.835Z" transform="translate(-1444.167 -1224.951)" fill="#ffc957"/>
              <path id="Path_3131" data-name="Path 3131" d="M1495.853,1463.224a1.2,1.2,0,0,0-.145-1.414,5.394,5.394,0,0,0-1.054-.711,1.087,1.087,0,0,0-1.024-.058c-.192.173.07.682.07.682s-1.127.478-1.259.8a.64.64,0,0,0,.145.7Z" transform="translate(-1474.815 -1425.833)" fill="#ffc7b1"/>
            </g>
            <path id="Path_3132" data-name="Path 3132" d="M1254.868,849.815c1.557-.06-1.128-1.348-1.128-1.348s5.371,1.652,7.98-.912c0,0,1.026-1.2-1.584-.479,0,0,2.764-2.738,1.783-3.695,0,0-.948-.9-2.009.8,0,0,1.008-2.582-.545-2.582-.481,0-1.014,1.217-1.014,1.217s0-1.912-1.857-.739c0,0-8.694-3.391-10.334.391a3.469,3.469,0,0,0-3.172,2.565,16.873,16.873,0,0,0-.386,9.259,4.942,4.942,0,0,1,1.162,1.082s.829.423.612-.938a5.315,5.315,0,0,1,.923-4.578,11.124,11.124,0,0,0,1.815-2.825S1251.463,849.946,1254.868,849.815Z" transform="translate(-1240.005 -840.681)" fill="#7f2c18"/>
          </g>
        </g>
        <g id="Group_2358" data-name="Group 2358" transform="translate(75.133 53.583)">
          <rect id="Rectangle_1744" data-name="Rectangle 1744" width="29.346" height="25.734" rx="5" fill="#0268f5"/>
          <rect id="Rectangle_1745" data-name="Rectangle 1745" width="29.346" height="25.734" rx="5" transform="translate(0 2.16)" fill="#8ab8ff"/>
          <path id="Rectangle_1746" data-name="Rectangle 1746" d="M3.047,0H12.3A3.047,3.047,0,0,1,15.35,3.047v0A3.047,3.047,0,0,1,12.3,6.095H3.047A3.047,3.047,0,0,1,0,3.047v0A3.047,3.047,0,0,1,3.047,0Z" transform="translate(15.87 11.98)" fill="#c3d8f6"/>
          <path id="Path_1986" data-name="Path 1986" d="M587.745,338.222a1.407,1.407,0,1,1-1.407-1.407A1.407,1.407,0,0,1,587.745,338.222Z" transform="translate(-567.216 -323.194)" fill="#0268f5"/>
        </g>
        <g id="Group_6631" data-name="Group 6631" transform="translate(1)">
          <g id="Group_2362" data-name="Group 2362" transform="translate(18.202 70.415)">
            <rect id="Rectangle_1755" data-name="Rectangle 1755" width="20.098" height="3.814" transform="translate(0 0)" fill="#ffd337"/>
            <rect id="Rectangle_1756" data-name="Rectangle 1756" width="15.509" height="3.814" transform="translate(0 0)" fill="#f7c219"/>
            <rect id="Rectangle_1757" data-name="Rectangle 1757" width="4.297" height="3.814" transform="translate(0 0)" fill="#f2b303"/>
            <rect id="Rectangle_1758" data-name="Rectangle 1758" width="20.098" height="0.583" transform="translate(0 3.231)" fill="#d69005" opacity="0.49"/>
          </g>
          <g id="Group_2363" data-name="Group 2363" transform="translate(16.492 66.684)">
            <rect id="Rectangle_1759" data-name="Rectangle 1759" width="20.098" height="3.814" fill="#ffd337"/>
            <rect id="Rectangle_1760" data-name="Rectangle 1760" width="15.509" height="3.814" fill="#f7c219"/>
            <rect id="Rectangle_1761" data-name="Rectangle 1761" width="4.297" height="3.814" fill="#f2b303"/>
            <rect id="Rectangle_1762" data-name="Rectangle 1762" width="20.098" height="0.583" transform="translate(0 3.231)" fill="#d69005" opacity="0.49"/>
          </g>
          <g id="Group_6630" data-name="Group 6630">
            <g id="Group_2360" data-name="Group 2360" transform="translate(18.202 77.878)">
              <rect id="Rectangle_1747" data-name="Rectangle 1747" width="20.098" height="3.814" fill="#ffd337"/>
              <rect id="Rectangle_1748" data-name="Rectangle 1748" width="15.509" height="3.814" fill="#f7c219"/>
              <rect id="Rectangle_1749" data-name="Rectangle 1749" width="4.297" height="3.814" fill="#f2b303"/>
              <rect id="Rectangle_1750" data-name="Rectangle 1750" width="20.098" height="0.583" transform="translate(0 3.231)" fill="#d69005" opacity="0.49"/>
            </g>
            <g id="Group_2361" data-name="Group 2361" transform="translate(20.402 74.147)">
              <rect id="Rectangle_1751" data-name="Rectangle 1751" width="20.098" height="3.814" transform="translate(0 0)" fill="#ffd337"/>
              <rect id="Rectangle_1752" data-name="Rectangle 1752" width="15.509" height="3.814" transform="translate(0 0)" fill="#f7c219"/>
              <rect id="Rectangle_1753" data-name="Rectangle 1753" width="4.297" height="3.814" transform="translate(0 0)" fill="#f2b303"/>
              <rect id="Rectangle_1754" data-name="Rectangle 1754" width="20.098" height="0.583" transform="translate(0 3.231)" fill="#d69005" opacity="0.49"/>
            </g>
            <g id="Group_2364" data-name="Group 2364" transform="translate(18.759 62.953)">
              <rect id="Rectangle_1763" data-name="Rectangle 1763" width="20.098" height="3.814" transform="translate(0 0)" fill="#ffd337"/>
              <rect id="Rectangle_1764" data-name="Rectangle 1764" width="15.509" height="3.814" transform="translate(0 0)" fill="#f7c219"/>
              <rect id="Rectangle_1765" data-name="Rectangle 1765" width="4.297" height="3.814" transform="translate(0 0)" fill="#f2b303"/>
              <rect id="Rectangle_1766" data-name="Rectangle 1766" width="20.098" height="0.583" transform="translate(0 3.231)" fill="#d69005" opacity="0.49"/>
            </g>
            <g id="Group_2372" data-name="Group 2372" transform="translate(6.873 62.778)">
              <path id="Path_1997" data-name="Path 1997" d="M386.538,337.38a8.7,8.7,0,0,0-1,.059v17.189a8.771,8.771,0,0,0,1,.059,8.654,8.654,0,1,0,0-17.308Z" transform="translate(-373.584 -335.773)" fill="#f7c219" opacity="0.37"/>
              <circle id="Ellipse_368" data-name="Ellipse 368" cx="8.233" cy="8.233" r="8.233" transform="translate(0 16.251) rotate(-80.709)" fill="#f2b303"/>
              <g id="Group_2371" data-name="Group 2371" transform="translate(1.221 2.448)">
                <circle id="Ellipse_369" data-name="Ellipse 369" cx="8.233" cy="8.233" r="8.233" fill="#f7c219"/>
                <circle id="Ellipse_370" data-name="Ellipse 370" cx="6.717" cy="6.717" r="6.717" transform="translate(1.516 1.516)" fill="#f2b303"/>
                <path id="Path_1998" data-name="Path 1998" d="M363.877,345.594a6.717,6.717,0,0,1,6.706,6.338c.007-.126.011-.252.011-.379a6.717,6.717,0,0,0-13.434,0c0,.127,0,.254.011.379A6.717,6.717,0,0,1,363.877,345.594Z" transform="translate(-355.644 -343.255)" fill="#e28c03" opacity="0.36"/>
                <path id="Path_1999" data-name="Path 1999" d="M363.9,359.847a6.348,6.348,0,1,0-6.706-6.338A6.717,6.717,0,0,0,363.9,359.847Z" transform="translate(-355.667 -344.832)" fill="#f2b303"/>
                <g id="Group_2374" data-name="Group 2374" transform="translate(5.413 1.234)">
                  <text id="_" data-name="" transform="translate(0.496 10.331)" fill="#e28c03" font-size="9" font-family="SegoeUI, Segoe UI" letter-spacing="0.2em" opacity="0.36"><tspan x="0" y="0"></tspan></text>
                  <text id="_2" data-name="" transform="translate(0 10)" fill="#ffe5ab" font-size="9" font-family="SegoeUI, Segoe UI" letter-spacing="0.2em"><tspan x="0" y="0"></tspan></text>
                </g>
              </g>
            </g>
          </g>
        </g>
      </g>
    </g>
  </g>
</svg>
