<svg xmlns="https://www.w3.org/2000/svg" width="61.643" height="61.646" viewBox="0 0 61.643 61.646">
  <g id="marks_register" transform="translate(-229.788 -389.793)">
    <path id="Path_2780" data-name="Path 2780" d="M278.038,402.46c-3.417,1.417-2.583.583-2.5,4.833s1.917,2.25,1.917,2.25h5.583v-5.167A3.836,3.836,0,0,0,278.038,402.46Z" fill="#00baf2"/>
    <path id="Path_2775" data-name="Path 2775" d="M286.63,408.418h-2.6v-2.6a4.819,4.819,0,0,0-3.2-4.525l-.5-.178v-2.7a1.1,1.1,0,1,0-2.2,0v2.7l-.5.177a4.818,4.818,0,0,0-3.2,4.527v30.125c0,2.132,0,4.785,3.594,10.825l.106.175v3.395a1.1,1.1,0,1,0,2.2,0v-3.395l.106-.176c3.594-6.04,3.594-8.685,3.594-10.81v-25.34h2.6a2.607,2.607,0,0,1,2.6,2.6v11.1a1.1,1.1,0,1,0,2.2,0v-11.1A4.814,4.814,0,0,0,286.63,408.418Zm-10,0v-2.6a2.6,2.6,0,1,1,5.2,0v2.6Zm0,25.9v-23.7h5.2v23.7Zm5.244,2.193-.083.826a14.637,14.637,0,0,1-1.913,5.908l-.652,1.125-.648-1.129a15.009,15.009,0,0,1-1.912-5.9l-.088-.83Z" fill="#004261"/>
    <path id="Path_2776" data-name="Path 2776" d="M264.431,397.194h-6.422v-2.6a1.1,1.1,0,0,0-1.1-1.1h-2.7l-.177-.5a4.8,4.8,0,0,0-9.051,0l-.177.5H242.11a1.1,1.1,0,0,0-1.1,1.1v2.6h-6.422a4.815,4.815,0,0,0-4.8,4.8v44.642a4.813,4.813,0,0,0,4.8,4.8h29.843a4.814,4.814,0,0,0,4.8-4.8V401.994A4.814,4.814,0,0,0,264.431,397.194Zm-21.221,3.7v-5.2h2.6a1.1,1.1,0,0,0,1.1-1.1,2.6,2.6,0,1,1,5.2,0,1.1,1.1,0,0,0,1.1,1.1h2.6v5.2Zm-11.222,1.1a2.607,2.607,0,0,1,2.6-2.6h6.424v2.6a1.1,1.1,0,0,0,1.1,1.1h14.8a1.1,1.1,0,0,0,1.1-1.1v-2.6h6.423a2.607,2.607,0,0,1,2.6,2.6v44.644a2.607,2.607,0,0,1-2.6,2.6H234.588a2.607,2.607,0,0,1-2.6-2.6Z" fill="#004261"/>
    <path id="Path_2777" data-name="Path 2777" d="M238.411,432.816h22.322a1.1,1.1,0,0,0,0-2.2H238.411a1.1,1.1,0,0,0,0,2.2Z" fill="#00baf2"/>
    <path id="Path_2778" data-name="Path 2778" d="M238.411,440.215h22.322a1.1,1.1,0,1,0,0-2.2H238.411a1.1,1.1,0,1,0,0,2.2Z" fill="#00baf2"/>
    <path id="Path_2779" data-name="Path 2779" d="M238.411,425.416h22.322a1.1,1.1,0,1,0,0-2.2H238.411a1.1,1.1,0,1,0,0,2.2Z" transform="translate(0.478)" fill="#00baf2"/>
    <rect id="Rectangle_2032" data-name="Rectangle 2032" width="12" height="9" rx="1" transform="translate(237.788 409.793)" fill="#fb9117"/>
  </g>
</svg>
