<svg xmlns="https://www.w3.org/2000/svg" xmlns:xlink="https://www.w3.org/1999/xlink" width="108.969" height="67.429" viewBox="0 0 108.969 67.429">
  <defs>
    <clipPath id="clip-path">
      <circle id="Ellipse_353" data-name="Ellipse 353" cx="7.688" cy="7.688" r="7.688" fill="none"/>
    </clipPath>
  </defs>
  <g id="No_Timetable" data-name="No Timetable" transform="translate(-6.569 -17.25)">
    <g id="Group_2131" data-name="Group 2131" transform="translate(1.101 17.25)">
      <g id="Group_2174" data-name="Group 2174" transform="translate(5.468 0)">
        <g id="Group_2136" data-name="Group 2136" transform="translate(0 22.718)">
          <g id="Group_2131-2" data-name="Group 2131" transform="translate(70.762 19.997)">
            <path id="Path_1659" data-name="Path 1659" d="M424.174,351.046a20.012,20.012,0,0,1,5.939-6.858,25.738,25.738,0,0,1,6.441-3.789c2.04-.758,2.493,1.025,4.14,1.634a3.148,3.148,0,0,0,3.049-.965,14.823,14.823,0,0,1,2.412-2.2,2.639,2.639,0,0,1,2.49-.172c.916.538.76,1.86,2,2.011a3.043,3.043,0,0,0,1.673-.393,23.646,23.646,0,0,1,3.759-1.544c1.189-.349,2.73-.465,3.417.567.659.99.033,2.333-.76,3.22a12.247,12.247,0,0,1-7.57,3.663,8.311,8.311,0,0,0-2.285.473,2.145,2.145,0,0,0-1.375,1.744c-.016.42.142.83.147,1.251.015,1.166-1.137,2.038-2.274,2.3-2.927.67-4.833-1.9-7.586-2.3-3.121-.447-7.925.04-10.092,2.668" transform="translate(-424.174 -338.458)" fill="#ffc957"/>
            <path id="Path_1660" data-name="Path 1660" stroke="#fff" d="M440.3,356.128a20.433,20.433,0,0,1,11.2-5.221c2.608-.338,5.252-.176,7.871-.413s5.334-.944,7.22-2.69" fill="none" transform="translate(-435.157 -344.823)" stroke-linecap="round" stroke-linejoin="round" stroke-width="0.891" opacity="0.5"/>
          </g>
          <g id="Group_2133" data-name="Group 2133" transform="translate(76.941 0)">
            <path id="Path_1661" data-name="Path 1661" d="M450.126,304.972c1.559-.9,3.233-2.156,2.791-4.068-.145-.627-.608-1.2-.528-1.838a3.381,3.381,0,0,1,.538-1.144,3.478,3.478,0,0,0,.18-2.926,24.79,24.79,0,0,0-1.787-2.71,4.774,4.774,0,0,1-.6-2.553c-1.647.173-3.069,1.212-4.663,1.661-1.219.343-2.521.337-3.724.732a5.957,5.957,0,0,0-3.986,5.167,3.281,3.281,0,0,0-2.793,1.229,4.258,4.258,0,0,0-.847,3.2c.718,4.637,3.1,8.324,6.157,11.763-.664-.748,1.374-3.073,1.769-3.526,1.714-1.968,4.065-3.1,6.313-4.336C449.3,305.429,449.708,305.213,450.126,304.972Z" transform="translate(-434.657 -289.733)" fill="#6aa5fe"/>
            <g id="Group_2132" data-name="Group 2132" transform="translate(3.334 2.149)" opacity="0.5">
              <path id="Path_1662" data-name="Path 1662" d="M454.977,311.852a11.936,11.936,0,0,1,.767-5.959,23.354,23.354,0,0,1,2.432-5.382,11.518,11.518,0,0,1,4.241-4.039" transform="translate(-451.738 -296.472)" fill="none" stroke="#fff" stroke-linecap="round" stroke-linejoin="round" stroke-width="0.891"/>
              <path id="Path_1663" data-name="Path 1663" d="M456.9,302.35a16.245,16.245,0,0,0,.925,5.647" transform="translate(-453.14 -300.475)" fill="none" stroke="#fff" stroke-linecap="round" stroke-linejoin="round" stroke-width="0.891"/>
              <path id="Path_1664" data-name="Path 1664" d="M460.677,312.259a14.082,14.082,0,0,1,7.429-2.665" transform="translate(-455.711 -305.409)" fill="none" stroke="#fff" stroke-linecap="round" stroke-linejoin="round" stroke-width="0.891"/>
              <path id="Path_1665" data-name="Path 1665" d="M445.109,320.433c2.555.812,2.987,4.42,3.147,5.441" transform="translate(-445.109 -312.79)" fill="none" stroke="#fff" stroke-linecap="round" stroke-linejoin="round" stroke-width="0.891"/>
              <path id="Path_1666" data-name="Path 1666" d="M456.418,323.964c1.758-1.522,4.784-3.148,6.832-2.828" transform="translate(-452.811 -313.242)" fill="none" stroke="#fff" stroke-linecap="round" stroke-linejoin="round" stroke-width="0.891"/>
              <path id="Path_1667" data-name="Path 1667" d="M455.252,335.885c1.4-1.864,5.215-4.141,7.262-3.822" transform="translate(-452.017 -320.69)" fill="none" stroke="#fff" stroke-linecap="round" stroke-linejoin="round" stroke-width="0.891"/>
              <path id="Path_1668" data-name="Path 1668" d="M468.659,298.238a2.982,2.982,0,0,0-.457,2.162" transform="translate(-460.805 -297.675)" fill="none" stroke="#fff" stroke-linecap="round" stroke-linejoin="round" stroke-width="0.891"/>
              <path id="Path_1669" data-name="Path 1669" d="M469.832,301.968a4.73,4.73,0,0,1,3.247-.535" transform="translate(-461.946 -299.801)" fill="none" stroke="#fff" stroke-linecap="round" stroke-linejoin="round" stroke-width="0.891"/>
            </g>
          </g>
          <g id="Group_2135" data-name="Group 2135" transform="translate(0 0.168)">
            <path id="Path_1670" data-name="Path 1670" d="M262.206,349.783c-2.11-5.779-7.518-11.171-12.845-14.248-1.3-.75-3.195-1.318-3.79.474-.383,1.152-1.725.853-2.491.32a19.213,19.213,0,0,1-2.312-2.538,4.436,4.436,0,0,0-2.38-1.291,3.039,3.039,0,0,0-2.556.723,17.561,17.561,0,0,1-1.364,1.572,3.02,3.02,0,0,1-3.291-.172c-1-.61-1.779-1.513-2.743-2.171a3.275,3.275,0,0,0-3.29-.491c-1.36.737-1.484,2.7-.907,4.137a9.685,9.685,0,0,0,1.6,2.865,7.223,7.223,0,0,0,3.7,1.9c.985.194,2,.188,2.982.42.353.084.759.233.829.64.1.588-.625.947-1.049,1.161-.735.37-1.461,1.176-1.119,1.924a1.624,1.624,0,0,0,1.273.765,9.778,9.778,0,0,0,4.489-.627c.881-.272,1.653-.822,2.557-1.056.47-.121,1.673-.174,1.542.619a1.089,1.089,0,0,1-.409.616,4.34,4.34,0,0,0-.565.5,1.3,1.3,0,0,0,.906,2.058,4.674,4.674,0,0,0,2.133-.175,33.045,33.045,0,0,1,14.013-.551,3.573,3.573,0,0,1,2.551,1.409" transform="translate(-223.911 -314.023)" fill="#ffc957"/>
            <path id="Path_1671" data-name="Path 1671" stroke="#fff" d="M265.807,357.437a22.773,22.773,0,0,0-12.512-5.767c-2.908-.365-5.855-.172-8.775-.424s-5.949-1.027-8.06-2.964" fill="none" transform="translate(-232.458 -325.318)" stroke-linecap="round" stroke-linejoin="round" stroke-width="0.891" opacity="0.5"/>
            <g id="Group_2134" data-name="Group 2134" transform="translate(19.532)">
              <path id="Path_1672" data-name="Path 1672" d="M309.791,355.441s-8.021-5.336-10.286-10.748a8.811,8.811,0,0,1,3.593,1.786,43.836,43.836,0,0,0,5.789,5.78C309.154,353.152,309.453,354.2,309.791,355.441Z" transform="translate(-294.926 -322.875)" fill="#fcccb1" opacity="0.25"/>
              <path id="Path_1673" data-name="Path 1673" d="M299.711,307.023c-.3-1.884-1.131-3.755-1.457-5.671a26.156,26.156,0,0,1-.036-9.21c.484-2.6,1.288-5.323.407-7.955-.234-.7-.665-1.454-1.572-1.447a1.5,1.5,0,0,0-.97.387,3.348,3.348,0,0,0-.89,2.233l-.359,2.689a.9.9,0,0,1-1.716.128l-.007-.021a5.949,5.949,0,0,1-.121-2.208,20.935,20.935,0,0,0,.084-4.819,5.552,5.552,0,0,0-3.424-4.621,3.8,3.8,0,0,0-2.283-.078c-2.07.591-2.489,2.541-2.073,4.176a13.619,13.619,0,0,0,1.534,3.239c1.449,2.559.666,4.991,1.029,7.852C288.625,297.757,294.556,303.615,299.711,307.023Z" transform="translate(-285.149 -276.289)" fill="#ffc957"/>
              <path id="Path_1674" data-name="Path 1674" stroke="#fff" d="M295.283,287.728c4.334,5.244,2.768,17.625,10.321,24.309" fill="none" transform="translate(-292.05 -284.079)" stroke-linecap="round" stroke-linejoin="round" stroke-width="0.891" opacity="0.5"/>
              <path id="Path_1675" data-name="Path 1675" stroke="#fff" d="M317.493,307.033c.5,2.651-1.209,5.626-1.6,7.275a15.375,15.375,0,0,0-.18,6.115" fill="none" transform="translate(-305.802 -297.227)" stroke-linecap="round" stroke-linejoin="round" stroke-width="0.891" opacity="0.5"/>
            </g>
          </g>
          <path id="Path_1676" data-name="Path 1676" d="M252.422,375c-.187-1.06-3.147-7.667-6.573-5.9-2.035,1.051-1.669,4.921,1.51,7.845a4.836,4.836,0,0,0-2.2-1.457,1.7,1.7,0,0,0-1.367.439,1.6,1.6,0,0,0-.411,1.147,4.515,4.515,0,0,0,2.011,3.862,5.4,5.4,0,0,0-2.115-.953.982.982,0,0,0-.823.359c-.131.253-.122,1.2,1.425,1.908-6.308-1.2-6.676,1.492-4.409,1.492h18.6" transform="translate(-231.62 -339.166)" fill="#1a55b5"/>
          <path id="Path_1677" data-name="Path 1677" d="M274.687,350.419c-.3-1.7-3.425-12.364-8.91-9.531-3.258,1.682-2.672,7.878,2.417,12.559a7.74,7.74,0,0,0-3.515-2.332,2.716,2.716,0,0,0-2.189.7,2.566,2.566,0,0,0-.658,1.836,7.227,7.227,0,0,0,3.219,6.182,8.644,8.644,0,0,0-3.385-1.527,1.574,1.574,0,0,0-1.318.575c-.21.4-.2,1.921,2.282,3.054-10.1-1.916-10.688,2.389-7.058,2.389h23.991" transform="translate(-242.873 -319.752)" fill="#6aa5fe"/>
          <path id="Path_1678" data-name="Path 1678" d="M477.16,375c.187-1.06,3.147-7.667,6.573-5.9,2.035,1.051,1.669,4.921-1.509,7.845a4.833,4.833,0,0,1,2.2-1.457,1.7,1.7,0,0,1,1.367.439,1.605,1.605,0,0,1,.411,1.147,4.515,4.515,0,0,1-2.011,3.862,5.4,5.4,0,0,1,2.114-.953.983.983,0,0,1,.824.359c.131.253.122,1.2-1.426,1.908,6.308-1.2,6.677,1.492,4.409,1.492h-18.6" transform="translate(-382.408 -339.046)" fill="#1a55b5"/>
          <path id="Path_1679" data-name="Path 1679" d="M441.748,350.484c.3-1.708,3.425-12.444,8.909-9.593,3.258,1.693,2.672,7.93-2.416,12.641a7.737,7.737,0,0,1,3.515-2.347,2.7,2.7,0,0,1,2.189.707,2.6,2.6,0,0,1,.658,1.848,7.289,7.289,0,0,1-3.22,6.223,8.618,8.618,0,0,1,3.385-1.536,1.57,1.57,0,0,1,1.318.579c.21.407.2,1.934-2.282,3.074,10.1-1.928,10.688,2.4,7.058,2.4H436.871" transform="translate(-358.818 -319.772)" fill="#6aa5fe"/>
          <g id="Group_2148" data-name="Group 2148" transform="translate(57.202 7.256)">
            <g id="Group_2158" data-name="Group 2158" transform="translate(0 0)">
              <g id="Group_2152" data-name="Group 2152">
                <g id="Rectangle_1677" data-name="Rectangle 1677" transform="translate(0 7.043)" fill="#fff" stroke="#3a82e5" stroke-width="0.5">
                  <rect width="29.289" height="30.382" stroke="none"/>
                  <rect x="0.25" y="0.25" width="28.789" height="29.882" fill="none"/>
                </g>
                <path id="Path_1701" data-name="Path 1701" d="M929.92,224.694v4.622H900.631v-4.622a1.662,1.662,0,0,1,1.662-1.662h25.964A1.662,1.662,0,0,1,929.92,224.694Z" transform="translate(-900.631 -221.273)" fill="#3a82e5"/>
                <g id="Group_2151" data-name="Group 2151" transform="translate(3.923)">
                  <g id="Group_2148-2" data-name="Group 2148" transform="translate(19.448)">
                    <circle id="Ellipse_347" data-name="Ellipse 347" cx="1.378" cy="1.378" r="1.378" transform="translate(0 3.251)" fill="#0050be"/>
                    <path id="Path_1702" data-name="Path 1702" d="M1088.677,214.432h0a.79.79,0,0,0,.79-.79v-3.567a.79.79,0,0,0-.79-.79h0a.79.79,0,0,0-.79.79v3.567A.79.79,0,0,0,1088.677,214.432Z" transform="translate(-1087.299 -209.286)" fill="#ffcb2d"/>
                  </g>
                  <g id="Group_2149" data-name="Group 2149" transform="translate(9.724)">
                    <circle id="Ellipse_348" data-name="Ellipse 348" cx="1.378" cy="1.378" r="1.378" transform="translate(0 3.251)" fill="#0050be"/>
                    <path id="Path_1703" data-name="Path 1703" d="M1012.678,214.432h0a.79.79,0,0,0,.79-.79v-3.567a.79.79,0,0,0-.79-.79h0a.79.79,0,0,0-.79.79v3.567A.79.79,0,0,0,1012.678,214.432Z" transform="translate(-1011.3 -209.286)" fill="#ffcb2d"/>
                  </g>
                  <g id="Group_2150" data-name="Group 2150">
                    <circle id="Ellipse_349" data-name="Ellipse 349" cx="1.378" cy="1.378" r="1.378" transform="translate(0 3.251)" fill="#0050be"/>
                    <path id="Path_1704" data-name="Path 1704" d="M936.68,214.432h0a.79.79,0,0,0,.79-.79v-3.567a.79.79,0,0,0-.79-.79h0a.79.79,0,0,0-.79.79v3.567A.79.79,0,0,0,936.68,214.432Z" transform="translate(-935.302 -209.286)" fill="#ffcb2d"/>
                  </g>
                </g>
              </g>
              <g id="Group_2157" data-name="Group 2157" transform="translate(4.573 12.765)">
                <g id="Group_2153" data-name="Group 2153">
                  <rect id="Rectangle_1678" data-name="Rectangle 1678" width="5.569" height="5.569" transform="translate(20.387 5.569) rotate(180)" fill="none" stroke="#f0e0df" stroke-miterlimit="10" stroke-width="0.7"/>
                  <rect id="Rectangle_1679" data-name="Rectangle 1679" width="5.569" height="5.569" transform="translate(12.978 5.569) rotate(180)" fill="none" stroke="#f0e0df" stroke-miterlimit="10" stroke-width="0.7"/>
                  <rect id="Rectangle_1680" data-name="Rectangle 1680" width="5.569" height="5.569" transform="translate(5.569 5.569) rotate(180)" fill="none" stroke="#f0e0df" stroke-miterlimit="10" stroke-width="0.7"/>
                </g>
                <g id="Group_2155" data-name="Group 2155" transform="translate(0 7.069)">
                  <rect id="Rectangle_1681" data-name="Rectangle 1681" width="5.569" height="5.569" transform="translate(20.387 5.569) rotate(180)" fill="none" stroke="#f0e0df" stroke-miterlimit="10" stroke-width="0.7"/>
                  <rect id="Rectangle_1682" data-name="Rectangle 1682" width="5.569" height="5.569" transform="translate(12.978 5.569) rotate(180)" fill="none" stroke="#f0e0df" stroke-miterlimit="10" stroke-width="0.7"/>
                  <rect id="Rectangle_1683" data-name="Rectangle 1683" width="5.569" height="5.569" transform="translate(5.569 5.569) rotate(180)" fill="#3a82e5"/>
                </g>
                <g id="Group_2156" data-name="Group 2156" transform="translate(0 14.138)">
                  <rect id="Rectangle_1684" data-name="Rectangle 1684" width="5.569" height="5.569" transform="translate(20.387 5.569) rotate(180)" fill="none" stroke="#f0e0df" stroke-miterlimit="10" stroke-width="0.7"/>
                  <rect id="Rectangle_1685" data-name="Rectangle 1685" width="5.569" height="5.569" transform="translate(12.978 5.569) rotate(180)" fill="none" stroke="#f0e0df" stroke-miterlimit="10" stroke-width="0.7"/>
                  <rect id="Rectangle_1686" data-name="Rectangle 1686" width="5.569" height="5.569" transform="translate(5.569 5.569) rotate(180)" fill="none" stroke="#f0e0df" stroke-miterlimit="10" stroke-width="0.7"/>
                </g>
              </g>
            </g>
            <g id="Group_2173" data-name="Group 2173" transform="translate(18.239 17.065)">
              <g id="Group_2161" data-name="Group 2161" transform="translate(0.028 0)">
                <g id="Group_2159" data-name="Group 2159" transform="translate(6.661)">
                  <rect id="Rectangle_1687" data-name="Rectangle 1687" width="2.71" height="1.785" transform="translate(1.148 0.999)" fill="#ffa80a"/>
                  <path id="Path_1705" data-name="Path 1705" d="M1099.728,344.122h-3.545a.731.731,0,0,1-.731-.731h0a.731.731,0,0,1,.731-.731h3.545a.731.731,0,0,1,.731.731h0A.731.731,0,0,1,1099.728,344.122Z" transform="translate(-1095.452 -342.66)" fill="#ffcb2d"/>
                </g>
                <g id="Group_2160" data-name="Group 2160" transform="translate(0 2.703)">
                  <rect id="Rectangle_1688" data-name="Rectangle 1688" width="2.161" height="1.524" transform="translate(1.065 2.531) rotate(-45)" fill="#ffa80a"/>
                  <path id="Path_1706" data-name="Path 1706" d="M1046.469,364.728l-2.135,2.134a.551.551,0,0,1-.779,0h0a.551.551,0,0,1,0-.779l2.134-2.135a.551.551,0,0,1,.779,0h0A.551.551,0,0,1,1046.469,364.728Z" transform="translate(-1043.395 -363.787)" fill="#ffcb2d"/>
                </g>
              </g>
              <g id="Group_2172" data-name="Group 2172" transform="translate(0 2.015)">
                <g id="Group_2162" data-name="Group 2162">
                  <circle id="Ellipse_350" data-name="Ellipse 350" cx="9.16" cy="9.16" r="9.16" fill="#f52424"/>
                  <circle id="Ellipse_351" data-name="Ellipse 351" cx="8.667" cy="8.667" r="8.667" transform="translate(0.493 0.493)" fill="#f52424"/>
                  <circle id="Ellipse_352" data-name="Ellipse 352" cx="7.688" cy="7.688" r="7.688" transform="translate(1.472 1.471)" fill="#f6f6f6"/>
                </g>
                <g id="Group_2164" data-name="Group 2164" transform="translate(1.472 1.471)" opacity="0.71">
                  <g id="Group_2163" data-name="Group 2163" clip-path="url(#clip-path)">
                    <path id="Path_1707" data-name="Path 1707" d="M1049.028,364.514l11.653,18.058,5.265-4.528-11.53-16.163Z" transform="translate(-1049.751 -362.909)" fill="#fff"/>
                    <path id="Path_1708" data-name="Path 1708" d="M1097.564,345.946,1109.218,364l.677-2.264-11.53-16.163Z" transform="translate(-1092.077 -348.69)" fill="#fff"/>
                  </g>
                </g>
                <g id="Group_2171" data-name="Group 2171" transform="translate(2.355 2.363)">
                  <g id="Group_2169" data-name="Group 2169">
                    <g id="Group_2165" data-name="Group 2165" transform="translate(6.65)">
                      <path id="Path_1709" data-name="Path 1709" d="M1113.749,377.715a.193.193,0,0,1-.193-.193v-.454a.193.193,0,1,1,.387,0v.454A.194.194,0,0,1,1113.749,377.715Z" transform="translate(-1113.555 -376.874)" fill="#0050be"/>
                      <path id="Path_1710" data-name="Path 1710" d="M1113.749,478.111a.193.193,0,0,1-.193-.193v-.454a.193.193,0,1,1,.387,0v.454A.194.194,0,0,1,1113.749,478.111Z" transform="translate(-1113.555 -464.424)" fill="#0050be"/>
                    </g>
                    <g id="Group_2166" data-name="Group 2166" transform="translate(1.948 1.948)">
                      <path id="Path_1711" data-name="Path 1711" d="M1077.319,392.8a.192.192,0,0,1-.137-.057l-.321-.321a.193.193,0,1,1,.273-.274l.321.321a.193.193,0,0,1-.137.33Z" transform="translate(-1076.805 -392.096)" fill="#0050be"/>
                      <path id="Path_1712" data-name="Path 1712" d="M1148.31,463.795a.192.192,0,0,1-.137-.057l-.321-.321a.193.193,0,0,1,.273-.274l.321.321a.193.193,0,0,1-.137.33Z" transform="translate(-1138.712 -454.003)" fill="#0050be"/>
                    </g>
                    <g id="Group_2167" data-name="Group 2167" transform="translate(1.948 1.948)">
                      <path id="Path_1713" data-name="Path 1713" d="M1077,463.795a.193.193,0,0,1-.137-.33l.321-.321a.193.193,0,0,1,.274.274l-.321.321A.192.192,0,0,1,1077,463.795Z" transform="translate(-1076.805 -454.003)" fill="#0050be"/>
                      <path id="Path_1714" data-name="Path 1714" d="M1147.989,392.8a.193.193,0,0,1-.137-.33l.321-.321a.193.193,0,1,1,.274.274l-.321.321A.192.192,0,0,1,1147.989,392.8Z" transform="translate(-1138.712 -392.096)" fill="#0050be"/>
                    </g>
                    <g id="Group_2168" data-name="Group 2168" transform="translate(0 6.65)">
                      <path id="Path_1715" data-name="Path 1715" d="M1062.23,429.233h-.454a.193.193,0,0,1,0-.387h.454a.193.193,0,0,1,0,.387Z" transform="translate(-1061.583 -428.846)" fill="#0050be"/>
                      <path id="Path_1716" data-name="Path 1716" d="M1162.626,429.233h-.454a.193.193,0,1,1,0-.387h.454a.193.193,0,0,1,0,.387Z" transform="translate(-1149.133 -428.846)" fill="#0050be"/>
                    </g>
                  </g>
                  <g id="Group_2170" data-name="Group 2170" transform="translate(5.783 2.302)">
                    <path id="Path_1717" data-name="Path 1717" d="M1112.379,399.332h-.924v-4.007a.462.462,0,0,1,.462-.462h0a.462.462,0,0,1,.462.462Z" transform="translate(-1110.857 -394.863)" fill="#689fe9"/>
                    <circle id="Ellipse_354" data-name="Ellipse 354" cx="1.06" cy="1.06" r="1.06" transform="translate(0 3.409)" fill="#0050be"/>
                  </g>
                </g>
              </g>
            </g>
          </g>
        </g>
        <g id="Group_2144" data-name="Group 2144" transform="translate(19.937)">
          <path id="Path_1680" data-name="Path 1680" d="M325.669,200.026a5.437,5.437,0,0,1-4.079-4.838c-.005-.113-.01-.224-.01-.334a.667.667,0,0,1,.005-.1.634.634,0,0,1-.005-.1c0-.111.005-.221.01-.334a5.437,5.437,0,0,1,4.079-4.838,19.988,19.988,0,0,0,14.639-19.252,19.715,19.715,0,0,0-.329-3.616c-.036-.2-.075-.4-.118-.594-.031-.144-.062-.288-.1-.432a.093.093,0,0,0-.005-.026c-.018-.075-.036-.149-.057-.224-.033-.144-.069-.283-.111-.424-.059-.216-.121-.429-.188-.643h-.682c.023.069.046.139.064.208a.2.2,0,0,1,.013.036q.058.181.108.363c.023.08.046.157.064.237.036.126.069.249.1.376.021.08.041.159.057.237.033.129.062.255.087.383.01.044.021.087.028.131,0,.015.008.033.01.051q.046.22.085.44A19.33,19.33,0,0,1,325.5,188.854a6.076,6.076,0,0,0-4.555,5.429c-.008.123-.01.247-.01.37,0,.033,0,.069,0,.1s0,.069,0,.1c0,.123,0,.247.01.37a6.073,6.073,0,0,0,4.555,5.429,19.333,19.333,0,0,1,13.841,22.125,18.814,18.814,0,0,1-1.5,4.694h-35.01a18.912,18.912,0,0,1-1.5-4.7,19.347,19.347,0,0,1,13.844-22.123,6.076,6.076,0,0,0,4.555-5.429c.008-.123.01-.247.01-.37,0-.031,0-.067,0-.1s0-.067,0-.1c0-.123,0-.247-.01-.37a6.079,6.079,0,0,0-4.555-5.429,19.347,19.347,0,0,1-13.844-22.123c.036-.2.077-.4.121-.607,0-.005,0-.01,0-.015.044-.2.087-.391.136-.586,0-.01.005-.021.008-.033.039-.149.077-.3.121-.448,0-.013.008-.023.01-.036.013-.057.031-.116.049-.172.028-.108.062-.213.1-.319a.2.2,0,0,1,.013-.036c.018-.069.041-.139.064-.208h-.681c-.067.213-.129.427-.188.643-.041.141-.077.28-.111.424-.021.075-.039.149-.057.224a.091.091,0,0,0-.005.026c-.036.144-.067.288-.1.432-.044.2-.082.393-.118.594a19.718,19.718,0,0,0-.329,3.616A19.985,19.985,0,0,0,315,189.481a5.434,5.434,0,0,1,4.076,4.838c.008.113.01.224.01.334,0,.033,0,.069,0,.1s0,.069,0,.1c0,.111,0,.221-.01.334A5.434,5.434,0,0,1,315,200.026a19.987,19.987,0,0,0-14.639,19.252,20.012,20.012,0,0,0,2.06,8.844h35.828a20.011,20.011,0,0,0,2.06-8.844A19.99,19.99,0,0,0,325.669,200.026Z" transform="translate(-295.438 -161.676)" fill="#389fe5" opacity="0.2"/>
          <path id="Path_1681" data-name="Path 1681" d="M341.536,219.278a19.244,19.244,0,0,1-.319,3.5,18.813,18.813,0,0,1-1.5,4.694h-35.01a18.912,18.912,0,0,1-1.5-4.7,19.347,19.347,0,0,1,13.844-22.123,6.077,6.077,0,0,0,4.555-5.429c.008-.123.01-.247.01-.37,0-.031,0-.067,0-.1s0-.067,0-.1c0-.123,0-.247-.01-.37a6.079,6.079,0,0,0-4.555-5.429,19.347,19.347,0,0,1-13.844-22.123c.036-.2.077-.4.121-.607,0-.005,0-.01,0-.015.041-.2.087-.391.136-.586,0-.01.005-.021.008-.033.041-.162.082-.321.131-.483s.093-.329.144-.491c.026-.082.051-.165.077-.244H340.6c.026.08.051.162.077.244q.058.181.108.363c.023.08.046.157.064.237.036.126.069.249.1.376.021.08.041.159.057.237.033.129.062.255.087.383.013.059.026.121.039.183q.046.22.085.44a19.33,19.33,0,0,1-13.841,22.123,6.076,6.076,0,0,0-4.555,5.429c-.008.123-.01.247-.01.37,0,.033,0,.069,0,.1s0,.069,0,.1c0,.123,0,.247.01.37a6.073,6.073,0,0,0,4.555,5.429A19.379,19.379,0,0,1,341.536,219.278Z" transform="translate(-297.317 -161.676)" fill="#fff"/>
          <path id="Path_1682" data-name="Path 1682" d="M341.536,219.278a19.244,19.244,0,0,1-.319,3.5,18.813,18.813,0,0,1-1.5,4.694h-35.01a18.912,18.912,0,0,1-1.5-4.7,19.347,19.347,0,0,1,13.844-22.123,6.077,6.077,0,0,0,4.555-5.429c.008-.123.01-.247.01-.37,0-.031,0-.067,0-.1s0-.067,0-.1c0-.123,0-.247-.01-.37a6.079,6.079,0,0,0-4.555-5.429,19.347,19.347,0,0,1-13.844-22.123c.036-.2.077-.4.121-.607,0-.005,0-.01,0-.015.041-.2.087-.391.136-.586,0-.01.005-.021.008-.033.041-.162.082-.321.131-.483s.093-.329.144-.491c.026-.082.051-.165.077-.244H340.6c.026.08.051.162.077.244q.058.181.108.363c.023.08.046.157.064.237.036.126.069.249.1.376.021.08.041.159.057.237.033.129.062.255.087.383.013.059.026.121.039.183q.046.22.085.44a19.33,19.33,0,0,1-13.841,22.123,6.076,6.076,0,0,0-4.555,5.429c-.008.123-.01.247-.01.37,0,.033,0,.069,0,.1s0,.069,0,.1c0,.123,0,.247.01.37a6.073,6.073,0,0,0,4.555,5.429A19.379,19.379,0,0,1,341.536,219.278Z" transform="translate(-297.317 -161.676)" fill="#d7ecfa" opacity="0.5"/>
          <path id="Path_1683" data-name="Path 1683" d="M316.055,214.566a19.3,19.3,0,0,0,10.356,7.291,7.29,7.29,0,0,1,3.579,1.949,5.557,5.557,0,0,1,1.4,4.12c-.015,1.07.6,16.718.6,18.667,0,1.839.238.477.185.081.19-11.073.415-19.22.415-19.22s.662-3.481,1.687-3.962a63.277,63.277,0,0,1,6.264-2.633c1.521-.426,5.2-3.777,5.2-3.777s4.67-6.66,4.954-7.513-2.112-.934-2.112-.934Z" transform="translate(-307.096 -194.633)" fill="#ff9a30"/>
          <ellipse id="Ellipse_346" data-name="Ellipse 346" cx="17.94" cy="3.706" rx="17.94" ry="3.706" transform="matrix(0.988, -0.155, 0.155, 0.988, 7.708, 15.731)" fill="#fdcf33"/>
          <g id="Group_2139" data-name="Group 2139" transform="translate(7.756 4.826)" opacity="0.5">
            <g id="Group_2137" data-name="Group 2137" transform="translate(6.491 14.377)">
              <path id="Path_1684" data-name="Path 1684" d="M342.011,234.374a1.947,1.947,0,0,1-.633-.106,18.569,18.569,0,0,1-3.846-1.817,1.949,1.949,0,0,1,2.074-3.3,14.677,14.677,0,0,0,3.039,1.43,1.95,1.95,0,0,1-.633,3.793Z" transform="translate(-336.618 -228.851)" fill="#fff"/>
            </g>
            <g id="Group_2138" data-name="Group 2138">
              <path id="Path_1685" data-name="Path 1685" d="M315.639,187.1a1.948,1.948,0,0,1-1.646-.9,18.323,18.323,0,0,1-2.485-11.593,1.949,1.949,0,0,1,3.854.587,14.55,14.55,0,0,0,1.92,8.913,1.95,1.95,0,0,1-1.643,3Z" transform="translate(-311.379 -172.949)" fill="#fff"/>
            </g>
          </g>
          <g id="Group_2142" data-name="Group 2142" transform="translate(7.756 41.212)" opacity="0.5">
            <g id="Group_2140" data-name="Group 2140" transform="translate(6.491)">
              <path id="Path_1686" data-name="Path 1686" d="M342.011,314.433a1.947,1.947,0,0,0-.633.106,18.569,18.569,0,0,0-3.846,1.817,1.949,1.949,0,0,0,2.074,3.3,14.667,14.667,0,0,1,3.039-1.431,1.95,1.95,0,0,0-.633-3.793Z" transform="translate(-336.618 -314.433)" fill="#fff"/>
            </g>
            <g id="Group_2141" data-name="Group 2141" transform="translate(0 5.751)">
              <path id="Path_1687" data-name="Path 1687" d="M315.639,336.794a1.948,1.948,0,0,0-1.646.9,18.323,18.323,0,0,0-2.485,11.593,1.949,1.949,0,0,0,3.854-.587,14.55,14.55,0,0,1,1.92-8.913,1.95,1.95,0,0,0-1.643-3Z" transform="translate(-311.379 -336.794)" fill="#fff"/>
            </g>
          </g>
          <path id="Path_1688" data-name="Path 1688" d="M325.669,200.026a5.437,5.437,0,0,1-4.079-4.838c-.005-.113-.01-.224-.01-.334a.667.667,0,0,1,.005-.1.634.634,0,0,1-.005-.1c0-.111.005-.221.01-.334a5.437,5.437,0,0,1,4.079-4.838,19.988,19.988,0,0,0,14.639-19.252,19.715,19.715,0,0,0-.329-3.616c-.036-.2-.075-.4-.118-.594-.031-.144-.062-.288-.1-.432a.093.093,0,0,0-.005-.026c-.018-.075-.036-.149-.057-.224-.033-.144-.069-.283-.111-.424-.059-.216-.121-.429-.188-.643h-.682c.023.067.044.139.064.208a.2.2,0,0,1,.013.036q.058.181.108.363c.023.08.046.157.064.237.036.126.069.249.1.376.021.08.041.159.057.237.033.129.062.255.087.383.01.044.018.087.028.131,0,.015.008.033.01.051q.046.22.085.44A19.33,19.33,0,0,1,325.5,188.854a6.076,6.076,0,0,0-4.555,5.429c-.008.123-.01.247-.01.37,0,.033,0,.069,0,.1s0,.069,0,.1c0,.123,0,.247.01.37a6.073,6.073,0,0,0,4.555,5.429,19.333,19.333,0,0,1,13.841,22.125,18.814,18.814,0,0,1-1.5,4.694h-35.01a18.912,18.912,0,0,1-1.5-4.7,19.347,19.347,0,0,1,13.844-22.123,6.076,6.076,0,0,0,4.555-5.429c.008-.123.01-.247.01-.37,0-.031,0-.067,0-.1s0-.067,0-.1c0-.123,0-.247-.01-.37a6.079,6.079,0,0,0-4.555-5.429,19.347,19.347,0,0,1-13.844-22.123c.036-.2.077-.406.121-.607,0-.005,0-.01,0-.015.044-.2.087-.391.136-.586,0-.01.005-.021.008-.033.039-.149.077-.3.121-.448,0-.013.008-.023.01-.036.016-.057.031-.116.049-.172.028-.108.062-.213.1-.319a.2.2,0,0,1,.013-.036c.021-.069.041-.141.064-.208h-.681c-.067.213-.129.427-.188.643-.041.141-.077.28-.111.424-.021.075-.039.149-.057.224a.091.091,0,0,0-.005.026c-.036.144-.067.288-.1.432-.044.2-.082.393-.118.594a19.718,19.718,0,0,0-.329,3.616A19.985,19.985,0,0,0,315,189.481a5.434,5.434,0,0,1,4.076,4.838c.008.113.01.224.01.334,0,.033,0,.069,0,.1s0,.069,0,.1c0,.111,0,.221-.01.334A5.434,5.434,0,0,1,315,200.026a19.987,19.987,0,0,0-14.639,19.252,20.012,20.012,0,0,0,2.06,8.844h35.828a20.011,20.011,0,0,0,2.06-8.844A19.99,19.99,0,0,0,325.669,200.026Z" transform="translate(-295.438 -161.676)" fill="#8fbeff"/>
          <path id="Path_1689" data-name="Path 1689" d="M331.012,402.963h0a1.889,1.889,0,0,1-1.889,1.889H283.109a1.889,1.889,0,0,1-1.889-1.889h0a1.889,1.889,0,0,1,1.889-1.889h46.013A1.889,1.889,0,0,1,331.012,402.963Z" transform="translate(-281.22 -337.579)" fill="#0050be"/>
          <g id="Group_2143" data-name="Group 2143" transform="translate(26.731 14.467)">
            <path id="Path_1690" data-name="Path 1690" d="M432.2,210.565c.03.143-.354.345-.859.452s-.938.078-.969-.065.354-.345.859-.452S432.171,210.422,432.2,210.565Z" transform="translate(-418.744 -210.436)" fill="#ff9a30"/>
            <path id="Path_1691" data-name="Path 1691" d="M429.589,216.848c.03.143-.207.314-.529.382s-.608.008-.638-.135.207-.314.529-.382S429.559,216.7,429.589,216.848Z" transform="translate(-417.295 -215.078)" fill="#ff9a30"/>
            <path id="Path_1692" data-name="Path 1692" d="M423.852,215.163c.03.142-.206.313-.529.382s-.607.008-.638-.135.207-.314.529-.382S423.822,215.02,423.852,215.163Z" transform="translate(-413.033 -213.826)" fill="#ff9a30"/>
            <path id="Path_1693" data-name="Path 1693" d="M385.792,220.476c.016.077-.112.169-.285.206s-.328,0-.344-.073.111-.169.285-.206S385.775,220.4,385.792,220.476Z" transform="translate(-385.16 -217.829)" fill="#ff9a30"/>
            <path id="Path_1694" data-name="Path 1694" d="M416.4,211.177c.016.077-.111.169-.285.206s-.328,0-.344-.073.112-.169.285-.206S416.385,211.1,416.4,211.177Z" transform="translate(-407.898 -210.921)" fill="#ff9a30"/>
            <path id="Path_1695" data-name="Path 1695" d="M405.3,221.862c.016.077-.112.169-.285.206s-.328,0-.345-.073.112-.169.285-.206S405.288,221.785,405.3,221.862Z" transform="translate(-399.654 -218.858)" fill="#ff9a30"/>
            <path id="Path_1696" data-name="Path 1696" d="M390.5,228.939c.017.077-.111.169-.285.206s-.328,0-.344-.073.112-.169.285-.206S390.484,228.862,390.5,228.939Z" transform="translate(-388.658 -224.115)" fill="#ff9a30"/>
          </g>
          <path id="Path_1697" data-name="Path 1697" d="M339.134,348.37l-.134-.052-.133.052s-1.15,9-13.5,13.516H352.63C340.284,357.365,339.134,348.37,339.134,348.37Z" transform="translate(-314.017 -298.391)" fill="#ff9a30"/>
          <path id="Path_1698" data-name="Path 1698" d="M341.9,159.815c0,1-8.565,1.817-19.131,1.817s-19.131-.814-19.131-1.817S312.2,158,322.768,158,341.9,158.811,341.9,159.815Z" transform="translate(-297.872 -157.017)" fill="#b9dbef"/>
          <path id="Path_1699" data-name="Path 1699" d="M329.122,154.185H283.11a1.889,1.889,0,1,0,0,3.778h46.012a1.889,1.889,0,1,0,0-3.778Z" transform="translate(-281.22 -154.185)" fill="#0050be"/>
        </g>
      </g>
    </g>
  </g>
</svg>
