<svg xmlns="https://www.w3.org/2000/svg" width="308.161" height="211.708" viewBox="0 0 308.161 211.708">
  <g id="no_invoice" transform="translate(-37.949 -323)">
    <path id="Path_1741" data-name="Path 1741" d="M49.352,536.079c51.4.256,226.225-.233,277.533,0,12.024.055,4.525-42.963.895-57.782C300.8,368.172,247.428,351.546,208.3,375.335c-26.859,16.331-37.723,57.534-94.229,69.869-21.818,4.763-44.823,11.8-65.16,40.655C41.95,495.736,39,536.029,49.352,536.079Z" transform="translate(8.558 -1.448)" fill="#e5ecf7"/>
    <g id="Group_2782" data-name="Group 2782" transform="translate(-2.496 264.034)">
      <g id="Group_2748" data-name="Group 2748" transform="translate(40.445 112.36)">
        <g id="Group_2743" data-name="Group 2743" transform="translate(0 26.103)">
          <g id="Group_2742" data-name="Group 2742">
            <g id="Group_2737" data-name="Group 2737" transform="translate(151.905)">
              <g id="Group_2729" data-name="Group 2729">
                <path id="Path_2546" data-name="Path 2546" d="M316.356,183.416h.165l-.082-.082Z" transform="translate(-269.28 -158.252)" fill="none"/>
                <path id="Path_2547" data-name="Path 2547" d="M291.5,183.361h.451l-.226-.226Z" transform="translate(-262.35 -158.197)" fill="none"/>
                <path id="Path_2548" data-name="Path 2548" d="M300.549,183.426h.114l-.057-.057Z" transform="translate(-264.873 -158.262)" fill="none"/>
                <path id="Path_2549" data-name="Path 2549" d="M285.173,183.439h.047l-.023-.024Z" transform="translate(-260.586 -158.275)" fill="none"/>
                <path id="Path_2550" data-name="Path 2550" d="M279.348,183.442h.03l-.015-.015Z" transform="translate(-258.962 -158.278)" fill="none"/>
                <path id="Path_2551" data-name="Path 2551" d="M251.08,308.777a13.206,13.206,0,0,0,13.206,13.207h54.229a13.217,13.217,0,0,1-13.207-13.207V305.65H251.08Z" transform="translate(-251.08 -192.357)" fill="#a7cafb"/>
                <path id="Path_2552" data-name="Path 2552" d="M460.139,264.663a9.842,9.842,0,1,0-19.683,0v12.173h19.683Z" transform="translate(-303.882 -178.184)" fill="#a7cafb"/>
                <g id="Group_2727" data-name="Group 2727" transform="translate(80.649 36.654)">
                  <path id="Path_2553" data-name="Path 2553" d="M392.585,214.222a14.838,14.838,0,1,0-29.676,0v4.062h29.676Z" transform="translate(-362.909 -199.38)" fill="#a7cafb"/>
                  <rect id="Rectangle_1918" data-name="Rectangle 1918" width="29.676" height="57.735" transform="translate(0 18.904)" fill="#a7cafb"/>
                </g>
                <path id="Path_2554" data-name="Path 2554" d="M389.79,307.437V305.65H360.114v3.127a13.264,13.264,0,0,1-7.229,11.778h50.029a13.124,13.124,0,0,1-13.125-13.117Z" transform="translate(-279.466 -192.357)" fill="#a7cafb"/>
                <g id="Group_2728" data-name="Group 2728">
                  <path id="Path_2555" data-name="Path 2555" d="M285.173,183.439h.047l-.023-.024Z" transform="translate(-260.586 -158.275)" fill="none"/>
                  <path id="Path_2556" data-name="Path 2556" d="M291.5,183.361h.451l-.226-.226Z" transform="translate(-262.35 -158.197)" fill="none"/>
                  <path id="Path_2557" data-name="Path 2557" d="M279.348,183.442h.03l-.015-.015Z" transform="translate(-258.962 -158.278)" fill="none"/>
                  <path id="Path_2558" data-name="Path 2558" d="M316.356,183.416h.165l-.082-.082Z" transform="translate(-269.28 -158.252)" fill="none"/>
                  <path id="Path_2559" data-name="Path 2559" d="M300.549,183.426h.114l-.057-.057Z" transform="translate(-264.873 -158.262)" fill="none"/>
                  <path id="Path_2560" data-name="Path 2560" d="M269.09,178.545v3.536H251.08V270.21h54.228V182.083h0v-3.538Zm2.376,3.536.015-.015.015.015Zm4.2,0,.024-.023.024.023Zm4.564,0,.226-.226.225.226Zm6.525,0,.057-.057.057.057Zm11.4,0,.082-.082.083.082Z" transform="translate(-251.08 -156.917)" fill="#a7cafb"/>
                  <path id="Path_2561" data-name="Path 2561" d="M312.273,166.665a18.11,18.11,0,1,0-36.22,0v3.518h36.22Z" transform="translate(-258.043 -148.555)" fill="#a7cafb"/>
                </g>
              </g>
              <g id="Group_2736" data-name="Group 2736" transform="translate(54.228 36.654)">
                <g id="Group_2730" data-name="Group 2730">
                  <path id="Path_2562" data-name="Path 2562" d="M326.274,304.233a13.21,13.21,0,0,0,26.42,0v-14.88h-26.42Z" transform="translate(-326.274 -224.467)" fill="#fff"/>
                  <path id="Path_2563" data-name="Path 2563" d="M430.307,264.663a9.829,9.829,0,0,1,9.841-9.842H404.058v24.9h26.249Z" transform="translate(-347.962 -214.838)" fill="#fff"/>
                  <path id="Path_2564" data-name="Path 2564" d="M404.058,289.353v13.54a13.125,13.125,0,0,0,26.249,0v-13.54Z" transform="translate(-347.962 -224.467)" fill="#fff"/>
                  <path id="Path_2565" data-name="Path 2565" d="M357.037,203.73a14.789,14.789,0,0,1,10.492-4.35H326.274v64.886h26.42V214.222A14.8,14.8,0,0,1,357.037,203.73Z" transform="translate(-326.274 -199.38)" fill="#fff"/>
                </g>
                <g id="Group_2735" data-name="Group 2735" transform="translate(13.21 17.996)">
                  <g id="Group_2732" data-name="Group 2732" transform="translate(0 23.326)">
                    <g id="Group_2731" data-name="Group 2731">
                      <rect id="Rectangle_1919" data-name="Rectangle 1919" width="8.492" height="1.817" fill="#3a82e5"/>
                      <rect id="Rectangle_1920" data-name="Rectangle 1920" width="6.087" height="1.817" transform="translate(2.405 5.931)" fill="#3a82e5"/>
                      <rect id="Rectangle_1921" data-name="Rectangle 1921" width="8.492" height="1.817" transform="translate(0 11.861)" fill="#3a82e5"/>
                      <rect id="Rectangle_1922" data-name="Rectangle 1922" width="8.492" height="1.817" transform="translate(0 17.792)" fill="#3a82e5"/>
                      <rect id="Rectangle_1923" data-name="Rectangle 1923" width="6.087" height="1.817" transform="translate(2.405 35.583)" fill="#3a82e5"/>
                      <rect id="Rectangle_1924" data-name="Rectangle 1924" width="6.087" height="1.817" transform="translate(2.405 23.722)" fill="#3a82e5"/>
                      <rect id="Rectangle_1925" data-name="Rectangle 1925" width="8.492" height="1.817" transform="translate(0 29.653)" fill="#3a82e5"/>
                    </g>
                  </g>
                  <g id="Group_2734" data-name="Group 2734">
                    <g id="Group_2733" data-name="Group 2733">
                      <rect id="Rectangle_1926" data-name="Rectangle 1926" width="8.492" height="1.817" fill="#3a82e5"/>
                      <rect id="Rectangle_1927" data-name="Rectangle 1927" width="6.087" height="1.817" transform="translate(2.405 17.792)" fill="#3a82e5"/>
                      <rect id="Rectangle_1928" data-name="Rectangle 1928" width="6.087" height="1.817" transform="translate(2.405 5.931)" fill="#3a82e5"/>
                      <rect id="Rectangle_1929" data-name="Rectangle 1929" width="8.492" height="1.817" transform="translate(0 11.861)" fill="#3a82e5"/>
                    </g>
                  </g>
                </g>
              </g>
            </g>
            <g id="Group_2740" data-name="Group 2740" transform="translate(0 74.952)">
              <g id="Group_2739" data-name="Group 2739">
                <path id="Path_2566" data-name="Path 2566" d="M274.076,252.485h-82.6l-46.24,12.748h82.6Z" transform="translate(-69.664 -252.485)" fill="#81b7ff"/>
                <g id="Group_2738" data-name="Group 2738" transform="translate(107.375 4.281)">
                  <path id="Path_2567" data-name="Path 2567" d="M195.611,258.421l-6.278,1.731h66.55l6.278-1.731Z" transform="translate(-189.334 -258.421)" fill="#1268df"/>
                </g>
                <rect id="Rectangle_1930" data-name="Rectangle 1930" width="82.598" height="12.446" transform="translate(75.574 12.748)" fill="#d4e5fc"/>
                <path id="Path_2568" data-name="Path 2568" d="M116.019,287.419,40.445,308.865h82.6l75.574-21.446Z" transform="translate(-40.445 -262.225)" fill="#aed1ff"/>
                <rect id="Rectangle_1931" data-name="Rectangle 1931" width="82.598" height="9.531" transform="translate(0 46.64)" fill="#6aa5fe"/>
              </g>
              <path id="Path_2569" data-name="Path 2569" d="M276.791,252.485v23.652a8.784,8.784,0,0,1-5.3,8.066l-17.624,7.6a8.783,8.783,0,0,0-5.3,8.066h0a8.785,8.785,0,0,1-8.785,8.785H154.978v-9.532l75.574-21.446V265.233Z" transform="translate(-72.38 -252.485)" fill="#3a82e5"/>
            </g>
            <g id="Group_2741" data-name="Group 2741" transform="translate(116.047)">
              <path id="Path_2570" data-name="Path 2570" d="M255.227,166.665a18.11,18.11,0,0,1,18.11-18.11H219.478a18.11,18.11,0,0,0-18.119,18.11v62.853h53.868Z" transform="translate(-201.359 -148.555)" fill="#fff"/>
            </g>
          </g>
          <rect id="Rectangle_1932" data-name="Rectangle 1932" width="53.867" height="1.085" transform="translate(116.048 79.879)" fill="#dff7f9"/>
        </g>
        <g id="Group_2744" data-name="Group 2744" transform="translate(137.74 11.306)">
          <path id="Path_2571" data-name="Path 2571" d="M235.345,129.632v-.825a.77.77,0,0,0-.77-.77h0a.77.77,0,0,0-.77.77v.825a.77.77,0,0,1-.77.77h-.825a.77.77,0,0,0-.77.77h0a.771.771,0,0,0,.77.77h.825a.77.77,0,0,1,.77.77v.826a.771.771,0,0,0,.77.77h0a.771.771,0,0,0,.77-.77v-.826a.77.77,0,0,1,.77-.77h.825a.771.771,0,0,0,.77-.77h0a.77.77,0,0,0-.77-.77h-.825A.77.77,0,0,1,235.345,129.632Z" transform="translate(-231.439 -128.037)" fill="#fff"/>
        </g>
        <g id="Group_2745" data-name="Group 2745" transform="translate(91.834 59.514)">
          <path id="Path_2572" data-name="Path 2572" d="M171.471,196.389v-.779a.727.727,0,0,0-.727-.726h0a.727.727,0,0,0-.727.726v.779a.727.727,0,0,1-.727.727h-.779a.727.727,0,0,0-.726.727h0a.727.727,0,0,0,.726.727h.779a.727.727,0,0,1,.727.727v.779a.727.727,0,0,0,.727.726h0a.727.727,0,0,0,.727-.726V199.3a.727.727,0,0,1,.727-.727h.779a.727.727,0,0,0,.726-.727h0a.727.727,0,0,0-.726-.727H172.2A.727.727,0,0,1,171.471,196.389Z" transform="translate(-167.785 -194.884)" fill="#0268f5"/>
        </g>
        <g id="Group_2746" data-name="Group 2746" transform="translate(227.354 47.014)">
          <path id="Path_2573" data-name="Path 2573" d="M359.6,179.146v-.826a.77.77,0,0,0-.77-.77h0a.77.77,0,0,0-.77.77v.826a.771.771,0,0,1-.77.77h-.825a.77.77,0,0,0-.77.77h0a.77.77,0,0,0,.77.77h.825a.77.77,0,0,1,.77.77v.825a.77.77,0,0,0,.77.77h0a.77.77,0,0,0,.77-.77v-.825a.77.77,0,0,1,.77-.77h.825a.77.77,0,0,0,.77-.77h0a.77.77,0,0,0-.77-.77h-.825A.77.77,0,0,1,359.6,179.146Z" transform="translate(-355.699 -177.551)" fill="#0268f5"/>
        </g>
        <g id="Group_2747" data-name="Group 2747" transform="translate(284.042 85.534)">
          <path id="Path_2574" data-name="Path 2574" d="M437.124,232.115v-.6a.557.557,0,0,0-.556-.556h0a.556.556,0,0,0-.556.556v.6a.556.556,0,0,1-.556.556h-.6a.556.556,0,0,0-.556.556h0a.556.556,0,0,0,.556.556h.6a.556.556,0,0,1,.556.556v.6a.556.556,0,0,0,.556.556h0a.556.556,0,0,0,.556-.556v-.6a.556.556,0,0,1,.555-.556h.6a.556.556,0,0,0,.556-.556h0a.556.556,0,0,0-.556-.556h-.6A.556.556,0,0,1,437.124,232.115Z" transform="translate(-434.304 -230.963)" fill="#0268f5"/>
        </g>
        <path id="Path_2575" data-name="Path 2575" d="M271.013,113.721a1.233,1.233,0,1,1-1.233-1.233A1.233,1.233,0,0,1,271.013,113.721Z" transform="translate(-104.045 -112.396)" fill="#fff"/>
        <circle id="Ellipse_453" data-name="Ellipse 453" cx="0.961" cy="0.961" r="0.961" transform="translate(105.886 44.474)" fill="#fff"/>
        <path id="Path_2576" data-name="Path 2576" d="M340.89,160.543a.693.693,0,1,1-.694-.694A.693.693,0,0,1,340.89,160.543Z" transform="translate(-123.829 -125.601)" fill="#0268f5"/>
        <circle id="Ellipse_454" data-name="Ellipse 454" cx="0.892" cy="0.892" r="0.892" transform="translate(275.809 70.409)" fill="#0268f5"/>
        <path id="Path_2577" data-name="Path 2577" d="M456.787,216.1a1.36,1.36,0,1,1-1.36-1.36A1.36,1.36,0,0,1,456.787,216.1Z" transform="translate(-155.772 -140.906)" fill="#0268f5"/>
        <path id="Path_2578" data-name="Path 2578" d="M393.6,177.048a1.237,1.237,0,1,1-1.237-1.237A1.237,1.237,0,0,1,393.6,177.048Z" transform="translate(-138.224 -130.052)" fill="#0268f5"/>
        <path id="Path_2579" data-name="Path 2579" d="M319.76,113.287a.927.927,0,1,1-.927-.927A.928.928,0,0,1,319.76,113.287Z" transform="translate(-117.807 -112.36)" fill="#0268f5"/>
        <path id="Path_2580" data-name="Path 2580" d="M192.077,220.842a1.487,1.487,0,1,1-1.487-1.487A1.487,1.487,0,0,1,192.077,220.842Z" transform="translate(-81.894 -142.193)" fill="#0268f5"/>
        <circle id="Ellipse_455" data-name="Ellipse 455" cx="1.67" cy="1.67" r="1.67" transform="translate(178.826 14.47)" fill="none" stroke="#3a82e5" stroke-miterlimit="10" stroke-width="1"/>
      </g>
      <g id="Group_2761" data-name="Group 2761" transform="translate(63.662 240.574)">
        <g id="Group_2752" data-name="Group 2752" transform="translate(0 0)">
          <g id="Group_2749" data-name="Group 2749" transform="translate(37.887)">
            <path id="Path_2581" data-name="Path 2581" d="M139.441,290.144l-14.268,4.049h15.594l14.268-4.049Z" transform="translate(-125.173 -290.144)" fill="#91bffc"/>
            <rect id="Rectangle_1933" data-name="Rectangle 1933" width="15.594" height="1.076" transform="translate(0 4.049)" fill="#6aa5fe"/>
            <path id="Path_2582" data-name="Path 2582" d="M146.8,294.193l14.268-4.049v.992L146.8,295.269Z" transform="translate(-131.202 -290.144)" fill="#3a82e5"/>
          </g>
          <g id="Group_2750" data-name="Group 2750" transform="translate(19.126 5.521)">
            <path id="Path_2583" data-name="Path 2583" d="M113.426,297.8l-14.268,4.049h15.594L129.02,297.8Z" transform="translate(-99.158 -297.8)" fill="#91bffc"/>
            <rect id="Rectangle_1934" data-name="Rectangle 1934" width="15.594" height="1.076" transform="translate(0 4.049)" fill="#6aa5fe"/>
            <path id="Path_2584" data-name="Path 2584" d="M120.781,301.849l14.268-4.049v.992l-14.268,4.132Z" transform="translate(-105.187 -297.8)" fill="#3a82e5"/>
          </g>
          <g id="Group_2751" data-name="Group 2751" transform="translate(0 11.042)">
            <path id="Path_2585" data-name="Path 2585" d="M86.906,305.456,72.638,309.5H88.232l14.268-4.049Z" transform="translate(-72.638 -305.456)" fill="#91bffc"/>
            <rect id="Rectangle_1935" data-name="Rectangle 1935" width="15.594" height="1.076" transform="translate(0 4.049)" fill="#6aa5fe"/>
            <path id="Path_2586" data-name="Path 2586" d="M94.261,309.5l14.268-4.049v.992L94.261,310.58Z" transform="translate(-78.667 -305.456)" fill="#3a82e5"/>
          </g>
        </g>
        <g id="Group_2756" data-name="Group 2756" transform="translate(21.272 0)">
          <g id="Group_2753" data-name="Group 2753" transform="translate(37.887)">
            <path id="Path_2587" data-name="Path 2587" d="M168.937,290.144l-14.268,4.049h15.594l14.268-4.049Z" transform="translate(-154.669 -290.144)" fill="#91bffc"/>
            <rect id="Rectangle_1936" data-name="Rectangle 1936" width="15.594" height="1.076" transform="translate(0 4.049)" fill="#6aa5fe"/>
            <path id="Path_2588" data-name="Path 2588" d="M176.292,294.193l14.268-4.049v.992l-14.268,4.132Z" transform="translate(-160.698 -290.144)" fill="#3a82e5"/>
          </g>
          <g id="Group_2754" data-name="Group 2754" transform="translate(19.126 5.521)">
            <path id="Path_2589" data-name="Path 2589" d="M142.922,297.8l-14.268,4.049h15.594l14.268-4.049Z" transform="translate(-128.654 -297.8)" fill="#91bffc"/>
            <rect id="Rectangle_1937" data-name="Rectangle 1937" width="15.594" height="1.076" transform="translate(0 4.049)" fill="#6aa5fe"/>
            <path id="Path_2590" data-name="Path 2590" d="M150.277,301.849l14.268-4.049v.992l-14.268,4.132Z" transform="translate(-134.683 -297.8)" fill="#3a82e5"/>
          </g>
          <g id="Group_2755" data-name="Group 2755" transform="translate(0 11.042)">
            <path id="Path_2591" data-name="Path 2591" d="M116.4,305.456,102.133,309.5h15.594L132,305.456Z" transform="translate(-102.133 -305.456)" fill="#91bffc"/>
            <rect id="Rectangle_1938" data-name="Rectangle 1938" width="15.594" height="1.076" transform="translate(0 4.049)" fill="#6aa5fe"/>
            <path id="Path_2592" data-name="Path 2592" d="M123.756,309.5l14.268-4.049v.992l-14.268,4.132Z" transform="translate(-108.162 -305.456)" fill="#3a82e5"/>
          </g>
        </g>
        <g id="Group_2760" data-name="Group 2760" transform="translate(43.124 0)">
          <g id="Group_2757" data-name="Group 2757" transform="translate(37.887)">
            <path id="Path_2593" data-name="Path 2593" d="M199.237,290.144l-14.268,4.049h15.594l14.268-4.049Z" transform="translate(-184.969 -290.144)" fill="#91bffc"/>
            <rect id="Rectangle_1939" data-name="Rectangle 1939" width="15.594" height="1.076" transform="translate(0 4.049)" fill="#6aa5fe"/>
            <path id="Path_2594" data-name="Path 2594" d="M206.592,294.193l14.268-4.049v.992l-14.268,4.132Z" transform="translate(-190.998 -290.144)" fill="#3a82e5"/>
          </g>
          <g id="Group_2758" data-name="Group 2758" transform="translate(19.126 5.521)">
            <path id="Path_2595" data-name="Path 2595" d="M173.222,297.8l-14.268,4.049h15.594l14.268-4.049Z" transform="translate(-158.954 -297.8)" fill="#91bffc"/>
            <rect id="Rectangle_1940" data-name="Rectangle 1940" width="15.594" height="1.076" transform="translate(0 4.049)" fill="#6aa5fe"/>
            <path id="Path_2596" data-name="Path 2596" d="M180.577,301.849l14.268-4.049v.992l-14.268,4.132Z" transform="translate(-164.983 -297.8)" fill="#3a82e5"/>
          </g>
          <g id="Group_2759" data-name="Group 2759" transform="translate(0 11.042)">
            <path id="Path_2597" data-name="Path 2597" d="M146.7,305.456,132.434,309.5h15.594l14.268-4.049Z" transform="translate(-132.434 -305.456)" fill="#ffe066"/>
            <rect id="Rectangle_1941" data-name="Rectangle 1941" width="15.594" height="1.076" transform="translate(0 4.049)" fill="#f47c00"/>
            <path id="Path_2598" data-name="Path 2598" d="M154.057,309.5l14.268-4.049v.992l-14.268,4.132Z" transform="translate(-138.463 -305.456)" fill="#ee6c00"/>
          </g>
        </g>
      </g>
      <g id="Group_2781" data-name="Group 2781" transform="translate(160.89 155.338)">
        <g id="Group_2764" data-name="Group 2764" transform="translate(0 25.518)">
          <g id="Group_2762" data-name="Group 2762">
            <rect id="Rectangle_1942" data-name="Rectangle 1942" width="17.217" height="1.817" fill="#3a82e5"/>
            <rect id="Rectangle_1943" data-name="Rectangle 1943" width="11.568" height="1.817" transform="translate(0 5.931)" fill="#3a82e5"/>
            <rect id="Rectangle_1944" data-name="Rectangle 1944" width="15.377" height="1.817" transform="translate(0 11.861)" fill="#3a82e5"/>
            <rect id="Rectangle_1945" data-name="Rectangle 1945" width="19.763" height="1.817" transform="translate(0 17.792)" fill="#3a82e5"/>
            <rect id="Rectangle_1946" data-name="Rectangle 1946" width="17.217" height="1.817" transform="translate(0 35.583)" fill="#3a82e5"/>
            <rect id="Rectangle_1947" data-name="Rectangle 1947" width="31.349" height="1.817" transform="translate(0 23.722)" fill="#3a82e5"/>
            <rect id="Rectangle_1948" data-name="Rectangle 1948" width="14.579" height="1.817" transform="translate(0 29.653)" fill="#3a82e5"/>
          </g>
          <g id="Group_2763" data-name="Group 2763" transform="translate(37.348)">
            <rect id="Rectangle_1949" data-name="Rectangle 1949" width="6.052" height="1.817" fill="#3a82e5"/>
            <rect id="Rectangle_1950" data-name="Rectangle 1950" width="4.338" height="1.817" transform="translate(1.714 5.931)" fill="#3a82e5"/>
            <rect id="Rectangle_1951" data-name="Rectangle 1951" width="6.052" height="1.817" transform="translate(0 11.861)" fill="#3a82e5"/>
            <rect id="Rectangle_1952" data-name="Rectangle 1952" width="6.052" height="1.817" transform="translate(0 17.792)" fill="#3a82e5"/>
            <rect id="Rectangle_1953" data-name="Rectangle 1953" width="4.338" height="1.817" transform="translate(1.714 35.583)" fill="#3a82e5"/>
            <rect id="Rectangle_1954" data-name="Rectangle 1954" width="4.338" height="1.817" transform="translate(1.714 23.722)" fill="#3a82e5"/>
            <rect id="Rectangle_1955" data-name="Rectangle 1955" width="6.052" height="1.817" transform="translate(0 29.653)" fill="#3a82e5"/>
          </g>
        </g>
        <g id="Group_2765" data-name="Group 2765" transform="translate(6.389)">
          <rect id="Rectangle_1956" data-name="Rectangle 1956" width="22.992" height="2.174" transform="translate(4.439 9.151)" fill="#3a82e5"/>
          <rect id="Rectangle_1957" data-name="Rectangle 1957" width="14.358" height="2.174" transform="translate(8.756)" fill="#3a82e5"/>
          <rect id="Rectangle_1958" data-name="Rectangle 1958" width="31.87" height="2.174" transform="translate(0 4.576)" fill="#3a82e5"/>
        </g>
        <g id="Group_2780" data-name="Group 2780" transform="translate(8.098 17.38)">
          <g id="Group_2766" data-name="Group 2766">
            <path id="Path_2599" data-name="Path 2599" d="M219.765,197.305a.171.171,0,0,1-.121-.05l-.909-.909a.171.171,0,1,1,.242-.242l.909.909a.171.171,0,0,1-.121.292Z" transform="translate(-218.685 -196.054)" fill="#3a82e5"/>
            <path id="Path_2600" data-name="Path 2600" d="M218.856,197.305a.168.168,0,0,1-.12-.05.17.17,0,0,1,0-.242l.909-.909a.171.171,0,0,1,.242.242l-.909.909A.169.169,0,0,1,218.856,197.305Z" transform="translate(-218.685 -196.054)" fill="#3a82e5"/>
          </g>
          <g id="Group_2767" data-name="Group 2767" transform="translate(27.097 0)">
            <path id="Path_2601" data-name="Path 2601" d="M257.339,197.305a.169.169,0,0,1-.121-.05l-.909-.909a.171.171,0,1,1,.242-.242l.909.909a.171.171,0,0,1-.121.292Z" transform="translate(-256.259 -196.054)" fill="#3a82e5"/>
            <path id="Path_2602" data-name="Path 2602" d="M256.43,197.305a.171.171,0,0,1-.121-.292l.909-.909a.171.171,0,1,1,.242.242l-.909.909A.169.169,0,0,1,256.43,197.305Z" transform="translate(-256.259 -196.054)" fill="#3a82e5"/>
          </g>
          <g id="Group_2768" data-name="Group 2768" transform="translate(22.928 0)">
            <path id="Path_2603" data-name="Path 2603" d="M251.558,197.305a.168.168,0,0,1-.12-.05l-.909-.909a.171.171,0,1,1,.242-.242l.909.909a.17.17,0,0,1,0,.242A.168.168,0,0,1,251.558,197.305Z" transform="translate(-250.478 -196.054)" fill="#3a82e5"/>
            <path id="Path_2604" data-name="Path 2604" d="M250.65,197.305a.171.171,0,0,1-.121-.292l.909-.909a.171.171,0,1,1,.242.242l-.909.909A.168.168,0,0,1,250.65,197.305Z" transform="translate(-250.478 -196.054)" fill="#3a82e5"/>
          </g>
          <g id="Group_2769" data-name="Group 2769" transform="translate(20.844)">
            <path id="Path_2605" data-name="Path 2605" d="M248.668,197.305a.17.17,0,0,1-.121-.05l-.909-.909a.171.171,0,1,1,.242-.242l.909.909a.172.172,0,0,1,0,.242A.17.17,0,0,1,248.668,197.305Z" transform="translate(-247.588 -196.054)" fill="#3a82e5"/>
            <path id="Path_2606" data-name="Path 2606" d="M247.759,197.305a.171.171,0,0,1-.121-.292l.909-.909a.171.171,0,1,1,.242.242l-.909.909A.168.168,0,0,1,247.759,197.305Z" transform="translate(-247.588 -196.054)" fill="#3a82e5"/>
          </g>
          <g id="Group_2770" data-name="Group 2770" transform="translate(18.76 0)">
            <path id="Path_2607" data-name="Path 2607" d="M245.778,197.305a.169.169,0,0,1-.121-.05l-.909-.909a.171.171,0,1,1,.242-.242l.909.909a.17.17,0,0,1,0,.242A.168.168,0,0,1,245.778,197.305Z" transform="translate(-244.698 -196.054)" fill="#3a82e5"/>
            <path id="Path_2608" data-name="Path 2608" d="M244.869,197.305a.17.17,0,0,1-.121-.05.172.172,0,0,1,0-.242l.909-.909a.171.171,0,1,1,.242.242l-.909.909A.169.169,0,0,1,244.869,197.305Z" transform="translate(-244.698 -196.054)" fill="#3a82e5"/>
          </g>
          <g id="Group_2771" data-name="Group 2771" transform="translate(16.675 0)">
            <path id="Path_2609" data-name="Path 2609" d="M242.887,197.305a.171.171,0,0,1-.121-.05l-.909-.909a.171.171,0,1,1,.242-.242l.909.909a.171.171,0,0,1-.121.292Z" transform="translate(-241.807 -196.054)" fill="#3a82e5"/>
            <path id="Path_2610" data-name="Path 2610" d="M241.979,197.305a.171.171,0,0,1-.121-.292l.909-.909a.171.171,0,0,1,.242.242l-.909.909A.171.171,0,0,1,241.979,197.305Z" transform="translate(-241.807 -196.054)" fill="#3a82e5"/>
          </g>
          <g id="Group_2772" data-name="Group 2772" transform="translate(14.591)">
            <path id="Path_2611" data-name="Path 2611" d="M240,197.305a.171.171,0,0,1-.121-.05l-.909-.909a.171.171,0,1,1,.242-.242l.909.909a.171.171,0,0,1-.121.292Z" transform="translate(-238.917 -196.054)" fill="#3a82e5"/>
            <path id="Path_2612" data-name="Path 2612" d="M239.088,197.305a.168.168,0,0,1-.12-.05.17.17,0,0,1,0-.242l.909-.909a.171.171,0,1,1,.242.242l-.909.909A.169.169,0,0,1,239.088,197.305Z" transform="translate(-238.917 -196.054)" fill="#3a82e5"/>
          </g>
          <g id="Group_2773" data-name="Group 2773" transform="translate(25.013 0)">
            <path id="Path_2613" data-name="Path 2613" d="M254.448,197.305a.168.168,0,0,1-.12-.05l-.909-.909a.171.171,0,1,1,.242-.242l.909.909a.171.171,0,0,1-.121.292Z" transform="translate(-253.368 -196.054)" fill="#3a82e5"/>
            <path id="Path_2614" data-name="Path 2614" d="M253.54,197.305a.171.171,0,0,1-.121-.292l.909-.909a.171.171,0,1,1,.242.242l-.909.909A.171.171,0,0,1,253.54,197.305Z" transform="translate(-253.368 -196.054)" fill="#3a82e5"/>
          </g>
          <g id="Group_2774" data-name="Group 2774" transform="translate(10.422)">
            <path id="Path_2615" data-name="Path 2615" d="M234.217,197.305a.169.169,0,0,1-.121-.05l-.909-.909a.171.171,0,1,1,.242-.242l.909.909a.17.17,0,0,1,0,.242A.168.168,0,0,1,234.217,197.305Z" transform="translate(-233.136 -196.054)" fill="#3a82e5"/>
            <path id="Path_2616" data-name="Path 2616" d="M233.308,197.305a.171.171,0,0,1-.121-.292l.909-.909a.171.171,0,1,1,.242.242l-.909.909A.171.171,0,0,1,233.308,197.305Z" transform="translate(-233.136 -196.054)" fill="#3a82e5"/>
          </g>
          <g id="Group_2775" data-name="Group 2775" transform="translate(8.338 0)">
            <path id="Path_2617" data-name="Path 2617" d="M231.326,197.305a.171.171,0,0,1-.121-.05l-.909-.909a.171.171,0,1,1,.242-.242l.909.909a.171.171,0,0,1-.121.292Z" transform="translate(-230.246 -196.054)" fill="#3a82e5"/>
            <path id="Path_2618" data-name="Path 2618" d="M230.418,197.305a.171.171,0,0,1-.121-.292l.909-.909a.171.171,0,1,1,.242.242l-.909.909A.168.168,0,0,1,230.418,197.305Z" transform="translate(-230.246 -196.054)" fill="#3a82e5"/>
          </g>
          <g id="Group_2776" data-name="Group 2776" transform="translate(4.169)">
            <path id="Path_2619" data-name="Path 2619" d="M225.546,197.305a.169.169,0,0,1-.121-.05l-.909-.909a.171.171,0,1,1,.242-.242l.909.909a.171.171,0,0,1-.121.292Z" transform="translate(-224.466 -196.054)" fill="#3a82e5"/>
            <path id="Path_2620" data-name="Path 2620" d="M224.637,197.305a.17.17,0,0,1-.121-.05.171.171,0,0,1,0-.242l.909-.909a.171.171,0,1,1,.242.242l-.909.909A.17.17,0,0,1,224.637,197.305Z" transform="translate(-224.466 -196.054)" fill="#3a82e5"/>
          </g>
          <g id="Group_2777" data-name="Group 2777" transform="translate(2.084 0)">
            <path id="Path_2621" data-name="Path 2621" d="M222.656,197.305a.169.169,0,0,1-.121-.05l-.909-.909a.171.171,0,1,1,.242-.242l.909.909a.17.17,0,0,1,0,.242A.168.168,0,0,1,222.656,197.305Z" transform="translate(-221.575 -196.054)" fill="#3a82e5"/>
            <path id="Path_2622" data-name="Path 2622" d="M221.747,197.305a.171.171,0,0,1-.121-.292l.909-.909a.171.171,0,1,1,.242.242l-.909.909A.168.168,0,0,1,221.747,197.305Z" transform="translate(-221.575 -196.054)" fill="#3a82e5"/>
          </g>
          <g id="Group_2778" data-name="Group 2778" transform="translate(6.253 0)">
            <path id="Path_2623" data-name="Path 2623" d="M228.436,197.305a.169.169,0,0,1-.121-.05l-.909-.909a.171.171,0,1,1,.242-.242l.909.909a.171.171,0,0,1-.121.292Z" transform="translate(-227.356 -196.054)" fill="#3a82e5"/>
            <path id="Path_2624" data-name="Path 2624" d="M227.527,197.305a.171.171,0,0,1-.121-.292l.909-.909a.171.171,0,1,1,.242.242l-.909.909A.169.169,0,0,1,227.527,197.305Z" transform="translate(-227.356 -196.054)" fill="#3a82e5"/>
          </g>
          <g id="Group_2779" data-name="Group 2779" transform="translate(12.506 0)">
            <path id="Path_2625" data-name="Path 2625" d="M237.107,197.305a.169.169,0,0,1-.121-.05l-.909-.909a.171.171,0,1,1,.242-.242l.909.909a.171.171,0,0,1-.121.292Z" transform="translate(-236.027 -196.054)" fill="#3a82e5"/>
            <path id="Path_2626" data-name="Path 2626" d="M236.2,197.305a.17.17,0,0,1-.121-.05.172.172,0,0,1,0-.242l.909-.909a.171.171,0,1,1,.242.242l-.909.909A.169.169,0,0,1,236.2,197.305Z" transform="translate(-236.027 -196.054)" fill="#3a82e5"/>
          </g>
        </g>
      </g>
    </g>
    <path id="Path_3133" data-name="Path 3133" d="M306.222,110.571h86.554s0-10.9-19.489-10.685c-16.594-16.594-36.757-11.9-44.209-3.437C306.05,96.057,306.222,110.571,306.222,110.571Z" transform="translate(-63.555 234.234)" fill="#e5ecf7"/>
    <path id="Path_3134" data-name="Path 3134" d="M43.277,152.827h89.45s-2.4-9.8-19.347-9.8c0-23.8-40.344-23.8-44.638-2.749C43.8,139.467,43.277,152.827,43.277,152.827Z" transform="translate(8.344 239.732)" fill="#e5ecf7"/>
    <path id="Path_3135" data-name="Path 3135" d="M144.7,192.245H94.649s3.1-10.279,20.664-6.972C127.415,174.082,145.6,182.089,144.7,192.245Z" transform="translate(-8.048 222.173)" fill="#e5ecf7"/>
    <path id="Path_3136" data-name="Path 3136" d="M399.474,146.322h40.54S437.5,138,423.278,140.675C413.476,131.612,398.745,138.1,399.474,146.322Z" transform="translate(-94.301 219.074)" fill="#e5ecf7"/>
  </g>
</svg>
