<svg xmlns="https://www.w3.org/2000/svg" width="23.614" height="23.438" viewBox="0 0 23.614 23.438">
  <g id="notifications" transform="translate(3.427 -1.667) rotate(17)">
    <g id="Group_2121" data-name="Group 2121" transform="translate(2.598 0)">
      <path id="Path_1006" data-name="Path 1006" d="M374.127,54.858a.613.613,0,0,0,.854.128l2.009-1.494a.613.613,0,0,0,.128-.854l-.008-.012a.613.613,0,0,0-.854-.128l-2.01,1.494a.613.613,0,0,0-.128.854Z" transform="translate(-358.674 -50.217)" fill="#0282f8"/>
      <path id="Path_1007" data-name="Path 1007" d="M339.567.114a.61.61,0,0,0-.875.177l-1.341,2.17a.61.61,0,1,0,1.04.64l1.341-2.17A.611.611,0,0,0,339.567.114Z" transform="translate(-323.45 0)" fill="#0282f8"/>
      <path id="Path_1008" data-name="Path 1008" d="M398.644,120.218l2.468-.66a.611.611,0,1,0-.318-1.18l-2.467.66a.61.61,0,0,0-.421.788A.619.619,0,0,0,398.644,120.218Z" transform="translate(-381.561 -113.473)" fill="#0282f8"/>
      <path id="Path_1009" data-name="Path 1009" d="M11.2,23.073a.693.693,0,0,0-.235.982,14.243,14.243,0,0,1-3.974,6.986.928.928,0,0,0-1.114,0L3.885,32.518A2.556,2.556,0,0,0,3.357,36.1L3.2,35.877l-.384.285a.524.524,0,0,0-.107.739l1.18,1.589a.528.528,0,0,0,.743.107l.384-.285-.219-.3a2.557,2.557,0,0,0,3.062.821l4.023,3.342a.317.317,0,0,0,.4.017l.14-.1,1.539-1.143.635-.47a.289.289,0,0,0,.012-.454l-.85-.706a.409.409,0,0,0-.508-.012,1.01,1.01,0,0,1-1.242-.029l-2.2-1.795.557-.417A.935.935,0,0,0,10.681,36a14.209,14.209,0,0,1,7.832-1.791.7.7,0,0,0,1.011.058.722.722,0,0,0,.058-.949l-2.426-3.264a2.346,2.346,0,0,0-2.62-3.528L12.13,23.288A.74.74,0,0,0,11.2,23.073ZM7.368,37.206a.884.884,0,0,1-1.238-.182L4.7,35.1A.884.884,0,0,1,4.88,33.86l1.4-1.04,2.488,3.346Z" transform="translate(-2.598 -22.039)" fill="#0282f8"/>
    </g>
  </g>
</svg>
