<svg xmlns="https://www.w3.org/2000/svg" width="61.62" height="79.863" viewBox="0 0 61.62 79.863">
  <g id="student" transform="translate(-242.184 -37.023)">
    <path id="Path_2960" data-name="Path 2960" d="M257.883,72.881s-2.341,2.495-3.478-3.448c-1.215-6.353-1.173-9.8,1.006-10.528a1.311,1.311,0,0,1,1.794.723Z" transform="translate(1.017 1.939)" fill="#ffe4c5"/>
    <path id="Path_2961" data-name="Path 2961" d="M261.851,79.989V87.4a5.452,5.452,0,0,0,2.459,4.555c2.731,1.794,6.771,4.437,6.852,4.438s4.2-2.649,6.978-4.442a5.46,5.46,0,0,0,2.495-4.577V79.557Z" transform="translate(1.751 3.787)" fill="#ffe4c5"/>
    <path id="Path_2962" data-name="Path 2962" d="M261.851,83.292a12,12,0,0,0,18.784-.414V79.557l-18.784.432Z" transform="translate(1.751 3.787)" fill="#f5cda5"/>
    <path id="Path_2963" data-name="Path 2963" d="M271.614,88.718c8.576,0,15.155-8.985,15.155-23.869,0-18.558-5.445-22.87-15.155-22.87s-15.155,4.312-15.155,22.87C256.459,79.734,263.038,88.718,271.614,88.718Z" transform="translate(1.271 0.441)" fill="#ffe4c5"/>
    <path id="Path_2964" data-name="Path 2964" d="M283.416,72.881s2.341,2.495,3.479-3.448c1.215-6.353,1.173-9.8-1.006-10.528a1.311,1.311,0,0,0-1.794.723Z" transform="translate(3.671 1.939)" fill="#ffe4c5"/>
    <path id="Path_2966" data-name="Path 2966" d="M271.754,37.023c-16.418,0-21.448,15.86-15.155,30.493h1.8s-1.41-11.3,4.468-17.969c0,0-2.154,10.278,9.077,10.278,0,0-7.011-6.534-3.131-10.415,0,0,2.246,9.325,12.455,9.325,0,0-3.471-2.927-2.042-8.44,0,0,7.011,10.55,6.806,17.22h1.7C293.407,53.223,290.659,37.023,271.754,37.023Z" transform="translate(1.05)" fill="#232323"/>
    <path id="Path_2967" data-name="Path 2967" d="M299.468,98.948a5.443,5.443,0,0,0-2.109-2.849L282.385,85.815s-2.157,7.432-9.391,7.432-9.391-7.432-9.391-7.432L248.629,96.1a5.449,5.449,0,0,0-2.109,2.849l-4.335,13.731H303.8Z" transform="translate(0 4.208)" fill="#0268f5"/>
  </g>
</svg>
