<svg xmlns="https://www.w3.org/2000/svg" width="79.999" height="79.999" viewBox="0 0 79.999 79.999">
  <g id="successful" transform="translate(-344.5 -290.5)">
    <path id="Path_2213" data-name="Path 2213" d="M40.5.5a40,40,0,1,1-40,40A40,40,0,0,1,40.5.5Z" transform="translate(344 290)" fill="#42ae18"/>
    <g id="Group_4024" data-name="Group 4024" transform="translate(368.41 316.519)">
      <g id="Group_4023" data-name="Group 4023" transform="translate(0 0)">
        <g id="Group_4025" data-name="Group 4025">
          <path id="Path_2366" data-name="Path 2366" d="M24.631,29.3a1.754,1.754,0,1,0-2.48,2.48l8.141,8.141a1.755,1.755,0,0,0,1.24.539h.108a2,2,0,0,0,1.294-.647L53.312,15.336a1.76,1.76,0,0,0-2.7-2.264L31.424,36.092Zm0,0" transform="translate(-21.625 -12.453)" fill="#fff" stroke="#fff" stroke-width="2"/>
        </g>
      </g>
    </g>
  </g>
</svg>
