<svg xmlns="http://www.w3.org/2000/svg" width="20.001" height="20.001" viewBox="0 0 20.001 20.001">
  <g id="switch_account" transform="translate(-506.604 -234.655)">
    <path id="switch_account-2" data-name="switch_account" d="M-6140.9-384.346a9.511,9.511,0,0,1,9.5-9.5,9.512,9.512,0,0,1,9.5,9.5,9.512,9.512,0,0,1-9.5,9.5A9.511,9.511,0,0,1-6140.9-384.346Zm.751,0a8.759,8.759,0,0,0,8.749,8.751,8.76,8.76,0,0,0,8.75-8.751,8.76,8.76,0,0,0-8.75-8.749A8.758,8.758,0,0,0-6140.146-384.346Zm4.249,1.919,2.168-2.167v1.624h3.79v1.083h-3.79v1.626Zm7.584-2.709h-3.792v-1.083h3.792v-1.624l2.167,2.167-2.167,2.165Z" transform="translate(6648 629)" stroke="rgba(0,0,0,0)" stroke-width="1"/>
  </g>
</svg>
