<svg xmlns="http://www.w3.org/2000/svg" xmlns:xlink="http://www.w3.org/1999/xlink" width="110.133" height="74.91" viewBox="0 0 110.133 74.91">
  <defs>
    <filter id="Path_2674" x="35.61" y="30.3" width="8.283" height="6.646" filterUnits="userSpaceOnUse">
      <feOffset dy="1" input="SourceAlpha"/>
      <feGaussianBlur result="blur"/>
      <feFlood flood-color="#f3f4f6"/>
      <feComposite operator="in" in2="blur"/>
      <feComposite in="SourceGraphic"/>
    </filter>
    <filter id="Path_1485" x="35.61" y="54.441" width="8.283" height="6.646" filterUnits="userSpaceOnUse">
      <feOffset dy="1" input="SourceAlpha"/>
      <feGaussianBlur result="blur-2"/>
      <feFlood flood-color="#f3f4f6"/>
      <feComposite operator="in" in2="blur-2"/>
      <feComposite in="SourceGraphic"/>
    </filter>
    <clipPath id="clip-path">
      <circle id="Ellipse_353" data-name="Ellipse 353" cx="8.815" cy="8.815" r="8.815" fill="none"/>
    </clipPath>
  </defs>
  <g id="syllabus" transform="translate(-14.318 -155.065)">
    <g id="Group_2131" data-name="Group 2131" transform="translate(14.317 155.065)">
      <g id="Group_2174" data-name="Group 2174" transform="translate(0 0)">
        <g id="Group_2136" data-name="Group 2136" transform="translate(0)">
          <g id="Group_2131-2" data-name="Group 2131" transform="translate(77.455 51.975)">
            <path id="Path_1659" data-name="Path 1659" d="M424.174,349.958a18.283,18.283,0,0,1,5.426-6.265,23.511,23.511,0,0,1,5.884-3.461c1.864-.692,2.277.936,3.783,1.493a2.876,2.876,0,0,0,2.785-.881,13.543,13.543,0,0,1,2.2-2.007,2.411,2.411,0,0,1,2.275-.157c.837.491.695,1.7,1.825,1.837a2.78,2.78,0,0,0,1.528-.359,21.608,21.608,0,0,1,3.434-1.411c1.087-.319,2.494-.425,3.122.518.6.9.03,2.132-.694,2.941a11.188,11.188,0,0,1-6.916,3.346,7.592,7.592,0,0,0-2.087.432,1.96,1.96,0,0,0-1.257,1.594c-.014.384.13.758.135,1.143.013,1.066-1.039,1.862-2.078,2.1-2.674.612-4.415-1.737-6.93-2.1-2.851-.408-7.24.037-9.22,2.437" transform="translate(-424.174 -338.458)" fill="#ffc957"/>
            <path id="Path_1660" data-name="Path 1660" stroke="#fff" d="M440.3,355.408a18.667,18.667,0,0,1,10.236-4.77c2.383-.309,4.8-.161,7.191-.377a11.11,11.11,0,0,0,6.6-2.457" fill="none" transform="translate(-435.602 -345.081)" stroke-linecap="round" stroke-linejoin="round" stroke-width="0.3" opacity="0.5"/>
          </g>
          <g id="Group_2133" data-name="Group 2133" transform="translate(86.8 33.706)">
            <path id="Path_1661" data-name="Path 1661" d="M448.789,303.655c1.424-.823,2.954-1.969,2.55-3.716-.133-.573-.555-1.1-.483-1.679a3.087,3.087,0,0,1,.491-1.045,3.178,3.178,0,0,0,.164-2.673,22.637,22.637,0,0,0-1.632-2.476,4.361,4.361,0,0,1-.552-2.332c-1.5.158-2.8,1.107-4.26,1.517-1.114.314-2.3.308-3.4.669a5.442,5.442,0,0,0-3.642,4.72,3,3,0,0,0-2.551,1.123,3.89,3.89,0,0,0-.774,2.926c.656,4.236,2.836,7.6,5.625,10.746-.607-.684,1.256-2.807,1.616-3.221,1.566-1.8,3.714-2.834,5.767-3.961C448.033,304.073,448.407,303.875,448.789,303.655Z" transform="translate(-434.657 -289.733)" fill="#6aa5fe"/>
            <g id="Group_2132" data-name="Group 2132" transform="translate(3.046 1.964)" opacity="0.5">
              <path id="Path_1662" data-name="Path 1662" d="M454.965,310.522a10.905,10.905,0,0,1,.7-5.444,21.33,21.33,0,0,1,2.222-4.917,10.523,10.523,0,0,1,3.874-3.69" transform="translate(-452.007 -296.472)" fill="none" stroke="#fff" stroke-linecap="round" stroke-linejoin="round" stroke-width="0.3"/>
              <path id="Path_1663" data-name="Path 1663" d="M456.9,302.35a14.841,14.841,0,0,0,.845,5.159" transform="translate(-453.465 -300.637)" fill="none" stroke="#fff" stroke-linecap="round" stroke-linejoin="round" stroke-width="0.3"/>
              <path id="Path_1664" data-name="Path 1664" d="M460.677,312.029a12.865,12.865,0,0,1,6.787-2.435" transform="translate(-456.141 -305.77)" fill="none" stroke="#fff" stroke-linecap="round" stroke-linejoin="round" stroke-width="0.3"/>
              <path id="Path_1665" data-name="Path 1665" d="M445.109,320.433c2.334.742,2.729,4.037,2.875,4.971" transform="translate(-445.109 -313.451)" fill="none" stroke="#fff" stroke-linecap="round" stroke-linejoin="round" stroke-width="0.3"/>
              <path id="Path_1666" data-name="Path 1666" d="M456.418,323.716c1.606-1.391,4.37-2.875,6.241-2.583" transform="translate(-453.123 -313.92)" fill="none" stroke="#fff" stroke-linecap="round" stroke-linejoin="round" stroke-width="0.3"/>
              <path id="Path_1667" data-name="Path 1667" d="M455.252,335.552c1.277-1.7,4.764-3.783,6.634-3.491" transform="translate(-452.296 -321.671)" fill="none" stroke="#fff" stroke-linecap="round" stroke-linejoin="round" stroke-width="0.3"/>
              <path id="Path_1668" data-name="Path 1668" d="M468.615,298.238a2.724,2.724,0,0,0-.418,1.976" transform="translate(-461.44 -297.723)" fill="none" stroke="#fff" stroke-linecap="round" stroke-linejoin="round" stroke-width="0.3"/>
              <path id="Path_1669" data-name="Path 1669" d="M469.832,301.915a4.321,4.321,0,0,1,2.966-.488" transform="translate(-462.628 -299.936)" fill="none" stroke="#fff" stroke-linecap="round" stroke-linejoin="round" stroke-width="0.3"/>
            </g>
          </g>
          <g id="Group_2135" data-name="Group 2135" transform="translate(0.598 33.859)">
            <path id="Path_1670" data-name="Path 1670" d="M258.9,348.219c-1.927-5.279-6.868-10.205-11.735-13.017-1.187-.685-2.919-1.2-3.462.433-.35,1.053-1.576.779-2.276.292a17.558,17.558,0,0,1-2.112-2.319,4.053,4.053,0,0,0-2.174-1.18,2.776,2.776,0,0,0-2.335.661,16.047,16.047,0,0,1-1.246,1.436,2.759,2.759,0,0,1-3.007-.157c-.909-.557-1.625-1.382-2.506-1.983a2.992,2.992,0,0,0-3.006-.448c-1.242.673-1.356,2.468-.828,3.779a8.846,8.846,0,0,0,1.459,2.618,6.6,6.6,0,0,0,3.378,1.739c.9.177,1.831.172,2.724.384.322.077.693.213.757.585.093.537-.571.865-.958,1.061-.671.338-1.335,1.074-1.022,1.757a1.484,1.484,0,0,0,1.163.7,8.933,8.933,0,0,0,4.1-.573c.8-.248,1.511-.751,2.336-.965.429-.111,1.528-.159,1.409.566a1,1,0,0,1-.373.562,3.97,3.97,0,0,0-.516.455,1.189,1.189,0,0,0,.828,1.88,4.27,4.27,0,0,0,1.949-.16,30.189,30.189,0,0,1,12.8-.5,3.264,3.264,0,0,1,2.331,1.288" transform="translate(-223.911 -315.55)" fill="#ffc957"/>
            <path id="Path_1671" data-name="Path 1671" stroke="#fff" d="M263.271,356.645a20.806,20.806,0,0,0-11.43-5.269c-2.657-.333-5.349-.157-8.016-.387s-5.435-.938-7.363-2.708" fill="none" transform="translate(-232.804 -327.303)" stroke-linecap="round" stroke-linejoin="round" stroke-width="0.3" opacity="0.5"/>
            <g id="Group_2134" data-name="Group 2134" transform="translate(14.143)">
              <path id="Path_1672" data-name="Path 1672" d="M308.9,354.512s-7.328-4.874-9.4-9.819a8.048,8.048,0,0,1,3.283,1.632,40.049,40.049,0,0,0,5.289,5.28C308.32,352.421,308.593,353.379,308.9,354.512Z" transform="translate(-295.322 -324.761)" fill="#fcccb1" opacity="0.25"/>
              <path id="Path_1673" data-name="Path 1673" d="M298.452,304.366c-.275-1.722-1.034-3.43-1.331-5.181a23.9,23.9,0,0,1-.033-8.414c.442-2.376,1.177-4.863.372-7.267-.214-.639-.608-1.328-1.436-1.322a1.368,1.368,0,0,0-.886.353,3.059,3.059,0,0,0-.813,2.04L294,287.032a.817.817,0,0,1-1.568.117l-.006-.02a5.435,5.435,0,0,1-.11-2.017,19.132,19.132,0,0,0,.077-4.4,5.072,5.072,0,0,0-3.128-4.222,3.468,3.468,0,0,0-2.086-.071c-1.891.54-2.273,2.322-1.894,3.815a12.448,12.448,0,0,0,1.4,2.959c1.323,2.338.608,4.559.94,7.173C288.324,295.9,293.743,301.252,298.452,304.366Z" transform="translate(-285.148 -276.289)" fill="#ffc957"/>
              <path id="Path_1674" data-name="Path 1674" stroke="#fff" d="M295.283,287.728c3.959,4.791,2.528,16.1,9.428,22.207" fill="none" transform="translate(-292.33 -284.395)" stroke-linecap="round" stroke-linejoin="round" stroke-width="0.3" opacity="0.5"/>
              <path id="Path_1675" data-name="Path 1675" stroke="#fff" d="M317.319,307.033c.452,2.422-1.1,5.14-1.466,6.647a14.048,14.048,0,0,0-.165,5.587" fill="none" transform="translate(-306.638 -298.075)" stroke-linecap="round" stroke-linejoin="round" stroke-width="0.3" opacity="0.5"/>
            </g>
          </g>
          <path id="Path_1676" data-name="Path 1676" d="M251.193,374.468c-.171-.968-2.875-7-6-5.388-1.859.96-1.525,4.5,1.379,7.166a4.418,4.418,0,0,0-2.006-1.331,1.55,1.55,0,0,0-1.249.4,1.465,1.465,0,0,0-.375,1.048,4.125,4.125,0,0,0,1.837,3.528,4.929,4.929,0,0,0-1.932-.871.9.9,0,0,0-.752.328c-.12.231-.112,1.1,1.3,1.743-5.763-1.093-6.1,1.363-4.028,1.363h16.99" transform="translate(-231.592 -307.988)" fill="#1a55b5"/>
          <path id="Path_1677" data-name="Path 1677" d="M272.858,349.554c-.274-1.55-3.129-11.295-8.139-8.707-2.976,1.537-2.441,7.2,2.208,11.473a7.072,7.072,0,0,0-3.211-2.131,2.482,2.482,0,0,0-2,.641,2.345,2.345,0,0,0-.6,1.677,6.6,6.6,0,0,0,2.941,5.648,7.9,7.9,0,0,0-3.092-1.395,1.438,1.438,0,0,0-1.2.525c-.192.369-.179,1.755,2.085,2.79-9.226-1.75-9.764,2.183-6.448,2.183h21.918" transform="translate(-244.678 -287.868)" fill="#6aa5fe"/>
          <path id="Path_1678" data-name="Path 1678" d="M476.671,374.468c.171-.968,2.875-7,6-5.388,1.859.96,1.525,4.5-1.379,7.166a4.415,4.415,0,0,1,2.006-1.331,1.551,1.551,0,0,1,1.249.4,1.466,1.466,0,0,1,.375,1.048,4.125,4.125,0,0,1-1.837,3.528,4.929,4.929,0,0,1,1.932-.871.9.9,0,0,1,.752.328c.12.231.111,1.1-1.3,1.743,5.763-1.093,6.1,1.363,4.028,1.363h-16.99" transform="translate(-382.301 -307.988)" fill="#1a55b5"/>
          <path id="Path_1679" data-name="Path 1679" d="M441.327,349.554c.274-1.55,3.129-11.295,8.139-8.707,2.976,1.537,2.441,7.2-2.208,11.473a7.073,7.073,0,0,1,3.211-2.131,2.482,2.482,0,0,1,2,.641,2.345,2.345,0,0,1,.6,1.677,6.6,6.6,0,0,1-2.941,5.648,7.9,7.9,0,0,1,3.093-1.395,1.438,1.438,0,0,1,1.2.525c.192.369.179,1.755-2.085,2.79,9.226-1.75,9.764,2.183,6.448,2.183H436.871" transform="translate(-357.756 -287.868)" fill="#6aa5fe"/>
          <g id="Group_1920" data-name="Group 1920" transform="translate(26.3)">
            <rect id="Rectangle_1554" data-name="Rectangle 1554" width="52.017" height="68.846" rx="5" transform="translate(0 5.448)" fill="#6aa5fe"/>
            <path id="Path_1466" data-name="Path 1466" d="M86.131,189.31v49.7a2.374,2.374,0,0,0,2.374,2.374h47.269a2.374,2.374,0,0,0,2.374-2.374V229.2Z" transform="translate(-86.131 -167.09)" fill="#3a82e5"/>
            <rect id="Rectangle_1555" data-name="Rectangle 1555" width="45.972" height="62.493" rx="2" transform="translate(3.022 8.625)" fill="#f3f4f6"/>
            <g id="Group_1919" data-name="Group 1919" transform="translate(16.254)">
              <path id="Path_1467" data-name="Path 1467" d="M164.528,105.009c0-.065.01-.129.01-.195a3.953,3.953,0,1,0-7.906,0c0,.066.007.13.01.195H150.83v6.026h19.509v-6.026Z" transform="translate(-150.83 -100.861)" fill="#0050be"/>
              <path id="Path_1468" data-name="Path 1468" d="M150.83,117.372V123.4H170.34Z" transform="translate(-150.83 -113.224)" fill="#0268f5"/>
              <circle id="Ellipse_340" data-name="Ellipse 340" cx="2.22" cy="2.22" r="2.22" transform="translate(6.852 2.758) rotate(-22.628)" fill="#527ee9"/>
              <path id="Path_1469" data-name="Path 1469" d="M181.474,110.349a2.22,2.22,0,1,0,3.139,3.139Z" transform="translate(-173.289 -107.965)" fill="#6aa5fe"/>
              <rect id="Rectangle_1556" data-name="Rectangle 1556" width="19.509" height="0.415" transform="translate(0 10.174)" fill="#cde1f9"/>
            </g>
          </g>
          <g id="Group_1929" data-name="Group 1929" transform="translate(34.647 18.437)">
            <g id="Group_1922" data-name="Group 1922" transform="translate(0)">
              <rect id="Rectangle_1557" data-name="Rectangle 1557" width="7.411" height="7.411" rx="1" fill="none" stroke="#1a55b5" stroke-miterlimit="10" stroke-width="1"/>
              <g id="Group_1921" data-name="Group 1921" transform="translate(10.683 1.533)">
                <path id="Path_1471" data-name="Path 1471" d="M186.2,181.245H162.052a.285.285,0,0,1-.285-.285h0a.285.285,0,0,1,.285-.285H186.2a.285.285,0,0,1,.285.285h0A.285.285,0,0,1,186.2,181.245Z" transform="translate(-161.767 -180.675)" fill="#6aa5fe"/>
                <path id="Path_1472" data-name="Path 1472" d="M186.2,186.245H162.052a.285.285,0,0,1-.285-.285h0a.285.285,0,0,1,.285-.285H186.2a.285.285,0,0,1,.285.285h0A.285.285,0,0,1,186.2,186.245Z" transform="translate(-161.767 -184.417)" fill="#6aa5fe"/>
                <path id="Path_1473" data-name="Path 1473" d="M186.2,191.245H162.052a.285.285,0,0,1-.285-.285h0a.285.285,0,0,1,.285-.285H186.2a.285.285,0,0,1,.285.285h0A.285.285,0,0,1,186.2,191.245Z" transform="translate(-161.767 -188.159)" fill="#6aa5fe"/>
                <path id="Path_1474" data-name="Path 1474" d="M186.2,196.246H162.052a.285.285,0,0,1-.285-.285h0a.285.285,0,0,1,.285-.285H186.2a.285.285,0,0,1,.285.285h0A.285.285,0,0,1,186.2,196.246Z" transform="translate(-161.767 -191.901)" fill="#6aa5fe"/>
              </g>
            </g>
            <g id="Group_1924" data-name="Group 1924" transform="translate(0 11.93)">
              <rect id="Rectangle_1558" data-name="Rectangle 1558" width="7.411" height="7.411" rx="1" fill="none" stroke="#1a55b5" stroke-miterlimit="10" stroke-width="1"/>
              <g id="Group_1923" data-name="Group 1923" transform="translate(10.683 1.533)">
                <path id="Path_1476" data-name="Path 1476" d="M186.2,228.663H162.052a.285.285,0,0,1-.285-.285h0a.285.285,0,0,1,.285-.285H186.2a.285.285,0,0,1,.285.285h0A.285.285,0,0,1,186.2,228.663Z" transform="translate(-161.767 -228.093)" fill="#6aa5fe"/>
                <path id="Path_1477" data-name="Path 1477" d="M186.2,233.664H162.052a.285.285,0,0,1-.285-.285h0a.285.285,0,0,1,.285-.285H186.2a.285.285,0,0,1,.285.285h0A.285.285,0,0,1,186.2,233.664Z" transform="translate(-161.767 -231.835)" fill="#6aa5fe"/>
                <path id="Path_1478" data-name="Path 1478" d="M186.2,238.664H162.052a.285.285,0,0,1-.285-.285h0a.285.285,0,0,1,.285-.285H186.2a.285.285,0,0,1,.285.285h0A.285.285,0,0,1,186.2,238.664Z" transform="translate(-161.767 -235.577)" fill="#6aa5fe"/>
                <path id="Path_1479" data-name="Path 1479" d="M186.2,243.664H162.052a.285.285,0,0,1-.285-.285h0a.285.285,0,0,1,.285-.285H186.2a.285.285,0,0,1,.285.285h0A.285.285,0,0,1,186.2,243.664Z" transform="translate(-161.767 -239.32)" fill="#6aa5fe"/>
              </g>
            </g>
            <g id="Group_1926" data-name="Group 1926" transform="translate(0 12.57)">
              <rect id="Rectangle_1559" data-name="Rectangle 1559" width="7.411" height="7.411" rx="1" transform="translate(0 11.29)" fill="none" stroke="#1a55b5" stroke-miterlimit="10" stroke-width="1"/>
              <g transform="matrix(1, 0, 0, 1, -34.65, -31.01)" filter="url(#Path_2674)">
                <path id="Path_2674-2" data-name="Path 2674" d="M125.926,275.739l2.266,1.779,4.608-4.439" transform="translate(-89.61 -242.07)" fill="none" stroke="#f52323" stroke-linecap="round" stroke-linejoin="round" stroke-miterlimit="10" stroke-width="1"/>
              </g>
              <g id="Group_1925" data-name="Group 1925" transform="translate(10.683 12.823)">
                <path id="Path_1481" data-name="Path 1481" d="M180.831,276.082H161.989a.26.26,0,0,1-.222-.285h0a.26.26,0,0,1,.222-.285h18.842a.26.26,0,0,1,.223.285h0A.26.26,0,0,1,180.831,276.082Z" transform="translate(-161.767 -275.511)" fill="#6aa5fe"/>
                <path id="Path_1482" data-name="Path 1482" d="M180.831,281.082H161.989a.26.26,0,0,1-.222-.285h0a.26.26,0,0,1,.222-.285h18.842a.26.26,0,0,1,.223.285h0A.26.26,0,0,1,180.831,281.082Z" transform="translate(-161.767 -279.254)" fill="#6aa5fe"/>
                <path id="Path_1483" data-name="Path 1483" d="M180.831,286.082H161.989a.26.26,0,0,1-.222-.285h0a.26.26,0,0,1,.222-.285h18.842a.26.26,0,0,1,.223.285h0A.26.26,0,0,1,180.831,286.082Z" transform="translate(-161.767 -282.996)" fill="#6aa5fe"/>
                <path id="Path_1484" data-name="Path 1484" d="M180.831,291.082H161.989a.26.26,0,0,1-.222-.285h0a.26.26,0,0,1,.222-.285h18.842a.26.26,0,0,1,.223.285h0A.26.26,0,0,1,180.831,291.082Z" transform="translate(-161.767 -286.738)" fill="#6aa5fe"/>
              </g>
            </g>
            <g id="Group_1928" data-name="Group 1928" transform="translate(0 35.79)">
              <rect id="Rectangle_1560" data-name="Rectangle 1560" width="7.411" height="7.411" rx="1" fill="none" stroke="#1a55b5" stroke-miterlimit="10" stroke-width="1"/>
              <g transform="matrix(1, 0, 0, 1, -34.65, -54.23)" filter="url(#Path_1485)">
                <path id="Path_1485-2" data-name="Path 1485" d="M125.926,323.158l2.266,1.779L132.8,320.5" transform="translate(-89.61 -265.35)" fill="none" stroke="#f52323" stroke-linecap="round" stroke-linejoin="round" stroke-miterlimit="10" stroke-width="1"/>
              </g>
              <g id="Group_1927" data-name="Group 1927" transform="translate(10.683 1.533)">
                <path id="Path_1486" data-name="Path 1486" d="M180.831,323.5H161.989a.26.26,0,0,1-.222-.285h0a.26.26,0,0,1,.222-.285h18.842a.26.26,0,0,1,.223.285h0A.26.26,0,0,1,180.831,323.5Z" transform="translate(-161.767 -322.93)" fill="#6aa5fe"/>
                <path id="Path_1487" data-name="Path 1487" d="M180.831,328.5H161.989a.26.26,0,0,1-.222-.285h0a.26.26,0,0,1,.222-.285h18.842a.26.26,0,0,1,.223.285h0A.26.26,0,0,1,180.831,328.5Z" transform="translate(-161.767 -326.672)" fill="#6aa5fe"/>
                <path id="Path_1488" data-name="Path 1488" d="M180.831,333.5H161.989a.26.26,0,0,1-.222-.285h0a.26.26,0,0,1,.222-.285h18.842a.26.26,0,0,1,.223.285h0A.26.26,0,0,1,180.831,333.5Z" transform="translate(-161.767 -330.414)" fill="#6aa5fe"/>
                <path id="Path_1489" data-name="Path 1489" d="M180.831,338.5H161.989a.26.26,0,0,1-.222-.285h0a.26.26,0,0,1,.222-.285h18.842a.26.26,0,0,1,.223.285h0A.26.26,0,0,1,180.831,338.5Z" transform="translate(-161.767 -334.157)" fill="#6aa5fe"/>
              </g>
            </g>
          </g>
          <g id="Group_2144" data-name="Group 2144" transform="translate(67.472 43.542)">
            <path id="Path_1680" data-name="Path 1680" d="M311.973,180.676a2.494,2.494,0,0,1-1.872-2.22c0-.052,0-.1,0-.153a.31.31,0,0,1,0-.046.294.294,0,0,1,0-.046c0-.051,0-.1,0-.153a2.494,2.494,0,0,1,1.872-2.22A9.171,9.171,0,0,0,318.689,167a9.051,9.051,0,0,0-.151-1.659c-.017-.092-.034-.183-.054-.273-.014-.066-.028-.132-.045-.2a.043.043,0,0,0,0-.012c-.008-.034-.017-.068-.026-.1-.015-.066-.032-.13-.051-.195-.027-.1-.055-.2-.086-.3h-.313c.011.032.021.064.03.1a.094.094,0,0,1,.006.017q.026.083.05.166c.011.037.021.072.03.109.017.058.032.114.046.172.009.037.019.073.026.109.015.059.028.117.04.176,0,.02.009.04.013.06s0,.015,0,.024q.021.1.039.2a8.87,8.87,0,0,1-6.351,10.151,2.788,2.788,0,0,0-2.09,2.491c0,.057,0,.113,0,.17,0,.015,0,.032,0,.046s0,.032,0,.046c0,.057,0,.113,0,.17a2.787,2.787,0,0,0,2.09,2.491,8.871,8.871,0,0,1,6.351,10.152,8.633,8.633,0,0,1-.688,2.154H301.493a8.673,8.673,0,0,1-.689-2.155,8.877,8.877,0,0,1,6.352-10.151,2.788,2.788,0,0,0,2.09-2.491c0-.057,0-.113,0-.17,0-.014,0-.031,0-.046s0-.031,0-.046c0-.057,0-.113,0-.17a2.789,2.789,0,0,0-2.09-2.491A8.877,8.877,0,0,1,300.8,165.4c.017-.093.035-.185.055-.278,0,0,0,0,0-.007.02-.09.04-.179.063-.269l0-.015c.018-.068.035-.138.055-.205,0-.006,0-.011,0-.017.006-.026.014-.053.022-.079.013-.05.028-.1.044-.146a.092.092,0,0,1,.006-.017c.008-.032.019-.064.029-.1h-.313c-.031.1-.059.2-.086.3-.019.065-.035.129-.051.195-.009.034-.018.068-.026.1a.043.043,0,0,0,0,.012c-.017.066-.031.132-.045.2-.02.09-.038.181-.054.273A9.051,9.051,0,0,0,300.36,167a9.17,9.17,0,0,0,6.717,8.834,2.493,2.493,0,0,1,1.87,2.22c0,.052,0,.1,0,.153,0,.015,0,.032,0,.046s0,.032,0,.046c0,.051,0,.1,0,.153a2.493,2.493,0,0,1-1.87,2.22,9.171,9.171,0,0,0-6.717,8.834,9.181,9.181,0,0,0,.945,4.058h16.439a9.181,9.181,0,0,0,.945-4.058A9.172,9.172,0,0,0,311.973,180.676Z" transform="translate(-298.101 -163.08)" fill="#389fe5" opacity="0.2"/>
            <path id="Path_1681" data-name="Path 1681" d="M320.622,189.51a8.83,8.83,0,0,1-.146,1.606,8.633,8.633,0,0,1-.688,2.154H303.724a8.678,8.678,0,0,1-.689-2.155,8.877,8.877,0,0,1,6.352-10.151,2.788,2.788,0,0,0,2.09-2.491c0-.057,0-.113,0-.17,0-.014,0-.031,0-.046s0-.031,0-.046c0-.057,0-.113,0-.17a2.789,2.789,0,0,0-2.09-2.491,8.877,8.877,0,0,1-6.352-10.151c.017-.093.035-.185.055-.278,0,0,0,0,0-.007.019-.09.04-.179.063-.269l0-.015c.019-.074.038-.147.06-.222s.042-.151.066-.225l.035-.112h16.873l.035.112q.027.083.05.166c.011.037.021.072.03.109.017.058.032.114.046.172.009.037.019.073.026.109.015.059.028.117.04.176l.018.084q.021.1.039.2a8.869,8.869,0,0,1-6.351,10.151,2.788,2.788,0,0,0-2.09,2.491c0,.057,0,.113,0,.17,0,.015,0,.032,0,.046s0,.032,0,.046c0,.057,0,.113,0,.17a2.787,2.787,0,0,0,2.09,2.491A8.892,8.892,0,0,1,320.622,189.51Z" transform="translate(-300.333 -163.08)" fill="#fff"/>
            <path id="Path_1682" data-name="Path 1682" d="M320.622,189.51a8.83,8.83,0,0,1-.146,1.606,8.633,8.633,0,0,1-.688,2.154H303.724a8.678,8.678,0,0,1-.689-2.155,8.877,8.877,0,0,1,6.352-10.151,2.788,2.788,0,0,0,2.09-2.491c0-.057,0-.113,0-.17,0-.014,0-.031,0-.046s0-.031,0-.046c0-.057,0-.113,0-.17a2.789,2.789,0,0,0-2.09-2.491,8.877,8.877,0,0,1-6.352-10.151c.017-.093.035-.185.055-.278,0,0,0,0,0-.007.019-.09.04-.179.063-.269l0-.015c.019-.074.038-.147.06-.222s.042-.151.066-.225l.035-.112h16.873l.035.112q.027.083.05.166c.011.037.021.072.03.109.017.058.032.114.046.172.009.037.019.073.026.109.015.059.028.117.04.176l.018.084q.021.1.039.2a8.869,8.869,0,0,1-6.351,10.151,2.788,2.788,0,0,0-2.09,2.491c0,.057,0,.113,0,.17,0,.015,0,.032,0,.046s0,.032,0,.046c0,.057,0,.113,0,.17a2.787,2.787,0,0,0,2.09,2.491A8.892,8.892,0,0,1,320.622,189.51Z" transform="translate(-300.333 -163.08)" fill="#d7ecfa" opacity="0.5"/>
            <path id="Path_1683" data-name="Path 1683" d="M316.055,211.357a8.855,8.855,0,0,0,4.751,3.346,3.345,3.345,0,0,1,1.642.894,2.55,2.55,0,0,1,.644,1.891c-.007.491.275,7.671.275,8.565,0,.844.109.219.085.037.087-5.081.191-8.819.191-8.819s.3-1.6.774-1.818a29.039,29.039,0,0,1,2.874-1.208,11.192,11.192,0,0,0,2.385-1.733s2.143-3.056,2.273-3.447-.969-.429-.969-.429Z" transform="translate(-311.944 -202.211)" fill="#ff9a30"/>
            <ellipse id="Ellipse_346" data-name="Ellipse 346" cx="8.232" cy="1.7" rx="8.232" ry="1.7" transform="matrix(0.988, -0.155, 0.155, 0.988, 3.537, 7.218)" fill="#fdcf33"/>
            <g id="Group_2139" data-name="Group 2139" transform="translate(3.559 2.214)" opacity="0.5">
              <g id="Group_2137" data-name="Group 2137" transform="translate(2.978 6.597)">
                <path id="Path_1684" data-name="Path 1684" d="M339.092,231.385a.894.894,0,0,1-.291-.049,8.519,8.519,0,0,1-1.765-.834.894.894,0,0,1,.952-1.515,6.732,6.732,0,0,0,1.394.656.895.895,0,0,1-.29,1.741Z" transform="translate(-336.618 -228.851)" fill="#fff"/>
              </g>
              <g id="Group_2138" data-name="Group 2138">
                <path id="Path_1685" data-name="Path 1685" d="M313.333,179.441a.894.894,0,0,1-.755-.414,8.407,8.407,0,0,1-1.14-5.319.894.894,0,0,1,1.768.269,6.676,6.676,0,0,0,.881,4.09.895.895,0,0,1-.754,1.375Z" transform="translate(-311.379 -172.949)" fill="#fff"/>
              </g>
            </g>
            <g id="Group_2142" data-name="Group 2142" transform="translate(3.559 18.91)" opacity="0.5">
              <g id="Group_2140" data-name="Group 2140" transform="translate(2.978)">
                <path id="Path_1686" data-name="Path 1686" d="M339.092,314.433a.9.9,0,0,0-.291.049,8.519,8.519,0,0,0-1.765.834.894.894,0,0,0,.952,1.515,6.73,6.73,0,0,1,1.394-.656.895.895,0,0,0-.29-1.741Z" transform="translate(-336.618 -314.433)" fill="#fff"/>
              </g>
              <g id="Group_2141" data-name="Group 2141" transform="translate(0 2.639)">
                <path id="Path_1687" data-name="Path 1687" d="M313.333,336.794a.894.894,0,0,0-.755.414,8.407,8.407,0,0,0-1.14,5.319.894.894,0,0,0,1.768-.269,6.676,6.676,0,0,1,.881-4.09.895.895,0,0,0-.754-1.375Z" transform="translate(-311.379 -336.794)" fill="#fff"/>
              </g>
            </g>
            <path id="Path_1688" data-name="Path 1688" d="M311.973,180.676a2.494,2.494,0,0,1-1.872-2.22c0-.052,0-.1,0-.153a.31.31,0,0,1,0-.046.294.294,0,0,1,0-.046c0-.051,0-.1,0-.153a2.494,2.494,0,0,1,1.872-2.22A9.171,9.171,0,0,0,318.689,167a9.051,9.051,0,0,0-.151-1.659c-.017-.092-.034-.183-.054-.273-.014-.066-.028-.132-.045-.2a.043.043,0,0,0,0-.012c-.008-.034-.017-.068-.026-.1-.015-.066-.032-.13-.051-.195-.027-.1-.055-.2-.086-.3h-.313c.011.031.02.064.03.1a.094.094,0,0,1,.006.017q.026.083.05.166c.011.037.021.072.03.109.017.058.032.114.046.172.009.037.019.073.026.109.015.059.028.117.04.176,0,.02.008.04.013.06s0,.015,0,.024q.021.1.039.2a8.87,8.87,0,0,1-6.351,10.151,2.788,2.788,0,0,0-2.09,2.491c0,.057,0,.113,0,.17,0,.015,0,.032,0,.046s0,.032,0,.046c0,.057,0,.113,0,.17a2.787,2.787,0,0,0,2.09,2.491,8.871,8.871,0,0,1,6.351,10.152,8.633,8.633,0,0,1-.688,2.154H301.493a8.673,8.673,0,0,1-.689-2.155,8.877,8.877,0,0,1,6.352-10.151,2.788,2.788,0,0,0,2.09-2.491c0-.057,0-.113,0-.17,0-.014,0-.031,0-.046s0-.031,0-.046c0-.057,0-.113,0-.17a2.789,2.789,0,0,0-2.09-2.491A8.877,8.877,0,0,1,300.8,165.4c.017-.093.035-.186.055-.278,0,0,0,0,0-.007.02-.09.04-.179.063-.269l0-.015c.018-.068.035-.138.055-.205,0-.006,0-.011,0-.017.007-.026.014-.053.022-.079.013-.05.028-.1.044-.146a.092.092,0,0,1,.006-.017c.009-.032.019-.065.029-.1h-.313c-.031.1-.059.2-.086.3-.019.065-.035.129-.051.195-.009.034-.018.068-.026.1a.043.043,0,0,0,0,.012c-.017.066-.031.132-.045.2-.02.09-.038.181-.054.273A9.051,9.051,0,0,0,300.36,167a9.17,9.17,0,0,0,6.717,8.834,2.493,2.493,0,0,1,1.87,2.22c0,.052,0,.1,0,.153,0,.015,0,.032,0,.046s0,.032,0,.046c0,.051,0,.1,0,.153a2.493,2.493,0,0,1-1.87,2.22,9.171,9.171,0,0,0-6.717,8.834,9.181,9.181,0,0,0,.945,4.058h16.439a9.181,9.181,0,0,0,.945-4.058A9.172,9.172,0,0,0,311.973,180.676Z" transform="translate(-298.101 -163.08)" fill="#8fbeff"/>
            <path id="Path_1689" data-name="Path 1689" d="M304.066,401.941h0a.867.867,0,0,1-.867.867H282.087a.867.867,0,0,1-.867-.867h0a.867.867,0,0,1,.867-.867H303.2A.867.867,0,0,1,304.066,401.941Z" transform="translate(-281.22 -371.94)" fill="#0050be"/>
            <g id="Group_2143" data-name="Group 2143" transform="translate(12.265 6.638)">
              <path id="Path_1690" data-name="Path 1690" d="M431.211,210.5c.014.065-.163.158-.394.207s-.431.036-.444-.03.163-.158.394-.207S431.2,210.43,431.211,210.5Z" transform="translate(-425.036 -210.436)" fill="#ff9a30"/>
              <path id="Path_1691" data-name="Path 1691" d="M428.956,216.76c.014.066-.095.144-.242.175s-.279,0-.293-.062.095-.144.243-.175S428.942,216.694,428.956,216.76Z" transform="translate(-423.315 -215.947)" fill="#ff9a30"/>
              <path id="Path_1692" data-name="Path 1692" d="M423.219,215.075c.014.065-.095.144-.243.175s-.279,0-.293-.062.095-.144.243-.175S423.205,215.009,423.219,215.075Z" transform="translate(-418.255 -214.461)" fill="#ff9a30"/>
              <path id="Path_1693" data-name="Path 1693" d="M385.45,220.429c.007.035-.051.078-.131.095s-.151,0-.158-.034.051-.078.131-.095S385.442,220.393,385.45,220.429Z" transform="translate(-385.16 -219.214)" fill="#ff9a30"/>
              <path id="Path_1694" data-name="Path 1694" d="M416.059,211.129c.007.035-.051.078-.131.095s-.151,0-.158-.033.051-.078.131-.094S416.052,211.094,416.059,211.129Z" transform="translate(-412.158 -211.012)" fill="#ff9a30"/>
              <path id="Path_1695" data-name="Path 1695" d="M404.962,221.814c.007.035-.051.078-.131.095s-.151,0-.158-.033.051-.078.131-.095S404.955,221.779,404.962,221.814Z" transform="translate(-402.37 -220.436)" fill="#ff9a30"/>
              <path id="Path_1696" data-name="Path 1696" d="M390.158,228.891c.008.035-.051.078-.131.095s-.15,0-.158-.033.051-.078.131-.094S390.151,228.856,390.158,228.891Z" transform="translate(-389.313 -226.678)" fill="#ff9a30"/>
            </g>
            <path id="Path_1697" data-name="Path 1697" d="M331.686,348.342l-.061-.024-.061.024s-.528,4.127-6.192,6.2h12.507C332.214,352.469,331.686,348.342,331.686,348.342Z" transform="translate(-320.162 -325.41)" fill="#ff9a30"/>
            <path id="Path_1698" data-name="Path 1698" d="M321.193,158.832c0,.46-3.93.834-8.778.834s-8.778-.373-8.778-.834,3.93-.834,8.778-.834S321.193,158.371,321.193,158.832Z" transform="translate(-300.992 -157.548)" fill="#b9dbef"/>
            <path id="Path_1699" data-name="Path 1699" d="M303.2,154.185H282.087a.867.867,0,1,0,0,1.733H303.2a.867.867,0,1,0,0-1.733Z" transform="translate(-281.22 -154.185)" fill="#0050be"/>
          </g>
          <g id="Group_2856" data-name="Group 2856" transform="translate(0 2.731)">
            <g id="Group_2173" data-name="Group 2173" transform="translate(0 0)">
              <g id="Group_2172" data-name="Group 2172" transform="translate(0 0)">
                <g id="Group_2162" data-name="Group 2162">
                  <circle id="Ellipse_350" data-name="Ellipse 350" cx="10.502" cy="10.502" r="10.502" fill="#f52424"/>
                  <circle id="Ellipse_351" data-name="Ellipse 351" cx="9.937" cy="9.937" r="9.937" transform="translate(0.565 0.565)" fill="#f52424"/>
                  <circle id="Ellipse_352" data-name="Ellipse 352" cx="8.815" cy="8.815" r="8.815" transform="translate(1.687 1.687)" fill="#f6f6f6"/>
                </g>
                <g id="Group_2164" data-name="Group 2164" transform="translate(1.687 1.687)" opacity="0.71">
                  <g id="Group_2163" data-name="Group 2163" clip-path="url(#clip-path)">
                    <path id="Path_1707" data-name="Path 1707" d="M1049.027,364.9l13.361,20.7,6.036-5.191-13.219-18.53Z" transform="translate(-1049.856 -363.059)" fill="#fff"/>
                    <path id="Path_1708" data-name="Path 1708" d="M1097.564,346l13.36,20.7.776-2.6-13.219-18.53Z" transform="translate(-1091.273 -349.146)" fill="#fff"/>
                  </g>
                </g>
                <g id="Group_2171" data-name="Group 2171" transform="translate(2.7 2.709)">
                  <g id="Group_2169" data-name="Group 2169">
                    <g id="Group_2165" data-name="Group 2165" transform="translate(7.624)">
                      <path id="Path_1709" data-name="Path 1709" d="M1113.776,377.838a.222.222,0,0,1-.222-.222v-.52a.222.222,0,1,1,.443,0v.52A.222.222,0,0,1,1113.776,377.838Z" transform="translate(-1113.555 -376.874)" fill="#0050be"/>
                      <path id="Path_1710" data-name="Path 1710" d="M1113.776,478.234a.222.222,0,0,1-.222-.222v-.521a.222.222,0,0,1,.443,0v.521A.222.222,0,0,1,1113.776,478.234Z" transform="translate(-1113.555 -462.543)" fill="#0050be"/>
                    </g>
                    <g id="Group_2166" data-name="Group 2166" transform="translate(2.233 2.233)">
                      <path id="Path_1711" data-name="Path 1711" d="M1077.395,392.907a.221.221,0,0,1-.157-.065l-.368-.368a.222.222,0,1,1,.313-.314l.368.368a.222.222,0,0,1-.157.379Z" transform="translate(-1076.805 -392.096)" fill="#0050be"/>
                      <path id="Path_1712" data-name="Path 1712" d="M1148.385,463.9a.221.221,0,0,1-.157-.065l-.368-.368a.222.222,0,0,1,.313-.314l.368.368a.222.222,0,0,1-.157.379Z" transform="translate(-1137.381 -452.673)" fill="#0050be"/>
                    </g>
                    <g id="Group_2167" data-name="Group 2167" transform="translate(2.233 2.233)">
                      <path id="Path_1713" data-name="Path 1713" d="M1077.026,463.9a.222.222,0,0,1-.157-.379l.368-.368a.222.222,0,0,1,.314.314l-.368.368A.22.22,0,0,1,1077.026,463.9Z" transform="translate(-1076.805 -452.673)" fill="#0050be"/>
                      <path id="Path_1714" data-name="Path 1714" d="M1148.017,392.907a.222.222,0,0,1-.157-.379l.368-.368a.222.222,0,0,1,.314.314l-.368.368A.221.221,0,0,1,1148.017,392.907Z" transform="translate(-1137.381 -392.096)" fill="#0050be"/>
                    </g>
                    <g id="Group_2168" data-name="Group 2168" transform="translate(0 7.624)">
                      <path id="Path_1715" data-name="Path 1715" d="M1062.325,429.29h-.521a.222.222,0,0,1,0-.444h.521a.222.222,0,0,1,0,.444Z" transform="translate(-1061.583 -428.846)" fill="#0050be"/>
                      <path id="Path_1716" data-name="Path 1716" d="M1162.721,429.29h-.521a.222.222,0,1,1,0-.444h.521a.222.222,0,0,1,0,.444Z" transform="translate(-1147.251 -428.846)" fill="#0050be"/>
                    </g>
                  </g>
                  <g id="Group_2170" data-name="Group 2170" transform="translate(6.63 2.639)">
                    <path id="Path_1717" data-name="Path 1717" d="M1112.514,399.986h-1.06v-4.593a.53.53,0,0,1,.53-.53h0a.53.53,0,0,1,.53.53Z" transform="translate(-1110.769 -394.863)" fill="#689fe9"/>
                    <circle id="Ellipse_354" data-name="Ellipse 354" cx="1.215" cy="1.215" r="1.215" transform="translate(0 3.908)" fill="#0050be"/>
                  </g>
                </g>
              </g>
            </g>
          </g>
        </g>
      </g>
      <path id="Path_1700" data-name="Path 1700" d="M0,0H107" transform="translate(2.633 74.41)" fill="none" stroke="#389fe5" stroke-linecap="round" stroke-width="1"/>
    </g>
  </g>
</svg>
