<svg xmlns="http://www.w3.org/2000/svg" width="62.336" height="80.221" viewBox="0 0 62.336 80.221">
  <g id="teacher" transform="translate(-223.889 -38.023)">
    <g id="Group_6473" data-name="Group 6473" transform="translate(224.053 38.023)">
      <path id="Path_2945" data-name="Path 2945" d="M44.889,112.748,49.05,97.694a5.515,5.515,0,0,1,2.427-3.29l12.346-7.672,1.1,10.351,8.392,15.665Z" transform="translate(-45.053 -32.732)" fill="#0268f5"/>
      <path id="Path_2946" data-name="Path 2946" d="M104.045,112.954l-4-15.259a5.515,5.515,0,0,0-2.427-3.29L85.276,86.732l-1.1,10.351-8.58,15.649Z" transform="translate(-41.873 -32.732)" fill="#0268f5"/>
      <path id="Path_2947" data-name="Path 2947" d="M60.6,73.147s-2.374,2.528-3.526-3.5c-1.232-6.441-1.189-9.937,1.02-10.673a1.33,1.33,0,0,1,1.818.733Z" transform="translate(-43.886 -35.854)" fill="#ffe4c5"/>
      <path id="Path_2948" data-name="Path 2948" d="M82.556,83.023l1.584,1.154A3.313,3.313,0,0,1,85.5,86.854v7.519a11.043,11.043,0,0,1-1.61,5.741L75.842,113.34H73.035V85.169Z" transform="translate(-42.141 -33.34)" fill="#8fbeff"/>
      <path id="Path_2949" data-name="Path 2949" d="M64.862,83.023l-1.584,1.154a3.313,3.313,0,0,0-1.361,2.677v7.519a11.045,11.045,0,0,0,1.609,5.74l8.052,13.227h2.807V85.157Z" transform="translate(-43.298 -33.34)" fill="#8fbeff"/>
      <path id="Path_2950" data-name="Path 2950" d="M64.584,80.064v4.558a5.519,5.519,0,0,0,2.03,4.277l3.971,3.239a5.52,5.52,0,0,0,6.959.018L81.576,88.9a5.521,5.521,0,0,0,2.051-4.295V79.626Z" transform="translate(-43.02 -33.694)" fill="#ffe4c5"/>
      <path id="Path_2951" data-name="Path 2951" d="M64.584,83.414a12.166,12.166,0,0,0,19.043-.42V79.626l-19.043.438Z" transform="translate(-43.02 -33.694)" fill="#f5cda5"/>
      <path id="Path_2952" data-name="Path 2952" d="M74.483,89.433c8.695,0,15.364-9.109,15.364-24.2,0-18.815-5.52-23.185-15.364-23.185s-15.365,4.37-15.365,23.185C59.118,80.325,65.789,89.433,74.483,89.433Z" transform="translate(-43.589 -37.604)" fill="#ffe4c5"/>
      <path id="Path_2953" data-name="Path 2953" d="M86.076,73.147s2.375,2.528,3.528-3.5c1.232-6.441,1.19-9.937-1.019-10.673a1.33,1.33,0,0,0-1.82.733Z" transform="translate(-40.784 -35.854)" fill="#ffe4c5"/>
      <path id="Path_2955" data-name="Path 2955" d="M60.084,70.308C53.556,67.171,48.857,38.023,72.5,38.023c6.441,0,9.109,2.945,9.109,2.945,4.993-4.508,22.52,6.188,8.15,27.472,0,0,1.422-9.933-3.917-14.108-3.795-2.968-4.416-5.084-4.416-5.084s-2.565,4.528-10.071,6.435C63.9,57.575,61.921,62.41,60.084,70.308Z" transform="translate(-44.04 -38.023)" fill="#232323"/>
      <path id="Path_2956" data-name="Path 2956" d="M70.259,67.567h-5.52a2.763,2.763,0,0,1-2.76-2.76v-.69a2.763,2.763,0,0,1,2.76-2.76h5.52a2.764,2.764,0,0,1,2.76,2.76v.69A2.765,2.765,0,0,1,70.259,67.567Zm-5.52-5.106a1.657,1.657,0,0,0-1.656,1.656v.69a1.657,1.657,0,0,0,1.656,1.656h5.52a1.657,1.657,0,0,0,1.656-1.656v-.69a1.658,1.658,0,0,0-1.656-1.656Z" transform="translate(-43.292 -35.595)" fill="#232323"/>
      <path id="Path_2957" data-name="Path 2957" d="M82.634,67.567h-5.52a2.763,2.763,0,0,1-2.76-2.76v-.69a2.763,2.763,0,0,1,2.76-2.76h5.52a2.764,2.764,0,0,1,2.76,2.76v.69A2.765,2.765,0,0,1,82.634,67.567Zm-5.52-5.106a1.657,1.657,0,0,0-1.656,1.656v.69a1.657,1.657,0,0,0,1.656,1.656h5.52a1.657,1.657,0,0,0,1.656-1.656v-.69a1.658,1.658,0,0,0-1.656-1.656Z" transform="translate(-42.004 -35.595)" fill="#232323"/>
      <rect id="Rectangle_1717" data-name="Rectangle 1717" width="3.726" height="1.104" transform="translate(29.176 26.958)" fill="#232323"/>
      <path id="Path_2958" data-name="Path 2958" d="M77.188,111.477l-1.817-10.552h-3.68l-1.817,10.552h7.313Z" transform="translate(-42.47 -31.477)" fill="#0047a8"/>
      <path id="Path_2959" data-name="Path 2959" d="M73.566,102.982l2.784-1.824a2.208,2.208,0,0,0,.857-2.625L75.92,95.12a2.207,2.207,0,0,0-2.066-1.43h-.577a2.209,2.209,0,0,0-2.066,1.43l-1.286,3.413a2.206,2.206,0,0,0,.856,2.625l2.784,1.824h0Z" transform="translate(-42.48 -32.23)" fill="#0047a8"/>
    </g>
  </g>
</svg>
