<svg xmlns="http://www.w3.org/2000/svg" width="10.681" height="12.69" viewBox="0 0 10.681 12.69">
  <path id="transport" d="M0,9.35a1.994,1.994,0,0,0,.667,1.484v1.19a.669.669,0,0,0,.667.667H2a.667.667,0,0,0,.667-.667v-.667H8.014v.664a.667.667,0,0,0,.667.667h.667a.669.669,0,0,0,.667-.667v-1.19a1.989,1.989,0,0,0,.667-1.484V2.67C10.684.335,8.3,0,5.343,0S0,.335,0,2.67Zm2.338.667a1,1,0,1,1,1-1A1,1,0,0,1,2.338,10.017Zm6.01,0a1,1,0,1,1,1-1A1,1,0,0,1,8.349,10.017Zm1-4.007H1.337V2.67H9.35Z" fill="#ababab"/>
</svg>
