<svg xmlns="http://www.w3.org/2000/svg" width="69.229" height="62.972" viewBox="0 0 69.229 62.972">
  <g id="trend_analysis" transform="translate(-566 -357.937)">
    <g id="analytics_1_" data-name="analytics (1)" transform="translate(566 357.437)">
      <path id="Path_508" data-name="Path 508" d="M67.541,8.03A1.69,1.69,0,0,0,69.23,6.342V2.189A1.69,1.69,0,0,0,67.541.5H57.035a1.013,1.013,0,0,0,0,2.026H67.2V6H2.027V2.526H58.31A1.013,1.013,0,1,0,58.31.5H1.689A1.69,1.69,0,0,0,0,2.189V6.342A1.69,1.69,0,0,0,1.689,8.03h.59V46.1h-.59A1.69,1.69,0,0,0,0,47.788v4.153a1.69,1.69,0,0,0,1.689,1.688H29.63v7.817h-5.3a1.013,1.013,0,1,0,0,2.026H44.9a1.013,1.013,0,1,0,0-2.026H39.6V53.629H67.541a1.69,1.69,0,0,0,1.689-1.688V47.788A1.69,1.69,0,0,0,67.541,46.1h-.59V8.03Zm-63.236.1h60.62V46.1H4.305ZM37.574,61.446H31.656V53.629h5.918ZM67.2,48.126V51.6H2.027V48.126h.835a1,1,0,0,0,.43.1H65.938a1,1,0,0,0,.43-.1Zm0,0" transform="translate(0)" fill="#004261"/>
      <path id="Path_2783" data-name="Path 2783" d="M19.3,19.559H10.03a1.03,1.03,0,1,1,0-2.059H19.3a1.03,1.03,0,1,1,0,2.059Z" transform="translate(3 0.063)" fill="#fb9117"/>
      <path id="Path_2784" data-name="Path 2784" d="M15.178,16.559H10.03a1.03,1.03,0,0,1,0-2.059h5.148a1.03,1.03,0,0,1,0,2.059Z" transform="translate(3 -0.937)" fill="#fb9117"/>
      <path id="Path_2785" data-name="Path 2785" d="M19.3,22.559H10.03a1.03,1.03,0,1,1,0-2.059H19.3a1.03,1.03,0,1,1,0,2.059Z" transform="translate(3 1.063)" fill="#fb9117"/>
      <path id="Union_8" data-name="Union 8" d="M.3,20.69a1.066,1.066,0,0,1,0-1.485L13.233,5.98a1.008,1.008,0,0,1,1.451,0l8.51,8.706L35.492,2.1h-4.7a1.036,1.036,0,0,1-1.025-1.049A1.039,1.039,0,0,1,30.789,0h7.126A1.009,1.009,0,0,1,38.7.308,1.023,1.023,0,0,1,38.847.5l.006.009c0,.008.01.016.014.024l.014.024a.044.044,0,0,0,0,.01A1.071,1.071,0,0,1,39,1.054V8.4a1.027,1.027,0,1,1-2.054,0V3.583L23.92,16.91a.994.994,0,0,1-.726.31,1.011,1.011,0,0,1-.726-.31L13.959,8.2,1.753,20.69a1,1,0,0,1-1.451,0Z" transform="translate(14 21.563)" fill="#00baf2"/>
    </g>
  </g>
</svg>
