<?xml version="1.0" encoding="utf-8"?>
<!-- Generator: Adobe Illustrator 19.0.0, SVG Export Plug-In . SVG Version: 6.00 Build 0)  -->
<svg version="1.1" id="Layer_1" xmlns="http://www.w3.org/2000/svg" xmlns:xlink="http://www.w3.org/1999/xlink" x="0px" y="0px"
	 viewBox="-1230 407.9 131 51.1" style="enable-background:new -1230 407.9 131 51.1;" xml:space="preserve">
<style type="text/css">
	.st0{fill:#D2D2D2;}
	.st1{fill:#005C87;}
	.st2{fill:#DC9F37;}
	.st3{fill:#007D9E;}
	.st4{fill:#E2A74F;}
	.st5{fill:#A6A4A6;}
	.st6{enable-background:new    ;}
	.st7{fill:#FFFFFF;}
</style>
<g id="Group_182" transform="translate(20.667 12.655)">
	<path id="Path_191" class="st0" d="M-1231.2,438.2l12.1-11.8c1.1,1.7,1.6,3.6,1.4,5.6l-13.4,14.4l-13-13.6c0,0-1.8-5.4,0.8-6.3"/>
	<path id="Path_192" class="st0" d="M-1239.7,420.8l8.4,8.2l9.3-9.4l3.3,4.3l-12.6,13l-12.9-13.8l3.3-3.5L-1239.7,420.8z"/>
	<path id="Path_193" class="st1" d="M-1232.3,395.3l12.6,12.1c0,0,8.4,7.5,4.9,17.9c-0.5-3.7-2.2-7.1-4.8-9.8
		c-4.3-4.3-12.7-11.7-12.7-11.7V395.3z"/>
	<path id="Path_194" class="st2" d="M-1232.3,405.6l12.6,11c0,0,7.4,8.1,1.7,15.3c0,0-0.1-5.5-6-11.9l-8.2-7.5L-1232.3,405.6z"/>
	<path id="Path_195" class="st3" d="M-1219.5,415.5l-0.4-8.1l-12.4-12.1v8.5L-1219.5,415.5z"/>
	<path id="Path_196" class="st4" d="M-1232.3,405.6v7l8.7,7.9l3.6-3.9L-1232.3,405.6z"/>
	<path id="Path_197" class="st4" d="M-1237,409.4v7.6l-2.9,3.8l-3.6-4.4L-1237,409.4z"/>
	<path id="Path_198" class="st3" d="M-1245.3,410.1l7.3-1l-6.2,6.2l-2.3-4.5L-1245.3,410.1z"/>
	<path id="Path_199" class="st5" d="M-1244.5,425.4"/>
	<path id="Path_200" class="st1" d="M-1246.6,410.7l2.3,4.7c0,0-5.1,5.1-3.8,11.5C-1248,426.8-1254.9,420.1-1246.6,410.7z"/>
	<path id="Path_201" class="st2" d="M-1243.4,416.4c0,0-7.9,7.8-0.8,16.4c-0.3-2.1,0-4.3,0.8-6.3c0.8-2.1,2.1-4.1,3.7-5.7
		L-1243.4,416.4z"/>
</g>
<g id="Group_183" transform="translate(63.632 19.673)">
	<g class="st6">
		<path class="st7" d="M-1247.2,411.3h-2.2v-11.6h2.2V411.3z"/>
		<path class="st7" d="M-1233.6,399.7v11.6h-1.1c-0.2,0-0.3,0-0.4-0.1s-0.2-0.2-0.3-0.3l-6-7.7c0,0.4,0,0.7,0,1v7.1h-1.9v-11.6h1.1
			c0.1,0,0.2,0,0.2,0c0.1,0,0.1,0,0.2,0c0.1,0,0.1,0.1,0.1,0.1c0,0,0.1,0.1,0.2,0.2l6.1,7.7c0-0.2,0-0.4,0-0.6c0-0.2,0-0.3,0-0.5v-7
			H-1233.6z"/>
		<path class="st7" d="M-1219.8,399.7l-4.7,11.6h-1.9l-4.7-11.6h1.7c0.2,0,0.3,0,0.5,0.1c0.1,0.1,0.2,0.2,0.3,0.4l2.7,7.1
			c0.1,0.2,0.2,0.5,0.3,0.8c0.1,0.3,0.2,0.6,0.2,0.9c0.1-0.3,0.1-0.6,0.2-0.9c0.1-0.3,0.2-0.5,0.2-0.8l2.7-7.1
			c0-0.1,0.1-0.2,0.3-0.3c0.1-0.1,0.3-0.2,0.5-0.2H-1219.8z"/>
		<path class="st7" d="M-1215.2,411.3h-2.2v-11.6h2.2V411.3z"/>
		<path class="st7" d="M-1203.4,408.5c0.1,0,0.2,0,0.3,0.1l0.8,0.9c-0.5,0.6-1,1-1.7,1.3c-0.7,0.3-1.5,0.5-2.5,0.5
			c-0.9,0-1.6-0.1-2.3-0.4c-0.7-0.3-1.3-0.7-1.8-1.2s-0.9-1.1-1.1-1.9c-0.3-0.7-0.4-1.5-0.4-2.4c0-0.9,0.1-1.7,0.4-2.4
			c0.3-0.7,0.7-1.3,1.2-1.9s1.1-0.9,1.8-1.2c0.7-0.3,1.5-0.4,2.3-0.4c0.8,0,1.6,0.1,2.2,0.4s1.2,0.6,1.7,1.1l-0.7,1
			c0,0.1-0.1,0.1-0.2,0.2c-0.1,0-0.2,0.1-0.3,0.1c-0.1,0-0.2,0-0.2-0.1c-0.1,0-0.2-0.1-0.3-0.2c-0.1-0.1-0.2-0.1-0.4-0.2
			c-0.1-0.1-0.3-0.2-0.5-0.2c-0.2-0.1-0.4-0.1-0.6-0.2c-0.2,0-0.5-0.1-0.8-0.1c-0.5,0-1,0.1-1.4,0.3c-0.4,0.2-0.8,0.5-1.1,0.8
			c-0.3,0.3-0.5,0.8-0.7,1.3c-0.2,0.5-0.3,1.1-0.3,1.7c0,0.7,0.1,1.2,0.3,1.7s0.4,0.9,0.7,1.3s0.7,0.6,1.1,0.8
			c0.4,0.2,0.9,0.3,1.4,0.3c0.3,0,0.6,0,0.8,0s0.5-0.1,0.7-0.2c0.2-0.1,0.4-0.2,0.6-0.3s0.4-0.2,0.5-0.4c0.1,0,0.1-0.1,0.2-0.1
			S-1203.5,408.5-1203.4,408.5z"/>
		<path class="st7" d="M-1191.4,401.5h-3.5v9.8h-2.2v-9.8h-3.5v-1.8h9.1V401.5z"/>
		<path class="st7" d="M-1183.9,409.5c0.4,0,0.8-0.1,1.1-0.2s0.6-0.3,0.8-0.6c0.2-0.3,0.4-0.6,0.5-0.9c0.1-0.4,0.2-0.8,0.2-1.2v-6.9
			h2.2v6.9c0,0.7-0.1,1.3-0.3,1.9c-0.2,0.6-0.5,1.1-1,1.5c-0.4,0.4-0.9,0.8-1.5,1c-0.6,0.2-1.3,0.4-2,0.4c-0.7,0-1.4-0.1-2-0.4
			c-0.6-0.2-1.1-0.6-1.5-1s-0.7-0.9-1-1.5s-0.3-1.2-0.3-1.9v-6.9h2.2v6.9c0,0.4,0.1,0.8,0.2,1.2s0.3,0.7,0.5,0.9
			c0.2,0.3,0.5,0.4,0.8,0.6C-1184.7,409.5-1184.3,409.5-1183.9,409.5z"/>
		<path class="st7" d="M-1169.3,401.8c-0.1,0.1-0.1,0.2-0.2,0.2s-0.2,0.1-0.3,0.1c-0.1,0-0.2,0-0.4-0.1c-0.1-0.1-0.3-0.2-0.5-0.3
			c-0.2-0.1-0.4-0.2-0.6-0.3c-0.2-0.1-0.5-0.1-0.9-0.1c-0.3,0-0.6,0-0.8,0.1s-0.4,0.2-0.6,0.3c-0.2,0.1-0.3,0.3-0.3,0.5
			c-0.1,0.2-0.1,0.4-0.1,0.6c0,0.3,0.1,0.5,0.2,0.7c0.2,0.2,0.4,0.3,0.6,0.5c0.3,0.1,0.5,0.2,0.9,0.3s0.6,0.2,1,0.3
			c0.3,0.1,0.7,0.2,1,0.4c0.3,0.2,0.6,0.3,0.9,0.6c0.3,0.2,0.5,0.5,0.6,0.9c0.2,0.3,0.2,0.7,0.2,1.2c0,0.5-0.1,1-0.3,1.5
			s-0.4,0.9-0.8,1.2c-0.3,0.3-0.8,0.6-1.3,0.8s-1.1,0.3-1.7,0.3c-0.4,0-0.7,0-1.1-0.1c-0.4-0.1-0.7-0.2-1-0.3
			c-0.3-0.1-0.6-0.3-0.9-0.5c-0.3-0.2-0.5-0.4-0.8-0.6l0.6-1c0.1-0.1,0.1-0.1,0.2-0.2c0.1-0.1,0.2-0.1,0.3-0.1
			c0.1,0,0.3,0.1,0.4,0.2c0.2,0.1,0.3,0.2,0.6,0.4c0.2,0.1,0.5,0.3,0.7,0.4s0.6,0.2,1,0.2c0.6,0,1.1-0.1,1.4-0.4
			c0.3-0.3,0.5-0.7,0.5-1.3c0-0.3-0.1-0.6-0.2-0.7c-0.2-0.2-0.4-0.4-0.6-0.5c-0.3-0.1-0.5-0.2-0.9-0.3c-0.3-0.1-0.6-0.2-1-0.3
			c-0.3-0.1-0.7-0.2-1-0.4s-0.6-0.3-0.9-0.6c-0.3-0.2-0.5-0.5-0.6-0.9s-0.2-0.8-0.2-1.3c0-0.4,0.1-0.8,0.3-1.2
			c0.2-0.4,0.4-0.8,0.7-1.1s0.7-0.6,1.2-0.7c0.5-0.2,1-0.3,1.6-0.3c0.7,0,1.3,0.1,1.9,0.3c0.6,0.2,1.1,0.5,1.5,0.9L-1169.3,401.8z"
			/>
	</g>
	<g class="st6">
		<path class="st7" d="M-1219.4,419.4c0,0.6-0.1,1.2-0.3,1.8s-0.5,1-0.9,1.4s-0.8,0.7-1.4,0.9c-0.5,0.2-1.1,0.3-1.8,0.3h-3.3V415
			h3.3c0.7,0,1.3,0.1,1.8,0.3c0.5,0.2,1,0.5,1.4,0.9s0.7,0.8,0.9,1.4S-1219.4,418.7-1219.4,419.4z M-1221.1,419.4
			c0-0.5-0.1-0.9-0.2-1.3s-0.3-0.7-0.5-1s-0.5-0.5-0.9-0.6c-0.3-0.1-0.7-0.2-1.1-0.2h-1.7v6.1h1.7c0.4,0,0.8-0.1,1.1-0.2
			c0.3-0.1,0.6-0.3,0.9-0.6c0.2-0.3,0.4-0.6,0.5-1S-1221.1,419.8-1221.1,419.4z"/>
		<path class="st7" d="M-1215.4,423.7h-1.6V415h1.6V423.7z"/>
		<path class="st7" d="M-1205.4,419.4v3.5c-0.4,0.3-0.9,0.6-1.4,0.7s-1,0.2-1.6,0.2c-0.7,0-1.3-0.1-1.9-0.3
			c-0.6-0.2-1.1-0.5-1.5-0.9c-0.4-0.4-0.7-0.9-0.9-1.4c-0.2-0.5-0.3-1.1-0.3-1.8c0-0.7,0.1-1.3,0.3-1.8s0.5-1,0.9-1.4
			c0.4-0.4,0.9-0.7,1.4-0.9s1.2-0.3,1.9-0.3c0.4,0,0.7,0,1,0.1c0.3,0.1,0.6,0.1,0.9,0.2s0.5,0.2,0.7,0.4c0.2,0.1,0.4,0.3,0.6,0.5
			l-0.5,0.7c-0.1,0.1-0.2,0.2-0.3,0.2c-0.1,0-0.2,0-0.4-0.1c-0.1-0.1-0.3-0.2-0.4-0.2s-0.3-0.1-0.4-0.2c-0.2-0.1-0.3-0.1-0.5-0.1
			s-0.4-0.1-0.7-0.1c-0.4,0-0.8,0.1-1.2,0.2c-0.3,0.1-0.6,0.3-0.9,0.6c-0.2,0.3-0.4,0.6-0.6,1s-0.2,0.8-0.2,1.3
			c0,0.5,0.1,0.9,0.2,1.3c0.1,0.4,0.3,0.7,0.6,1c0.3,0.3,0.6,0.5,0.9,0.6c0.4,0.1,0.8,0.2,1.2,0.2c0.3,0,0.6,0,0.9-0.1
			s0.5-0.2,0.7-0.3v-1.6h-1.1c-0.1,0-0.2,0-0.2-0.1c-0.1-0.1-0.1-0.1-0.1-0.2v-0.9H-1205.4z"/>
		<path class="st7" d="M-1201.2,423.7h-1.6V415h1.6V423.7z"/>
		<path class="st7" d="M-1193.7,416.6c0,0.1-0.1,0.1-0.2,0.2c-0.1,0-0.1,0.1-0.2,0.1c-0.1,0-0.2,0-0.3-0.1c-0.1-0.1-0.2-0.1-0.4-0.2
			s-0.3-0.1-0.5-0.2c-0.2-0.1-0.4-0.1-0.6-0.1c-0.2,0-0.4,0-0.6,0.1s-0.3,0.1-0.4,0.2c-0.1,0.1-0.2,0.2-0.3,0.3
			c-0.1,0.1-0.1,0.3-0.1,0.4c0,0.2,0.1,0.4,0.2,0.5c0.1,0.1,0.3,0.3,0.5,0.3c0.2,0.1,0.4,0.2,0.6,0.3s0.5,0.2,0.7,0.2
			s0.5,0.2,0.7,0.3c0.2,0.1,0.5,0.3,0.6,0.4c0.2,0.2,0.3,0.4,0.5,0.6c0.1,0.3,0.2,0.6,0.2,0.9c0,0.4-0.1,0.8-0.2,1.1
			s-0.3,0.6-0.6,0.9s-0.6,0.5-0.9,0.6c-0.4,0.1-0.8,0.2-1.3,0.2c-0.3,0-0.5,0-0.8-0.1c-0.3-0.1-0.5-0.1-0.8-0.2
			c-0.2-0.1-0.5-0.2-0.7-0.4c-0.2-0.1-0.4-0.3-0.6-0.5l0.5-0.8c0-0.1,0.1-0.1,0.2-0.1c0.1,0,0.1-0.1,0.2-0.1c0.1,0,0.2,0,0.3,0.1
			c0.1,0.1,0.3,0.2,0.4,0.3c0.2,0.1,0.3,0.2,0.6,0.3s0.5,0.1,0.8,0.1c0.5,0,0.8-0.1,1.1-0.3s0.4-0.5,0.4-0.9c0-0.2-0.1-0.4-0.2-0.6
			c-0.1-0.1-0.3-0.3-0.5-0.4c-0.2-0.1-0.4-0.2-0.6-0.2c-0.2-0.1-0.5-0.1-0.7-0.2s-0.5-0.2-0.7-0.3s-0.5-0.3-0.6-0.4
			c-0.2-0.2-0.3-0.4-0.5-0.7c-0.1-0.3-0.2-0.6-0.2-1c0-0.3,0.1-0.6,0.2-0.9s0.3-0.6,0.5-0.8s0.5-0.4,0.9-0.6
			c0.4-0.1,0.8-0.2,1.2-0.2c0.5,0,1,0.1,1.4,0.2c0.4,0.2,0.8,0.4,1.1,0.7L-1193.7,416.6z"/>
		<path class="st7" d="M-1182.5,419.4c0,0.6-0.1,1.2-0.3,1.8s-0.5,1-0.9,1.4c-0.4,0.4-0.8,0.7-1.4,0.9c-0.5,0.2-1.1,0.3-1.8,0.3
			c-0.7,0-1.3-0.1-1.8-0.3c-0.5-0.2-1-0.5-1.4-0.9c-0.4-0.4-0.7-0.9-0.9-1.4s-0.3-1.1-0.3-1.8s0.1-1.2,0.3-1.8
			c0.2-0.5,0.5-1,0.9-1.4c0.4-0.4,0.8-0.7,1.4-0.9c0.5-0.2,1.1-0.3,1.8-0.3c0.4,0,0.9,0.1,1.2,0.2c0.4,0.1,0.7,0.2,1.1,0.4
			c0.3,0.2,0.6,0.4,0.9,0.7c0.3,0.3,0.5,0.6,0.7,0.9c0.2,0.3,0.3,0.7,0.4,1.1C-1182.6,418.5-1182.5,418.9-1182.5,419.4z
			 M-1184.2,419.4c0-0.5-0.1-0.9-0.2-1.3s-0.3-0.7-0.5-1c-0.2-0.3-0.5-0.5-0.9-0.6c-0.3-0.1-0.7-0.2-1.1-0.2c-0.4,0-0.8,0.1-1.1,0.2
			c-0.3,0.1-0.6,0.3-0.9,0.6c-0.2,0.3-0.4,0.6-0.5,1s-0.2,0.8-0.2,1.3c0,0.5,0.1,0.9,0.2,1.3s0.3,0.7,0.5,1c0.2,0.3,0.5,0.5,0.9,0.6
			c0.3,0.1,0.7,0.2,1.1,0.2c0.4,0,0.8-0.1,1.1-0.2c0.3-0.1,0.6-0.3,0.9-0.6c0.2-0.3,0.4-0.6,0.5-1S-1184.2,419.8-1184.2,419.4z"/>
		<path class="st7" d="M-1178.5,416.3v2.6h3.3v1.3h-3.3v3.5h-1.6V415h5.5v1.3H-1178.5z"/>
		<path class="st7" d="M-1166.3,416.4h-2.6v7.3h-1.6v-7.3h-2.6V415h6.8V416.4z"/>
	</g>
</g>
</svg>
