<?xml version="1.0" encoding="utf-8"?>
<!-- Generator: Adobe Illustrator 19.0.0, SVG Export Plug-In . SVG Version: 6.00 Build 0)  -->
<svg version="1.1" id="fee_master" xmlns="http://www.w3.org/2000/svg" xmlns:xlink="http://www.w3.org/1999/xlink" x="0px" y="0px"
	 viewBox="-1281 419 28 28" style="enable-background:new -1281 419 28 28;" xml:space="preserve">
<style type="text/css">
	.st0{fill:#FFFFFF;}
</style>
<g id="Group_211" transform="translate(9.088)">
	<g id="Group_210">
		<path id="Path_228" class="st0" d="M-1276.1,419c-2.7,0-5,2.2-5,4.9c0,2.7,2.2,5,4.9,5c2.7,0,5-2.2,5-4.9c0,0,0,0,0,0
			C-1271.1,421.2-1273.3,419-1276.1,419z"/>
	</g>
</g>
<g id="Group_213" transform="translate(9.078 9.909)">
	<g id="Group_212">
		<path id="Path_229" class="st0" d="M-1274.4,419h-3.3c-1.1,0-2.3,0.3-3.3,0.8c1.7,0.5,3.4,1.2,4.9,2c1.6-0.9,3.2-1.6,4.9-2
			C-1272.1,419.3-1273.3,419-1274.4,419z"/>
	</g>
</g>
<g id="Group_215" transform="translate(24.746 14.837)">
	<g id="Group_214">
		<path id="Path_230" class="st0" d="M-1279.4,419c-0.9,0-1.6,0.7-1.6,1.6v3.3c0,0.9,0.7,1.6,1.6,1.6c0.9,0,1.6-0.7,1.6-1.6v-3.3
			C-1277.7,419.7-1278.5,419-1279.4,419C-1279.4,419-1279.4,419-1279.4,419z"/>
	</g>
</g>
<g id="Group_217" transform="translate(0 14.837)">
	<g id="Group_216">
		<path id="Path_231" class="st0" d="M-1279.4,419c-0.9,0-1.6,0.7-1.6,1.6v3.3c0,0.9,0.7,1.6,1.6,1.6c0.9,0,1.6-0.7,1.6-1.6v-3.3
			C-1277.7,419.7-1278.5,419-1279.4,419C-1279.4,419-1279.4,419-1279.4,419z"/>
	</g>
</g>
<g id="Group_219" transform="translate(1.642 11.552)">
	<g id="Group_218">
		<path id="Path_232" class="st0" d="M-1280.2,419c-0.5,0-0.8,0.4-0.8,0.8v0.8c1.8,0,3.3,1.5,3.3,3.3v3.3c0,1.8-1.5,3.3-3.3,3.3v0.8
			c0,0.5,0.4,0.8,0.8,0.8c3.8,0,7.6,1.2,10.7,3.3v-13.8C-1272.7,419.8-1276.4,418.9-1280.2,419z"/>
	</g>
</g>
<g id="Group_221" transform="translate(14.837 11.552)">
	<g id="Group_220">
		<path id="Path_233" class="st0" d="M-1269.4,420.6v-0.8c0-0.5-0.4-0.8-0.8-0.8l0,0c-3.8-0.1-7.5,0.8-10.7,2.7v13.8
			c3.2-2.2,6.9-3.3,10.7-3.3c0.5,0,0.8-0.4,0.8-0.8l0,0v-0.8c-1.8,0-3.3-1.5-3.3-3.3v-3.3C-1272.7,422.1-1271.3,420.6-1269.4,420.6z
			"/>
	</g>
</g>
</svg>
