<?xml version="1.0" encoding="utf-8"?>
<!-- Generator: Adobe Illustrator 19.0.0, SVG Export Plug-In . SVG Version: 6.00 Build 0)  -->
<svg version="1.1" id="reports" xmlns="https://www.w3.org/2000/svg" xmlns:xlink="https://www.w3.org/1999/xlink" x="0px" y="0px"
	 viewBox="-1281 419 28 28" style="enable-background:new -1281 419 28 28;" xml:space="preserve">
<style type="text/css">
	.st0{fill:#FFFFFF;}
</style>
<g id="Group_190" transform="translate(16.364)">
	<g id="Group_189">
		<path id="Path_209" class="st0" d="M-1276.1,423.8c0-0.7-0.3-1.3-0.7-1.7l-2.3-2.3c-0.5-0.5-1.1-0.7-1.8-0.7h-0.1v4.9h4.9V423.8z"
			/>
	</g>
</g>
<g id="Group_192">
	<g id="Group_191">
		<path id="Path_210" class="st0" d="M-1266,435.9c0.2-0.5,0.4-0.9,0.8-1.3l5.6-5.5v-3.6h-5.8c-0.4,0-0.8-0.4-0.8-0.8c0,0,0,0,0,0
			V419h-12.3c-1.4,0-2.5,1.1-2.5,2.5v23.1c0,1.4,1.1,2.5,2.5,2.5h16.4c1.4,0,2.5-1.1,2.5-2.5v-6.1l-0.9,0.9
			c-0.4,0.4-0.8,0.6-1.3,0.8l-2.6,0.9l-0.4,0c-1.1,0-2-0.9-2-2.1c0-0.2,0-0.4,0.1-0.6L-1266,435.9z M-1276.9,431.8h8.2
			c0.5,0,0.8,0.4,0.8,0.8c0,0.5-0.4,0.8-0.8,0.8h-8.2c-0.5,0-0.8-0.4-0.8-0.8C-1277.7,432.1-1277.4,431.8-1276.9,431.8z
			 M-1277.7,436.9c0-0.5,0.4-0.8,0.8-0.8h8.2c0.5,0,0.8,0.4,0.8,0.8c0,0.5-0.4,0.8-0.8,0.8h-8.2
			C-1277.4,437.7-1277.7,437.3-1277.7,436.9L-1277.7,436.9z M-1265.4,442c0.5,0,0.8,0.4,0.8,0.8s-0.4,0.8-0.8,0.8h-4.9
			c-0.5,0-0.8-0.4-0.8-0.8s0.4-0.8,0.8-0.8l0,0H-1265.4z M-1276.9,428.8c-0.5,0-0.8-0.4-0.8-0.8s0.4-0.8,0.8-0.8h11.5
			c0.5,0,0.8,0.4,0.8,0.8s-0.4,0.8-0.8,0.8l0,0L-1276.9,428.8z"/>
	</g>
</g>
<g id="Group_194" transform="translate(15.732 17.654)">
	<g id="Group_193">
		<path id="Path_211" class="st0" d="M-1280.3,419l-0.7,2.1c-0.1,0.2,0,0.4,0.3,0.5c0.1,0,0.2,0,0.3,0l2.1-0.7L-1280.3,419z"/>
	</g>
</g>
<g id="Group_196" transform="translate(17.435 10.9)">
	<g id="Group_195">
		<path id="Path_212" class="st0" d="M-1275.6,419l-5.4,5.4l2.3,2.3l5.4-5.4L-1275.6,419z"/>
	</g>
</g>
<g id="Group_198" transform="translate(23.998 8.091)">
	<g id="Group_197">
		<path id="Path_213" class="st0" d="M-1277.5,419.5c-0.7-0.6-1.7-0.6-2.3,0l-1.2,1.2l2.3,2.3l1.2-1.2
			C-1276.8,421.1-1276.8,420.1-1277.5,419.5z"/>
	</g>
</g>
<g id="Group_201" transform="translate(27.52 10.861)">
	<g id="Group_200">
		<g id="Group_199">
			<path id="Path_214" class="st0" d="M-1281,419L-1281,419L-1281,419z"/>
			<path id="Path_215" class="st0" d="M-1281,419L-1281,419L-1281,419z"/>
			<path id="Path_216" class="st0" d="M-1281,419"/>
		</g>
	</g>
</g>
</svg>
