<?xml version="1.0" encoding="utf-8"?>
<!-- Generator: Adobe Illustrator 19.0.0, SVG Export Plug-In . SVG Version: 6.00 Build 0)  -->
<svg version="1.1" id="Layer_1" xmlns="http://www.w3.org/2000/svg" xmlns:xlink="http://www.w3.org/1999/xlink" x="0px" y="0px"
	 viewBox="-1283 419 23.6 28" style="enable-background:new -1283 419 23.6 28;" xml:space="preserve">
<style type="text/css">
	.st0{fill:#FFFFFF;}
</style>
<g id="transport_details" transform="translate(-4 -2)">
	<path id="Path_296" class="st0" d="M-1279,441.6c0,1.2,0.5,2.4,1.5,3.3v2.6c0,0.8,0.7,1.5,1.5,1.5h1.5c0.8,0,1.5-0.7,1.5-1.5v-1.5
		h11.8v1.5c0,0.8,0.7,1.5,1.5,1.5h1.5c0.8,0,1.5-0.7,1.5-1.5v-2.6c0.9-0.8,1.5-2,1.5-3.3v-14.7c0-5.2-5.3-5.9-11.8-5.9
		c-6.5,0-11.8,0.7-11.8,5.9V441.6z M-1273.8,443.1c-1.2,0-2.2-1-2.2-2.2s1-2.2,2.2-2.2c1.2,0,2.2,1,2.2,2.2
		C-1271.6,442.1-1272.6,443.1-1273.8,443.1C-1273.8,443.1-1273.8,443.1-1273.8,443.1L-1273.8,443.1z M-1260.6,443.1
		c-1.2,0-2.2-1-2.2-2.2s1-2.2,2.2-2.2s2.2,1,2.2,2.2C-1258.4,442.1-1259.4,443.1-1260.6,443.1
		C-1260.6,443.1-1260.6,443.1-1260.6,443.1L-1260.6,443.1z M-1258.4,434.3h-17.7v-7.4h17.7V434.3z"/>
</g>
</svg>
