<svg xmlns="https://www.w3.org/2000/svg" width="51.561" height="37.147" viewBox="0 0 51.561 37.147"><defs><style>.a{fill:#fca016;stroke:#fffbf5;stroke-width:0.5px;}</style></defs><g transform="translate(0.25 0.25)"><g transform="translate(0 0)"><path class="a" d="M50.071,61.352H46.706V60.2a.99.99,0,0,0-.713-.99,27.879,27.879,0,0,0-7.136-.911c-3.959,0-9.353.891-13.342,4.949-3.959-4.1-9.393-4.949-13.342-4.949a27.879,27.879,0,0,0-7.136.911.99.99,0,0,0-.713.99v1.138H.99a.99.99,0,0,0-.99.99V93.944a.987.987,0,0,0,1.475.861c.1-.049,10-5.463,23.813-1.979h.238a.991.991,0,0,0,.238,0c13.856-3.514,23.754,1.89,23.813,1.979a.99.99,0,0,0,1.485-.851V62.342A.99.99,0,0,0,50.071,61.352ZM1.979,92.37V63.331H4.345V88.154a.99.99,0,0,0,1.138.99,43.313,43.313,0,0,1,6.186-.495,25.673,25.673,0,0,1,8.452,1.277A36.385,36.385,0,0,0,1.979,92.37Zm9.69-5.691a43.55,43.55,0,0,0-5.384.346V60.986a27.3,27.3,0,0,1,5.869-.653c3.7,0,8.809.851,12.352,4.85l.03,24.654C22.477,88.49,18.459,86.679,11.669,86.679Zm14.846-21.5c3.543-3.959,8.65-4.85,12.352-4.85a27.418,27.418,0,0,1,5.869.653v26.04a43.537,43.537,0,0,0-5.354-.356c-6.75,0-10.778,1.811-12.867,3.157ZM49.071,92.37A36.392,36.392,0,0,0,30.89,89.925a25.735,25.735,0,0,1,8.492-1.277,43.3,43.3,0,0,1,6.225.485.99.99,0,0,0,1.138-.99V63.331h2.365Z" transform="translate(0 -58.303)"/></g></g></svg>