<svg xmlns="https://www.w3.org/2000/svg" width="24.348" height="19.962" viewBox="0 0 24.348 19.962"><defs><style>.a{fill:#fca016;}</style></defs><g transform="translate(0)"><path class="a" d="M241.565,17.387V0L240.9.056a25.514,25.514,0,0,0-7.734,1.885L232,2.426V19.744l.85-.353a26.542,26.542,0,0,1,8-1.945Zm0,0" transform="translate(-219.391)"/><path class="a" d="M274.605,47.3h-1.3V62.514a.435.435,0,0,1-.4.435l-1.113.091q-.482.04-.961.1c-.1.013-.207.029-.309.044-.215.029-.43.058-.644.092-.125.02-.249.043-.373.065-.192.034-.384.067-.575.1-.131.026-.261.055-.394.084-.182.039-.364.078-.545.121-.136.032-.271.066-.406.1-.176.044-.351.09-.526.139-.136.037-.272.077-.408.117-.174.051-.345.1-.517.158l-.4.13q-.258.087-.514.18l-.394.145-.178.07h9.965Zm0,0" transform="translate(-250.258 -44.726)"/><path class="a" d="M40.663.056,40,0V17.388l.772.066a26.363,26.363,0,0,1,7.991,1.956l.8.334V2.426L48.4,1.941A25.513,25.513,0,0,0,40.663.056Zm0,0" transform="translate(-37.826)"/><path class="a" d="M0,47.3V64.688H9.972c-.053-.021-.107-.044-.161-.063-.124-.047-.25-.093-.375-.138-.177-.064-.353-.127-.531-.186q-.193-.065-.387-.127-.265-.087-.531-.163c-.131-.038-.261-.077-.391-.113-.179-.049-.358-.1-.538-.142-.13-.034-.261-.067-.394-.1-.182-.044-.365-.083-.548-.123-.13-.028-.261-.057-.391-.083-.19-.037-.38-.071-.57-.1L4.78,63.28c-.21-.033-.421-.062-.632-.09-.107-.014-.212-.031-.319-.043q-.478-.058-.957-.1l-1.17-.1a.435.435,0,0,1-.4-.435V47.3Zm0,0" transform="translate(0 -44.726)"/></g></svg>