<svg xmlns="http://www.w3.org/2000/svg" width="20" height="20" viewBox="0 0 20 20"><defs><style>.a{fill:#fca016;}</style></defs><g transform="translate(0.06)"><path class="a" d="M10,0A10,10,0,1,0,20,10,10.011,10.011,0,0,0,10,0Zm0,18.689A8.689,8.689,0,1,1,18.688,10,8.7,8.7,0,0,1,10,18.689Z" transform="translate(-0.06)"/><g transform="translate(-227.379 -88.347)"><g transform="translate(235.319 94.127)"><path class="a" d="M239.685,103.109l-2.661-2.661V94.98a.853.853,0,1,0-1.705,0V100.8a.853.853,0,0,0,.25.6l2.911,2.911a.853.853,0,1,0,1.206-1.206Z" transform="translate(-235.319 -96.345)"/></g></g></g></svg>