<svg xmlns="http://www.w3.org/2000/svg" width="20" height="20" viewBox="0 0 20 20"><defs><style>.a{fill:#4db848;}</style></defs><g transform="translate(0)"><path class="a" d="M10,0A10,10,0,1,0,20,10,10.011,10.011,0,0,0,10,0Zm0,18.689A8.689,8.689,0,1,1,18.688,10,8.7,8.7,0,0,1,10,18.689Z"/><path class="a" d="M150.041,177.393a.627.627,0,0,1-.447-.185l-2.738-2.738a.632.632,0,0,1,.894-.894l2.291,2.291,5.029-5.029a.632.632,0,1,1,.894.894l-5.476,5.476a.633.633,0,0,1-.448.185Zm0,0" transform="translate(-141.008 -163.826)"/></g></svg>