<svg id="erp_module" xmlns="https://www.w3.org/2000/svg" width="26.125" height="26.125" viewBox="0 0 26.125 26.125">
  <path id="Path_287" data-name="Path 287" d="M18.987,13a5.987,5.987,0,1,0,5.987,5.987A6.04,6.04,0,0,0,18.987,13Zm0,7.62a1.633,1.633,0,1,1,1.633-1.633A1.674,1.674,0,0,1,18.987,20.62Z" transform="translate(1.151 1.151)" fill="#fff"/>
  <path id="Path_288" data-name="Path 288" d="M10.885,0h-9.8A1.028,1.028,0,0,0,0,1.089v9.8a1.028,1.028,0,0,0,1.089,1.089h9.8a1.028,1.028,0,0,0,1.089-1.089v-9.8A1.028,1.028,0,0,0,10.885,0ZM7.62,7.076a.514.514,0,0,1-.544.544H4.9a.514.514,0,0,1-.544-.544V4.9A.514.514,0,0,1,4.9,4.354H7.076A.514.514,0,0,1,7.62,4.9Z" fill="#fff"/>
  <path id="Path_289" data-name="Path 289" d="M23.885,0h-9.8A1.028,1.028,0,0,0,13,1.089v9.8a1.028,1.028,0,0,0,1.089,1.089h9.8a1.028,1.028,0,0,0,1.089-1.089v-9.8A1.028,1.028,0,0,0,23.885,0ZM20.62,7.076a.514.514,0,0,1-.544.544H17.9a.514.514,0,0,1-.544-.544V4.9a.514.514,0,0,1,.544-.544h2.177a.514.514,0,0,1,.544.544Z" transform="translate(1.151)" fill="#fff"/>
  <path id="Path_290" data-name="Path 290" d="M10.885,13h-9.8A1.028,1.028,0,0,0,0,14.089v9.8a1.028,1.028,0,0,0,1.089,1.089h9.8a1.028,1.028,0,0,0,1.089-1.089v-9.8A1.028,1.028,0,0,0,10.885,13ZM7.62,20.076a.514.514,0,0,1-.544.544H4.9a.514.514,0,0,1-.544-.544V17.9a.514.514,0,0,1,.544-.544H7.076a.514.514,0,0,1,.544.544Z" transform="translate(0 1.151)" fill="#fff"/>
</svg>
