<svg id="fee_master" xmlns="http://www.w3.org/2000/svg" width="28.031" height="28.031" viewBox="0 0 28.031 28.031">
  <g id="Group_211" data-name="Group 211" transform="translate(9.088)">
    <g id="Group_210" data-name="Group 210">
      <path id="Path_228" data-name="Path 228" d="M170.927,0a4.955,4.955,0,1,0,4.927,4.982A4.98,4.98,0,0,0,170.927,0Z" transform="translate(-166)" fill="#fff"/>
    </g>
  </g>
  <g id="Group_213" data-name="Group 213" transform="translate(9.078 9.909)">
    <g id="Group_212" data-name="Group 212">
      <path id="Path_229" data-name="Path 229" d="M172.39,181h-3.285a7.364,7.364,0,0,0-3.3.809,20.607,20.607,0,0,1,4.938,2.046,20.608,20.608,0,0,1,4.938-2.046A7.364,7.364,0,0,0,172.39,181Z" transform="translate(-165.81 -181)" fill="#fff"/>
    </g>
  </g>
  <g id="Group_215" data-name="Group 215" transform="translate(24.746 14.837)">
    <g id="Group_214" data-name="Group 214">
      <path id="Path_230" data-name="Path 230" d="M453.642,271A1.642,1.642,0,0,0,452,272.642v3.285a1.642,1.642,0,0,0,3.285,0v-3.285A1.642,1.642,0,0,0,453.642,271Z" transform="translate(-452 -271)" fill="#fff"/>
    </g>
  </g>
  <g id="Group_217" data-name="Group 217" transform="translate(0 14.837)">
    <g id="Group_216" data-name="Group 216">
      <path id="Path_231" data-name="Path 231" d="M1.642,271A1.642,1.642,0,0,0,0,272.642v3.285a1.642,1.642,0,0,0,3.285,0v-3.285A1.642,1.642,0,0,0,1.642,271Z" transform="translate(0 -271)" fill="#fff"/>
    </g>
  </g>
  <g id="Group_219" data-name="Group 219" transform="translate(1.642 11.552)">
    <g id="Group_218" data-name="Group 218">
      <path id="Path_232" data-name="Path 232" d="M30.821,211a.821.821,0,0,0-.821.821v.821a3.288,3.288,0,0,1,3.285,3.285v3.285A3.288,3.288,0,0,1,30,222.5v.821a.821.821,0,0,0,.821.821,19.258,19.258,0,0,1,10.731,3.34V213.66A20.714,20.714,0,0,0,30.821,211Z" transform="translate(-30 -211)" fill="#fff"/>
    </g>
  </g>
  <g id="Group_221" data-name="Group 221" transform="translate(14.837 11.552)">
    <g id="Group_220" data-name="Group 220">
      <path id="Path_233" data-name="Path 233" d="M282.552,212.642v-.821a.821.821,0,0,0-.821-.821A20.714,20.714,0,0,0,271,213.66v13.819a19.258,19.258,0,0,1,10.731-3.34.821.821,0,0,0,.821-.821V222.5a3.288,3.288,0,0,1-3.285-3.285v-3.285A3.288,3.288,0,0,1,282.552,212.642Z" transform="translate(-271 -211)" fill="#fff"/>
    </g>
  </g>
</svg>
