<svg xmlns="http://www.w3.org/2000/svg" width="23.579" height="28" viewBox="0 0 23.579 28">
  <g id="transport_details" transform="translate(-4 -2)">
    <path id="Path_296" data-name="Path 296" d="M4,22.632A4.4,4.4,0,0,0,5.474,25.9v2.623A1.478,1.478,0,0,0,6.947,30H8.421a1.478,1.478,0,0,0,1.474-1.474V27.053H21.684v1.474A1.478,1.478,0,0,0,23.158,30h1.474a1.478,1.478,0,0,0,1.474-1.474V25.9a4.4,4.4,0,0,0,1.474-3.272V7.895C27.579,2.737,22.3,2,15.789,2S4,2.737,4,7.895Zm5.158,1.474a2.211,2.211,0,1,1,2.211-2.211A2.208,2.208,0,0,1,9.158,24.105Zm13.263,0a2.211,2.211,0,1,1,2.211-2.211A2.208,2.208,0,0,1,22.421,24.105Zm2.211-8.842H6.947V7.895H24.632Z" fill="#fff"/>
  </g>
</svg>
