<svg xmlns="http://www.w3.org/2000/svg" width="18.235" height="20" viewBox="0 0 18.235 20">
  <g id="fee_transaction_entry" transform="translate(-1 0)">
    <path id="Path_626" data-name="Path 626" d="M245.613,11.608,243,8.875v2.733Zm0,0" transform="translate(-231.373 -8.45)" fill="#fff"/>
    <path id="Path_627" data-name="Path 627" d="M1,20H14.641V17.56h-9.3a.26.26,0,0,1-.274-.268V6.536a.26.26,0,0,1,.274-.268h9.3V3.732H11.321a.266.266,0,0,1-.268-.281V0H1Zm0,0" transform="translate(0 0)" fill="#fff"/>
    <path id="Path_628" data-name="Path 628" d="M131.589,143H118v10.144h13.589Zm-7.143,2.823h2.422a.287.287,0,1,1,0,.574h-2.422a.287.287,0,1,1,0-.574Zm-2.288,1.531h.554a.287.287,0,0,1,0,.574h-.554a1.517,1.517,0,0,1-1.485,1.2h-.1l1.519,1.445a.3.3,0,0,1,.011.417.286.286,0,0,1-.406.01l-2.043-1.933a.3.3,0,0,1,.2-.512h.817a.908.908,0,0,0,.893-.622h-1.711a.287.287,0,1,1,0-.574h1.711a.949.949,0,0,0-.893-.67h-.817a.287.287,0,0,1,0-.574h2.856a.287.287,0,0,1,0,.574h-.854a1.624,1.624,0,0,1,.3.67Zm6.884,3.493h-4.6a.287.287,0,1,1,0-.574h4.6a.287.287,0,0,1,0,.574Zm0-2.249h-4.6a.287.287,0,1,1,0-.574h4.6a.287.287,0,0,1,0,.574Zm0,0" transform="translate(-112.354 -136.158)" fill="#fff"/>
  </g>
</svg>
