<svg xmlns="http://www.w3.org/2000/svg" width="22.102" height="21.261" viewBox="0 0 22.102 21.261">
  <g id="invoice_creation" transform="translate(0 -1.168)">
    <path id="Path_629" data-name="Path 629" d="M124.824,282.552a.533.533,0,1,0-.531.491A.512.512,0,0,0,124.824,282.552Zm0,0" transform="translate(-117.563 -267.559)" fill="#fff"/>
    <path id="Path_630" data-name="Path 630" d="M124.293,212.527a.492.492,0,1,0,.531.491A.513.513,0,0,0,124.293,212.527Zm0,0" transform="translate(-117.563 -201.507)" fill="#fff"/>
    <path id="Path_631" data-name="Path 631" d="M124.824,143.483a.533.533,0,1,0-.531.491A.512.512,0,0,0,124.824,143.483Zm0,0" transform="translate(-117.563 -135.455)" fill="#fff"/>
    <path id="Path_632" data-name="Path 632" d="M270.793.395a4.165,4.165,0,1,0,4.165,4.165A4.164,4.164,0,0,0,270.793.395Z" transform="translate(-252.856 0.773)" fill="#fff"/>
    <path id="Path_633" data-name="Path 633" d="M12.634,367.882a3.094,3.094,0,0,1-.913-2.192v-1.4H0v1.41a2.407,2.407,0,0,0,2.4,2.4H12.871a1.582,1.582,0,0,1-.237-.21Zm0,0" transform="translate(0 -345.663)" fill="#fff"/>
    <path id="Path_634" data-name="Path 634" d="M75.1,79.492H70.857a.351.351,0,1,1,0-.7H74.72a5.555,5.555,0,0,1-.511-2.343,5.821,5.821,0,0,1,.121-1.163H64.893L64.8,89.06h8.844a.32.32,0,0,1,.333.332v1.774a2.414,2.414,0,0,0,2.409,2.4h.008a2.4,2.4,0,0,0,2.391-2.4V82.01A5.56,5.56,0,0,1,75.1,79.492Zm-6.819,7.832a1.193,1.193,0,1,1,1.233-1.192A1.214,1.214,0,0,1,68.285,87.325Zm0-3.483a1.192,1.192,0,1,1,1.233-1.192A1.214,1.214,0,0,1,68.285,83.842ZM76.2,86.505H70.857a.351.351,0,1,1,0-.7H76.2a.351.351,0,0,1,0,.7Zm.351-3.857A.351.351,0,0,1,76.2,83H70.857a.351.351,0,1,1,0-.7H76.2A.351.351,0,0,1,76.55,82.648Zm0,0" transform="translate(-61.555 -71.139)" fill="#fff"/>
    <g id="rupee-indian" transform="translate(-67.444 6.758)">
      <path id="Path_635" data-name="Path 635" d="M74.536.621A.061.061,0,0,0,74.491.6h-.333a.674.674,0,0,0-.125-.28h.453a.06.06,0,0,0,.062-.062v-.2A.06.06,0,0,0,74.487,0H72.868a.06.06,0,0,0-.062.062V.321a.063.063,0,0,0,.062.062h.282q.411,0,.521.22h-.8a.06.06,0,0,0-.062.062v.2a.06.06,0,0,0,.062.062H73.7a.38.38,0,0,1-.2.243.878.878,0,0,1-.413.084h-.218a.063.063,0,0,0-.062.062v.247a.058.058,0,0,0,.017.043q.374.4.969,1.111a.057.057,0,0,0,.049.023h.379a.056.056,0,0,0,.056-.035.053.053,0,0,0-.008-.066q-.568-.7-.893-1.043a.987.987,0,0,0,.537-.214.727.727,0,0,0,.251-.455h.327a.06.06,0,0,0,.062-.062v-.2A.061.061,0,0,0,74.536.621Z" transform="translate(0 0)" fill="#007d9e"/>
    </g>
    <g id="add" transform="translate(16.064 3.459)">
      <g id="Group_876" data-name="Group 876" transform="translate(0 0)">
        <path id="Path_636" data-name="Path 636" d="M3.53,2.128h-1.4v1.4a.252.252,0,0,1-.26.2.252.252,0,0,1-.26-.2v-1.4H.2a.252.252,0,0,1-.2-.26.252.252,0,0,1,.2-.26h1.4V.2a.252.252,0,0,1,.26-.2.252.252,0,0,1,.26.2v1.4h1.4a.252.252,0,0,1,.2.26A.252.252,0,0,1,3.53,2.128Z" transform="translate(0 -0.001)" fill="#007d9e"/>
      </g>
    </g>
  </g>
</svg>
