<svg xmlns="http://www.w3.org/2000/svg" width="16.076" height="17.271" viewBox="0 0 16.076 17.271">
  <g id="student_profile" transform="translate(-8.857 -27.394)">
    <g id="Group_863" data-name="Group 863" transform="translate(8.857 27.128)">
      <path id="Path_622" data-name="Path 622" d="M165.656,98.394a4.117,4.117,0,1,0-1.207-2.912A3.969,3.969,0,0,0,165.656,98.394Z" transform="translate(-160.53 -91.097)" fill="#fff"/>
      <path id="Path_625" data-name="Path 625" d="M88.966,296.475a9.668,9.668,0,0,0-.3-1.239,5.884,5.884,0,0,0-.491-1.113,4.025,4.025,0,0,0-.708-.925,2.984,2.984,0,0,0-.976-.611,3.429,3.429,0,0,0-1.273-.228,1.345,1.345,0,0,0-.491.246q-.377.245-.833.548a5.3,5.3,0,0,1-5.526,0q-.457-.3-.833-.548a1.346,1.346,0,0,0-.491-.246,3.43,3.43,0,0,0-1.273.228,2.979,2.979,0,0,0-.976.611,4.016,4.016,0,0,0-.708.925,5.872,5.872,0,0,0-.491,1.113,9.7,9.7,0,0,0-.3,1.239,11.605,11.605,0,0,0-.16,1.245q-.04.577-.04,1.182a2.845,2.845,0,0,0,.833,2.163,3.081,3.081,0,0,0,2.215.793h9.979a3.081,3.081,0,0,0,2.215-.793,2.845,2.845,0,0,0,.833-2.163q0-.605-.04-1.182A11.806,11.806,0,0,0,88.966,296.475Z" transform="translate(-73.09 -284.321)" fill="#fff"/>
    </g>
  </g>
</svg>
