<?xml version="1.0" encoding="iso-8859-1"?>
<!-- Generator: Adobe Illustrator 19.0.0, SVG Export Plug-In . SVG Version: 6.00 Build 0)  -->
<svg version="1.1" id="Capa_1" xmlns="http://www.w3.org/2000/svg" xmlns:xlink="http://www.w3.org/1999/xlink" x="0px" y="0px"
	 viewBox="0 0 512 512" style="enable-background:new 0 0 512 512;" xml:space="preserve">
<path style="fill:#FF6243;" d="M174.799,420.289v84.886c0,6.035-7.267,9.089-11.573,4.865l-4.017-3.934l-5.01-4.896
	c-2.64-2.598-6.884-2.598-9.524,0l-9.027,8.83c-4.306,4.224-11.573,1.17-11.573-4.865v-84.886H174.799z"/>
<path style="fill:#FF3501;" d="M159.209,420.289v85.818l-5.01-4.896c-2.64-2.598-6.884-2.598-9.524,0l-9.027,8.83
	c-4.306,4.224-11.573,1.17-11.573-4.865v-84.886L159.209,420.289L159.209,420.289z"/>
<path style="fill:#78B9EB;" d="M432.563,79.824v276.169c0,11.346-2.36,22.132-6.625,31.905
	c-7.961,18.23-22.536,32.909-40.693,41.014c-9.928,4.441-20.932,6.905-32.505,6.905H97.688c-10.072,0-18.25-8.168-18.25-18.24V18.24
	C79.437,8.168,87.615,0,97.688,0h255.051c11.573,0,22.578,2.464,32.505,6.905C413.132,19.348,432.563,47.319,432.563,79.824z"/>
<path style="fill:#96C8EF;" d="M432.563,79.824v276.169c0,11.346-2.36,22.132-6.625,31.905c-1.791,0.973-3.623,1.874-5.497,2.712
	c-9.927,4.441-20.932,6.905-32.505,6.905H132.884c-10.072,0-18.25-8.168-18.25-18.24V0h238.105c11.573,0,22.578,2.464,32.505,6.905
	C413.132,19.348,432.563,47.319,432.563,79.824z"/>
<circle style="fill:#3D9AE2;" cx="249.44" cy="205.848" r="78.126"/>
<path style="fill:#1A6FB0;" d="M252.319,196.867L252.319,196.867c-9.49-3.487-16.984-6.24-16.984-15.732
	c0-10.812,9.143-13.081,16.813-13.081c7.288,0,11.389,2.111,14.102,3.507c1.503,0.773,2.69,1.384,3.917,1.384
	c3.716,0,5.583-4.239,5.583-6.613c0-6.03-11.448-8.94-19.982-9.566v-6.787c0-3.487-2.836-6.322-6.322-6.322
	s-6.322,2.836-6.322,6.322v7.588c-12.901,2.765-19.982,11.365-19.982,24.339c0,17.355,12.39,22.01,23.324,26.118
	c10.414,3.913,19.408,7.293,19.408,19.961c0,10.41-5.992,15.912-17.328,15.912c-10.244,0-14.321-4.394-17.299-7.606
	c-1.595-1.719-2.855-3.077-4.71-3.077c-3.077,0-5.712,3.636-5.712,6.613c0,5.289,8.446,13.47,22.3,15.354v6.529
	c0,3.487,2.836,6.322,6.322,6.322s6.322-2.836,6.322-6.322v-6.655c14.196-2.316,22.3-12.393,22.3-27.842
	C278.067,206.328,263.791,201.081,252.319,196.867z M251.791,198.303L251.791,198.303L251.791,198.303L251.791,198.303z"/>
<path style="fill:#5AAAE7;" d="M385.244,6.905v422.007c-9.928,4.441-20.932,6.905-32.505,6.905h-6.056V0h6.056
	C364.313,0,375.317,2.464,385.244,6.905z"/>
<g>
</g>
<g>
</g>
<g>
</g>
<g>
</g>
<g>
</g>
<g>
</g>
<g>
</g>
<g>
</g>
<g>
</g>
<g>
</g>
<g>
</g>
<g>
</g>
<g>
</g>
<g>
</g>
<g>
</g>
</svg>
