<svg viewBox="0 0 512 512" xmlns="https://www.w3.org/2000/svg" xmlns:xlink="https://www.w3.org/1999/xlink"><linearGradient id="a" gradientTransform="matrix(1 0 0 -1 0 -14446)" gradientUnits="userSpaceOnUse" x1="0" x2="512" y1="-14702" y2="-14702"><stop offset="0" stop-color="#00f1ff"/><stop offset=".231" stop-color="#00d8ff"/><stop offset=".5138" stop-color="#00c0ff"/><stop offset=".7773" stop-color="#00b2ff"/><stop offset="1" stop-color="#00adff"/></linearGradient><path d="m512 256c0 141.386719-114.613281 256-256 256s-256-114.613281-256-256 114.613281-256 256-256 256 114.613281 256 256zm0 0" fill="url(#a)"/><g fill="#fff"><path d="m317.632812 274.730469c-6.976562-4.464844-16.253906-2.433594-20.722656 4.542969-4.46875 6.976562-2.433594 16.253906 4.542969 20.722656 36.636719 23.460937 74.089844 55.945312 74.089844 119.003906 0 8.28125 6.714843 15 15 15 8.28125 0 15-6.71875 15-15 0-77.972656-46.980469-118.058594-87.910157-144.269531zm0 0"/><path d="m332.882812 373.109375h-188.578124c3.910156-10.40625 9.160156-19.78125 15.5-28.347656h120.222656c8.28125 0 15-6.714844 15-15 0-8.285157-6.71875-15-15-15h-90.382813c21.324219-16.75 47.070313-30.480469 73.414063-44.527344 34.007812-18.128906 69.171875-36.878906 95.941406-63.125 31.316406-30.703125 46.542969-67.375 46.542969-112.109375 0-8.285156-6.71875-15-15-15-8.285157 0-15 6.714844-15 15 0 5.765625-.320313 11.28125-.917969 16.574219h-195.507812c-8.28125 0-15 6.71875-15 15 0 8.285156 6.71875 15 15 15h188.320312c-3.984375 10.414062-9.328125 19.78125-15.753906 28.351562h-117.648438c-8.285156 0-15 6.714844-15 15 0 8.28125 6.714844 15 15 15h87.4375c-19.230468 14.945313-41.972656 27.503907-65.46875 40.070313-72.359375-38.804688-119.546875-70.667969-119.546875-144.996094 0-8.285156-6.714843-15-15-15-8.28125 0-15 6.714844-15 15 0 44.09375 14.769531 80.316406 45.152344 110.730469 21.003906 21.027343 47.320313 37.210937 72.804687 51.28125-25.859374 14.308593-51.0625 29.925781-71.414062 49.878906-31.316406 30.703125-46.542969 67.375-46.542969 112.109375 0 8.285156 6.71875 15 15 15 8.285157 0 15-6.714844 15-15 0-5.515625.292969-10.804688.84375-15.890625h195.582031c8.28125 0 15-6.714844 15-15s-6.71875-15-15-15zm0 0"/></g></svg>