<?xml version="1.0" encoding="iso-8859-1"?>
<!-- Generator: Adobe Illustrator 21.0.0, SVG Export Plug-In . SVG Version: 6.00 Build 0)  -->
<svg version="1.1" id="Capa_1" xmlns="https://www.w3.org/2000/svg" xmlns:xlink="https://www.w3.org/1999/xlink" x="0px" y="0px"
	 viewBox="0 0 512 512" style="enable-background:new 0 0 512 512;" xml:space="preserve">
<linearGradient id="SVGID_1_" gradientUnits="userSpaceOnUse" x1="0" y1="258" x2="512" y2="258" gradientTransform="matrix(1 0 0 -1 0 514)">
	<stop  offset="0" style="stop-color:#00F2FE"/>
	<stop  offset="0.021" style="stop-color:#03EFFE"/>
	<stop  offset="0.293" style="stop-color:#24D2FE"/>
	<stop  offset="0.554" style="stop-color:#3CBDFE"/>
	<stop  offset="0.796" style="stop-color:#4AB0FE"/>
	<stop  offset="1" style="stop-color:#4FACFE"/>
</linearGradient>
<path style="fill:url(#SVGID_1_);" d="M215,0H20C8.954,0,0,8.954,0,20s8.954,20,20,20h10v384.5c0,48.248,39.252,87.5,87.5,87.5
	s87.5-39.252,87.5-87.5V190c0-11.046-8.954-20-20-20H70V40h95v50c0,11.046,8.954,20,20,20s20-8.954,20-20V40h10
	c11.046,0,20-8.954,20-20S226.046,0,215,0z M165,210v214.5c0,26.191-21.309,47.5-47.5,47.5S70,450.691,70,424.5V210H165z M492,0H297
	c-11.046,0-20,8.954-20,20s8.954,20,20,20h10v384.5c0,48.248,39.252,87.5,87.5,87.5s87.5-39.252,87.5-87.5V250
	c0-11.046-8.954-20-20-20H347V40h95v110c0,11.046,8.954,20,20,20s20-8.954,20-20V40h10c11.046,0,20-8.954,20-20S503.046,0,492,0z
	 M442,270v154.5c0,26.191-21.309,47.5-47.5,47.5S347,450.691,347,424.5V270H442z"/>
<g>
</g>
<g>
</g>
<g>
</g>
<g>
</g>
<g>
</g>
<g>
</g>
<g>
</g>
<g>
</g>
<g>
</g>
<g>
</g>
<g>
</g>
<g>
</g>
<g>
</g>
<g>
</g>
<g>
</g>
</svg>
