<?xml version="1.0" encoding="iso-8859-1"?>
<!-- Generator: Adobe Illustrator 19.0.0, SVG Export Plug-In . SVG Version: 6.00 Build 0)  -->
<svg version="1.1" id="Capa_1" xmlns="http://www.w3.org/2000/svg" xmlns:xlink="http://www.w3.org/1999/xlink" x="0px" y="0px"
	 viewBox="0 0 511.865 511.865" style="enable-background:new 0 0 511.865 511.865;" xml:space="preserve">
<g>
	<rect x="139.962" y="491.873" style="fill:#5C9EFF;" width="31.991" height="15.996"/>
	<rect x="339.912" y="491.873" style="fill:#5C9EFF;" width="31.991" height="15.996"/>
</g>
<g>
	<path style="fill:#D7E9FF;" d="M256.01,4c-27.993,0-35.99,7.998-35.99,7.998l4.237,8.958c1.121-0.64,2.32-0.96,3.683-0.96
		c1.359,0,2.558,0.32,3.679,0.96c0,0,0.078,0.078,0.238,0.16c0.082,0.078,0.238,0.16,0.398,0.32c0.48,0.238,0.961,0.636,1.281,1.039
		c0.242,0.238,0.48,0.559,0.801,0.801c0.078,0,0.16,0.078,0.238,0.238c5.6,5.12,17.437,18.155,17.515,36.471v8.4h7.842v-8.4h0.078
		c0-18.315,11.918-31.351,17.511-36.471c0.086-0.16,0.164-0.238,0.25-0.238c0.312-0.242,0.554-0.562,0.796-0.801
		c0.312-0.402,0.797-0.8,1.281-1.039c0.156-0.16,0.312-0.242,0.391-0.32c0.164-0.082,0.25-0.16,0.25-0.16
		c1.117-0.64,2.312-0.96,3.671-0.96c1.281,0,2.483,0.32,3.608,0.879l4.233-8.877C292,11.998,284.002,4,256.01,4z"/>
	<path style="fill:#D7E9FF;" d="M275.926,139.964v7.998h-39.989v-7.998c4.397,0,7.998-3.601,7.998-7.998V99.975h23.994v31.991
		C267.929,136.364,271.529,139.964,275.926,139.964z"/>
</g>
<path style="fill:#94C1FF;" d="M243.935,113.166c3.647,1.746,7.686,2.804,11.997,2.804s8.349-1.058,11.997-2.8V99.975h-23.994
	V113.166z"/>
<path style="fill:#FFFFFF;" d="M243.935,113.166v18.8c0,4.397-3.601,7.998-7.998,7.998h10.248c4.397,0,5.749-3.601,5.749-7.998
	v-16.472C249.129,115.057,246.414,114.354,243.935,113.166z"/>
<path style="fill:#94C1FF;" d="M267.929,113.166v18.8c0,4.397,3.6,7.998,7.997,7.998h-10.247c-4.397,0-5.748-3.601-5.748-7.998
	v-16.472C262.735,115.057,265.445,114.354,267.929,113.166z"/>
<g style="opacity:0.2;">
	<path d="M259.931,60.388c-1.316-0.188-2.629-0.402-3.999-0.402c-1.316,0-2.574,0.211-3.843,0.387v8.013h7.842V60.388z"/>
</g>
<polygon style="fill:#D7E9FF;" points="435.883,75.981 283.924,75.981 227.939,75.981 75.98,75.981 67.982,91.977 227.939,99.975 
	283.924,99.975 443.881,91.977 "/>
<path style="fill:#94C1FF;" d="M283.924,87.978c0-4.312-1.062-8.349-2.796-11.997h-50.389c-1.742,3.647-2.8,7.685-2.8,11.997
	s1.058,8.35,2.804,11.997h50.385C282.862,96.328,283.924,92.289,283.924,87.978z"/>
<g style="opacity:0.5;">
	<path style="fill:#FFFFFF;" d="M228.415,83.979c0.438-2.804,1.141-5.518,2.324-7.998h-2.8H75.98l-7.998,15.996l3.901,0.195
		l4.097-8.193h151.959H228.415z"/>
</g>
<g style="opacity:0.5;">
	<path style="fill:#FFFFFF;" d="M435.883,75.981H283.924h-2.796c1.18,2.48,1.882,5.194,2.319,7.998h0.477h151.959l4.093,8.193
		l3.905-0.195L435.883,75.981z"/>
</g>
<path style="fill:#FFFFFF;" d="M256.01,11.998c19.003,0,28.773,3.683,33.101,6.049l2.89-6.049c0,0-7.998-7.998-35.99-7.998
	c-27.993,0-35.99,7.998-35.99,7.998l2.866,6.061C227.202,15.693,236.976,11.998,256.01,11.998z"/>
<path style="fill:#D7E9FF;" d="M363.903,307.919h143.962c0,39.755-32.227,71.98-71.981,71.98S363.903,347.674,363.903,307.919z"/>
<path style="fill:#FFFFFF;" d="M379.899,307.919h-15.996c0,39.755,32.226,71.98,71.98,71.98c2.702,0,5.374-0.18,7.998-0.469
	C407.899,375.448,379.899,344.964,379.899,307.919z"/>
<path style="fill:#94C1FF;" d="M491.869,307.919h15.996c0,39.755-32.227,71.98-71.981,71.98c-2.702,0-5.373-0.18-7.997-0.469
	C463.869,375.448,491.869,344.964,491.869,307.919z"/>
<path style="fill:#D7E9FF;" d="M3.999,307.919H147.96c0,39.755-32.23,71.98-71.981,71.98S3.999,347.674,3.999,307.919z"/>
<path style="fill:#94C1FF;" d="M255.932,67.984c11.036,0,19.994,8.958,19.994,19.994s-8.958,19.995-19.994,19.995
	c-11.036,0-19.995-8.959-19.995-19.995S244.896,67.984,255.932,67.984z"/>
<path style="fill:#FFFFFF;" d="M19.995,307.919H3.999c0,39.755,32.229,71.98,71.98,71.98c2.707,0,5.37-0.18,7.998-0.469
	C47.995,375.448,19.995,344.964,19.995,307.919z"/>
<path style="fill:#94C1FF;" d="M131.965,307.919h15.996c0,39.755-32.23,71.98-71.981,71.98c-2.706,0-5.369-0.18-7.998-0.469
	C103.965,375.448,131.965,344.964,131.965,307.919z"/>
<path style="fill:#D7E9FF;" d="M227.939,147.962h55.985c-8.872,0-15.995,7.119-15.995,15.995l7.997,191.948l7.998,7.998
	l-7.998,7.998v15.996v7.998h-39.989v-7.998v-15.996l-7.998-7.998l7.998-7.998l7.998-191.948
	C243.935,155.081,236.816,147.962,227.939,147.962z"/>
<path style="fill:#FFFFFF;" d="M243.935,371.902l-5.499-7.998l5.499-7.998l7.998-191.948c0-8.876-7.119-15.995-15.996-15.995h-7.998
	c8.876,0,15.996,7.119,15.996,15.995l-7.998,191.948l-7.998,7.998l7.998,7.998v15.996h7.998V371.902z"/>
<g>
	<path style="fill:#94C1FF;" d="M267.929,371.902l5.498-7.998l-5.498-7.998l-7.998-191.948c0-8.876,7.123-15.995,15.995-15.995
		h7.998c-8.872,0-15.995,7.119-15.995,15.995l7.997,191.948l7.998,7.998l-7.998,7.998v15.996h-7.997V371.902z"/>
	<polygon style="fill:#94C1FF;" points="219.942,427.887 219.942,419.889 235.937,419.889 275.926,419.889 291.922,419.889 
		291.922,427.887 299.92,427.887 379.899,427.887 379.899,491.87 131.965,491.87 131.965,427.887 211.944,427.887 	"/>
</g>
<g>
	<path style="fill:#116FFF;" d="M256.17,91.977c-2.207,0-4.038-1.789-4.038-3.999s1.749-3.999,3.96-3.999h0.078
		c2.21,0,3.999,1.789,3.999,3.999S258.38,91.977,256.17,91.977z"/>
	<path style="fill:#116FFF;" d="M66.67,115.752c-0.434,0-0.879-0.07-1.312-0.223c-2.085-0.722-3.19-3.003-2.464-5.088l1.312-3.78
		c0.718-2.085,2.996-3.206,5.088-2.464c2.085,0.722,3.19,3.003,2.464,5.088l-1.312,3.78
		C69.876,114.717,68.326,115.752,66.67,115.752z"/>
	<path style="fill:#116FFF;" d="M7.979,284.48c-0.438,0-0.879-0.07-1.312-0.227c-2.085-0.719-3.19-2.999-2.464-5.084l2.667-7.67
		c0.727-2.086,3.019-3.195,5.089-2.461c2.089,0.719,3.19,3,2.464,5.085l-2.667,7.67C11.181,283.441,9.635,284.48,7.979,284.48z
		 M13.313,269.14c-0.438,0-0.878-0.07-1.312-0.227c-2.089-0.718-3.19-2.999-2.464-5.084l2.667-7.67
		c0.726-2.085,3.026-3.183,5.088-2.464c2.09,0.727,3.191,3.003,2.465,5.088l-2.667,7.67C16.515,268.102,14.969,269.14,13.313,269.14
		z M18.648,253.801c-0.438,0-0.879-0.07-1.312-0.222c-2.089-0.727-3.19-3.003-2.464-5.089l2.667-7.67
		c0.73-2.085,3.019-3.187,5.089-2.464c2.089,0.727,3.19,3.003,2.464,5.088l-2.667,7.669
		C21.85,252.766,20.304,253.801,18.648,253.801z M23.982,238.465c-0.437,0-0.878-0.07-1.316-0.223
		c-2.085-0.727-3.187-3.007-2.46-5.093l2.671-7.669c0.727-2.085,3.007-3.191,5.092-2.46c2.085,0.727,3.187,3.007,2.46,5.093
		l-2.671,7.669C27.185,237.43,25.638,238.465,23.982,238.465z M29.321,223.125c-0.438,0-0.879-0.07-1.312-0.223
		c-2.089-0.727-3.191-3.003-2.464-5.088l2.667-7.67c0.73-2.085,3.019-3.198,5.089-2.464c2.089,0.727,3.19,3.003,2.464,5.089
		l-2.667,7.67C32.523,222.09,30.976,223.125,29.321,223.125z M34.655,207.786c-0.437,0-0.878-0.07-1.312-0.223
		c-2.089-0.726-3.19-3.003-2.464-5.088l2.667-7.67c0.727-2.085,3.011-3.183,5.088-2.464c2.089,0.726,3.19,3.003,2.464,5.088
		l-2.667,7.67C37.858,206.751,36.311,207.786,34.655,207.786z M39.99,192.446c-0.438,0-0.879-0.07-1.312-0.223
		c-2.089-0.726-3.191-3.003-2.464-5.088l2.667-7.67c0.73-2.085,3.022-3.187,5.088-2.464c2.089,0.726,3.19,3.003,2.464,5.088
		l-2.667,7.67C43.192,191.412,41.646,192.446,39.99,192.446z M45.325,177.107c-0.438,0-0.879-0.07-1.312-0.223
		c-2.089-0.727-3.19-3.003-2.464-5.089l2.667-7.67c0.727-2.089,3.011-3.19,5.088-2.464c2.089,0.727,3.191,3.003,2.464,5.088
		l-2.667,7.67C48.527,176.072,46.98,177.107,45.325,177.107z M50.659,161.771c-0.438,0-0.878-0.07-1.316-0.223
		c-2.085-0.727-3.187-3.007-2.46-5.093l2.671-7.669c0.722-2.082,3-3.179,5.092-2.46c2.085,0.727,3.187,3.007,2.46,5.093l-2.671,7.67
		C53.861,160.736,52.315,161.771,50.659,161.771z M55.997,146.431c-0.438,0-0.879-0.07-1.312-0.223
		c-2.089-0.727-3.19-3.003-2.464-5.088l2.667-7.669c0.727-2.09,3.011-3.187,5.089-2.465c2.089,0.727,3.19,3.003,2.464,5.089
		l-2.667,7.67C59.2,145.396,57.653,146.431,55.997,146.431z M61.331,131.091c-0.437,0-0.878-0.07-1.312-0.222
		c-2.089-0.727-3.19-3.003-2.464-5.088l2.667-7.67c0.73-2.089,3.023-3.19,5.088-2.464c2.089,0.727,3.19,3.003,2.464,5.088
		l-2.667,7.67C64.534,130.057,62.988,131.091,61.331,131.091z"/>
	<path style="fill:#116FFF;" d="M3.999,295.922c-0.434,0-0.879-0.07-1.312-0.219c-2.085-0.727-3.191-3.007-2.464-5.093l1.312-3.779
		c0.718-2.086,2.987-3.203,5.088-2.469c2.086,0.727,3.191,3.007,2.464,5.093l-1.312,3.78C7.205,294.891,5.655,295.922,3.999,295.922
		z"/>
	<path style="fill:#116FFF;" d="M85.29,115.752c-1.656,0-3.207-1.035-3.776-2.687l-1.312-3.78c-0.727-2.085,0.379-4.366,2.464-5.088
		c2.082-0.742,4.366,0.378,5.088,2.464l1.312,3.78c0.726,2.085-0.379,4.366-2.465,5.088
		C86.169,115.682,85.724,115.752,85.29,115.752z"/>
	<path style="fill:#116FFF;" d="M143.981,284.48c-1.656,0-3.202-1.039-3.776-2.687l-2.667-7.67
		c-0.726-2.085,0.375-4.366,2.465-5.085c2.069-0.734,4.362,0.375,5.088,2.461l2.667,7.67c0.726,2.085-0.379,4.365-2.464,5.084
		C144.86,284.41,144.419,284.48,143.981,284.48z M138.647,269.14c-1.656,0-3.202-1.038-3.776-2.687l-2.667-7.67
		c-0.727-2.085,0.375-4.362,2.464-5.088c2.078-0.722,4.362,0.375,5.089,2.464l2.667,7.67c0.727,2.085-0.375,4.366-2.464,5.084
		C139.526,269.07,139.084,269.14,138.647,269.14z M133.312,253.801c-1.656,0-3.203-1.035-3.776-2.687l-2.667-7.669
		c-0.726-2.085,0.375-4.362,2.464-5.088c2.093-0.734,4.362,0.379,5.088,2.464l2.667,7.67c0.726,2.085-0.375,4.362-2.464,5.089
		C134.191,253.73,133.749,253.801,133.312,253.801z M127.978,238.465c-1.656,0-3.202-1.035-3.776-2.683l-2.671-7.669
		c-0.727-2.086,0.375-4.366,2.46-5.093c2.101-0.734,4.366,0.375,5.093,2.46l2.671,7.669c0.727,2.086-0.375,4.366-2.46,5.093
		C128.857,238.395,128.415,238.465,127.978,238.465z M122.64,223.125c-1.656,0-3.203-1.035-3.776-2.687l-2.667-7.67
		c-0.727-2.085,0.375-4.362,2.464-5.089c2.07-0.738,4.366,0.379,5.088,2.464l2.667,7.67c0.727,2.085-0.375,4.362-2.464,5.088
		C123.518,223.055,123.077,223.125,122.64,223.125z M117.305,207.786c-1.656,0-3.202-1.035-3.776-2.687l-2.667-7.67
		c-0.727-2.085,0.375-4.362,2.464-5.088c2.078-0.722,4.362,0.375,5.088,2.464l2.667,7.67c0.727,2.085-0.375,4.362-2.464,5.088
		C118.184,207.715,117.743,207.786,117.305,207.786z M111.97,192.446c-1.655,0-3.202-1.035-3.776-2.687l-2.667-7.67
		c-0.727-2.085,0.375-4.362,2.464-5.088c2.066-0.727,4.362,0.375,5.088,2.464l2.667,7.67c0.727,2.085-0.375,4.362-2.464,5.088
		C112.849,192.376,112.408,192.446,111.97,192.446z M106.636,177.107c-1.656,0-3.202-1.035-3.776-2.687l-2.667-7.67
		c-0.726-2.085,0.375-4.362,2.464-5.088c2.073-0.73,4.366,0.375,5.088,2.464l2.667,7.67c0.726,2.085-0.375,4.362-2.464,5.089
		C107.515,177.037,107.074,177.107,106.636,177.107z M101.301,161.771c-1.655,0-3.202-1.035-3.776-2.683l-2.671-7.67
		c-0.727-2.086,0.375-4.366,2.46-5.093c2.09-0.723,4.366,0.379,5.093,2.46l2.671,7.669c0.727,2.086-0.375,4.366-2.46,5.093
		C102.18,161.701,101.739,161.771,101.301,161.771z M95.963,146.431c-1.656,0-3.203-1.035-3.776-2.687l-2.667-7.67
		c-0.726-2.085,0.375-4.362,2.464-5.089c2.073-0.726,4.362,0.375,5.088,2.465l2.667,7.669c0.726,2.085-0.375,4.362-2.465,5.088
		C96.842,146.361,96.4,146.431,95.963,146.431z M90.628,131.091c-1.655,0-3.202-1.035-3.776-2.687l-2.667-7.67
		c-0.727-2.085,0.375-4.362,2.464-5.088c2.082-0.73,4.362,0.375,5.089,2.464l2.667,7.67c0.727,2.085-0.375,4.362-2.464,5.088
		C91.507,131.021,91.066,131.091,90.628,131.091z"/>
	<path style="fill:#116FFF;" d="M147.961,295.922c-1.656,0-3.207-1.031-3.776-2.687l-1.312-3.78
		c-0.727-2.086,0.379-4.366,2.464-5.093c2.089-0.734,4.366,0.383,5.089,2.469l1.312,3.779c0.726,2.086-0.379,4.366-2.464,5.093
		C148.839,295.852,148.394,295.922,147.961,295.922z"/>
	<path style="fill:#116FFF;" d="M426.574,115.752c-0.438,0-0.875-0.07-1.312-0.223c-2.085-0.722-3.187-3.003-2.468-5.088l1.312-3.78
		c0.719-2.085,3-3.206,5.093-2.464c2.085,0.722,3.187,3.003,2.468,5.088l-1.312,3.78
		C429.776,114.717,428.23,115.752,426.574,115.752z"/>
	<path style="fill:#116FFF;" d="M367.886,284.48c-0.438,0-0.883-0.07-1.312-0.227c-2.093-0.719-3.194-2.999-2.468-5.084l2.671-7.67
		c0.719-2.086,3.008-3.195,5.085-2.461c2.085,0.719,3.194,3,2.46,5.085l-2.663,7.67C371.088,283.441,369.542,284.48,367.886,284.48z
		 M373.212,269.14c-0.437,0-0.874-0.07-1.312-0.227c-2.085-0.718-3.187-2.999-2.46-5.084l2.663-7.67
		c0.733-2.085,3.03-3.183,5.093-2.464c2.093,0.727,3.186,3.003,2.468,5.088l-2.671,7.67
		C376.415,268.102,374.869,269.14,373.212,269.14z M378.555,253.801c-0.438,0-0.883-0.07-1.312-0.222
		c-2.094-0.727-3.195-3.003-2.469-5.089l2.671-7.67c0.719-2.085,3.015-3.187,5.085-2.464c2.086,0.727,3.194,3.003,2.46,5.088
		l-2.663,7.669C381.757,252.766,380.21,253.801,378.555,253.801z M383.882,238.465c-0.438,0-0.875-0.07-1.312-0.223
		c-2.086-0.727-3.187-3.007-2.461-5.093l2.672-7.669c0.727-2.085,3.007-3.191,5.092-2.46c2.086,0.727,3.188,3.007,2.461,5.093
		l-2.672,7.669C387.084,237.43,385.537,238.465,383.882,238.465z M389.224,223.125c-0.438,0-0.875-0.07-1.312-0.223
		c-2.093-0.727-3.187-3.003-2.468-5.088l2.671-7.67c0.727-2.085,3.016-3.198,5.093-2.464c2.085,0.727,3.187,3.003,2.46,5.089
		l-2.663,7.67C392.426,222.09,390.88,223.125,389.224,223.125z M394.559,207.786c-0.438,0-0.883-0.07-1.312-0.223
		c-2.085-0.726-3.194-3.003-2.46-5.088l2.663-7.67c0.727-2.085,3.022-3.183,5.085-2.464c2.093,0.726,3.194,3.003,2.468,5.088
		l-2.671,7.67C397.761,206.751,396.214,207.786,394.559,207.786z M399.893,192.446c-0.438,0-0.874-0.07-1.312-0.223
		c-2.094-0.726-3.188-3.003-2.469-5.088l2.672-7.67c0.726-2.085,3.015-3.187,5.092-2.464c2.086,0.726,3.187,3.003,2.461,5.088
		l-2.664,7.67C403.095,191.412,401.549,192.446,399.893,192.446z M405.228,177.107c-0.438,0-0.883-0.07-1.312-0.223
		c-2.085-0.727-3.194-3.003-2.46-5.089l2.663-7.67c0.727-2.089,3.022-3.19,5.084-2.464c2.094,0.727,3.195,3.003,2.469,5.088
		l-2.671,7.67C408.43,176.072,406.883,177.107,405.228,177.107z M410.562,161.771c-0.438,0-0.875-0.07-1.312-0.223
		c-2.093-0.727-3.186-3.007-2.468-5.093l2.671-7.669c0.734-2.082,3-3.179,5.093-2.46c2.093,0.727,3.187,3.007,2.468,5.093
		l-2.671,7.67C413.764,160.736,412.218,161.771,410.562,161.771z M415.905,146.431c-0.438,0-0.883-0.07-1.312-0.223
		c-2.093-0.727-3.194-3.003-2.468-5.088l2.671-7.669c0.719-2.09,3.015-3.187,5.085-2.465c2.085,0.727,3.194,3.003,2.46,5.089
		l-2.663,7.67C419.107,145.396,417.56,146.431,415.905,146.431z M421.231,131.091c-0.437,0-0.874-0.07-1.312-0.222
		c-2.086-0.727-3.188-3.003-2.461-5.088l2.664-7.67c0.734-2.089,3.015-3.19,5.092-2.464c2.094,0.727,3.187,3.003,2.469,5.088
		l-2.672,7.67C424.433,130.057,422.887,131.091,421.231,131.091z"/>
	<path style="fill:#116FFF;" d="M363.903,295.922c-0.438,0-0.875-0.07-1.312-0.219c-2.086-0.727-3.188-3.007-2.469-5.093
		l1.312-3.779c0.719-2.086,2.991-3.203,5.092-2.469c2.086,0.727,3.188,3.007,2.469,5.093l-1.312,3.78
		C367.105,294.891,365.558,295.922,363.903,295.922z"/>
	<path style="fill:#116FFF;" d="M445.194,115.752c-1.656,0-3.202-1.035-3.78-2.687l-1.312-3.78
		c-0.719-2.085,0.383-4.366,2.469-5.088c2.077-0.742,4.365,0.378,5.092,2.464l1.312,3.78c0.719,2.085-0.383,4.366-2.469,5.088
		C446.068,115.682,445.63,115.752,445.194,115.752z"/>
	<path style="fill:#116FFF;" d="M503.88,284.48c-1.655,0-3.201-1.039-3.771-2.687l-2.664-7.67c-0.734-2.085,0.375-4.366,2.461-5.085
		c2.085-0.734,4.365,0.375,5.084,2.461l2.672,7.67c0.726,2.085-0.375,4.365-2.469,5.084
		C504.763,284.41,504.318,284.48,503.88,284.48z M498.554,269.14c-1.656,0-3.202-1.038-3.78-2.687l-2.671-7.67
		c-0.719-2.085,0.375-4.362,2.468-5.088c2.069-0.722,4.358,0.375,5.093,2.464l2.663,7.67c0.727,2.085-0.375,4.366-2.46,5.084
		C499.429,269.07,498.992,269.14,498.554,269.14z M493.212,253.801c-1.656,0-3.203-1.035-3.773-2.687l-2.663-7.669
		c-0.733-2.085,0.375-4.362,2.46-5.088c2.086-0.734,4.367,0.379,5.085,2.464l2.671,7.67c0.727,2.085-0.375,4.362-2.468,5.089
		C494.094,253.73,493.65,253.801,493.212,253.801z M487.885,238.465c-1.655,0-3.202-1.035-3.78-2.683l-2.671-7.669
		c-0.727-2.086,0.375-4.366,2.46-5.093c2.102-0.734,4.366,0.375,5.093,2.46l2.671,7.669c0.727,2.086-0.375,4.366-2.46,5.093
		C488.76,238.395,488.323,238.465,487.885,238.465z M482.542,223.125c-1.655,0-3.202-1.035-3.779-2.687l-2.664-7.67
		c-0.727-2.085,0.375-4.362,2.461-5.089c2.085-0.738,4.365,0.379,5.092,2.464l2.672,7.67c0.718,2.085-0.375,4.362-2.469,5.088
		C483.417,223.055,482.98,223.125,482.542,223.125z M477.208,207.786c-1.656,0-3.202-1.035-3.772-2.687l-2.671-7.67
		c-0.727-2.085,0.375-4.362,2.468-5.088c2.062-0.722,4.358,0.375,5.085,2.464l2.663,7.67c0.734,2.085-0.375,4.362-2.46,5.088
		C478.091,207.715,477.646,207.786,477.208,207.786z M471.874,192.446c-1.656,0-3.203-1.035-3.781-2.687l-2.663-7.67
		c-0.727-2.085,0.375-4.362,2.46-5.088c2.078-0.727,4.366,0.375,5.093,2.464l2.671,7.67c0.719,2.085-0.375,4.362-2.468,5.088
		C472.748,192.376,472.311,192.446,471.874,192.446z M466.539,177.107c-1.656,0-3.202-1.035-3.772-2.687l-2.671-7.67
		c-0.727-2.085,0.374-4.362,2.468-5.088c2.062-0.73,4.358,0.375,5.084,2.464l2.664,7.67c0.734,2.085-0.375,4.362-2.461,5.089
		C467.421,177.037,466.977,177.107,466.539,177.107z M461.204,161.771c-1.655,0-3.202-1.035-3.78-2.683l-2.671-7.67
		c-0.719-2.086,0.375-4.366,2.469-5.093c2.093-0.723,4.357,0.379,5.092,2.46l2.671,7.669c0.719,2.086-0.374,4.366-2.468,5.093
		C462.079,161.701,461.642,161.771,461.204,161.771z M455.863,146.431c-1.656,0-3.202-1.035-3.772-2.687l-2.663-7.67
		c-0.734-2.085,0.375-4.362,2.46-5.089c2.069-0.726,4.366,0.375,5.085,2.465l2.671,7.669c0.726,2.085-0.375,4.362-2.468,5.088
		C456.745,146.361,456.3,146.431,455.863,146.431z M450.536,131.091c-1.655,0-3.202-1.035-3.78-2.687l-2.671-7.67
		c-0.719-2.085,0.375-4.362,2.468-5.088c2.078-0.73,4.358,0.375,5.093,2.464l2.663,7.67c0.727,2.085-0.375,4.362-2.46,5.088
		C451.411,131.021,450.973,131.091,450.536,131.091z"/>
	<path style="fill:#116FFF;" d="M507.865,295.922c-1.656,0-3.203-1.031-3.781-2.687l-1.312-3.78
		c-0.719-2.086,0.383-4.366,2.468-5.093c2.086-0.734,4.374,0.383,5.093,2.469l1.312,3.779c0.719,2.086-0.383,4.366-2.468,5.093
		C508.739,295.852,508.302,295.922,507.865,295.922z"/>
</g>
<rect x="235.932" y="395.893" style="fill:#D7E9FF;" width="39.989" height="23.993"/>
<g>
	<path style="fill:#94C1FF;" d="M234.575,23.515c0.882,1.281,1.362,2.8,1.362,4.479c0,4.397-3.601,7.998-7.998,7.998
		c-4.401,0-7.998-3.601-7.998-7.998c0-3.039,1.757-5.761,4.315-7.038c1.121-0.64,2.32-0.96,3.683-0.96
		c1.359,0,2.558,0.32,3.679,0.96c0,0,0.078,0.078,0.238,0.16c0.082,0.078,0.238,0.16,0.398,0.32c0.32,0.238,0.723,0.636,1.281,1.039
		c0.242,0.238,0.48,0.559,0.801,0.801C234.414,23.277,234.496,23.355,234.575,23.515z"/>
	<path style="fill:#94C1FF;" d="M82.615,55.506c0.882,1.281,1.363,2.8,1.363,4.479c0,4.397-3.601,7.998-7.998,7.998
		c-4.401,0-7.998-3.601-7.998-7.998c0-3.038,1.757-5.76,4.315-7.037c1.121-0.641,2.32-0.961,3.683-0.961
		c1.359,0,2.558,0.32,3.679,0.961c0,0,0.078,0.078,0.238,0.16c0.082,0.078,0.238,0.16,0.398,0.32
		c0.32,0.238,0.723,0.636,1.281,1.039c0.242,0.238,0.48,0.558,0.8,0.8C82.455,55.268,82.537,55.346,82.615,55.506z"/>
	<path style="fill:#94C1FF;" d="M442.523,55.506c0.874,1.281,1.358,2.8,1.358,4.479c0,4.397-3.601,7.998-7.998,7.998
		c-4.405,0-7.997-3.601-7.997-7.998c0-3.038,1.757-5.76,4.311-7.037c1.125-0.641,2.328-0.961,3.687-0.961s2.562,0.32,3.679,0.961
		c0,0,0.078,0.078,0.242,0.16c0.078,0.078,0.234,0.16,0.391,0.32c0.328,0.238,0.727,0.636,1.281,1.039
		c0.25,0.238,0.484,0.558,0.805,0.8C442.359,55.268,442.445,55.346,442.523,55.506z"/>
	<path style="fill:#94C1FF;" d="M278.566,22.476c0.562-0.402,0.953-0.8,1.281-1.039c0.156-0.16,0.312-0.242,0.391-0.32
		c0.164-0.082,0.25-0.16,0.25-0.16c1.117-0.64,2.312-0.96,3.671-0.96c1.281,0,2.483,0.32,3.608,0.879
		c2.632,1.28,4.39,3.999,4.39,7.119c0,4.397-3.593,7.998-7.998,7.998c-4.39,0-7.998-3.601-7.998-7.998
		c0-1.68,0.484-3.199,1.359-4.479c0.086-0.16,0.164-0.238,0.25-0.238C278.082,23.035,278.324,22.714,278.566,22.476z"/>
	<rect x="235.932" y="139.963" style="fill:#94C1FF;" width="39.989" height="7.998"/>
	<rect x="235.932" y="387.893" style="fill:#94C1FF;" width="39.989" height="7.998"/>
	<rect x="235.932" y="411.893" style="fill:#94C1FF;" width="39.989" height="7.998"/>
</g>
<rect x="235.932" y="395.893" style="fill:#FFFFFF;" width="7.998" height="15.995"/>
<rect x="267.932" y="395.893" style="fill:#94C1FF;" width="7.997" height="15.995"/>
<rect x="131.962" y="427.883" style="fill:#D7E9FF;" width="7.998" height="63.982"/>
<rect x="371.902" y="427.883" style="fill:#5C9EFF;" width="7.998" height="63.982"/>
<rect x="219.942" y="419.893" style="fill:#D7E9FF;" width="7.998" height="27.992"/>
<rect x="283.922" y="419.893" style="fill:#5C9EFF;" width="7.998" height="27.992"/>
<g>
	<path style="fill:#116FFF;" d="M291.922,15.997c-1.023,0-2.046-0.391-2.827-1.172c-0.016-0.004-7.787-6.826-33.163-6.826
		s-33.151,6.822-33.229,6.889c-1.602,1.457-4.12,1.41-5.62-0.16c-1.5-1.569-1.503-4.022,0.031-5.557
		c0.937-0.938,10.001-9.17,38.818-9.17c28.82,0,37.88,8.232,38.817,9.17c1.562,1.562,1.562,4.093,0,5.654
		C293.968,15.607,292.945,15.997,291.922,15.997z"/>
	<path style="fill:#116FFF;" d="M277.684,27.276c-0.805,0-1.633-0.246-2.335-0.754c-1.797-1.292-2.195-3.792-0.906-5.584
		c1.039-1.441,2.437-2.644,3.928-3.394c1.977-0.98,4.375-0.188,5.366,1.781c0.992,1.972,0.195,4.374-1.78,5.366
		c-0.344,0.172-0.742,0.535-1.023,0.925C280.144,26.702,278.925,27.276,277.684,27.276z"/>
	<path style="fill:#116FFF;" d="M284.08,39.991c-6.607,0-11.997-5.381-11.997-11.996c0-2.445,0.719-4.776,2.062-6.741
		c0.609-0.89,1.515-1.457,2.499-1.656c0.312-0.863,0.922-1.625,1.78-2.113c1.719-0.988,3.625-1.488,5.655-1.488
		c6.623,0,11.997,5.381,11.997,11.997C296.078,34.61,290.703,39.991,284.08,39.991z M281.206,24.878
		c-0.109,0.309-0.266,0.613-0.469,0.898c-0.43,0.637-0.656,1.383-0.656,2.219c0,2.206,1.797,3.999,3.999,3.999
		c2.21,0,3.999-1.792,3.999-3.999c0-2.851-3.374-4.894-5.686-3.565C282.011,24.643,281.613,24.792,281.206,24.878z"/>
	<path style="fill:#116FFF;" d="M259.931,63.985c-2.211,0-3.999-1.789-3.999-3.999c0-19.979,13.074-34.151,18.761-39.368
		c0.086-0.09,0.18-0.172,0.273-0.254l-0.008-0.008c1.312-1.223,2.265-2.008,2.702-2.355c0.125-0.105,0.266-0.203,0.414-0.293
		c1.593-1.148,3.819-0.976,5.225,0.492c1.531,1.598,1.469,4.128-0.141,5.655c-0.148,0.145-0.39,0.324-0.624,0.488
		c-0.406,0.328-1.141,0.949-2.117,1.854c-0.016,0.016-0.031,0.031-0.055,0.047c-0.062,0.074-0.141,0.148-0.219,0.223
		c-4.873,4.46-16.215,16.652-16.215,33.519C263.929,62.196,262.141,63.985,259.931,63.985z"/>
	<path style="fill:#116FFF;" d="M234.262,27.276c-1.238,0-2.457-0.574-3.242-1.652c-0.292-0.402-0.687-0.757-1.031-0.929
		c-1.976-0.988-2.776-3.39-1.789-5.366s3.397-2.769,5.366-1.789c1.488,0.746,2.882,1.949,3.929,3.39
		c1.296,1.785,0.898,4.288-0.891,5.584C235.898,27.03,235.074,27.276,234.262,27.276z"/>
	<path style="fill:#116FFF;" d="M227.861,39.991c-6.616,0-11.997-5.381-11.997-11.996c0-6.616,5.381-11.997,11.997-11.997
		c2.031,0,3.937,0.5,5.663,1.488c0.859,0.492,1.464,1.25,1.777,2.113c0.976,0.199,1.878,0.762,2.488,1.648
		c1.354,1.964,2.069,4.299,2.069,6.749C239.858,34.61,234.477,39.991,227.861,39.991z M227.861,23.995
		c-2.207,0-3.999,1.792-3.999,3.999c0,2.206,1.792,3.999,3.999,3.999s3.999-1.792,3.999-3.999c0-0.836-0.223-1.578-0.656-2.211
		c-0.199-0.289-0.355-0.593-0.468-0.91c-0.406-0.082-0.801-0.23-1.18-0.445C229.033,24.128,228.509,23.995,227.861,23.995z"/>
	<path style="fill:#116FFF;" d="M252.011,63.985c-2.203,0-3.991-1.781-3.999-3.983c-0.074-16.953-11.364-29.102-16.214-33.534
		c-0.086-0.078-0.168-0.16-0.246-0.246c-0.008-0.008-0.016-0.016-0.023-0.023c-0.98-0.914-1.726-1.535-2.132-1.862
		c-0.258-0.18-0.516-0.383-0.684-0.551c-1.562-1.562-1.562-4.093,0-5.655c1.422-1.406,3.62-1.542,5.183-0.406
		c0.137,0.086,0.266,0.176,0.391,0.277c0.433,0.347,1.394,1.132,2.702,2.355l-0.008,0.012c0.098,0.082,0.191,0.168,0.281,0.258
		c5.666,5.197,18.663,19.307,18.749,39.345C256.018,62.18,254.116,63.688,252.011,63.985z"/>
	<path style="fill:#116FFF;" d="M255.932,111.972c-13.231,0-23.994-10.763-23.994-23.994c0-13.23,10.763-23.993,23.994-23.993
		c13.23,0,23.993,10.763,23.993,23.993C279.925,101.209,269.162,111.972,255.932,111.972z M255.932,71.982
		c-8.822,0-15.996,7.174-15.996,15.996s7.174,15.996,15.996,15.996c8.825,0,15.995-7.174,15.995-15.996
		S264.757,71.982,255.932,71.982z"/>
	<path style="fill:#116FFF;" d="M227.939,79.98H75.98c-2.21,0-3.999-1.789-3.999-3.999s1.789-3.999,3.999-3.999h151.959
		c2.21,0,3.999,1.789,3.999,3.999S230.15,79.98,227.939,79.98z"/>
	<path style="fill:#116FFF;" d="M227.943,103.974c-0.066,0-0.137,0-0.203-0.004L67.783,95.972c-2.207-0.113-3.905-1.988-3.796-4.194
		s1.945-4.015,4.194-3.796l159.958,7.998c2.207,0.113,3.905,1.988,3.795,4.194C231.825,102.314,230.06,103.974,227.943,103.974z"/>
	<path style="fill:#116FFF;" d="M67.978,95.976c-0.602,0-1.21-0.137-1.785-0.422c-1.976-0.988-2.776-3.39-1.789-5.366l7.998-15.996
		c0.992-1.976,3.386-2.772,5.366-1.789c1.976,0.988,2.776,3.39,1.788,5.366l-7.998,15.996
		C70.857,95.167,69.447,95.976,67.978,95.976z"/>
	<path style="fill:#116FFF;" d="M435.883,79.98H283.924c-2.21,0-3.999-1.789-3.999-3.999s1.789-3.999,3.999-3.999h151.959
		c2.211,0,3.999,1.789,3.999,3.999S438.094,79.98,435.883,79.98z"/>
	<path style="fill:#116FFF;" d="M283.924,103.974c-2.124,0-3.89-1.66-3.999-3.8c-0.109-2.207,1.594-4.081,3.796-4.194l159.957-7.998
		c2.077-0.242,4.077,1.59,4.202,3.796c0.109,2.207-1.594,4.081-3.796,4.194l-159.957,7.998
		C284.057,103.974,283.987,103.974,283.924,103.974z"/>
	<path style="fill:#116FFF;" d="M443.881,95.976c-1.468,0-2.874-0.809-3.577-2.21l-7.998-15.996
		c-0.984-1.976-0.188-4.378,1.789-5.366c1.976-0.984,4.373-0.188,5.365,1.789l7.998,15.996c0.984,1.976,0.188,4.377-1.789,5.366
		C445.1,95.839,444.491,95.976,443.881,95.976z"/>
	<path style="fill:#116FFF;" d="M75.98,383.899c-41.895,0-75.979-34.085-75.979-75.979c0-2.211,1.789-3.999,3.999-3.999
		s3.999,1.788,3.999,3.999c0,37.49,30.496,67.981,67.981,67.981c37.486,0,67.982-30.491,67.982-67.981
		c0-2.211,1.789-3.999,3.999-3.999s3.999,1.788,3.999,3.999C151.959,349.814,117.875,383.899,75.98,383.899z"/>
	<path style="fill:#116FFF;" d="M147.961,311.917H3.999c-2.21,0-3.999-1.788-3.999-3.998c0-2.211,1.789-3.999,3.999-3.999H147.96
		c2.21,0,3.999,1.788,3.999,3.999C151.959,310.129,150.171,311.917,147.961,311.917z"/>
	<path style="fill:#116FFF;" d="M267.929,135.965c-2.211,0-4-1.789-4-3.999V115.97c0-2.21,1.789-3.999,4-3.999
		c2.21,0,3.998,1.789,3.998,3.999v15.996C271.927,134.177,270.139,135.965,267.929,135.965z"/>
	<path style="fill:#116FFF;" d="M243.935,135.965c-2.21,0-3.999-1.789-3.999-3.999V115.97c0-2.21,1.789-3.999,3.999-3.999
		c2.21,0,3.999,1.789,3.999,3.999v15.996C247.934,134.177,246.145,135.965,243.935,135.965z"/>
	<path style="fill:#116FFF;" d="M275.926,143.963c-6.615,0-11.997-5.382-11.997-11.997c0-2.21,1.789-3.999,4-3.999
		c2.21,0,3.998,1.789,3.998,3.999c0,2.207,1.797,3.999,3.999,3.999c2.211,0,3.999,1.789,3.999,3.999
		C279.925,142.174,278.137,143.963,275.926,143.963z"/>
	<path style="fill:#116FFF;" d="M235.937,143.963c-2.21,0-3.999-1.789-3.999-3.999c0-2.21,1.789-3.999,3.999-3.999
		c2.207,0,3.999-1.792,3.999-3.999c0-2.21,1.789-3.999,3.999-3.999c2.21,0,3.999,1.789,3.999,3.999
		C247.934,138.581,242.553,143.963,235.937,143.963z"/>
	<path style="fill:#116FFF;" d="M243.935,167.956c-2.21,0-3.999-1.788-3.999-3.999c0-6.615-5.381-11.997-11.997-11.997
		c-2.21,0-3.999-1.789-3.999-3.999c0-2.211,1.789-3.999,3.999-3.999c11.024,0,19.995,8.97,19.995,19.994
		C247.934,166.168,246.145,167.956,243.935,167.956z"/>
	<path style="fill:#116FFF;" d="M267.929,167.956c-2.211,0-4-1.788-4-3.999c0-11.024,8.967-19.994,19.995-19.994
		c2.21,0,3.999,1.788,3.999,3.999c0,2.21-1.789,3.999-3.999,3.999c-6.615,0-11.997,5.381-11.997,11.997
		C271.927,166.168,270.139,167.956,267.929,167.956z"/>
	<path style="fill:#116FFF;" d="M283.924,151.961h-55.985c-2.21,0-3.999-1.789-3.999-3.999c0-2.211,1.789-3.999,3.999-3.999h55.985
		c2.21,0,3.999,1.788,3.999,3.999C287.923,150.172,286.134,151.961,283.924,151.961z"/>
	<path style="fill:#116FFF;" d="M235.941,359.906c-0.059,0-0.113,0-0.172,0c-2.206-0.094-3.92-1.961-3.827-4.172l7.998-191.944
		c0.094-2.206,2.039-3.893,4.163-3.827c2.207,0.089,3.921,1.957,3.827,4.163l-7.998,191.952
		C239.842,358.218,238.074,359.906,235.941,359.906z"/>
	<path style="fill:#116FFF;" d="M275.926,359.906c-2.14,0-3.905-1.688-3.999-3.828l-7.998-191.952
		c-0.09-2.206,1.625-4.073,3.828-4.163c2.265-0.062,4.076,1.621,4.17,3.827l7.998,191.944c0.094,2.211-1.625,4.078-3.827,4.172
		C276.036,359.906,275.981,359.906,275.926,359.906z"/>
	<path style="fill:#116FFF;" d="M227.939,367.903c-1.023,0-2.046-0.391-2.828-1.171c-1.562-1.562-1.562-4.093,0-5.655l7.998-7.998
		c1.562-1.562,4.093-1.562,5.655,0s1.562,4.093,0,5.655l-7.998,7.998C229.986,367.512,228.962,367.903,227.939,367.903z"/>
	<path style="fill:#116FFF;" d="M235.937,375.901c-1.023,0-2.046-0.391-2.827-1.172l-7.998-7.997c-1.562-1.562-1.562-4.093,0-5.655
		s4.093-1.562,5.655,0l7.998,7.998c1.562,1.562,1.562,4.093,0,5.654C237.984,375.51,236.96,375.901,235.937,375.901z"/>
	<path style="fill:#116FFF;" d="M283.924,367.903c-1.023,0-2.046-0.391-2.827-1.171l-7.998-7.998c-1.562-1.562-1.562-4.093,0-5.655
		s4.093-1.562,5.654,0l7.998,7.998c1.562,1.562,1.562,4.093,0,5.655C285.97,367.512,284.948,367.903,283.924,367.903z"/>
	<path style="fill:#116FFF;" d="M275.926,375.901c-1.022,0-2.046-0.391-2.827-1.172c-1.562-1.562-1.562-4.093,0-5.654l7.998-7.998
		c1.562-1.562,4.093-1.562,5.654,0c1.562,1.562,1.562,4.093,0,5.655l-7.998,7.997C277.973,375.51,276.95,375.901,275.926,375.901z"
		/>
	<path style="fill:#116FFF;" d="M235.937,391.897c-2.21,0-3.999-1.789-3.999-3.999v-15.996c0-2.21,1.789-3.999,3.999-3.999
		c2.211,0,3.999,1.789,3.999,3.999v15.996C239.936,390.108,238.148,391.897,235.937,391.897z"/>
	<path style="fill:#116FFF;" d="M275.926,391.897c-2.21,0-3.999-1.789-3.999-3.999v-15.996c0-2.21,1.789-3.999,3.999-3.999
		c2.211,0,3.999,1.789,3.999,3.999v15.996C279.925,390.108,278.137,391.897,275.926,391.897z"/>
	<path style="fill:#116FFF;" d="M283.924,399.894h-55.985c-2.21,0-3.999-1.788-3.999-3.998c0-2.211,1.789-3.999,3.999-3.999h55.985
		c2.21,0,3.999,1.788,3.999,3.999C287.923,398.106,286.134,399.894,283.924,399.894z"/>
	<path style="fill:#116FFF;" d="M235.937,415.89c-2.21,0-3.999-1.789-3.999-3.999v-15.995c0-2.211,1.789-3.999,3.999-3.999
		c2.211,0,3.999,1.788,3.999,3.999v15.995C239.936,414.101,238.148,415.89,235.937,415.89z"/>
	<path style="fill:#116FFF;" d="M275.926,415.89c-2.21,0-3.999-1.789-3.999-3.999v-15.995c0-2.211,1.789-3.999,3.999-3.999
		c2.211,0,3.999,1.788,3.999,3.999v15.995C279.925,414.101,278.137,415.89,275.926,415.89z"/>
	<path style="fill:#116FFF;" d="M291.922,423.888h-71.98c-2.211,0-3.999-1.789-3.999-3.999s1.788-3.999,3.999-3.999h71.98
		c2.21,0,3.999,1.789,3.999,3.999S294.132,423.888,291.922,423.888z"/>
	<path style="fill:#116FFF;" d="M291.922,447.881c-2.21,0-3.999-1.788-3.999-3.999v-23.993c0-2.21,1.789-3.999,3.999-3.999
		s3.999,1.789,3.999,3.999v23.993C295.921,446.093,294.132,447.881,291.922,447.881z"/>
	<path style="fill:#116FFF;" d="M219.942,447.881c-2.211,0-3.999-1.788-3.999-3.999v-23.993c0-2.21,1.788-3.999,3.999-3.999
		c2.21,0,3.999,1.789,3.999,3.999v23.993C223.94,446.093,222.152,447.881,219.942,447.881z"/>
	<path style="fill:#116FFF;" d="M211.944,431.886h-79.979c-2.21,0-3.999-1.789-3.999-3.999c0-2.211,1.789-3.999,3.999-3.999h79.979
		c2.21,0,3.999,1.788,3.999,3.999C215.943,430.097,214.154,431.886,211.944,431.886z"/>
	<path style="fill:#116FFF;" d="M379.899,431.886H299.92c-2.211,0-3.999-1.789-3.999-3.999c0-2.211,1.788-3.999,3.999-3.999h79.979
		c2.21,0,3.999,1.788,3.999,3.999C383.898,430.097,382.109,431.886,379.899,431.886z"/>
	<path style="fill:#116FFF;" d="M131.965,495.869c-2.21,0-3.999-1.789-3.999-3.999v-63.982c0-2.211,1.789-3.999,3.999-3.999
		c2.21,0,3.999,1.788,3.999,3.999v63.982C135.964,494.079,134.175,495.869,131.965,495.869z"/>
	<path style="fill:#116FFF;" d="M379.899,495.869H131.965c-2.21,0-3.999-1.789-3.999-3.999s1.789-3.999,3.999-3.999h247.934
		c2.21,0,3.999,1.789,3.999,3.999S382.109,495.869,379.899,495.869z"/>
	<path style="fill:#116FFF;" d="M379.899,495.869c-2.211,0-3.999-1.789-3.999-3.999v-63.982c0-2.211,1.788-3.999,3.999-3.999
		c2.21,0,3.999,1.788,3.999,3.999v63.982C383.898,494.079,382.109,495.869,379.899,495.869z"/>
	<path style="fill:#116FFF;" d="M139.963,511.865c-2.211,0-3.999-1.789-3.999-3.999v-7.514c0-2.218,1.788-3.999,3.999-3.999
		c2.21,0,3.999,1.781,3.999,3.999v7.514C143.962,510.076,142.173,511.865,139.963,511.865z"/>
	<path style="fill:#116FFF;" d="M171.954,511.865h-31.991c-2.211,0-3.999-1.789-3.999-3.999c0-2.211,1.788-3.999,3.999-3.999h31.991
		c2.21,0,3.999,1.788,3.999,3.999C175.953,510.076,174.164,511.865,171.954,511.865z"/>
	<path style="fill:#116FFF;" d="M171.954,511.865c-2.21,0-3.999-1.789-3.999-3.999v-7.998c0-2.21,1.789-3.999,3.999-3.999
		c2.21,0,3.999,1.789,3.999,3.999v7.998C175.953,510.076,174.164,511.865,171.954,511.865z"/>
	<path style="fill:#116FFF;" d="M339.91,511.865c-2.211,0-3.999-1.789-3.999-3.999v-7.514c0-2.218,1.788-3.999,3.999-3.999
		c2.21,0,3.998,1.781,3.998,3.999v7.514C343.908,510.076,342.12,511.865,339.91,511.865z"/>
	<path style="fill:#116FFF;" d="M371.901,511.865H339.91c-2.211,0-3.999-1.789-3.999-3.999c0-2.211,1.788-3.999,3.999-3.999h31.991
		c2.21,0,3.999,1.788,3.999,3.999C375.9,510.076,374.111,511.865,371.901,511.865z"/>
	<path style="fill:#116FFF;" d="M371.901,511.865c-2.21,0-3.999-1.789-3.999-3.999v-7.998c0-2.21,1.789-3.999,3.999-3.999
		s3.999,1.789,3.999,3.999v7.998C375.9,510.076,374.111,511.865,371.901,511.865z"/>
	<path style="fill:#116FFF;" d="M435.883,383.899c-41.895,0-75.979-34.085-75.979-75.979c0-2.211,1.789-3.999,3.999-3.999
		s3.999,1.788,3.999,3.999c0,37.49,30.492,67.981,67.981,67.981c37.49,0,67.981-30.491,67.981-67.981c0-2.211,1.789-3.999,4-3.999
		c2.21,0,3.998,1.788,3.998,3.999C511.863,349.814,477.779,383.899,435.883,383.899z"/>
	<path style="fill:#116FFF;" d="M507.865,311.917H363.903c-2.21,0-3.999-1.788-3.999-3.998c0-2.211,1.789-3.999,3.999-3.999h143.962
		c2.21,0,3.998,1.788,3.998,3.999C511.863,310.129,510.075,311.917,507.865,311.917z"/>
	<path style="fill:#116FFF;" d="M75.98,71.982c-6.615,0-11.997-5.381-11.997-11.997s5.381-11.997,11.997-11.997
		c6.616,0,11.997,5.382,11.997,11.997C87.977,66.6,82.596,71.982,75.98,71.982z M75.98,55.987c-2.206,0-3.999,1.792-3.999,3.999
		c0,2.206,1.793,3.999,3.999,3.999c2.207,0,3.999-1.793,3.999-3.999C79.979,57.779,78.186,55.987,75.98,55.987z"/>
	<path style="fill:#116FFF;" d="M435.883,71.982c-6.615,0-11.997-5.381-11.997-11.997s5.382-11.997,11.997-11.997
		c6.616,0,11.997,5.382,11.997,11.997C447.88,66.6,442.499,71.982,435.883,71.982z M435.883,55.987
		c-2.202,0-3.999,1.792-3.999,3.999c0,2.206,1.797,3.999,3.999,3.999c2.203,0,3.999-1.793,3.999-3.999
		C439.882,57.779,438.086,55.987,435.883,55.987z"/>
</g>
<g>
</g>
<g>
</g>
<g>
</g>
<g>
</g>
<g>
</g>
<g>
</g>
<g>
</g>
<g>
</g>
<g>
</g>
<g>
</g>
<g>
</g>
<g>
</g>
<g>
</g>
<g>
</g>
<g>
</g>
</svg>
