<?xml version="1.0" encoding="iso-8859-1"?>
<!-- Generator: Adobe Illustrator 19.0.0, SVG Export Plug-In . SVG Version: 6.00 Build 0)  -->
<svg version="1.1" id="Capa_1" xmlns="http://www.w3.org/2000/svg" xmlns:xlink="http://www.w3.org/1999/xlink" x="0px" y="0px"
	 viewBox="0 0 512 512" style="enable-background:new 0 0 512 512;" xml:space="preserve">
<g>
	<g transform="translate(1 13)">
		<g>
			<path style="fill:#E3E7F2;" d="M75.8,302.733c-49.408,0-68.267,17.067-68.267,17.067v153.6c0,0,18.859,17.067,68.267,17.067
				s68.267-17.067,68.267-17.067V319.8C144.067,319.8,125.208,302.733,75.8,302.733z"/>
			<path style="fill:#E3E7F2;" d="M144.067,371.085v51.2c-7.617,5.67-16.338,9.682-25.6,11.776
				c-13.923,3.649-28.275,5.4-42.667,5.205c-49.408,0-68.267-17.067-68.267-17.067V371c0,0,18.859,17.067,68.267,17.067
				c14.392,0.195,28.744-1.556,42.667-5.205C127.729,380.767,136.45,376.756,144.067,371.085z"/>
			<path style="fill:#E3E7F2;" d="M144.067,319.8c-7.596,5.723-16.322,9.767-25.6,11.861c-13.923,3.649-28.275,5.4-42.667,5.205
				c-49.408,0-68.267-17.067-68.267-17.067s15.701-14.165,55.808-16.64c1.621-0.085,3.328-0.171,5.12-0.256
				c2.389-0.085,4.864-0.171,7.339-0.171C125.208,302.733,144.067,319.8,144.067,319.8z"/>
			<path style="fill:#E3E7F2;" d="M434.2,97.933c-49.408,0-68.267,17.067-68.267,17.067v358.4c0,0,18.859,17.067,68.267,17.067
				s68.267-17.067,68.267-17.067V115C502.467,115,483.608,97.933,434.2,97.933z"/>
			<path style="fill:#E3E7F2;" d="M476.867,434.061V473.4c0,0-15.531,13.995-55.125,16.64c-40.107-2.475-55.808-16.64-55.808-16.64
				v-51.2c0,0,18.859,17.067,68.267,17.067C448.592,439.461,462.944,437.71,476.867,434.061z"/>
			<path style="fill:#E3E7F2;" d="M476.867,331.661v51.2c-13.923,3.649-28.275,5.4-42.667,5.205
				c-49.408,0-68.267-17.067-68.267-17.067v-51.2c0,0,18.859,17.067,68.267,17.067C448.592,337.061,462.944,335.31,476.867,331.661z
				"/>
			<path style="fill:#E3E7F2;" d="M476.867,229.261v51.2c-13.923,3.649-28.275,5.4-42.667,5.205
				c-49.408,0-68.267-17.067-68.267-17.067v-51.2c0,0,18.859,17.067,68.267,17.067C448.592,234.661,462.944,232.91,476.867,229.261z
				"/>
			<path style="fill:#E3E7F2;" d="M476.867,126.861v51.2c-13.923,3.649-28.275,5.4-42.667,5.205
				c-49.408,0-68.267-17.067-68.267-17.067V115c0,0,18.859,17.067,68.267,17.067C448.592,132.261,462.944,130.51,476.867,126.861z"
				/>
			<path style="fill:#E3E7F2;" d="M255,200.333c-49.408,0-68.267,17.067-68.267,17.067v256c0,0,18.859,17.067,68.267,17.067
				s68.267-17.067,68.267-17.067v-256C323.267,217.4,304.408,200.333,255,200.333z"/>
			<path style="fill:#E3E7F2;" d="M297.667,434.061V473.4c0,0-15.531,13.995-55.125,16.64c-40.107-2.475-55.808-16.64-55.808-16.64
				v-51.2c0,0,18.859,17.067,68.267,17.067C269.392,439.461,283.744,437.71,297.667,434.061z"/>
			<path style="fill:#E3E7F2;" d="M297.667,331.661v51.2c-13.923,3.649-28.275,5.4-42.667,5.205
				c-49.408,0-68.267-17.067-68.267-17.067v-51.2c0,0,18.859,17.067,68.267,17.067C269.392,337.061,283.744,335.31,297.667,331.661z
				"/>
			<path style="fill:#E3E7F2;" d="M297.667,229.261v51.2c-13.923,3.649-28.275,5.4-42.667,5.205
				c-49.408,0-68.267-17.067-68.267-17.067v-51.2c0,0,18.859,17.067,68.267,17.067C269.392,234.661,283.744,232.91,297.667,229.261z
				"/>
		</g>
		<g>
			<path style="fill:#A4C2F7;" d="M144.067,319.8V371c-7.596,5.723-16.322,9.767-25.6,11.861v-51.2
				C127.744,329.567,136.47,325.523,144.067,319.8z"/>
			<path style="fill:#A4C2F7;" d="M118.467,319.8c0,0-15.531-13.995-55.125-16.64c1.621-0.085,3.328-0.171,5.12-0.256
				c2.389-0.085,4.864-0.171,7.339-0.171c49.408,0,68.267,17.067,68.267,17.067c-7.596,5.723-16.322,9.767-25.6,11.861V319.8z"/>
			<path style="fill:#A4C2F7;" d="M144.067,422.285V473.4c0,0-18.859,17.067-68.267,17.067c-4.352,0-8.533-0.171-12.459-0.427
				c39.595-2.645,55.125-16.64,55.125-16.64v-39.339C127.729,431.967,136.45,427.956,144.067,422.285z"/>
			<path style="fill:#A4C2F7;" d="M144.067,371.085v51.2c-7.617,5.67-16.338,9.682-25.6,11.776v-51.2
				C127.729,380.767,136.45,376.756,144.067,371.085z"/>
			<path style="fill:#A4C2F7;" d="M502.467,115v51.2c-7.596,5.723-16.322,9.767-25.6,11.861v-51.2
				C486.144,124.767,494.87,120.723,502.467,115z"/>
			<path style="fill:#A4C2F7;" d="M502.467,217.4v51.2c-7.596,5.723-16.322,9.767-25.6,11.861v-51.2
				C486.144,227.167,494.87,223.123,502.467,217.4z"/>
			<path style="fill:#A4C2F7;" d="M502.467,319.8V371c-7.596,5.723-16.322,9.767-25.6,11.861v-51.2
				C486.144,329.567,494.87,325.523,502.467,319.8z"/>
			<path style="fill:#A4C2F7;" d="M502.467,422.2v51.2c0,0-18.859,17.067-68.267,17.067c-2.475,0-4.949-0.085-7.339-0.171
				c-1.792-0.085-3.499-0.171-5.12-0.256c39.595-2.645,55.125-16.64,55.125-16.64v-39.339
				C486.144,431.967,494.87,427.923,502.467,422.2z"/>
			<path style="fill:#A4C2F7;" d="M502.467,371v51.2c-7.596,5.723-16.322,9.767-25.6,11.861v-51.2
				C486.144,380.767,494.87,376.723,502.467,371z"/>
			<path style="fill:#A4C2F7;" d="M502.467,268.6v51.2c-7.596,5.723-16.322,9.767-25.6,11.861v-51.2
				C486.144,278.367,494.87,274.323,502.467,268.6z"/>
			<path style="fill:#A4C2F7;" d="M502.467,166.2v51.2c-7.596,5.723-16.322,9.767-25.6,11.861v-51.2
				C486.144,175.967,494.87,171.923,502.467,166.2z"/>
			<path style="fill:#A4C2F7;" d="M476.867,115c0,0-15.531-13.995-55.125-16.64c3.925-0.256,8.107-0.427,12.459-0.427
				c49.408,0,68.267,17.067,68.267,17.067c-7.596,5.723-16.322,9.767-25.6,11.861V115z"/>
			<path style="fill:#A4C2F7;" d="M323.267,422.2v51.2c0,0-18.859,17.067-68.267,17.067c-2.475,0-4.949-0.085-7.339-0.171
				c-1.792-0.085-3.499-0.171-5.12-0.256c39.595-2.645,55.125-16.64,55.125-16.64v-39.339
				C306.944,431.967,315.67,427.923,323.267,422.2z"/>
			<path style="fill:#A4C2F7;" d="M323.267,319.8V371c-7.596,5.723-16.322,9.767-25.6,11.861v-51.2
				C306.944,329.567,315.67,325.523,323.267,319.8z"/>
			<path style="fill:#A4C2F7;" d="M297.667,382.861c9.278-2.095,18.004-6.138,25.6-11.861v51.285
				c-7.617,5.67-16.338,9.682-25.6,11.776V382.861z"/>
			<path style="fill:#A4C2F7;" d="M323.267,217.4v51.2c-7.596,5.723-16.322,9.767-25.6,11.861v-51.2
				C306.944,227.167,315.67,223.123,323.267,217.4z"/>
			<path style="fill:#A4C2F7;" d="M297.667,280.461c9.278-2.095,18.004-6.138,25.6-11.861v51.285
				c-7.617,5.67-16.338,9.682-25.6,11.776V280.461z"/>
			<path style="fill:#A4C2F7;" d="M297.667,217.4c0,0-15.531-13.995-55.125-16.64c3.925-0.256,8.107-0.427,12.459-0.427
				c49.408,0,68.267,17.067,68.267,17.067c-7.596,5.723-16.322,9.767-25.6,11.861V217.4z"/>
		</g>
		<g>
			<path style="fill:#FFFFFF;" d="M88.6,490.018C48.764,487.426,33.133,473.4,33.133,473.4V319.8l0.2-0.171l0.233-0.186l0.359-0.285
				c0.16-0.124,0.374-0.277,0.587-0.434l0.43-0.312c0.261-0.185,0.569-0.39,0.89-0.605c0.185-0.124,0.359-0.24,0.565-0.373
				c0.367-0.238,0.776-0.487,1.209-0.751c0.222-0.135,0.441-0.266,0.681-0.407c0.483-0.284,1.002-0.574,1.558-0.88
				c0.252-0.137,0.508-0.275,0.775-0.415c0.614-0.325,1.257-0.653,1.952-0.994c0.26-0.128,0.535-0.255,0.808-0.385
				c0.764-0.363,1.552-0.726,2.408-1.099c0.24-0.104,0.498-0.208,0.745-0.313c0.951-0.404,1.929-0.805,2.991-1.21l0.341-0.124
				c12.459-4.447,25.505-7.034,38.718-7.677c-4.037-0.263-8.237-0.448-12.782-0.448c-17.528-0.42-34.987,2.332-51.536,8.124
				l-0.341,0.124c-1.061,0.405-2.04,0.806-2.991,1.21c-0.247,0.105-0.506,0.208-0.745,0.312c-0.856,0.373-1.644,0.735-2.408,1.099
				c-0.272,0.13-0.547,0.257-0.808,0.385c-0.695,0.341-1.338,0.669-1.952,0.994c-0.267,0.141-0.523,0.278-0.775,0.415
				c-0.557,0.305-1.075,0.596-1.558,0.88c-0.24,0.141-0.459,0.272-0.681,0.407c-0.434,0.264-0.842,0.513-1.209,0.751
				c-0.205,0.133-0.379,0.249-0.565,0.373c-0.321,0.215-0.629,0.419-0.89,0.605l-0.43,0.312c-0.213,0.157-0.427,0.309-0.587,0.434
				l-0.359,0.285l-0.233,0.187l-0.2,0.171v153.6c0,0,18.859,17.067,68.267,17.067C80.352,490.467,84.558,490.281,88.6,490.018z"/>
			<path style="fill:#FFFFFF;" d="M366.366,473.757l0.359,0.285c0.16,0.124,0.374,0.277,0.587,0.434l0.43,0.312
				c0.261,0.185,0.569,0.39,0.89,0.605c0.185,0.124,0.359,0.24,0.565,0.373c0.367,0.238,0.776,0.487,1.209,0.751
				c0.222,0.134,0.441,0.266,0.681,0.407c0.483,0.284,1.002,0.574,1.558,0.88c0.252,0.137,0.508,0.275,0.775,0.415
				c0.614,0.325,1.257,0.653,1.952,0.994c0.259,0.127,0.533,0.254,0.804,0.383c0.768,0.366,1.563,0.731,2.426,1.107
				c0.226,0.098,0.469,0.196,0.701,0.294c0.959,0.408,1.949,0.813,3.022,1.223l0.34,0.124c16.549,5.791,34.008,8.544,51.536,8.124
				c4.545,0,8.745-0.185,12.782-0.447c-13.213-0.643-26.259-3.23-38.718-7.677l-0.34-0.124c-1.073-0.41-2.063-0.815-3.022-1.223
				c-0.232-0.098-0.475-0.196-0.701-0.294c-0.862-0.375-1.657-0.741-2.426-1.107c-0.271-0.129-0.544-0.256-0.804-0.383
				c-0.695-0.341-1.338-0.669-1.952-0.994c-0.267-0.141-0.523-0.278-0.775-0.415c-0.557-0.305-1.075-0.596-1.558-0.88
				c-0.24-0.141-0.459-0.272-0.681-0.407c-0.434-0.264-0.842-0.513-1.209-0.751c-0.205-0.133-0.379-0.249-0.565-0.373
				c-0.321-0.215-0.629-0.419-0.89-0.605l-0.43-0.312c-0.213-0.157-0.427-0.309-0.587-0.434l-0.359-0.285l-0.233-0.187l-0.2-0.171
				V115c0,0,15.63-14.026,55.467-16.618c-4.042-0.263-8.248-0.448-12.8-0.448c-49.408,0-68.267,17.067-68.267,17.067v358.4
				l0.2,0.171L366.366,473.757z"/>
			<path style="fill:#FFFFFF;" d="M187.166,473.757l0.359,0.285c0.16,0.124,0.374,0.277,0.587,0.434l0.43,0.312
				c0.261,0.185,0.569,0.39,0.89,0.605c0.185,0.124,0.359,0.24,0.565,0.373c0.367,0.238,0.776,0.487,1.209,0.751
				c0.222,0.134,0.441,0.266,0.681,0.407c0.483,0.284,1.002,0.574,1.558,0.88c0.252,0.137,0.508,0.275,0.775,0.415
				c0.614,0.325,1.257,0.653,1.952,0.994c0.259,0.127,0.533,0.254,0.804,0.383c0.768,0.366,1.563,0.731,2.426,1.107
				c0.226,0.098,0.469,0.196,0.701,0.294c0.959,0.408,1.949,0.813,3.022,1.223l0.34,0.124c16.549,5.791,34.008,8.544,51.536,8.124
				c4.545,0,8.745-0.185,12.782-0.447c-13.213-0.643-26.259-3.23-38.718-7.677l-0.34-0.124c-1.073-0.41-2.063-0.815-3.022-1.223
				c-0.232-0.098-0.475-0.196-0.701-0.294c-0.862-0.375-1.657-0.741-2.426-1.107c-0.271-0.129-0.544-0.256-0.804-0.383
				c-0.695-0.341-1.338-0.669-1.952-0.994c-0.267-0.141-0.523-0.278-0.775-0.415c-0.557-0.305-1.075-0.596-1.558-0.88
				c-0.24-0.141-0.459-0.272-0.681-0.407c-0.434-0.264-0.842-0.513-1.209-0.751c-0.205-0.133-0.379-0.249-0.565-0.373
				c-0.321-0.215-0.629-0.419-0.89-0.605l-0.43-0.312c-0.213-0.157-0.427-0.309-0.587-0.434l-0.359-0.285l-0.233-0.187l-0.2-0.171
				v-256c0,0,15.63-14.026,55.467-16.618c-4.042-0.263-8.248-0.448-12.8-0.448c-49.408,0-68.267,17.067-68.267,17.067v256l0.2,0.171
				L187.166,473.757z"/>
		</g>
	</g>
	<g>
		<polygon style="fill:#FFFFFF;" points="68.267,264.533 68.267,153.6 68.267,128 85.333,128 85.333,153.6 85.333,264.533 		"/>
		<g>
			<path style="fill:#428DFF;" d="M76.8,512c52.092,0,73.125-18.483,73.992-19.271c1.79-1.617,2.81-3.917,2.808-6.329V332.8
				c0.002-2.412-1.018-4.712-2.808-6.329c-0.867-0.788-21.9-19.271-73.992-19.271S3.675,325.683,2.808,326.471
				c-1.79,1.617-2.81,3.917-2.808,6.329v153.6c-0.002,2.412,1.018,4.712,2.808,6.329C3.675,493.517,24.708,512,76.8,512z
				 M136.533,481.992c-6.617,4.062-25.05,12.942-59.733,12.942c-34.75,0-53.183-8.912-59.733-12.933v-32.025
				c0.347,0.154,0.766,0.31,1.126,0.465c0.986,0.423,1.987,0.845,3.075,1.269c0.595,0.232,1.239,0.458,1.865,0.689
				c1.055,0.388,2.128,0.771,3.273,1.152c0.734,0.243,1.503,0.479,2.274,0.717c1.152,0.357,2.333,0.704,3.571,1.046
				c0.858,0.237,1.739,0.466,2.639,0.694c1.27,0.322,2.584,0.629,3.938,0.929c0.971,0.215,1.946,0.425,2.96,0.627
				c1.417,0.282,2.894,0.541,4.397,0.794c1.064,0.179,2.113,0.36,3.22,0.523c1.614,0.237,3.31,0.438,5.018,0.637
				c1.113,0.13,2.192,0.271,3.344,0.383c1.94,0.188,3.988,0.321,6.043,0.452c1.035,0.066,2.017,0.157,3.081,0.208
				c3.175,0.151,6.464,0.242,9.908,0.242c3.444,0,6.733-0.091,9.909-0.242c1.065-0.051,2.046-0.142,3.081-0.208
				c2.056-0.131,4.104-0.265,6.043-0.452c1.153-0.112,2.232-0.253,3.344-0.383c1.707-0.199,3.404-0.399,5.018-0.637
				c1.107-0.163,2.156-0.344,3.22-0.523c1.503-0.253,2.98-0.512,4.397-0.794c1.015-0.202,1.99-0.412,2.96-0.627
				c1.354-0.3,2.668-0.607,3.938-0.929c0.9-0.228,1.78-0.457,2.639-0.694c1.237-0.341,2.419-0.689,3.571-1.046
				c0.771-0.239,1.541-0.474,2.274-0.717c1.145-0.38,2.218-0.764,3.273-1.152c0.627-0.23,1.27-0.457,1.865-0.689
				c1.089-0.424,2.09-0.845,3.076-1.269c0.36-0.155,0.779-0.31,1.126-0.465L136.533,481.992z M136.533,379.579l-0.237,0.147
				c-0.746,0.452-1.619,0.954-2.651,1.5c-0.167,0.088-0.371,0.185-0.545,0.275c-0.948,0.489-2.033,1.007-3.212,1.539
				c-0.315,0.142-0.616,0.282-0.948,0.425c-1.409,0.61-2.972,1.235-4.691,1.858c-0.349,0.127-0.738,0.252-1.101,0.379
				c-1.58,0.551-3.293,1.093-5.126,1.622c-0.402,0.116-0.777,0.235-1.192,0.349c-2.134,0.588-4.459,1.146-6.929,1.668
				c-0.562,0.119-1.156,0.229-1.735,0.343c-2.373,0.467-4.88,0.896-7.556,1.269c-0.348,0.048-0.665,0.108-1.018,0.154
				c-2.942,0.388-6.117,0.689-9.427,0.928c-0.779,0.056-1.578,0.103-2.379,0.15c-3.485,0.204-7.099,0.349-10.986,0.349
				c-3.887,0-7.501-0.146-10.986-0.35c-0.801-0.047-1.599-0.093-2.379-0.15c-3.313-0.24-6.491-0.541-9.435-0.929
				c-0.339-0.045-0.643-0.102-0.978-0.148c-2.703-0.375-5.234-0.809-7.628-1.281c-0.554-0.109-1.123-0.215-1.661-0.328
				c-2.5-0.528-4.854-1.091-7.011-1.687c-0.355-0.098-0.677-0.201-1.023-0.3c-1.94-0.557-3.748-1.13-5.406-1.711
				c-0.279-0.098-0.579-0.194-0.85-0.292c-1.804-0.652-3.442-1.306-4.908-1.943l-0.593-0.266c-1.419-0.633-2.719-1.253-3.814-1.827
				l-0.025-0.013c-1.179-0.618-2.164-1.186-2.98-1.686l-0.057-0.035v-32.027C36,355.313,56.35,359.005,76.8,358.4
				c20.45,0.605,40.8-3.087,59.733-10.839V379.579z M21.268,400.508c0.595,0.232,1.239,0.458,1.865,0.689
				c1.055,0.388,2.128,0.771,3.273,1.152c0.734,0.243,1.503,0.479,2.274,0.717c1.152,0.357,2.333,0.704,3.571,1.046
				c0.858,0.237,1.739,0.466,2.639,0.694c1.27,0.322,2.584,0.629,3.938,0.929c0.971,0.215,1.946,0.425,2.96,0.627
				c1.417,0.282,2.894,0.541,4.397,0.794c1.064,0.179,2.113,0.36,3.22,0.523c1.614,0.238,3.31,0.438,5.018,0.637
				c1.113,0.13,2.192,0.271,3.344,0.383c1.94,0.188,3.988,0.321,6.043,0.452c1.035,0.066,2.017,0.157,3.081,0.208
				c3.175,0.151,6.464,0.242,9.908,0.242c3.444,0,6.733-0.091,9.909-0.242c1.065-0.051,2.046-0.142,3.081-0.208
				c2.056-0.131,4.104-0.265,6.043-0.452c1.153-0.112,2.232-0.253,3.344-0.383c1.707-0.199,3.404-0.399,5.018-0.637
				c1.107-0.163,2.156-0.344,3.22-0.523c1.503-0.253,2.98-0.511,4.397-0.794c1.015-0.202,1.99-0.412,2.96-0.627
				c1.354-0.3,2.668-0.607,3.938-0.929c0.9-0.228,1.78-0.457,2.639-0.694c1.237-0.341,2.419-0.689,3.571-1.046
				c0.771-0.239,1.541-0.474,2.274-0.717c1.145-0.38,2.218-0.764,3.273-1.152c0.627-0.23,1.27-0.457,1.865-0.689
				c1.089-0.424,2.09-0.845,3.076-1.269c0.36-0.155,0.779-0.31,1.126-0.465v32.005l-0.237,0.147c-0.746,0.452-1.619,0.954-2.651,1.5
				c-0.167,0.088-0.371,0.185-0.545,0.275c-0.948,0.489-2.033,1.007-3.212,1.539c-0.315,0.142-0.616,0.282-0.948,0.425
				c-1.409,0.61-2.972,1.235-4.691,1.858c-0.349,0.127-0.738,0.252-1.101,0.379c-1.58,0.55-3.293,1.093-5.126,1.622
				c-0.402,0.116-0.777,0.235-1.192,0.349c-2.134,0.588-4.459,1.146-6.929,1.668c-0.562,0.119-1.156,0.229-1.735,0.343
				c-2.373,0.467-4.88,0.896-7.556,1.269c-0.348,0.048-0.665,0.108-1.018,0.154c-2.942,0.388-6.117,0.689-9.427,0.928
				c-0.779,0.056-1.578,0.103-2.379,0.149c-3.486,0.203-7.1,0.349-10.987,0.349c-3.891,0-7.508-0.146-10.996-0.35
				c-0.806-0.047-1.612-0.094-2.396-0.15c-3.307-0.24-6.478-0.541-9.417-0.929c-0.375-0.05-0.714-0.112-1.083-0.164
				c-2.661-0.372-5.159-0.8-7.52-1.265c-0.573-0.113-1.162-0.221-1.718-0.339c-2.473-0.523-4.799-1.081-6.935-1.671
				c-0.421-0.117-0.804-0.237-1.213-0.356c-1.836-0.531-3.553-1.074-5.133-1.626c-0.348-0.121-0.723-0.242-1.059-0.364
				c-1.727-0.626-3.295-1.253-4.708-1.866c-0.32-0.139-0.614-0.275-0.919-0.411c-1.216-0.547-2.336-1.082-3.305-1.584l-0.425-0.214
				c-1.053-0.556-1.935-1.064-2.687-1.521l-0.219-0.136v-32.013c0.347,0.154,0.766,0.31,1.126,0.465
				C19.179,399.663,20.18,400.084,21.268,400.508z M87.832,324.618c0.969,0.057,1.909,0.127,2.848,0.198
				c2.73,0.206,5.342,0.462,7.818,0.771c0.623,0.078,1.288,0.14,1.895,0.223c2.95,0.406,5.714,0.878,8.298,1.396
				c0.626,0.126,1.198,0.263,1.802,0.394c2.011,0.435,3.919,0.893,5.702,1.374c0.588,0.158,1.191,0.315,1.755,0.477
				c2.114,0.608,4.11,1.232,5.889,1.866c0.164,0.059,0.297,0.117,0.459,0.176c1.228,0.446,2.283,0.886,3.351,1.328
				c-16.235,6.117-33.506,9.009-50.848,8.515c-17.341,0.493-34.612-2.397-50.847-8.51c1.122-0.464,2.228-0.928,3.526-1.396
				l0.301-0.115c1.787-0.637,3.796-1.264,5.921-1.874c0.558-0.16,1.153-0.314,1.734-0.471c1.798-0.484,3.723-0.946,5.753-1.384
				c0.585-0.127,1.139-0.26,1.744-0.381c2.589-0.519,5.36-0.985,8.314-1.396c0.602-0.083,1.26-0.144,1.879-0.221
				c2.479-0.309,5.094-0.565,7.827-0.77c0.934-0.07,1.867-0.14,2.831-0.196c3.494-0.205,7.12-0.351,11.018-0.351
				C80.704,324.267,84.334,324.413,87.832,324.618z"/>
			<path style="fill:#428DFF;" d="M435.2,102.4c-52.092,0-73.125,18.483-73.992,19.271c-1.79,1.617-2.81,3.917-2.808,6.329v358.4
				c-0.002,2.412,1.018,4.712,2.808,6.329c0.867,0.788,21.9,19.271,73.992,19.271s73.125-18.483,73.992-19.271
				c1.79-1.617,2.81-3.917,2.808-6.329V128c0.002-2.412-1.018-4.712-2.808-6.329C508.325,120.883,487.292,102.4,435.2,102.4z
				 M494.933,398.775v32.004l-0.237,0.147c-0.746,0.452-1.619,0.954-2.651,1.5c-0.167,0.088-0.371,0.185-0.545,0.275
				c-0.948,0.489-2.033,1.007-3.212,1.539c-0.315,0.142-0.616,0.282-0.948,0.425c-1.409,0.61-2.972,1.235-4.691,1.858
				c-0.35,0.127-0.738,0.252-1.101,0.379c-1.58,0.551-3.293,1.093-5.126,1.622c-0.402,0.116-0.777,0.235-1.192,0.349
				c-2.134,0.588-4.459,1.146-6.929,1.668c-0.562,0.119-1.156,0.229-1.735,0.343c-2.373,0.467-4.88,0.896-7.556,1.269
				c-0.348,0.048-0.665,0.108-1.018,0.154c-2.942,0.388-6.117,0.689-9.427,0.928c-0.779,0.056-1.578,0.103-2.379,0.15
				c-3.485,0.204-7.099,0.349-10.986,0.349c-3.891,0-7.508-0.146-10.996-0.35c-0.806-0.047-1.612-0.094-2.396-0.15
				c-3.307-0.24-6.478-0.541-9.417-0.929c-0.375-0.05-0.714-0.112-1.084-0.164c-2.661-0.372-5.159-0.8-7.52-1.265
				c-0.573-0.113-1.163-0.221-1.718-0.339c-2.473-0.523-4.799-1.081-6.935-1.671c-0.421-0.117-0.804-0.237-1.212-0.356
				c-1.836-0.531-3.553-1.074-5.133-1.626c-0.348-0.121-0.723-0.242-1.059-0.364c-1.727-0.626-3.295-1.253-4.708-1.866
				c-0.32-0.139-0.614-0.275-0.919-0.411c-1.216-0.547-2.336-1.082-3.305-1.584l-0.425-0.214c-1.053-0.556-1.935-1.064-2.688-1.521
				l-0.219-0.136v-32.013c0.347,0.154,0.766,0.31,1.126,0.465c0.986,0.423,1.987,0.845,3.076,1.269
				c0.595,0.232,1.239,0.458,1.865,0.689c1.055,0.388,2.128,0.771,3.273,1.152c0.734,0.243,1.503,0.479,2.274,0.717
				c1.152,0.357,2.333,0.704,3.571,1.046c0.858,0.237,1.739,0.466,2.639,0.694c1.27,0.322,2.584,0.629,3.938,0.929
				c0.971,0.215,1.946,0.425,2.96,0.627c1.417,0.282,2.894,0.541,4.397,0.794c1.064,0.179,2.113,0.36,3.22,0.523
				c1.614,0.238,3.31,0.438,5.017,0.637c1.113,0.13,2.192,0.271,3.344,0.383c1.94,0.188,3.988,0.321,6.043,0.452
				c1.035,0.066,2.017,0.157,3.081,0.208c3.175,0.151,6.464,0.242,9.908,0.242c3.444,0,6.733-0.091,9.909-0.242
				c1.065-0.051,2.046-0.142,3.081-0.208c2.056-0.131,4.104-0.265,6.043-0.452c1.153-0.112,2.232-0.253,3.344-0.383
				c1.707-0.199,3.404-0.399,5.017-0.637c1.107-0.163,2.156-0.344,3.22-0.523c1.503-0.253,2.98-0.511,4.397-0.794
				c1.015-0.202,1.99-0.412,2.96-0.627c1.354-0.3,2.668-0.607,3.938-0.929c0.9-0.228,1.78-0.457,2.639-0.694
				c1.237-0.341,2.419-0.689,3.571-1.046c0.771-0.239,1.541-0.474,2.274-0.717c1.145-0.38,2.218-0.764,3.273-1.152
				c0.627-0.23,1.27-0.457,1.865-0.689c1.089-0.424,2.09-0.845,3.075-1.269C494.168,399.085,494.586,398.929,494.933,398.775z
				 M494.933,347.575v32.004l-0.237,0.147c-0.746,0.452-1.619,0.954-2.651,1.5c-0.167,0.088-0.371,0.185-0.545,0.275
				c-0.948,0.489-2.033,1.007-3.212,1.539c-0.315,0.142-0.616,0.282-0.948,0.425c-1.409,0.61-2.972,1.235-4.691,1.858
				c-0.35,0.127-0.738,0.252-1.101,0.379c-1.58,0.551-3.293,1.093-5.126,1.622c-0.402,0.116-0.777,0.235-1.192,0.349
				c-2.134,0.588-4.459,1.146-6.929,1.668c-0.562,0.119-1.156,0.229-1.735,0.343c-2.373,0.467-4.88,0.896-7.556,1.269
				c-0.348,0.048-0.665,0.108-1.018,0.154c-2.942,0.388-6.117,0.689-9.427,0.928c-0.779,0.056-1.578,0.103-2.379,0.15
				c-3.485,0.204-7.099,0.349-10.986,0.349c-3.891,0-7.508-0.146-10.996-0.35c-0.806-0.047-1.612-0.094-2.396-0.15
				c-3.307-0.24-6.478-0.541-9.417-0.929c-0.375-0.05-0.714-0.112-1.084-0.164c-2.661-0.372-5.159-0.8-7.52-1.265
				c-0.573-0.113-1.163-0.221-1.718-0.339c-2.473-0.523-4.799-1.081-6.935-1.671c-0.421-0.117-0.804-0.237-1.212-0.356
				c-1.836-0.531-3.553-1.075-5.133-1.626c-0.348-0.121-0.723-0.242-1.059-0.364c-1.727-0.626-3.295-1.253-4.708-1.866
				c-0.32-0.139-0.614-0.275-0.919-0.411c-1.216-0.547-2.336-1.082-3.305-1.584l-0.425-0.214c-1.053-0.556-1.935-1.064-2.688-1.521
				l-0.219-0.136v-32.013c0.347,0.154,0.766,0.31,1.126,0.465c0.986,0.423,1.987,0.845,3.076,1.269
				c0.595,0.232,1.239,0.458,1.865,0.689c1.055,0.388,2.128,0.771,3.273,1.152c0.734,0.243,1.503,0.479,2.274,0.717
				c1.152,0.357,2.333,0.704,3.571,1.046c0.858,0.237,1.739,0.466,2.639,0.694c1.27,0.322,2.584,0.629,3.938,0.929
				c0.971,0.215,1.946,0.425,2.96,0.627c1.417,0.282,2.894,0.541,4.397,0.794c1.064,0.179,2.113,0.36,3.22,0.523
				c1.614,0.237,3.31,0.438,5.017,0.637c1.113,0.13,2.192,0.271,3.344,0.383c1.94,0.188,3.988,0.321,6.043,0.452
				c1.035,0.066,2.017,0.157,3.081,0.208c3.175,0.151,6.464,0.242,9.908,0.242c3.444,0,6.733-0.091,9.909-0.242
				c1.065-0.051,2.046-0.142,3.081-0.208c2.056-0.131,4.104-0.265,6.043-0.452c1.153-0.112,2.232-0.253,3.344-0.383
				c1.707-0.199,3.404-0.399,5.017-0.637c1.107-0.163,2.156-0.344,3.22-0.523c1.503-0.253,2.98-0.512,4.397-0.794
				c1.015-0.202,1.99-0.412,2.96-0.627c1.354-0.3,2.668-0.607,3.938-0.929c0.9-0.228,1.78-0.457,2.639-0.694
				c1.237-0.341,2.419-0.689,3.571-1.046c0.771-0.239,1.541-0.474,2.274-0.717c1.145-0.38,2.218-0.764,3.273-1.152
				c0.627-0.23,1.27-0.457,1.865-0.689c1.089-0.424,2.09-0.845,3.075-1.269C494.168,347.885,494.586,347.729,494.933,347.575z
				 M494.933,296.375v32.004l-0.237,0.147c-0.746,0.452-1.619,0.954-2.651,1.5c-0.167,0.088-0.371,0.185-0.545,0.275
				c-0.948,0.489-2.033,1.007-3.212,1.539c-0.315,0.142-0.616,0.282-0.948,0.425c-1.409,0.61-2.972,1.235-4.691,1.858
				c-0.35,0.127-0.738,0.252-1.101,0.379c-1.58,0.55-3.293,1.093-5.126,1.622c-0.402,0.116-0.777,0.235-1.192,0.349
				c-2.134,0.588-4.459,1.146-6.929,1.668c-0.562,0.119-1.156,0.229-1.735,0.343c-2.373,0.467-4.88,0.896-7.556,1.269
				c-0.348,0.048-0.665,0.108-1.018,0.154c-2.942,0.388-6.117,0.689-9.427,0.928c-0.779,0.056-1.578,0.103-2.379,0.15
				c-3.485,0.204-7.099,0.349-10.986,0.349c-3.891,0-7.508-0.146-10.996-0.35c-0.806-0.047-1.612-0.094-2.396-0.15
				c-3.307-0.24-6.478-0.541-9.417-0.929c-0.375-0.05-0.714-0.112-1.084-0.164c-2.661-0.372-5.159-0.8-7.52-1.265
				c-0.573-0.113-1.163-0.221-1.718-0.339c-2.473-0.523-4.799-1.081-6.935-1.671c-0.421-0.117-0.804-0.237-1.212-0.356
				c-1.836-0.531-3.553-1.075-5.133-1.626c-0.348-0.121-0.723-0.242-1.059-0.364c-1.727-0.626-3.295-1.253-4.708-1.866
				c-0.32-0.139-0.614-0.275-0.919-0.411c-1.216-0.547-2.336-1.082-3.305-1.584l-0.425-0.214c-1.053-0.556-1.935-1.064-2.688-1.521
				l-0.219-0.136v-32.013c0.347,0.154,0.766,0.31,1.126,0.465c0.986,0.423,1.987,0.845,3.076,1.269
				c0.595,0.232,1.239,0.458,1.865,0.689c1.055,0.388,2.128,0.771,3.273,1.152c0.734,0.243,1.503,0.479,2.274,0.717
				c1.152,0.357,2.333,0.704,3.571,1.046c0.858,0.237,1.739,0.466,2.639,0.694c1.27,0.322,2.584,0.629,3.938,0.929
				c0.971,0.215,1.946,0.425,2.96,0.627c1.417,0.282,2.894,0.541,4.397,0.794c1.064,0.179,2.113,0.36,3.22,0.523
				c1.614,0.237,3.31,0.438,5.017,0.637c1.113,0.13,2.192,0.271,3.344,0.383c1.94,0.188,3.988,0.321,6.043,0.452
				c1.035,0.066,2.017,0.157,3.081,0.208c3.175,0.151,6.464,0.242,9.908,0.242c3.444,0,6.733-0.091,9.909-0.242
				c1.065-0.051,2.046-0.142,3.081-0.208c2.056-0.131,4.104-0.265,6.043-0.452c1.153-0.112,2.232-0.253,3.344-0.383
				c1.707-0.199,3.404-0.399,5.017-0.637c1.107-0.163,2.156-0.344,3.22-0.523c1.503-0.253,2.98-0.512,4.397-0.794
				c1.015-0.202,1.99-0.412,2.96-0.627c1.354-0.3,2.668-0.607,3.938-0.929c0.9-0.228,1.78-0.457,2.639-0.694
				c1.237-0.341,2.419-0.689,3.571-1.046c0.771-0.239,1.541-0.474,2.274-0.717c1.145-0.38,2.218-0.764,3.273-1.152
				c0.627-0.23,1.27-0.457,1.865-0.689c1.089-0.424,2.09-0.845,3.075-1.269C494.168,296.685,494.586,296.529,494.933,296.375z
				 M494.933,245.175v32.004l-0.237,0.147c-0.746,0.452-1.619,0.954-2.651,1.5c-0.167,0.088-0.371,0.185-0.545,0.275
				c-0.948,0.489-2.033,1.007-3.212,1.539c-0.315,0.142-0.616,0.282-0.948,0.425c-1.409,0.61-2.972,1.235-4.691,1.858
				c-0.35,0.127-0.738,0.252-1.101,0.379c-1.58,0.551-3.293,1.093-5.126,1.622c-0.402,0.116-0.777,0.235-1.192,0.349
				c-2.134,0.588-4.459,1.146-6.929,1.668c-0.562,0.119-1.156,0.229-1.735,0.343c-2.373,0.467-4.88,0.896-7.556,1.269
				c-0.348,0.048-0.665,0.108-1.018,0.154c-2.942,0.388-6.117,0.689-9.427,0.928c-0.779,0.056-1.578,0.103-2.379,0.15
				c-3.485,0.204-7.099,0.349-10.986,0.349c-3.891,0-7.508-0.146-10.996-0.35c-0.806-0.047-1.612-0.094-2.396-0.15
				c-3.307-0.24-6.478-0.541-9.417-0.929c-0.375-0.05-0.714-0.112-1.084-0.164c-2.661-0.372-5.159-0.8-7.52-1.265
				c-0.573-0.113-1.163-0.221-1.718-0.339c-2.473-0.523-4.799-1.081-6.935-1.671c-0.421-0.117-0.804-0.237-1.212-0.356
				c-1.836-0.531-3.553-1.074-5.133-1.626c-0.348-0.121-0.723-0.242-1.059-0.364c-1.727-0.626-3.295-1.253-4.708-1.866
				c-0.32-0.139-0.614-0.275-0.919-0.411c-1.216-0.547-2.336-1.082-3.305-1.584l-0.425-0.214c-1.053-0.556-1.935-1.064-2.688-1.521
				l-0.219-0.136v-32.013c0.347,0.154,0.766,0.31,1.126,0.465c0.986,0.423,1.987,0.845,3.076,1.269
				c0.595,0.232,1.239,0.458,1.865,0.689c1.055,0.388,2.128,0.771,3.273,1.152c0.734,0.243,1.503,0.479,2.274,0.717
				c1.152,0.357,2.333,0.704,3.571,1.046c0.858,0.237,1.739,0.466,2.639,0.694c1.27,0.322,2.584,0.629,3.938,0.929
				c0.971,0.215,1.946,0.425,2.96,0.627c1.417,0.282,2.894,0.541,4.397,0.794c1.064,0.179,2.113,0.36,3.22,0.523
				c1.614,0.237,3.31,0.438,5.017,0.637c1.113,0.13,2.192,0.271,3.344,0.383c1.94,0.188,3.988,0.321,6.043,0.452
				c1.035,0.066,2.017,0.157,3.081,0.208c3.175,0.152,6.464,0.243,9.908,0.243c3.444,0,6.733-0.091,9.909-0.242
				c1.065-0.051,2.046-0.142,3.081-0.208c2.056-0.131,4.104-0.265,6.043-0.452c1.153-0.112,2.232-0.253,3.344-0.383
				c1.707-0.199,3.404-0.399,5.017-0.637c1.107-0.163,2.156-0.344,3.22-0.523c1.503-0.253,2.98-0.511,4.397-0.794
				c1.015-0.202,1.99-0.412,2.96-0.627c1.354-0.3,2.668-0.607,3.938-0.929c0.9-0.228,1.78-0.457,2.639-0.694
				c1.237-0.341,2.419-0.689,3.571-1.046c0.771-0.239,1.541-0.474,2.274-0.717c1.145-0.38,2.218-0.764,3.273-1.152
				c0.627-0.23,1.27-0.457,1.865-0.689c1.089-0.424,2.09-0.845,3.075-1.269C494.168,245.485,494.586,245.329,494.933,245.175z
				 M494.933,193.975v32.004l-0.237,0.147c-0.746,0.452-1.619,0.954-2.651,1.5c-0.167,0.088-0.371,0.185-0.545,0.275
				c-0.948,0.489-2.033,1.007-3.212,1.539c-0.315,0.142-0.616,0.282-0.948,0.425c-1.409,0.61-2.972,1.235-4.691,1.858
				c-0.35,0.127-0.738,0.252-1.101,0.379c-1.58,0.55-3.293,1.093-5.126,1.622c-0.402,0.116-0.777,0.235-1.192,0.35
				c-2.134,0.588-4.459,1.146-6.929,1.668c-0.562,0.119-1.156,0.229-1.735,0.343c-2.373,0.467-4.88,0.896-7.556,1.269
				c-0.348,0.048-0.665,0.108-1.018,0.154c-2.942,0.388-6.117,0.689-9.427,0.928c-0.779,0.056-1.578,0.103-2.379,0.15
				c-3.485,0.203-7.099,0.349-10.986,0.349c-3.891,0-7.508-0.146-10.996-0.35c-0.806-0.047-1.612-0.094-2.396-0.15
				c-3.307-0.24-6.478-0.541-9.417-0.929c-0.375-0.05-0.714-0.112-1.084-0.164c-2.661-0.372-5.159-0.8-7.52-1.265
				c-0.573-0.113-1.163-0.221-1.718-0.339c-2.473-0.523-4.799-1.081-6.935-1.671c-0.421-0.117-0.804-0.237-1.212-0.356
				c-1.836-0.531-3.553-1.075-5.133-1.626c-0.348-0.121-0.723-0.242-1.059-0.364c-1.727-0.626-3.295-1.253-4.708-1.866
				c-0.32-0.139-0.614-0.275-0.919-0.411c-1.216-0.547-2.336-1.082-3.305-1.584l-0.425-0.214c-1.053-0.556-1.935-1.064-2.688-1.521
				l-0.219-0.136v-32.013c0.347,0.154,0.766,0.31,1.126,0.465c0.986,0.423,1.987,0.845,3.076,1.269
				c0.595,0.232,1.239,0.458,1.865,0.689c1.055,0.388,2.128,0.771,3.273,1.152c0.734,0.243,1.503,0.479,2.274,0.717
				c1.152,0.357,2.333,0.704,3.571,1.046c0.858,0.237,1.739,0.466,2.639,0.694c1.27,0.322,2.584,0.629,3.938,0.929
				c0.971,0.215,1.946,0.425,2.96,0.627c1.417,0.282,2.894,0.541,4.397,0.794c1.064,0.179,2.113,0.36,3.22,0.523
				c1.614,0.237,3.31,0.438,5.017,0.637c1.113,0.13,2.192,0.271,3.344,0.383c1.94,0.188,3.988,0.321,6.043,0.452
				c1.035,0.066,2.017,0.157,3.081,0.208c3.175,0.152,6.464,0.243,9.908,0.243c3.444,0,6.733-0.091,9.909-0.242
				c1.065-0.051,2.046-0.142,3.081-0.208c2.056-0.131,4.104-0.265,6.043-0.452c1.153-0.112,2.232-0.253,3.344-0.383
				c1.707-0.199,3.404-0.399,5.017-0.636c1.107-0.163,2.156-0.344,3.22-0.523c1.503-0.253,2.98-0.511,4.397-0.794
				c1.015-0.202,1.99-0.412,2.96-0.627c1.354-0.3,2.668-0.607,3.938-0.929c0.9-0.228,1.78-0.457,2.639-0.694
				c1.237-0.341,2.419-0.689,3.571-1.046c0.771-0.239,1.541-0.474,2.274-0.717c1.145-0.38,2.218-0.764,3.273-1.152
				c0.627-0.23,1.27-0.457,1.865-0.689c1.089-0.424,2.09-0.845,3.075-1.269C494.168,194.285,494.586,194.129,494.933,193.975z
				 M494.933,174.779l-0.237,0.147c-0.746,0.452-1.619,0.954-2.651,1.5c-0.167,0.088-0.371,0.185-0.545,0.275
				c-0.948,0.489-2.033,1.007-3.212,1.539c-0.315,0.142-0.616,0.282-0.948,0.425c-1.409,0.61-2.972,1.235-4.691,1.858
				c-0.35,0.127-0.738,0.252-1.101,0.379c-1.58,0.55-3.293,1.093-5.126,1.622c-0.402,0.116-0.777,0.235-1.192,0.35
				c-2.134,0.588-4.459,1.146-6.929,1.668c-0.562,0.119-1.156,0.229-1.735,0.343c-2.373,0.467-4.88,0.896-7.556,1.269
				c-0.348,0.048-0.665,0.108-1.018,0.154c-2.942,0.388-6.117,0.689-9.427,0.928c-0.779,0.056-1.578,0.103-2.379,0.15
				c-3.485,0.203-7.099,0.349-10.986,0.349c-3.887,0-7.501-0.146-10.986-0.349c-0.801-0.047-1.599-0.093-2.379-0.149
				c-3.313-0.24-6.491-0.541-9.435-0.929c-0.339-0.045-0.643-0.102-0.978-0.148c-2.703-0.375-5.234-0.809-7.628-1.281
				c-0.554-0.109-1.123-0.215-1.661-0.328c-2.5-0.528-4.854-1.091-7.011-1.687c-0.355-0.098-0.677-0.201-1.023-0.3
				c-1.94-0.557-3.748-1.13-5.406-1.711c-0.279-0.098-0.579-0.194-0.85-0.292c-1.804-0.652-3.442-1.306-4.908-1.943l-0.593-0.266
				c-1.419-0.633-2.719-1.253-3.814-1.827l-0.025-0.013c-1.179-0.618-2.164-1.186-2.98-1.686l-0.057-0.036v-32.027
				c18.934,7.751,39.283,11.444,59.733,10.839c20.45,0.605,40.8-3.087,59.733-10.839V174.779z M446.232,119.818
				c0.969,0.057,1.909,0.127,2.848,0.198c2.73,0.206,5.342,0.462,7.818,0.771c0.623,0.078,1.288,0.14,1.894,0.223
				c2.951,0.406,5.714,0.878,8.298,1.396c0.626,0.126,1.198,0.263,1.802,0.394c2.011,0.435,3.919,0.893,5.702,1.374
				c0.588,0.158,1.191,0.315,1.755,0.477c2.114,0.608,4.11,1.232,5.889,1.866c0.164,0.059,0.297,0.117,0.459,0.176
				c1.228,0.446,2.283,0.886,3.351,1.328c-16.234,6.117-33.506,9.009-50.848,8.515c-17.341,0.493-34.612-2.397-50.847-8.51
				c1.122-0.464,2.228-0.928,3.526-1.396l0.301-0.115c1.787-0.637,3.796-1.264,5.921-1.874c0.558-0.16,1.153-0.314,1.734-0.471
				c1.798-0.484,3.723-0.946,5.753-1.384c0.585-0.127,1.139-0.26,1.744-0.381c2.589-0.519,5.36-0.985,8.314-1.396
				c0.602-0.083,1.26-0.144,1.879-0.221c2.479-0.309,5.094-0.565,7.827-0.77c0.934-0.07,1.867-0.14,2.831-0.196
				c3.494-0.205,7.12-0.351,11.018-0.351C439.104,119.467,442.734,119.613,446.232,119.818z M494.933,481.992
				c-6.617,4.062-25.05,12.942-59.733,12.942c-34.75,0-53.183-8.912-59.733-12.933v-32.025c0.347,0.154,0.766,0.31,1.126,0.465
				c0.986,0.423,1.987,0.845,3.076,1.269c0.595,0.232,1.239,0.458,1.865,0.689c1.055,0.388,2.128,0.771,3.273,1.152
				c0.734,0.243,1.503,0.479,2.274,0.717c1.152,0.357,2.333,0.704,3.571,1.046c0.858,0.237,1.739,0.466,2.639,0.694
				c1.27,0.322,2.584,0.629,3.938,0.929c0.971,0.215,1.946,0.425,2.96,0.627c1.417,0.282,2.894,0.541,4.397,0.794
				c1.064,0.179,2.113,0.36,3.22,0.523c1.614,0.237,3.31,0.438,5.017,0.637c1.113,0.13,2.192,0.271,3.344,0.383
				c1.94,0.188,3.988,0.321,6.043,0.452c1.035,0.066,2.017,0.157,3.081,0.208c3.175,0.151,6.464,0.242,9.908,0.242
				c3.444,0,6.733-0.091,9.909-0.242c1.065-0.051,2.046-0.142,3.081-0.208c2.056-0.131,4.104-0.265,6.043-0.452
				c1.153-0.112,2.232-0.253,3.344-0.383c1.707-0.199,3.404-0.399,5.017-0.637c1.107-0.163,2.156-0.344,3.22-0.523
				c1.503-0.253,2.98-0.512,4.397-0.794c1.015-0.202,1.99-0.412,2.96-0.627c1.354-0.3,2.668-0.607,3.938-0.929
				c0.9-0.228,1.78-0.457,2.639-0.694c1.237-0.341,2.419-0.689,3.571-1.046c0.771-0.239,1.541-0.474,2.274-0.717
				c1.145-0.38,2.218-0.764,3.273-1.152c0.627-0.23,1.27-0.457,1.865-0.689c1.089-0.424,2.09-0.845,3.075-1.269
				c0.36-0.155,0.779-0.31,1.126-0.465L494.933,481.992z"/>
			<path style="fill:#428DFF;" d="M332.8,486.4v-256c0.002-2.412-1.018-4.712-2.808-6.329c-0.867-0.788-21.9-19.271-73.992-19.271
				s-73.125,18.483-73.992,19.271c-1.79,1.617-2.81,3.917-2.808,6.329v256c-0.002,2.412,1.018,4.712,2.808,6.329
				C182.875,493.517,203.908,512,256,512s73.125-18.483,73.992-19.271C331.782,491.112,332.802,488.812,332.8,486.4z
				 M312.845,432.426c-0.167,0.088-0.371,0.185-0.545,0.275c-0.948,0.489-2.033,1.007-3.212,1.539
				c-0.315,0.142-0.616,0.282-0.948,0.425c-1.409,0.61-2.972,1.235-4.691,1.858c-0.35,0.127-0.738,0.252-1.101,0.379
				c-1.58,0.551-3.293,1.093-5.126,1.622c-0.402,0.116-0.777,0.235-1.192,0.349c-2.134,0.588-4.459,1.146-6.929,1.668
				c-0.562,0.119-1.156,0.229-1.735,0.343c-2.373,0.467-4.88,0.896-7.556,1.269c-0.348,0.048-0.665,0.108-1.018,0.154
				c-2.942,0.388-6.117,0.689-9.427,0.928c-0.779,0.056-1.578,0.103-2.379,0.15c-3.485,0.204-7.099,0.349-10.986,0.349
				c-3.891,0-7.508-0.146-10.996-0.35c-0.806-0.047-1.612-0.094-2.396-0.15c-3.307-0.24-6.478-0.541-9.417-0.929
				c-0.375-0.05-0.714-0.112-1.084-0.164c-2.661-0.372-5.159-0.8-7.52-1.265c-0.573-0.113-1.162-0.221-1.718-0.339
				c-2.473-0.523-4.799-1.081-6.935-1.671c-0.421-0.117-0.804-0.237-1.212-0.356c-1.836-0.531-3.553-1.074-5.133-1.626
				c-0.348-0.121-0.723-0.242-1.059-0.364c-1.727-0.626-3.295-1.253-4.708-1.866c-0.32-0.139-0.614-0.275-0.919-0.411
				c-1.216-0.547-2.336-1.082-3.305-1.584l-0.425-0.214c-1.053-0.556-1.935-1.064-2.687-1.521l-0.219-0.136v-32.013
				c0.347,0.154,0.766,0.31,1.126,0.465c0.986,0.423,1.987,0.845,3.076,1.269c0.595,0.232,1.239,0.458,1.865,0.689
				c1.055,0.388,2.128,0.771,3.273,1.152c0.734,0.243,1.503,0.479,2.274,0.717c1.152,0.357,2.333,0.704,3.571,1.046
				c0.858,0.237,1.739,0.466,2.639,0.694c1.27,0.322,2.584,0.629,3.938,0.929c0.971,0.215,1.946,0.425,2.96,0.627
				c1.417,0.282,2.894,0.541,4.397,0.794c1.064,0.179,2.113,0.36,3.22,0.523c1.614,0.238,3.31,0.438,5.017,0.637
				c1.113,0.13,2.192,0.271,3.344,0.383c1.94,0.188,3.988,0.321,6.043,0.452c1.035,0.066,2.017,0.157,3.081,0.208
				c3.175,0.151,6.464,0.242,9.908,0.242c3.444,0,6.733-0.091,9.909-0.242c1.065-0.051,2.046-0.142,3.081-0.208
				c2.056-0.131,4.104-0.265,6.043-0.452c1.153-0.112,2.232-0.253,3.344-0.383c1.707-0.199,3.404-0.399,5.017-0.637
				c1.107-0.163,2.156-0.344,3.22-0.523c1.503-0.253,2.98-0.511,4.397-0.794c1.015-0.202,1.99-0.412,2.96-0.627
				c1.354-0.3,2.668-0.607,3.938-0.929c0.9-0.228,1.78-0.457,2.639-0.694c1.237-0.341,2.419-0.689,3.571-1.046
				c0.771-0.239,1.541-0.474,2.274-0.717c1.145-0.38,2.218-0.764,3.273-1.152c0.627-0.23,1.27-0.457,1.865-0.689
				c1.089-0.424,2.09-0.845,3.075-1.269c0.36-0.155,0.779-0.31,1.126-0.465v32.005l-0.237,0.147
				C314.75,431.378,313.877,431.881,312.845,432.426z M315.733,277.179l-0.237,0.147c-0.746,0.452-1.619,0.954-2.651,1.5
				c-0.167,0.088-0.371,0.185-0.545,0.275c-0.948,0.489-2.033,1.007-3.212,1.539c-0.315,0.142-0.616,0.282-0.948,0.425
				c-1.409,0.61-2.972,1.235-4.691,1.858c-0.35,0.127-0.738,0.252-1.101,0.379c-1.58,0.551-3.293,1.093-5.126,1.622
				c-0.402,0.116-0.777,0.235-1.192,0.349c-2.134,0.588-4.459,1.146-6.929,1.668c-0.562,0.119-1.156,0.229-1.735,0.343
				c-2.373,0.467-4.88,0.896-7.556,1.269c-0.348,0.048-0.665,0.108-1.018,0.154c-2.942,0.388-6.117,0.689-9.427,0.928
				c-0.779,0.056-1.578,0.103-2.379,0.15c-3.485,0.204-7.099,0.349-10.986,0.349c-3.887,0-7.501-0.146-10.986-0.35
				c-0.801-0.047-1.599-0.093-2.379-0.15c-3.313-0.24-6.491-0.541-9.435-0.929c-0.339-0.045-0.643-0.102-0.978-0.148
				c-2.703-0.375-5.234-0.809-7.628-1.281c-0.554-0.109-1.123-0.215-1.661-0.328c-2.5-0.528-4.854-1.091-7.011-1.687
				c-0.355-0.098-0.677-0.201-1.023-0.3c-1.94-0.557-3.748-1.13-5.406-1.711c-0.279-0.098-0.579-0.194-0.85-0.292
				c-1.804-0.652-3.442-1.306-4.908-1.943l-0.593-0.266c-1.419-0.633-2.719-1.253-3.814-1.827l-0.025-0.013
				c-1.179-0.618-2.164-1.186-2.98-1.686l-0.057-0.035v-32.027C215.2,252.913,235.55,256.605,256,256
				c20.45,0.605,40.8-3.087,59.733-10.839V277.179z M200.468,298.108c0.595,0.232,1.239,0.458,1.865,0.689
				c1.055,0.388,2.128,0.771,3.273,1.152c0.734,0.243,1.503,0.479,2.274,0.717c1.152,0.357,2.333,0.704,3.571,1.046
				c0.858,0.237,1.739,0.466,2.639,0.694c1.27,0.322,2.584,0.629,3.938,0.929c0.971,0.215,1.946,0.425,2.96,0.627
				c1.417,0.282,2.894,0.541,4.397,0.794c1.064,0.179,2.113,0.36,3.22,0.523c1.614,0.237,3.31,0.438,5.017,0.637
				c1.113,0.13,2.192,0.271,3.344,0.383c1.94,0.188,3.988,0.321,6.043,0.452c1.035,0.066,2.017,0.157,3.081,0.208
				c3.175,0.151,6.465,0.242,9.909,0.242c3.444,0,6.733-0.091,9.909-0.242c1.065-0.051,2.046-0.142,3.081-0.208
				c2.056-0.131,4.104-0.265,6.043-0.452c1.153-0.112,2.232-0.253,3.344-0.383c1.707-0.199,3.404-0.399,5.017-0.637
				c1.107-0.163,2.156-0.344,3.22-0.523c1.503-0.253,2.98-0.512,4.397-0.794c1.015-0.202,1.99-0.412,2.96-0.627
				c1.354-0.3,2.668-0.607,3.938-0.929c0.9-0.228,1.78-0.457,2.639-0.694c1.237-0.341,2.419-0.689,3.571-1.046
				c0.771-0.239,1.541-0.474,2.274-0.717c1.145-0.38,2.218-0.764,3.273-1.152c0.627-0.23,1.27-0.457,1.865-0.689
				c1.089-0.424,2.09-0.845,3.075-1.269c0.36-0.155,0.779-0.31,1.126-0.465v32.005l-0.237,0.147c-0.746,0.452-1.619,0.954-2.651,1.5
				c-0.167,0.088-0.371,0.185-0.545,0.275c-0.948,0.489-2.033,1.007-3.212,1.539c-0.315,0.142-0.616,0.282-0.948,0.425
				c-1.409,0.61-2.972,1.235-4.691,1.858c-0.35,0.127-0.738,0.252-1.101,0.379c-1.58,0.55-3.293,1.093-5.126,1.622
				c-0.402,0.116-0.777,0.235-1.192,0.349c-2.134,0.588-4.459,1.146-6.929,1.668c-0.562,0.119-1.156,0.229-1.735,0.343
				c-2.373,0.467-4.88,0.896-7.556,1.269c-0.348,0.048-0.665,0.108-1.018,0.154c-2.942,0.388-6.117,0.689-9.427,0.928
				c-0.779,0.056-1.578,0.103-2.379,0.15c-3.485,0.203-7.099,0.349-10.986,0.349c-3.891,0-7.508-0.146-10.996-0.35
				c-0.806-0.047-1.612-0.094-2.396-0.15c-3.307-0.24-6.478-0.541-9.417-0.929c-0.375-0.05-0.714-0.112-1.084-0.164
				c-2.661-0.372-5.159-0.8-7.52-1.265c-0.573-0.113-1.162-0.221-1.718-0.339c-2.473-0.523-4.799-1.081-6.935-1.671
				c-0.421-0.117-0.804-0.237-1.212-0.356c-1.836-0.531-3.553-1.075-5.133-1.626c-0.348-0.121-0.723-0.242-1.059-0.364
				c-1.727-0.626-3.295-1.253-4.708-1.866c-0.32-0.139-0.614-0.275-0.919-0.411c-1.216-0.547-2.336-1.082-3.305-1.584l-0.425-0.214
				c-1.053-0.556-1.935-1.064-2.687-1.521l-0.219-0.136v-32.013c0.347,0.154,0.766,0.31,1.126,0.465
				C198.379,297.263,199.38,297.684,200.468,298.108z M200.468,349.308c0.595,0.232,1.239,0.458,1.865,0.689
				c1.055,0.388,2.128,0.771,3.273,1.152c0.734,0.243,1.503,0.479,2.274,0.717c1.152,0.357,2.333,0.704,3.571,1.046
				c0.858,0.237,1.739,0.466,2.639,0.694c1.27,0.322,2.584,0.629,3.938,0.929c0.971,0.215,1.946,0.425,2.96,0.627
				c1.417,0.282,2.894,0.541,4.397,0.794c1.064,0.179,2.113,0.36,3.22,0.523c1.614,0.237,3.31,0.438,5.017,0.637
				c1.113,0.13,2.192,0.271,3.344,0.383c1.94,0.188,3.988,0.321,6.043,0.452c1.035,0.066,2.017,0.157,3.081,0.208
				c3.175,0.151,6.465,0.242,9.909,0.242c3.444,0,6.733-0.091,9.909-0.242c1.065-0.051,2.046-0.142,3.081-0.208
				c2.056-0.131,4.104-0.265,6.043-0.452c1.153-0.112,2.232-0.253,3.344-0.383c1.707-0.199,3.404-0.399,5.017-0.637
				c1.107-0.163,2.156-0.344,3.22-0.523c1.503-0.253,2.98-0.512,4.397-0.794c1.015-0.202,1.99-0.412,2.96-0.627
				c1.354-0.3,2.668-0.607,3.938-0.929c0.9-0.228,1.78-0.457,2.639-0.694c1.237-0.341,2.419-0.689,3.571-1.046
				c0.771-0.239,1.541-0.474,2.274-0.717c1.145-0.38,2.218-0.764,3.273-1.152c0.627-0.23,1.27-0.457,1.865-0.689
				c1.089-0.424,2.09-0.845,3.075-1.269c0.36-0.155,0.779-0.31,1.126-0.465v32.005l-0.237,0.147c-0.746,0.452-1.619,0.954-2.651,1.5
				c-0.167,0.088-0.371,0.185-0.545,0.275c-0.948,0.489-2.033,1.007-3.212,1.539c-0.315,0.142-0.616,0.282-0.948,0.425
				c-1.409,0.61-2.972,1.235-4.691,1.858c-0.35,0.127-0.738,0.252-1.101,0.379c-1.58,0.551-3.293,1.093-5.126,1.622
				c-0.402,0.116-0.777,0.235-1.192,0.349c-2.134,0.588-4.459,1.146-6.929,1.668c-0.562,0.119-1.156,0.229-1.735,0.343
				c-2.373,0.467-4.88,0.896-7.556,1.269c-0.348,0.048-0.665,0.108-1.018,0.154c-2.942,0.388-6.117,0.689-9.427,0.928
				c-0.779,0.056-1.578,0.103-2.379,0.149c-3.485,0.203-7.099,0.349-10.986,0.349c-3.891,0-7.508-0.146-10.996-0.35
				c-0.806-0.047-1.612-0.094-2.396-0.15c-3.307-0.24-6.478-0.541-9.417-0.929c-0.375-0.05-0.714-0.112-1.084-0.164
				c-2.661-0.372-5.159-0.8-7.52-1.265c-0.573-0.113-1.162-0.221-1.718-0.339c-2.473-0.523-4.799-1.081-6.935-1.671
				c-0.421-0.117-0.804-0.237-1.212-0.356c-1.836-0.531-3.553-1.075-5.133-1.626c-0.348-0.121-0.723-0.242-1.059-0.364
				c-1.727-0.626-3.295-1.253-4.708-1.866c-0.32-0.139-0.614-0.275-0.919-0.411c-1.216-0.547-2.336-1.082-3.305-1.584l-0.425-0.214
				c-1.053-0.556-1.935-1.064-2.687-1.521l-0.219-0.136v-32.013c0.347,0.154,0.766,0.31,1.126,0.465
				C198.379,348.463,199.38,348.884,200.468,349.308z M267.032,222.218c0.969,0.057,1.909,0.127,2.848,0.198
				c2.73,0.206,5.342,0.462,7.818,0.771c0.623,0.078,1.288,0.14,1.894,0.223c2.95,0.406,5.714,0.878,8.298,1.396
				c0.626,0.126,1.198,0.263,1.802,0.394c2.011,0.435,3.919,0.893,5.702,1.374c0.588,0.158,1.191,0.315,1.755,0.477
				c2.114,0.608,4.11,1.232,5.889,1.866c0.164,0.059,0.297,0.117,0.459,0.176c1.228,0.446,2.283,0.886,3.351,1.328
				c-16.234,6.117-33.506,9.009-50.847,8.515c-17.341,0.493-34.612-2.397-50.847-8.51c1.122-0.464,2.228-0.928,3.526-1.396
				l0.301-0.115c1.787-0.637,3.796-1.264,5.921-1.874c0.558-0.16,1.153-0.314,1.734-0.471c1.798-0.484,3.723-0.946,5.753-1.384
				c0.585-0.127,1.139-0.26,1.744-0.381c2.589-0.519,5.36-0.985,8.314-1.396c0.602-0.083,1.26-0.144,1.879-0.221
				c2.479-0.309,5.094-0.565,7.827-0.77c0.934-0.07,1.867-0.14,2.831-0.196c3.494-0.205,7.12-0.351,11.018-0.351
				C259.904,221.867,263.534,222.013,267.032,222.218z M315.733,481.992c-6.617,4.062-25.05,12.942-59.733,12.942
				c-34.75,0-53.183-8.912-59.733-12.933v-32.025c0.347,0.154,0.766,0.31,1.126,0.465c0.986,0.423,1.987,0.845,3.076,1.269
				c0.595,0.232,1.239,0.458,1.865,0.689c1.055,0.388,2.128,0.771,3.273,1.152c0.734,0.243,1.503,0.479,2.274,0.717
				c1.152,0.357,2.333,0.704,3.571,1.046c0.858,0.237,1.739,0.466,2.639,0.694c1.27,0.322,2.584,0.629,3.938,0.929
				c0.971,0.215,1.946,0.425,2.96,0.627c1.417,0.282,2.894,0.541,4.397,0.794c1.064,0.179,2.113,0.36,3.22,0.523
				c1.614,0.237,3.31,0.438,5.017,0.637c1.113,0.13,2.192,0.271,3.344,0.383c1.94,0.188,3.988,0.321,6.043,0.452
				c1.035,0.066,2.017,0.157,3.081,0.208c3.175,0.151,6.464,0.242,9.908,0.242c3.444,0,6.733-0.091,9.909-0.242
				c1.065-0.051,2.046-0.142,3.081-0.208c2.056-0.131,4.104-0.265,6.043-0.452c1.153-0.112,2.232-0.253,3.344-0.383
				c1.707-0.199,3.404-0.399,5.017-0.637c1.107-0.163,2.156-0.344,3.22-0.523c1.503-0.253,2.98-0.512,4.397-0.794
				c1.015-0.202,1.99-0.412,2.96-0.627c1.354-0.3,2.668-0.607,3.938-0.929c0.9-0.228,1.78-0.457,2.639-0.694
				c1.237-0.341,2.419-0.689,3.571-1.046c0.771-0.239,1.541-0.474,2.274-0.717c1.145-0.38,2.218-0.764,3.273-1.152
				c0.627-0.23,1.27-0.457,1.865-0.689c1.089-0.424,2.09-0.845,3.075-1.269c0.36-0.155,0.779-0.31,1.126-0.465L315.733,481.992z"/>
			<path style="fill:#428DFF;" d="M76.8,170.667c4.707-0.014,8.519-3.826,8.533-8.533V128c0.005-4.711,3.822-8.529,8.533-8.533
				h153.6v45.925l-4.717-2.358c-2.728-1.372-5.982-1.182-8.531,0.498s-4.007,4.596-3.822,7.644c0.185,3.048,1.985,5.765,4.72,7.124
				l17.067,8.533c0.074,0.037,0.162,0.021,0.236,0.056c2.254,1.126,4.907,1.126,7.161,0c0.075-0.035,0.162-0.019,0.236-0.056
				l17.067-8.533c2.735-1.359,4.535-4.076,4.72-7.124c0.185-3.048-1.272-5.963-3.822-7.644c-2.55-1.681-5.803-1.871-8.532-0.498
				l-4.717,2.358V25.6c0.005-4.711,3.822-8.529,8.533-8.533h145.067c4.711,0.005,8.529,3.822,8.533,8.533v37.392l-4.717-2.358
				c-2.728-1.372-5.982-1.182-8.531,0.498c-2.55,1.681-4.007,4.596-3.822,7.644c0.185,3.048,1.985,5.765,4.72,7.124l17.067,8.533
				c0.074,0.037,0.162,0.021,0.236,0.056c2.254,1.126,4.907,1.126,7.161,0c0.075-0.035,0.162-0.019,0.236-0.056l17.067-8.533
				c4.204-2.114,5.903-7.232,3.798-11.441c-2.104-4.209-7.218-5.92-11.432-3.826l-4.717,2.358V25.6
				c-0.015-14.132-11.468-25.585-25.6-25.6H273.067c-14.132,0.015-25.585,11.468-25.6,25.6v76.8h-153.6
				c-14.132,0.015-25.585,11.468-25.6,25.6v34.133C68.281,166.84,72.093,170.653,76.8,170.667z"/>
			<path style="fill:#428DFF;" d="M72.021,203.35c0.476,0.324,0.993,0.583,1.538,0.771c0.484,0.246,1.002,0.417,1.537,0.508
				c0.563,0.096,1.133,0.153,1.704,0.171c2.259-0.031,4.423-0.915,6.059-2.475c2.07-1.994,2.979-4.908,2.409-7.726
				c-0.57-2.818-2.539-5.149-5.222-6.183c-1.027-0.438-2.13-0.67-3.246-0.684c-3.45,0.014-6.556,2.096-7.879,5.282
				s-0.606,6.856,1.82,9.31L72.021,203.35z"/>
			<path style="fill:#428DFF;" d="M76.8,290.133c2.263,0.001,4.434-0.898,6.035-2.499s2.499-3.771,2.499-6.035v-51.2
				c0-4.713-3.821-8.533-8.533-8.533c-4.713,0-8.533,3.821-8.533,8.533v51.2c-0.001,2.263,0.898,4.434,2.499,6.035
				S74.537,290.134,76.8,290.133z"/>
		</g>
	</g>
</g>
<g>
</g>
<g>
</g>
<g>
</g>
<g>
</g>
<g>
</g>
<g>
</g>
<g>
</g>
<g>
</g>
<g>
</g>
<g>
</g>
<g>
</g>
<g>
</g>
<g>
</g>
<g>
</g>
<g>
</g>
</svg>
