<?xml version="1.0"?>
<svg xmlns="http://www.w3.org/2000/svg" xmlns:xlink="http://www.w3.org/1999/xlink" viewBox="0 0 512 512" width="512" height="512"><linearGradient id="a" gradientUnits="userSpaceOnUse" x1="256" x2="256" y1="14.767" y2="489.422"><stop offset="0" stop-color="#00efd1"/><stop offset="1" stop-color="#00acea"/></linearGradient><path d="m371.805 94a10 10 0 0 0 -10-10h-211.605a10 10 0 0 0 0 20h60.552c41.16 0 75.206 31 80.15 70h-140.702a10 10 0 0 0 0 20h140.7a80.945 80.945 0 0 1 -80.15 71h-60.55a10.154 10.154 0 0 0 -6.868 17.481l151.338 143.05a9.986 9.986 0 0 0 14.136-.373 10.167 10.167 0 0 0 -.4-14.274l-133.069-125.884h35.41c52.2 0 95.259-40 100.295-91h50.763a10 10 0 1 0 0-20h-50.763c-2.861-28-17.989-54-40.1-70h90.86a10 10 0 0 0 10.003-10z" fill="url(#a)"/></svg>
