<?xml version="1.0" encoding="iso-8859-1"?>
<!-- Generator: Adobe Illustrator 19.0.0, SVG Export Plug-In . SVG Version: 6.00 Build 0)  -->
<svg version="1.1" id="Capa_1" xmlns="http://www.w3.org/2000/svg" xmlns:xlink="http://www.w3.org/1999/xlink" x="0px" y="0px"
	 viewBox="0 0 480 480" style="enable-background:new 0 0 480 480;" xml:space="preserve">
<g>
	
		<linearGradient id="SVGID_1_" gradientUnits="userSpaceOnUse" x1="-26.8748" y1="558.5054" x2="-26.8748" y2="622.3254" gradientTransform="matrix(8 0 0 -8 454.9986 4941.0034)">
		<stop  offset="0" style="stop-color:#006DF0"/>
		<stop  offset="1" style="stop-color:#00E7F0"/>
	</linearGradient>
	<path style="fill:url(#SVGID_1_);" d="M472,464H8c-4.418,0-8,3.582-8,8s3.582,8,8,8h464c4.418,0,8-3.582,8-8S476.418,464,472,464z"
		/>
	
		<linearGradient id="SVGID_2_" gradientUnits="userSpaceOnUse" x1="-26.8748" y1="558.5054" x2="-26.8748" y2="622.3254" gradientTransform="matrix(8 0 0 -8 454.9986 4941.0034)">
		<stop  offset="0" style="stop-color:#006DF0"/>
		<stop  offset="1" style="stop-color:#00E7F0"/>
	</linearGradient>
	<path style="fill:url(#SVGID_2_);" d="M32,448h416c4.418,0,8-3.582,8-8s-3.582-8-8-8H32c-4.418,0-8,3.582-8,8S27.582,448,32,448z"
		/>
	
		<linearGradient id="SVGID_3_" gradientUnits="userSpaceOnUse" x1="-26.8748" y1="558.5054" x2="-26.8748" y2="622.3254" gradientTransform="matrix(8 0 0 -8 454.9986 4941.0034)">
		<stop  offset="0" style="stop-color:#006DF0"/>
		<stop  offset="1" style="stop-color:#00E7F0"/>
	</linearGradient>
	<path style="fill:url(#SVGID_3_);" d="M56,400c-4.418,0-8,3.582-8,8s3.582,8,8,8h368c4.418,0,8-3.582,8-8s-3.582-8-8-8h-16V176h16
		c4.418,0,8-3.582,8-8s-3.582-8-8-8H56c-4.418,0-8,3.582-8,8s3.582,8,8,8h16v224H56z M136,400V176h72v224H136z M272,400V176h72v224
		H272z M392,176v224h-32V176H392z M256,176v224h-32V176H256z M88,176h32v224H88V176z"/>
	
		<linearGradient id="SVGID_4_" gradientUnits="userSpaceOnUse" x1="-26.8748" y1="558.5054" x2="-26.8748" y2="622.3254" gradientTransform="matrix(8 0 0 -8 454.9986 4941.0034)">
		<stop  offset="0" style="stop-color:#006DF0"/>
		<stop  offset="1" style="stop-color:#00E7F0"/>
	</linearGradient>
	<path style="fill:url(#SVGID_4_);" d="M56,144h368c4.418,0,8-3.581,8.001-7.999c0-2.619-1.282-5.073-3.433-6.569l-184-128
		c-2.746-1.91-6.39-1.91-9.136,0l-184,128c-3.627,2.523-4.523,7.508-2.001,11.135C50.927,142.718,53.381,144.001,56,144z
		 M240,17.744L398.496,128H81.504L240,17.744z"/>
</g>
<g>
</g>
<g>
</g>
<g>
</g>
<g>
</g>
<g>
</g>
<g>
</g>
<g>
</g>
<g>
</g>
<g>
</g>
<g>
</g>
<g>
</g>
<g>
</g>
<g>
</g>
<g>
</g>
<g>
</g>
</svg>
