<?xml version="1.0" encoding="iso-8859-1"?>
<!-- Generator: Adobe Illustrator 19.0.0, SVG Export Plug-In . SVG Version: 6.00 Build 0)  -->
<svg version="1.1" id="Layer_1" xmlns="http://www.w3.org/2000/svg" xmlns:xlink="http://www.w3.org/1999/xlink" x="0px" y="0px"
	 viewBox="0 0 512 512" style="enable-background:new 0 0 512 512;" xml:space="preserve">
<path style="fill:#28C3E4;" d="M256,512c-116.727,0-211.691-94.964-211.691-211.691V194.496c0-10.875,8.817-19.692,19.692-19.692
	h129.483c10.875,0,19.692,8.817,19.692,19.692v105.813c0,23.612,19.211,42.823,42.823,42.823c23.612,0,42.823-19.21,42.823-42.823
	V194.496c0-10.875,8.817-19.692,19.692-19.692h129.483c10.875,0,19.692,8.817,19.692,19.692v105.813
	C467.691,417.036,372.727,512,256,512z"/>
<path style="fill:#28B6E4;" d="M447.999,174.803H318.515c-10.875,0-19.692,8.817-19.692,19.692v105.813
	c0,23.612-19.211,42.823-42.823,42.823V512c116.727,0,211.691-94.964,211.691-211.691V194.496
	C467.691,183.62,458.874,174.803,447.999,174.803z"/>
<g>
	<path style="fill:#28D2E4;" d="M99.251,79.185c-10.875,0-19.692-8.817-19.692-19.692V19.692C79.558,8.817,88.375,0,99.251,0
		s19.692,8.817,19.692,19.692v39.801C118.943,70.37,110.126,79.185,99.251,79.185z"/>
	<path style="fill:#28D2E4;" d="M158.237,79.185c-10.875,0-19.692-8.817-19.692-19.692V19.692C138.545,8.817,147.361,0,158.237,0
		c10.875,0,19.692,8.817,19.692,19.692v39.801C177.929,70.37,169.112,79.185,158.237,79.185z"/>
	<path style="fill:#28D2E4;" d="M213.177,214.188H44.309v-97.382c0-10.875,8.817-19.692,19.692-19.692h129.483
		c10.875,0,19.692,8.817,19.692,19.692V214.188z"/>
</g>
<g>
	<path style="fill:#28C3E4;" d="M353.763,79.185c-10.875,0-19.692-8.817-19.692-19.692V19.692C334.071,8.817,342.888,0,353.763,0
		s19.692,8.817,19.692,19.692v39.801C373.455,70.37,364.639,79.185,353.763,79.185z"/>
	<path style="fill:#28C3E4;" d="M412.749,79.185c-10.875,0-19.692-8.817-19.692-19.692V19.692C393.057,8.817,401.874,0,412.749,0
		c10.875,0,19.692,8.817,19.692,19.692v39.801C432.442,70.37,423.626,79.185,412.749,79.185z"/>
	<path style="fill:#28C3E4;" d="M467.691,214.188H298.823v-97.382c0-10.875,8.817-19.692,19.692-19.692h129.484
		c10.875,0,19.692,8.817,19.692,19.692V214.188z"/>
</g>
<g>
</g>
<g>
</g>
<g>
</g>
<g>
</g>
<g>
</g>
<g>
</g>
<g>
</g>
<g>
</g>
<g>
</g>
<g>
</g>
<g>
</g>
<g>
</g>
<g>
</g>
<g>
</g>
<g>
</g>
</svg>
