<?xml version="1.0" encoding="iso-8859-1"?>
<!-- Generator: Adobe Illustrator 19.0.0, SVG Export Plug-In . SVG Version: 6.00 Build 0)  -->
<svg version="1.1" id="Capa_1" xmlns="https://www.w3.org/2000/svg" xmlns:xlink="https://www.w3.org/1999/xlink" x="0px" y="0px"
	 viewBox="0 0 511.999 511.999" style="enable-background:new 0 0 511.999 511.999;" xml:space="preserve">
<circle style="fill:#14C0EB;" cx="255.999" cy="262.521" r="249.476"/>
<rect x="277.217" y="8.195" style="fill:#DAECF7;" width="35.991" height="44.53"/>
<rect x="277.217" y="8.195" style="fill:#B2D9ED;" width="19.388" height="44.53"/>
<path style="fill:#7AA0EA;" d="M313.21,16.388h-35.991c-4.526,0-8.195-3.668-8.195-8.195S272.693,0,277.219,0h35.991
	c4.526,0,8.195,3.668,8.195,8.195S317.735,16.388,313.21,16.388z"/>
<path style="fill:#6D85D2;" d="M292.531,8.193c0-4.526,3.669-8.193,8.195-8.193h-23.506c-4.526,0-8.195,3.668-8.195,8.193
	c0,4.527,3.669,8.195,8.195,8.195h23.506C296.198,16.388,292.531,12.72,292.531,8.193z"/>
<path style="fill:#B2D9ED;" d="M259.224,59.695V81.13h71.982V59.695c0-4.453-3.61-8.064-8.064-8.064h-55.855
	C262.833,51.631,259.224,55.241,259.224,59.695z"/>
<path style="fill:#92D1EA;" d="M303.277,51.631h-35.991c-4.453,0-8.064,3.61-8.064,8.064V81.13h35.991V59.695
	C295.214,55.242,298.824,51.631,303.277,51.631z"/>
<path style="fill:#7AA0EA;" d="M277.219,258.423v36.165c0,4.62,3.745,8.365,8.365,8.365h19.262c4.62,0,8.365-3.745,8.365-8.365
	v-36.165H277.219z"/>
<path style="fill:#6D85D2;" d="M295.214,294.588v-36.165h-17.995v36.165c0,4.62,3.745,8.365,8.365,8.365h17.995
	C298.959,302.953,295.214,299.208,295.214,294.588z"/>
<path style="fill:#DAECF7;" d="M259.224,158.837v93.708c0,4.453,3.61,8.064,8.064,8.064h55.855c4.453,0,8.064-3.61,8.064-8.064
	v-93.708L259.224,158.837L259.224,158.837z"/>
<g>
	<path style="fill:#B2D9ED;" d="M295.214,252.545v-93.708h-35.991v93.708c0,4.453,3.61,8.063,8.064,8.063h35.991
		C298.824,260.608,295.214,256.998,295.214,252.545z"/>
	<path style="fill:#B2D9ED;" d="M240.464,132.934v15.508c0,6.344,5.143,11.487,11.487,11.487h86.527
		c6.344,0,11.487-5.143,11.487-11.487v-15.508H240.464z"/>
</g>
<path style="fill:#92D1EA;" d="M295.214,148.442v-15.508h-54.75v15.508c0,6.344,5.143,11.487,11.487,11.487h54.75
	C300.357,159.929,295.214,154.786,295.214,148.442z"/>
<path style="fill:#6D85D2;" d="M195.218,411.431c-4.185,0-8.154-0.924-11.721-2.568l-26.518,22.799l-17.166,51.665
	c34.702,18.298,74.231,28.672,116.189,28.672c54.446,0,104.809-17.453,145.826-47.054v-72.431H221.732
	C217.945,403.521,207.508,411.431,195.218,411.431z"/>
<g>
	<path style="fill:#5F6AB9;" d="M276.187,455.609c0-27.127,14.965-50.75,37.083-63.093h-91.537
		c-3.787,11.005-14.224,18.915-26.514,18.915c-4.185,0-8.154-0.924-11.721-2.568l-26.518,22.799l-17.166,51.665
		c34.702,18.298,74.231,28.672,116.189,28.672c14.676,0,29.051-1.279,43.031-3.711C284.979,495.112,276.187,476.392,276.187,455.609
		z"/>
	<path style="fill:#5F6AB9;" d="M259.224,437.029v32.248c0,6.65,5.391,12.041,12.042,12.041h104.674
		c8.982-4.933,17.623-10.406,25.888-16.371v-39.959H271.264C264.614,424.987,259.224,430.378,259.224,437.029z"/>
</g>
<path style="fill:#524FA1;" d="M282.99,424.987h-11.726c-6.65,0-12.042,5.391-12.042,12.042v32.248
	c0,6.65,5.391,12.041,12.042,12.041h9.642c-3.048-7.986-4.719-16.651-4.719-25.709C276.187,444.659,278.628,434.283,282.99,424.987z
	"/>
<path style="fill:#DAECF7;" d="M168.268,383.389c0-1.889,0.19-3.734,0.546-5.518c-33.474-31.909-52.016-78.662-45.943-127.987
	c5.578-45.305,30.76-83.503,65.988-107.133c-16.896-6.266-27.716-24.005-24.152-42.842c-5.106,3.296-10.098,6.827-14.947,10.612
	c-42.163,32.918-68.982,80.286-75.52,133.375c-6.536,53.09,7.992,105.549,40.911,147.711c12.31,15.768,26.66,29.36,42.558,40.573
	l26.88-23.317C174.958,404.424,168.268,394.69,168.268,383.389z"/>
<path style="fill:#B2D9ED;" d="M135.998,381.464c-30.003-38.429-43.246-86.241-37.288-134.629
	c5.955-48.361,30.45-91.939,69.643-122.183c-3.858-7.374-5.306-15.969-3.646-24.743c-5.106,3.296-10.098,6.827-14.947,10.612
	c-42.163,32.919-68.982,80.286-75.52,133.376c-6.536,53.09,7.992,105.549,40.911,147.711c12.31,15.768,26.66,29.36,42.558,40.573
	l16.404-14.23C159.895,407.824,147.042,395.61,135.998,381.464z"/>
<path style="fill:#7AA0EA;" d="M405.877,364.11H211.199c5.406,5.111,8.784,12.346,8.784,20.372c0,3.196-0.542,6.265-1.528,9.127
	h187.421c8.146,0,14.75-6.604,14.75-14.75C420.626,370.713,414.022,364.11,405.877,364.11z"/>
<path style="fill:#6D85D2;" d="M294.848,378.859c0-8.146,6.604-14.75,14.75-14.75h-98.399c5.406,5.111,8.784,12.345,8.784,20.372
	c0,3.196-0.542,6.265-1.528,9.127h91.143C301.451,393.609,294.848,387.005,294.848,378.859z"/>
<circle style="fill:#7AA0EA;" cx="195.22" cy="383.386" r="28.041"/>
<path style="fill:#DAECF7;" d="M361.654,134.027H216.756c-6.08,0-11.055-4.975-11.055-11.055v-31.88
	c0-6.08,4.975-11.055,11.055-11.055h144.898c6.08,0,11.055,4.975,11.055,11.055v31.88
	C372.709,129.053,367.734,134.027,361.654,134.027z"/>
<path style="fill:#B2D9ED;" d="M285.551,122.973v-31.88c0-6.08,4.975-11.055,11.055-11.055h-79.85
	c-6.08,0-11.055,4.975-11.055,11.055v31.88c0,6.08,4.975,11.055,11.055,11.055h79.85
	C290.526,134.027,285.551,129.053,285.551,122.973z"/>
<path style="fill:#5F6AB9;" d="M195.218,391.58c-4.542,0-8.195-3.687-8.195-8.195c0-5.268,4.88-9.046,9.8-8.03
	c3.937,0.834,6.588,4.169,6.588,8.03C203.412,387.878,199.76,391.58,195.218,391.58z"/>
<path style="fill:#92D1EA;" d="M372.709,115.227H238.868c-4.526,0-8.195-3.668-8.195-8.195c0-4.526,3.669-8.195,8.195-8.195h133.841
	c4.526,0,8.195,3.668,8.195,8.195C380.903,111.558,377.234,115.227,372.709,115.227z"/>
<path style="fill:#7BBEDB;" d="M238.868,98.838c-4.526,0-8.195,3.668-8.195,8.195c0,4.526,3.669,8.193,8.195,8.193h46.683V98.838
	H238.868z"/>
<path style="fill:#DAECF7;" d="M234.82,344.073c6.881,8.199,15.401,14.974,25.054,19.826c0.277,0.139,0.585,0.211,0.895,0.211
	h68.887c0.31,0,0.618-0.072,0.895-0.211c9.654-4.851,18.174-11.627,25.054-19.826c1.062-1.265,0.141-3.199-1.51-3.199H236.331
	C234.679,340.873,233.76,342.808,234.82,344.073z"/>
<path style="fill:#B2D9ED;" d="M277.512,344.073c-0.688-1.265-0.091-3.199,0.979-3.199h-42.16c-1.651,0-2.572,1.935-1.51,3.199
	c6.881,8.199,15.401,14.974,25.054,19.826c0.277,0.139,0.585,0.212,0.895,0.212h33.555c-0.201,0-0.4-0.072-0.58-0.212
	C287.491,359.047,281.971,352.271,277.512,344.073z"/>
<circle style="fill:#7AA0EA;" cx="201.048" cy="107.031" r="38.109"/>
<g>
	<path style="fill:#6D85D2;" d="M198.967,102.855c-4.854-11.448-3.68-23.939,2.086-33.94c-4.97-0.003-10.023,0.971-14.887,3.032
		c-19.377,8.217-28.424,30.587-20.206,49.964c8.217,19.377,30.587,28.424,49.964,20.206c7.929-3.362,14.125-9.097,18.12-16.024
		C219.213,126.084,205.12,117.367,198.967,102.855z"/>
	<circle style="fill:#6D85D2;" cx="201.048" cy="107.031" r="15.875"/>
</g>
<path style="fill:#5F6AB9;" d="M198.967,102.855c-1.514-3.569-2.44-7.24-2.826-10.905c-5.678,1.85-10.075,6.826-10.852,13.143
	c-1.071,8.702,5.115,16.624,13.816,17.696c4.756,0.585,9.271-1.008,12.57-3.984C206.245,114.873,201.774,109.475,198.967,102.855z"
	/>
<g>
</g>
<g>
</g>
<g>
</g>
<g>
</g>
<g>
</g>
<g>
</g>
<g>
</g>
<g>
</g>
<g>
</g>
<g>
</g>
<g>
</g>
<g>
</g>
<g>
</g>
<g>
</g>
<g>
</g>
</svg>
