<?xml version="1.0" encoding="utf-8"?>
<!-- Generator: Adobe Illustrator 19.0.0, SVG Export Plug-In . SVG Version: 6.00 Build 0)  -->
<svg version="1.1" id="Layer_1" xmlns="https://www.w3.org/2000/svg" xmlns:xlink="https://www.w3.org/1999/xlink" x="0px" y="0px"
	 viewBox="0 0 33.3 27.7" style="enable-background:new 0 0 33.3 27.7;" xml:space="preserve">
<style type="text/css">
	.st0{fill:#FFFFFF;}
</style>
<g id="XMLID_73_">
	<path id="XMLID_75_" class="st0" d="M31.2,11.1l-13.1,4c-1,0.3-1.8,0.1-2.2,0l-9.2-2.8c-0.6,0.4-0.9,1-1,1.7
		c0.4,0.3,0.7,0.7,0.7,1.3c0,0.5-0.3,0.9-0.6,1.2L7,21.8c0.1,0.5-0.3,0.9-0.7,0.9H3.7c-0.5,0-0.8-0.4-0.7-0.9l1.2-5.4
		c-0.4-0.3-0.6-0.7-0.6-1.2c0-0.6,0.3-1,0.8-1.3c0-0.8,0.3-1.6,0.8-2.2l-2.3-0.7c-1.1-0.3-1.1-1.8,0-2.1l13.1-4
		c0.7-0.2,1.5-0.2,2.2,0l13.1,4C32.3,9.3,32.3,10.7,31.2,11.1z M25.3,14.4l0.7,5.3c0,1.7-4,3-9,3s-9-1.3-9-3l0.7-5.3l6.8,2.1
		c0.6,0.2,1.7,0.4,3.1,0L25.3,14.4z"/>
</g>
</svg>
