<?xml version="1.0" encoding="utf-8"?>
<!-- Generator: Adobe Illustrator 19.0.0, SVG Export Plug-In . SVG Version: 6.00 Build 0)  -->
<svg version="1.1" id="erp_module" xmlns="https://www.w3.org/2000/svg" xmlns:xlink="https://www.w3.org/1999/xlink" x="0px" y="0px"
	 viewBox="-1282 419.9 26.1 26.1" style="enable-background:new -1282 419.9 26.1 26.1;" xml:space="preserve">
<style type="text/css">
	.st0{fill:#FFFFFF;}
</style>
<path id="Path_287" class="st0" d="M-1261.9,434c-3.3,0-6,2.7-6,6s2.7,6,6,6c3.3,0,6-2.7,6-6l0,0
	C-1255.9,436.7-1258.6,434.1-1261.9,434z M-1261.9,441.6c-0.9,0-1.6-0.7-1.6-1.6s0.7-1.6,1.6-1.6c0.9,0,1.6,0.7,1.6,1.6c0,0,0,0,0,0
	C-1260.3,440.9-1261,441.6-1261.9,441.6z"/>
<path id="Path_288" class="st0" d="M-1271.1,419.9h-9.8c-0.6,0-1.1,0.4-1.1,1c0,0,0,0.1,0,0.1v9.8c0,0.6,0.4,1.1,1,1.1
	c0,0,0.1,0,0.1,0h9.8c0.6,0,1.1-0.4,1.1-1c0,0,0-0.1,0-0.1V421c0-0.6-0.4-1.1-1-1.1C-1271,419.9-1271.1,419.9-1271.1,419.9z
	 M-1274.4,427c0,0.3-0.2,0.5-0.5,0.5c0,0,0,0-0.1,0h-2.2c-0.3,0-0.5-0.2-0.5-0.5c0,0,0,0,0-0.1v-2.2c0-0.3,0.2-0.5,0.5-0.5
	c0,0,0,0,0.1,0h2.2c0.3,0,0.5,0.2,0.5,0.5c0,0,0,0,0,0.1V427z"/>
<path id="Path_289" class="st0" d="M-1257,419.9h-9.8c-0.6,0-1.1,0.4-1.1,1c0,0,0,0.1,0,0.1v9.8c0,0.6,0.4,1.1,1,1.1
	c0,0,0.1,0,0.1,0h9.8c0.6,0,1.1-0.4,1.1-1c0,0,0-0.1,0-0.1V421c0-0.6-0.4-1.1-1-1.1C-1256.9,419.9-1256.9,419.9-1257,419.9z
	 M-1260.2,427c0,0.3-0.2,0.5-0.5,0.5c0,0,0,0-0.1,0h-2.2c-0.3,0-0.5-0.2-0.5-0.5c0,0,0,0,0-0.1v-2.2c0-0.3,0.2-0.5,0.5-0.5
	c0,0,0,0,0.1,0h2.2c0.3,0,0.5,0.2,0.5,0.5c0,0,0,0,0,0.1L-1260.2,427z"/>
<path id="Path_290" class="st0" d="M-1271.1,434h-9.8c-0.6,0-1.1,0.4-1.1,1c0,0,0,0.1,0,0.1v9.8c0,0.6,0.4,1.1,1,1.1
	c0,0,0.1,0,0.1,0h9.8c0.6,0,1.1-0.4,1.1-1c0,0,0-0.1,0-0.1v-9.8c0-0.6-0.4-1.1-1-1.1C-1271,434-1271.1,434-1271.1,434z
	 M-1274.4,441.1c0,0.3-0.2,0.5-0.5,0.5c0,0,0,0-0.1,0h-2.2c-0.3,0-0.5-0.2-0.5-0.5c0,0,0,0,0-0.1v-2.2c0-0.3,0.2-0.5,0.5-0.5
	c0,0,0,0,0.1,0h2.2c0.3,0,0.5,0.2,0.5,0.5c0,0,0,0,0,0.1V441.1z"/>
</svg>
