<?xml version="1.0" encoding="utf-8"?>
<!-- Generator: Adobe Illustrator 19.0.0, SVG Export Plug-In . SVG Version: 6.00 Build 0)  -->
<svg version="1.1" id="Layer_1" xmlns="http://www.w3.org/2000/svg" xmlns:xlink="http://www.w3.org/1999/xlink" x="0px" y="0px"
	 viewBox="-1285 419 19.4 28" style="enable-background:new -1285 419 19.4 28;" xml:space="preserve">
<style type="text/css">
	.st0{fill:#FFFFFF;}
</style>
<path id="fee_configuration" class="st0" d="M-1279.5,422.5v-1c0-0.2,0.2-0.4,0.4-0.4h0.7c0.7,0,1.3-0.4,1.6-1.1
	c0.4-0.8,1.3-1.2,2.2-0.8c0.4,0.2,0.7,0.5,0.8,0.8c0.3,0.6,0.9,1.1,1.6,1.1h0.7c0.2,0,0.4,0.2,0.4,0.4v1c0,0.2-0.2,0.4-0.4,0.4h-7.5
	C-1279.3,422.9-1279.5,422.7-1279.5,422.5z M-1280.9,441.9h1.9V440h-1.9V441.9z M-1280.9,430.3h1.9v-1.9h-1.9V430.3z M-1265.6,425.2
	v19.1c0,1.5-1.2,2.7-2.7,2.7h-14c-1.5,0-2.7-1.2-2.7-2.7v-19.1c0-1.5,1.2-2.7,2.7-2.7h1.5c0,0.9,0.8,1.7,1.7,1.7h7.5
	c0.9,0,1.7-0.8,1.7-1.7h1.5C-1266.8,422.5-1265.6,423.7-1265.6,425.2L-1265.6,425.2z M-1276.6,429.4c0,0.4,0.3,0.7,0.7,0.7h6
	c0.4,0,0.7-0.3,0.6-0.7c0-0.3-0.3-0.6-0.6-0.6h-6C-1276.3,428.7-1276.6,429-1276.6,429.4C-1276.6,429.4-1276.6,429.4-1276.6,429.4z
	 M-1276.6,435.2c0,0.4,0.3,0.7,0.7,0.7h5.4c0.4,0,0.7-0.3,0.7-0.6c0-0.4-0.3-0.7-0.6-0.7c0,0,0,0-0.1,0h-5.4
	C-1276.3,434.6-1276.6,434.9-1276.6,435.2C-1276.6,435.2-1276.6,435.2-1276.6,435.2z M-1277.7,439.3c0-0.4-0.3-0.7-0.7-0.7h-3.3
	c-0.4,0-0.7,0.3-0.7,0.7v3.3c0,0.4,0.3,0.7,0.7,0.7h3.3c0.4,0,0.7-0.3,0.7-0.7L-1277.7,439.3z M-1277.7,433.5c0-0.4-0.3-0.7-0.7-0.7
	h-3.3c-0.4,0-0.7,0.3-0.7,0.7v3.3c0,0.4,0.3,0.7,0.7,0.7h3.3c0.4,0,0.7-0.3,0.7-0.7L-1277.7,433.5z M-1277.7,427.7
	c0-0.4-0.3-0.7-0.7-0.7h-3.3c-0.4,0-0.7,0.3-0.7,0.7v3.3c0,0.4,0.3,0.7,0.7,0.7h3.3c0.4,0,0.7-0.3,0.7-0.7L-1277.7,427.7z
	 M-1268.9,441.1c0-0.4-0.3-0.7-0.7-0.7h-6.4c-0.4,0-0.7,0.3-0.6,0.7c0,0.3,0.3,0.6,0.6,0.6h6.4
	C-1269.2,441.8-1268.9,441.5-1268.9,441.1C-1268.9,441.1-1268.9,441.1-1268.9,441.1L-1268.9,441.1z M-1280.9,436.1h1.9v-1.9h-1.9
	V436.1z"/>
</svg>
