<?xml version="1.0" encoding="utf-8"?>
<!-- Generator: Adobe Illustrator 19.0.0, SVG Export Plug-In . SVG Version: 6.00 Build 0)  -->
<svg version="1.1" id="Layer_1" xmlns="http://www.w3.org/2000/svg" xmlns:xlink="http://www.w3.org/1999/xlink" x="0px" y="0px"
	 viewBox="-1281 418.5 28.1 29.5" style="enable-background:new -1281 418.5 28.1 29.5;" xml:space="preserve">
<style type="text/css">
	.st0{fill:#FFFFFF;}
</style>
<g>
	<path class="st0" d="M-1270.1,439.8c0.2-0.1,0.7-0.2,1.2,0.1l0.4-0.2l-1.5-2.4h-0.2l-0.6,0.4c-0.7,0.4-1.6,0.2-2-0.5
		c-0.1-0.2-0.2-0.5-0.2-0.7v-0.9l-3,0.1l0.1,0.9c0,0.8-0.6,1.4-1.4,1.4c0,0,0,0,0,0c-0.2,0-0.5-0.1-0.7-0.2l-0.8-0.5l-1.4,2.6
		l0.8,0.4c0.3,0.2,0.6,0.5,0.7,0.9c0.1,0.4,0,0.8-0.1,1.1c-0.1,0.2-0.3,0.4-0.5,0.5l-0.8,0.5l1.5,2.5l0.7-0.5
		c0.2-0.1,0.5-0.2,0.7-0.2c0.5,0,1,0.3,1.2,0.7c0.1,0.2,0.2,0.5,0.2,0.7v0.9l3-0.1l-0.1-0.9c0-0.8,0.6-1.4,1.4-1.4
		c0.3,0,0.5,0.1,0.7,0.2l0.8,0.5l1.4-2.6l-0.6-0.3c-0.1,0-0.1,0-0.2,0c-0.5,0-1,0-1.4-0.4c-0.2-0.2-0.4-0.6-0.4-1
		C-1271.1,440.6-1270.7,440-1270.1,439.8z M-1274.4,444.1c-1.5,0-2.8-1.2-2.8-2.8s1.2-2.8,2.8-2.8s2.8,1.2,2.8,2.8
		S-1272.8,444.1-1274.4,444.1z"/>
	<path class="st0" d="M-1264.8,430.6c3.1,0,5.7-2.5,5.7-5.7c0-3.1-2.5-5.7-5.7-5.7s-5.7,2.5-5.7,5.7c0,0,0,0,0,0
		C-1270.5,428-1267.9,430.6-1264.8,430.6z"/>
	<path class="st0" d="M-1257.2,431.2L-1257.2,431.2l-2.7-0.4c-1.4,1.2-3.1,1.8-4.9,1.8c-1.8,0-3.6-0.6-4.9-1.8
		c-0.9,0.1-2.6,0.4-2.7,0.4c-1.4,0.5-2.5,1.5-3.1,2.8h2.6c0.8,0,1.4,0.6,1.4,1.4v0.8l0.9-0.5c0.7-0.2,1.4,0,1.7,0.6l1.5,2.6
		c0.2,0.3,0.2,0.7,0.1,1.1s-0.3,0.7-0.7,0.9l-0.7,0.4l0.7,0.4c0.7,0.4,0.9,1.3,0.5,2l-1.2,2.1h12.6c1.2,0,2.1-0.9,2.1-2.1v-7.8
		C-1253.7,433.8-1255.1,431.8-1257.2,431.2z"/>
	<circle class="st0" cx="-1274.4" cy="441.4" r="1.3"/>
</g>
</svg>
