<?xml version="1.0" encoding="utf-8"?>
<!-- Generator: Adobe Illustrator 19.0.0, SVG Export Plug-In . SVG Version: 6.00 Build 0)  -->
<svg version="1.1" id="Layer_1" xmlns="http://www.w3.org/2000/svg" xmlns:xlink="http://www.w3.org/1999/xlink" x="0px" y="0px"
	 viewBox="-1284 424 22 19" style="enable-background:new -1284 424 22 19;" xml:space="preserve">
<style type="text/css">
	.st0{fill:#FFFFFF;}
</style>
<g id="menu" transform="translate(0 -6)">
	<path id="Path_1" class="st0" d="M-1264.1,430h-17.7c-1.2,0-2.1,0.7-2.1,1.5s1,1.5,2.1,1.5h17.7c1.2,0,2.1-0.7,2.1-1.5
		S-1263,430-1264.1,430z"/>
	<path id="Path_2" class="st0" d="M-1269.5,438h-12.9c-0.8,0-1.5,0.7-1.5,1.5c0,0.8,0.7,1.5,1.5,1.5h12.9c0.8,0,1.5-0.7,1.5-1.5
		C-1268.1,438.7-1268.7,438-1269.5,438L-1269.5,438z"/>
	<path id="Path_3" class="st0" d="M-1264.1,446h-17.7c-1.2,0-2.1,0.7-2.1,1.5s1,1.5,2.1,1.5h17.7c1.2,0,2.1-0.7,2.1-1.5
		S-1263,446-1264.1,446z"/>
</g>
</svg>
