<?xml version="1.0" encoding="utf-8"?>
<!-- Generator: Adobe Illustrator 19.0.0, SVG Export Plug-In . SVG Version: 6.00 Build 0)  -->
<svg version="1.1" id="Layer_1" xmlns="https://www.w3.org/2000/svg" xmlns:xlink="https://www.w3.org/1999/xlink" x="0px" y="0px"
	 viewBox="0 0 33.3 27.7" style="enable-background:new 0 0 33.3 27.7;" xml:space="preserve">
<style type="text/css">
	.st0{fill:#FFFFFF;}
</style>
<g id="XMLID_1_">
	<path id="XMLID_3_" class="st0" d="M2.8,10.7h3v15H2.1c-0.4,0-0.7-0.3-0.7-0.8V12.2C1.3,11.3,2,10.7,2.8,10.7z M25.3,8.2v17.5h-6
		v-6.8c0-0.4-0.3-0.8-0.8-0.8h-4.5c-0.4,0-0.8,0.3-0.8,0.8v6.8h-6V8.2c0-0.4,0.3-1,0.7-1.2l7.5-5c0.2-0.1,0.6-0.3,0.8-0.3
		s0.6,0.1,0.8,0.3l7.5,5C25.1,7.2,25.3,7.7,25.3,8.2z M20.1,9.9c0-2.1-1.7-3.8-3.8-3.8s-3.8,1.7-3.8,3.8s1.7,3.8,3.8,3.8
		S20.1,12,20.1,9.9z M18.6,10.3V11c0,0.2-0.2,0.4-0.4,0.4H16c-0.2,0-0.4-0.2-0.4-0.4V8c0-0.2,0.2-0.4,0.4-0.4h0.8
		c0.2,0,0.4,0.2,0.4,0.4v1.9h1.1C18.4,9.9,18.6,10.1,18.6,10.3z M31.3,12.2v12.8c0,0.4-0.3,0.8-0.8,0.8h-3.8v-15h3
		C30.7,10.7,31.3,11.3,31.3,12.2z"/>
</g>
</svg>
